<?xml version="1.0" encoding="utf-8"?>
<!-- Generator: Adobe Illustrator 24.0.1, SVG Export Plug-In . SVG Version: 6.00 Build 0)  -->
<svg version="1.1" xmlns="http://www.w3.org/2000/svg" xmlns:xlink="http://www.w3.org/1999/xlink" x="0px" y="0px"
	 viewBox="0 0 537.94 612" style="enable-background:new 0 0 537.94 612;" xml:space="preserve">
<style type="text/css">
	.st0{display:none;}
	.st1{display:inline;fill:#FFFFFF;stroke:#1D1D1B;stroke-miterlimit:10;}
	.st2{display:inline;fill:#FFFFFF;}
	.st3{fill:#F29258;}
	.st4{fill:#9B9592;}
	.st5{fill:#161818;}
	.st6{fill:#725944;}
	.st7{fill:#FFB103;}
	.st8{fill:#773810;}
	.st9{fill:#57240E;}
	.st10{fill:#C15D24;}
	.st11{fill:#F0D2A3;}
	.st12{fill:#BC7002;}
	.st13{fill:#5C3D2B;}
	.st14{fill:#68462D;}
	.st15{fill:#FFFFFF;}
	.st16{fill:#4D3520;}
	.st17{fill:#E42320;}
	.st18{fill:#FFBC97;}
	.st19{fill:#FDEEE6;}
	.st20{fill:#BC7B4E;}
	.st21{fill:#3D1112;}
	.st22{fill:#75312F;}
	.st23{fill:#FCC306;}
	.st24{fill-rule:evenodd;clip-rule:evenodd;fill:#BC7B4E;}
	.st25{fill:#7D4E25;}
	.st26{fill:#79844C;}
	.st27{fill:#3253A0;}
	.st28{fill:#87573D;}
	.st29{fill:#143984;}
	.st30{fill:#DD3D05;}
	.st31{fill:#6EB3E3;}
	.st32{opacity:0.5;}
	.st33{fill:#265CC6;}
	.st34{fill:#B72F00;}
	.st35{fill:#ECB079;}
	.st36{fill-rule:evenodd;clip-rule:evenodd;fill:#87573D;}
	.st37{fill:#56A9FC;}
	.st38{fill:#517005;}
	.st39{fill:#9DC947;}
	.st40{fill:#1D1D1B;}
	.st41{fill:#FF0000;}
	.st42{fill:#FFE000;}
	.st43{fill:#7D9928;}
	.st44{fill:#6CF1FF;}
	.st45{fill:#606060;}
	.st46{clip-path:url(#SVGID_2_);}
	.st47{fill:#7906B5;}
	.st48{fill:#AE00FF;}
	.st49{fill:#FF1066;}
	.st50{fill:#AA0045;}
	.st51{fill:#CEC2CB;}
	.st52{fill:#6D5E66;}
	.st53{fill:#BFBEBB;}
	.st54{fill:#F39200;}
	.st55{fill:#DBDBDB;}
	.st56{fill:#00659D;}
	.st57{fill:#00ABBC;}
	.st58{fill:#FC8890;}
	.st59{clip-path:url(#SVGID_4_);}
	.st60{fill:#FF9999;}
	.st61{fill:#D3A148;}
	.st62{fill:#E2C58A;}
	.st63{clip-path:url(#SVGID_6_);fill:#00ABBC;}
	.st64{fill:#B35D7F;}
	.st65{fill:#722142;}
	.st66{fill:#EEBC99;}
	.st67{fill:#D68F5F;}
	.st68{fill:#FF9B57;}
</style>
<g id="Capa_2" class="st0">
</g>
<g id="Capa_1">
	<g>
		<g>
			<path class="st51" d="M297.94,162.1c48.02,8.28,106.21,50.54,130.23,125.88c26.19,82.12-166.46-72.15-164.96-97.08
				S285.8,160,297.94,162.1z"/>
			<path class="st51" d="M397.58,294.05c0,0-16.94-72.75,57.63-89.5c43.19-9.7-3.45,107.52-28.05,109.24
				C402.56,315.52,397.58,294.05,397.58,294.05z"/>
			
				<ellipse transform="matrix(0.9508 -0.3097 0.3097 0.9508 -39.2368 146.5862)" class="st51" cx="442.12" cy="196.89" rx="9.6" ry="25.02"/>
			
				<ellipse transform="matrix(0.6028 -0.7979 0.7979 0.6028 32.9715 450.243)" class="st51" cx="468.69" cy="192.01" rx="25.02" ry="9.6"/>
			
				<ellipse transform="matrix(0.7887 -0.6147 0.6147 0.7887 -22.4058 341.974)" class="st51" cx="486.35" cy="203.59" rx="25.02" ry="9.6"/>
			
				<ellipse transform="matrix(0.9627 -0.2706 0.2706 0.9627 -41.5482 141.2258)" class="st51" cx="491.32" cy="221.27" rx="25.02" ry="9.6"/>
		</g>
		<g>
			<path class="st51" d="M211.06,200.42c-11.32,43.98-65.08,94.4-159.2,110.09c-102.6,17.09,93.22-148.59,124.17-144.98
				C206.98,169.13,213.93,189.3,211.06,200.42z"/>
			<g>
				
					<ellipse transform="matrix(0.5902 -0.8072 0.8072 0.5902 -271.1568 242.5926)" class="st51" cx="103.37" cy="388.38" rx="35.38" ry="13.12"/>
			</g>
			
				<ellipse transform="matrix(0.7797 -0.6261 0.6261 0.7797 -221.1414 135.7243)" class="st51" cx="82.32" cy="382.14" rx="26.48" ry="10.75"/>
			
				<ellipse transform="matrix(0.9752 -0.2214 0.2214 0.9752 -77.849 26.6378)" class="st51" cx="79.9" cy="360.58" rx="25.13" ry="11.33"/>
			<path class="st51" d="M47.47,274.85c0,0,74.33-6.15,79.02,84.53c2.71,52.52-105.35-24.34-103.15-53.54
				C25.53,276.65,47.47,274.85,47.47,274.85z"/>
		</g>
		<path class="st51" d="M128.86,335.12c0,0-27.4-198.55,117.34-190.18s113.35,190.18,113.35,190.18S224.62,426.44,128.86,335.12z"/>
		<path class="st51" d="M339.31,276.67c1.99-132.85-74.29-131.73-93.12-131.73c-18.83,0-95.11-1.13-93.12,131.73
			c0,0-124.43,225.03,89.01,239.47h8.23C463.74,501.7,339.31,276.67,339.31,276.67z"/>
		<ellipse class="st51" cx="247.39" cy="104.96" rx="54.2" ry="59.64"/>
		<path class="st51" d="M146.59,561.04c-10.09,1.5-30.03,5.41-30.03,5.41h30.03h13.54l24.46-83.43l-45.45-51.8L146.59,561.04z"/>
		<path class="st51" d="M344.5,561.26c10.09,1.5,30.03,5.41,30.03,5.41H344.5h-13.54l-24.46-83.43l45.45-51.8L344.5,561.26z"/>
		<g>
			<polygon class="st15" points="248.36,517.77 244.31,519.84 244.31,237.8 248.36,237.8 			"/>
			
				<rect x="230.74" y="207.22" transform="matrix(0.7071 -0.7071 0.7071 0.7071 -91.9118 230.9029)" class="st15" width="4.06" height="38.36"/>
			<path class="st15" d="M212.85,250.86c-5.64,0-10.23-4.59-10.23-10.24c0-5.64,4.59-10.24,10.23-10.24
				c5.65,0,10.24,4.59,10.24,10.24C223.09,246.27,218.5,250.86,212.85,250.86z M212.85,234.44c-3.4,0-6.18,2.78-6.18,6.18
				c0,3.41,2.78,6.18,6.18,6.18c3.41,0,6.18-2.78,6.18-6.18C219.03,237.22,216.26,234.44,212.85,234.44z"/>
			<path class="st15" d="M213.77,216.93c-5.64,0-10.24-4.59-10.24-10.24c0-5.64,4.59-10.24,10.24-10.24
				c5.64,0,10.24,4.59,10.24,10.24C224,212.34,219.41,216.93,213.77,216.93z M213.77,200.51c-3.41,0-6.18,2.77-6.18,6.18
				c0,3.41,2.78,6.18,6.18,6.18c3.41,0,6.18-2.78,6.18-6.18C219.95,203.28,217.18,200.51,213.77,200.51z"/>
			
				<rect x="240.71" y="224.37" transform="matrix(0.7072 -0.7071 0.7071 0.7072 -83.9703 250.0529)" class="st15" width="38.35" height="4.05"/>
			<path class="st15" d="M278.9,216.93c-5.65,0-10.24-4.59-10.24-10.24c0-5.64,4.59-10.24,10.24-10.24
				c5.64,0,10.24,4.59,10.24,10.24C289.13,212.34,284.54,216.93,278.9,216.93z M278.9,200.51c-3.41,0-6.18,2.77-6.18,6.18
				c0,3.41,2.78,6.18,6.18,6.18c3.4,0,6.18-2.78,6.18-6.18C285.08,203.28,282.3,200.51,278.9,200.51z"/>
			<polygon class="st15" points="237.27,360.12 233.22,360.12 233.22,263.79 217.27,247.81 220.13,244.95 237.27,262.11 			"/>
			<path class="st15" d="M212.99,297.64c-5.64,0-10.23-4.59-10.23-10.24c0-5.64,4.59-10.24,10.23-10.24
				c5.65,0,10.24,4.59,10.24,10.24C223.23,293.04,218.64,297.64,212.99,297.64z M212.99,281.21c-3.4,0-6.18,2.78-6.18,6.18
				c0,3.41,2.78,6.18,6.18,6.18c3.41,0,6.18-2.78,6.18-6.18C219.17,283.99,216.4,281.21,212.99,281.21z"/>
			<polygon class="st15" points="237.41,517.3 233.36,519.84 233.36,310.56 217.41,294.58 220.27,291.72 237.41,308.89 			"/>
			<path class="st15" d="M173.36,253.11c-5.64,0-10.23-4.59-10.23-10.24c0-5.64,4.59-10.24,10.23-10.24
				c5.65,0,10.24,4.59,10.24,10.24C183.6,248.52,179.01,253.11,173.36,253.11z M173.36,236.69c-3.4,0-6.18,2.78-6.18,6.18
				c0,3.41,2.78,6.18,6.18,6.18c3.41,0,6.18-2.78,6.18-6.18C179.55,239.47,176.78,236.69,173.36,236.69z"/>
			<polygon class="st15" points="233.22,277.16 177.78,250.06 180.64,247.19 233.44,273.99 			"/>
			<path class="st15" d="M311.02,242.87c0-5.64,4.59-10.24,10.24-10.24c5.64,0,10.23,4.59,10.23,10.24
				c0,5.65-4.59,10.24-10.23,10.24C315.62,253.11,311.02,248.52,311.02,242.87z M315.08,242.87c0,3.41,2.77,6.18,6.18,6.18
				c3.4,0,6.18-2.78,6.18-6.18c0-3.4-2.78-6.18-6.18-6.18C317.85,236.69,315.08,239.47,315.08,242.87z"/>
			<polygon class="st15" points="261.41,277.16 316.85,250.06 313.98,247.19 261.19,273.99 			"/>
			<path class="st15" d="M271.74,316.42c0-5.64,4.59-10.24,10.24-10.24c5.64,0,10.23,4.59,10.23,10.24
				c0,5.65-4.59,10.24-10.23,10.24C276.33,326.66,271.74,322.07,271.74,316.42z M275.79,316.42c0,3.41,2.77,6.18,6.18,6.18
				c3.4,0,6.18-2.78,6.18-6.18c0-3.4-2.78-6.18-6.18-6.18C278.56,310.23,275.79,313.01,275.79,316.42z"/>
			<polygon class="st15" points="257.55,360.8 261.61,360.8 261.61,339.59 277.56,323.61 274.7,320.74 257.55,337.91 			"/>
			<path class="st15" d="M212.85,368.64c-5.64,0-10.23-4.59-10.23-10.24c0-5.64,4.59-10.24,10.23-10.24
				c5.65,0,10.24,4.59,10.24,10.24C223.09,364.05,218.5,368.64,212.85,368.64z M212.85,352.22c-3.4,0-6.18,2.78-6.18,6.18
				c0,3.41,2.78,6.18,6.18,6.18c3.41,0,6.18-2.78,6.18-6.18C219.03,355,216.26,352.22,212.85,352.22z"/>
			<polygon class="st15" points="237.27,402.78 233.22,402.78 233.22,381.57 217.27,365.59 220.13,362.73 237.27,379.89 			"/>
			<path class="st15" d="M271.74,240.77c0-5.64,4.59-10.24,10.24-10.24c5.64,0,10.23,4.59,10.23,10.24
				c0,5.65-4.59,10.24-10.23,10.24C276.33,251.01,271.74,246.42,271.74,240.77z M275.79,240.77c0,3.41,2.77,6.18,6.18,6.18
				c3.4,0,6.18-2.78,6.18-6.18c0-3.4-2.78-6.18-6.18-6.18C278.56,234.59,275.79,237.37,275.79,240.77z"/>
			<polygon class="st15" points="257.55,516.14 261.61,514.74 261.61,263.94 277.56,247.96 274.7,245.09 257.55,262.26 			"/>
		</g>
		<ellipse class="st15" cx="232.18" cy="110.59" rx="3.9" ry="15.05"/>
		<ellipse class="st15" cx="263.2" cy="110.59" rx="3.9" ry="15.05"/>
		<path class="st52" d="M201.25,136.26c0,0,14.05,30.15,46.14,28.33c32.09-1.82,44.54-25.65,44.54-25.65s-19.7,21.43-44.54,21.43
			C219.53,160.38,201.25,136.26,201.25,136.26z"/>
		<path class="st52" d="M141.76,476.92c0,0,14.02,27.22,34.99,32.85l2.13-7.25C178.88,502.52,151.71,491.62,141.76,476.92z"/>
		<path class="st52" d="M349.44,478.38c0,0-14.34,25.76-35.3,31.39l-2.13-7.25C312.01,502.52,339.49,493.08,349.44,478.38z"/>
		<g>
			<path class="st15" d="M247.76,146.5c-14.22,0-23.89-8.39-24.03-8.51c-0.62-0.55-0.67-1.5-0.12-2.12c0.55-0.62,1.5-0.68,2.12-0.12
				l0,0c0.78,0.69,19.34,16.69,42.99,0.93c0.69-0.46,1.62-0.27,2.08,0.42c0.46,0.69,0.27,1.62-0.42,2.08
				C262.18,144.64,254.47,146.5,247.76,146.5z"/>
		</g>
		<path class="st52" d="M153.41,187.47c0,0-36.39,42.92-26.86,100.25C126.55,287.71,139.02,216.93,153.41,187.47z"/>
		<path class="st52" d="M335.05,187.47c0,0,36.39,42.92,26.86,100.25C361.91,287.71,349.44,216.93,335.05,187.47z"/>
	</g>
</g>
</svg>
