<?xml version="1.0" encoding="utf-8"?>
<!-- Generator: Adobe Illustrator 24.0.1, SVG Export Plug-In . SVG Version: 6.00 Build 0)  -->
<svg version="1.1" xmlns="http://www.w3.org/2000/svg" xmlns:xlink="http://www.w3.org/1999/xlink" x="0px" y="0px"
	 viewBox="0 0 411.07 654.66" style="enable-background:new 0 0 411.07 654.66;" xml:space="preserve">
<style type="text/css">
	.st0{display:none;}
	.st1{display:inline;fill:#FFFFFF;stroke:#1D1D1B;stroke-miterlimit:10;}
	.st2{display:inline;fill:#FFFFFF;}
	.st3{fill:#F29258;}
	.st4{fill:#9B9592;}
	.st5{fill:#161818;}
	.st6{fill:#725944;}
	.st7{fill:#FFB103;}
	.st8{fill:#773810;}
	.st9{fill:#57240E;}
	.st10{fill:#C15D24;}
	.st11{fill:#F0D2A3;}
	.st12{fill:#BC7002;}
	.st13{fill:#5C3D2B;}
	.st14{fill:#68462D;}
	.st15{fill:#FFFFFF;}
	.st16{fill:#4D3520;}
	.st17{fill:#E42320;}
	.st18{fill:#FFBC97;}
	.st19{fill:#FDEEE6;}
	.st20{fill:#BC7B4E;}
	.st21{fill:#3D1112;}
	.st22{fill:#75312F;}
	.st23{fill:#FCC306;}
	.st24{fill-rule:evenodd;clip-rule:evenodd;fill:#BC7B4E;}
	.st25{fill:#7D4E25;}
	.st26{fill:#79844C;}
	.st27{fill:#3253A0;}
	.st28{fill:#87573D;}
	.st29{fill:#143984;}
	.st30{fill:#DD3D05;}
	.st31{fill:#6EB3E3;}
	.st32{opacity:0.5;}
	.st33{fill:#265CC6;}
	.st34{fill:#B72F00;}
	.st35{fill:#ECB079;}
	.st36{fill-rule:evenodd;clip-rule:evenodd;fill:#87573D;}
	.st37{fill:#56A9FC;}
	.st38{fill:#517005;}
	.st39{fill:#9DC947;}
	.st40{fill:#1D1D1B;}
	.st41{fill:#FF0000;}
	.st42{fill:#FFE000;}
	.st43{fill:#7D9928;}
	.st44{fill:#6CF1FF;}
	.st45{fill:#606060;}
	.st46{clip-path:url(#SVGID_2_);}
	.st47{fill:#7906B5;}
	.st48{fill:#AE00FF;}
	.st49{fill:#FF1066;}
	.st50{fill:#AA0045;}
	.st51{fill:#CEC2CB;}
	.st52{fill:#6D5E66;}
	.st53{fill:#BFBEBB;}
	.st54{fill:#F39200;}
	.st55{fill:#DBDBDB;}
	.st56{fill:#00659D;}
	.st57{fill:#00ABBC;}
	.st58{fill:#FC8890;}
	.st59{clip-path:url(#SVGID_4_);}
	.st60{fill:#FF9999;}
	.st61{fill:#D3A148;}
	.st62{fill:#E2C58A;}
	.st63{clip-path:url(#SVGID_6_);fill:#00ABBC;}
	.st64{fill:#B35D7F;}
	.st65{fill:#722142;}
	.st66{fill:#EEBC99;}
	.st67{fill:#D68F5F;}
	.st68{fill:#FF9B57;}
</style>
<g id="Capa_2" class="st0">
</g>
<g id="Capa_1">
	<g>
		<g>
			<path class="st3" d="M176.62,457.44c1.61,1.69,17.03,91.95,15.48,126.93l-14.58,0.73c0,0-18.77-80.25-38.98-131.54
				C138.53,453.56,161.07,441.12,176.62,457.44z"/>
		</g>
		<g>
			<path class="st3" d="M272.34,458.93c0,0-1.77,119.42-7.6,121.75s-15.93-3.11-15.93-3.11l-16.63-112.36L272.34,458.93z"/>
		</g>
		<g>
			<rect x="134.96" y="608.43" class="st4" width="72.65" height="7.29"/>
		</g>
		<g>
			<path class="st4" d="M241.99,584.89c0.49-0.73,0.61-5.77,0.61-9.73l28.24,0.72c3.06,6.96,5.38,20.55,7.94,29.65
				c1.04,3.69,0.59,12,0.59,12s-13.12,1.7-17.16,2.04c-4.04,0.33-25.25,2.08-25.25-2.04c0-0.78,0.31-8.89,0.78-11.98
				C238.89,597.97,241.03,586.32,241.99,584.89z"/>
		</g>
		<path class="st5" d="M203.54,580.74l-24.28-0.63c0.37-6.92-0.04-14.09-0.04-14.09c-5.83-5.93-23.42,3.79-17.91,10.07
			c2.53,2.88,4.69,6.86,6.77,10.22c-1.29,2.13-2.82,4.24-4.47,5.62c-4.58,3.83-21.67,10.77-26.32,12.99
			c-1.59,0.76-2.15,2.25-2.32,3.52h72.65C207.28,605.07,205.62,589.03,203.54,580.74z"/>
		<path class="st5" d="M270.83,575.88l-0.35-0.01c1.46-3.94,3.63-8.1,4.06-10.85c0.78-5.05-16.65-3.11-25.98-5.06
			c-9.33-1.94-15.54,3.11-11.27,7.38c2.09,2.09,4.46,5.2,6.33,7.84l-1.02-0.03c0,3.95-0.12,9-0.61,9.73
			c-0.96,1.44-3.88,19.36-5.05,26.94c3.86,2.83,17.86,4.41,21.44,4.12c3.2-0.26,16.98-0.92,20.98-3.65
			C279.36,602.68,273.89,582.83,270.83,575.88z"/>
		<g>
			<path class="st3" d="M205.01,231.25c0,0-66.21,49.28-73.47,41.04c-7.26-8.24-18.95-60.62-39.24-102.97l11.75-1.37
				c0,0,25.21,39.14,38.99,70.54l56.94-36.14C199.99,202.36,212.06,221.35,205.01,231.25z"/>
		</g>
		<g>
			<path class="st6" d="M267.73,372.7l11.58,98.64l-30.77,7.62l-27.75-2.91l-7.14-86.8l3.44-55.17
				C217.09,334.09,263.4,291.79,267.73,372.7z"/>
		</g>
		<g>
			<path class="st6" d="M211.66,374.21l-25.85,96.24h-29.47l-26.14-10l45.32-138.68C175.52,321.77,232.68,295.96,211.66,374.21z"/>
		</g>
		<g>
			<path class="st7" d="M208.91,181.37c0,0-19.45-2.35-42.15,26.53c-2.08,2.65-17,17.57-17,17.57s9.94,30.47,26.97,36.7
				c0,0,35.19-35.55,35.33-58.98C212.19,179.75,208.91,181.37,208.91,181.37z"/>
		</g>
		<g>
			<path class="st6" d="M259.78,329.98l-84.26-8.21c0,0-4.64,31,1.5,54.8c5.37,20.83,64.45,24.47,90.7-3.87L259.78,329.98z"/>
		</g>
		<g>
			<path class="st3" d="M243.69,179.75c-0.73,0.73-32.86,39.62-32.86,39.62s0.7-29.75,1.05-37.39c0.1-2.36,0.18-4.06,0.18-4.43
				c0-3.05-2.61-16.28-2.61-16.28l32.46-14.84c0,0,0.51,6.69,1.01,14.08C243.52,169.42,244.09,179.35,243.69,179.75z"/>
		</g>
		<g>
			<path class="st3" d="M246.35,147.56c0,0-0.81,2.34-4.44,5.55h-0.01c-0.74,0.66-1.61,1.36-2.6,2.07
				c-3.81,2.73-8.46,27.27-40.15,19.87c-8.55-2-16.76-18.59-19.43-25.43c-4.47-11.46-2.94-48.57-2.94-48.57
				c13.55-41.01,61.88-19.77,67.37-15.75C249.65,89.34,246.35,147.56,246.35,147.56z"/>
		</g>
		<g>
			<path class="st8" d="M238.24,118.96c1.79,4.05,4.17,8.3,3.23,12.63c-0.61,2.81-2.55,5.18-3.22,7.97
				c-0.9,3.77,0.66,7.68,2.44,11.12c1.79,3.47,4.18,7.08,7.93,8.16c-0.56-2.52-0.23-5.23,0.91-7.55c0.08,3,2.2,5.83,5.04,6.75
				c-0.27-2.02,0.01-4.11,0.82-6c0.42,2.87,3.7,4.94,6.46,4.09c-2.37-1.62-3.34-5-2.19-7.63c0.05-0.12,0.1-0.23,0.17-0.34
				c2.43-4.79,10.34-5.89,11.15-11.25c0.56-3.68-2.82-7.03-2.5-10.74c0.29-3.39,3.46-5.7,5.18-8.63c0.76-1.3,1.2-2.77,1.32-4.26
				c0.11-1.02,0.06-2.07-0.12-3.09c-0.02-0.12-0.04-0.24-0.07-0.36c-0.45-2.14-1.52-4.14-3.13-5.63c-0.51-0.47-1.08-0.91-1.46-1.48
				c-0.09-0.14-0.18-0.29-0.25-0.46c-0.4-0.99-0.09-2.11,0.1-3.17c0.08-0.45,0.13-0.89,0.16-1.35c0.23-3.31-0.88-6.7-3.05-9.23
				c-0.21-0.24-0.43-0.48-0.66-0.7c-2.12-2.1-4.98-3.43-7.95-3.71c-0.46-0.04-0.93-0.06-1.4-0.05l-2.5-3.41
				c-1.81,1.25-4.24,0.67-6.44,0.68c-3.78,0.01-7.28,1.98-9.77,4.86c-1.01,1.14-1.85,2.43-2.49,3.79c-0.64,1.37-1.11,2.8-1.43,4.27
				c-0.05,0.23-0.09,0.46-0.14,0.7c-0.1,0.5-0.17,1-0.23,1.49c-0.37,3-0.21,6.09,0.22,9.09
				C235.05,110.14,236.35,114.68,238.24,118.96z"/>
		</g>
		<g>
			<path class="st8" d="M181.58,131.9l-3.95-30.03c1.66-1.45,2.01-2.77,2.67-4.81c0.31-0.95,0.5-1.93,1-2.8
				c2.46-4.25,10.43-3,12.4-7.49c0.45-1.03,0.84-1.95,1.23-2.87c0.38,0.35,0.79,0.67,1.21,0.94c4.2,2.7,9.73,2.61,13.93,5.32
				c2.42,1.57,4.2,3.95,6.58,5.57c2.51,1.73,5.65,2.53,8.69,2.21c2.91-0.3,5.7-1.58,8.63-1.53c0.06,0,0.12,0,0.18,0.01
				c-0.37,3-0.21,6.09,0.22,9.09c0.67,4.63,1.98,9.17,3.87,13.45c1.79,4.05,4.17,8.3,3.23,12.63c-0.61,2.81-2.55,5.18-3.22,7.97
				c-0.9,3.77,0.66,7.68,2.44,11.12c1.79,3.47,4.18,7.08,7.93,8.16c-0.56-2.52-0.23-5.23,0.91-7.55c0.08,3,2.2,5.83,5.04,6.75
				c-0.27-2.02,0.01-4.11,0.82-6c0.42,2.87,3.7,4.94,6.46,4.09c-2.37-1.62-3.34-5-2.19-7.63c0.05-0.12,0.1-0.23,0.17-0.34
				c-1.37-1.79-1.54-3.9,1.23-6.14c-0.72,0.07-1.43,0.15-2.14,0.22c-0.12-3.29,2.99-5.63,4.91-8.3c2.72-3.79,3.16-9.09,1.08-13.26
				c-0.2,1.32-2.28,1.52-3.13,0.49c-0.85-1.02-0.71-2.54-0.29-3.81c0.43-1.26,1.1-2.47,1.19-3.8c-1.77,0.92-4.02-0.6-4.61-2.5
				c-0.59-1.9-0.03-3.95,0.53-5.87c-0.92,1.71-3.62,1.74-5.05,0.42c-1.43-1.32-1.79-3.46-1.64-5.4c0.15-1.94,0.72-3.84,0.81-5.78
				c0.24-4.72-2.59-9.44-6.85-11.46c1.19,1.87,1.14,4.44-0.12,6.25c-1.88-2.06-4.5-2.71-7.33-3.05c-4.03-0.5-8.45-0.35-11.63-2.73
				c-2.64-1.98-3.87-5.33-6.2-7.67c-3.27-3.28-8.74-4.11-12.84-1.93c-1.99,1.06-3.65,2.73-5.77,3.49c-2.12,0.76-5.07,0.09-5.61-2.1
				c0.33,4.27-5.12,7.74-8.84,5.63c-0.81,4.66-6.58,7.7-10.88,5.72c0.65,5,0.79,11.15-3.47,13.85c-0.02,3.2-1.39,6.3-3.57,8.64
				C174.6,119.07,181.58,131.9,181.58,131.9z"/>
		</g>
		<g>
			<path class="st9" d="M181.3,132.42l-3.97-30.19c1.67-1.46,2.02-2.78,2.69-4.84c0.31-0.95,0.5-1.94,1-2.81
				c2.47-4.28,10.48-3.02,12.46-7.53c0.46-1.04,0.85-1.96,1.24-2.89c0.38,0.35,0.79,0.67,1.21,0.94c4.22,2.72,9.78,2.63,14,5.35
				c2.43,1.58,4.23,3.97,6.62,5.6c2.52,1.74,5.68,2.54,8.74,2.22c2.93-0.3,5.73-1.59,8.67-1.54c0.06,0,0.12,0,0.18,0.01
				c-0.37,3.01-0.21,6.12,0.22,9.13c0.68,4.65,1.99,9.22,3.89,13.52c1.8,4.07,4.19,8.34,3.25,12.69c-0.61,2.83-2.56,5.2-3.23,8.01
				c-0.91,3.79,0.66,7.71,2.45,11.18c1.8,3.49,4.2,7.11,7.97,8.2c-0.56-2.53-0.23-5.26,0.92-7.59c0.08,3.01,2.21,5.86,5.06,6.79
				c-0.27-2.03,0.01-4.14,0.82-6.03c0.42,2.89,3.72,4.96,6.5,4.11c-2.38-1.63-3.36-5.03-2.2-7.67c0.05-0.12,0.1-0.24,0.17-0.35
				c-1.38-1.8-1.55-3.92,1.24-6.18c-0.72,0.07-1.44,0.15-2.15,0.22c-0.12-3.31,3-5.66,4.94-8.34c2.73-3.81,3.17-9.14,1.09-13.33
				c-0.2,1.33-2.29,1.52-3.15,0.49c-0.85-1.02-0.71-2.55-0.29-3.83c0.43-1.27,1.1-2.48,1.19-3.82c-1.78,0.93-4.04-0.6-4.63-2.52
				c-0.59-1.91-0.03-3.98,0.53-5.9c-0.93,1.72-3.64,1.75-5.07,0.42c-1.44-1.33-1.8-3.48-1.65-5.43c0.15-1.95,0.72-3.86,0.82-5.81
				c0.24-4.74-2.6-9.49-6.88-11.52c1.19,1.88,1.14,4.46-0.13,6.29c-1.88-2.07-4.53-2.72-7.37-3.06c-4.05-0.5-8.49-0.35-11.69-2.74
				c-2.66-1.99-3.89-5.36-6.24-7.71c-3.29-3.3-8.79-4.13-12.9-1.94c-2,1.07-3.67,2.75-5.8,3.51c-2.14,0.77-5.1,0.09-5.64-2.11
				c0.33,4.29-5.15,7.78-8.89,5.66c-0.81,4.68-6.62,7.74-10.93,5.75c0.65,5.03,0.79,11.21-3.49,13.93c-0.02,3.22,1.84,4.94-0.35,7.3
				C177.52,118.13,181.3,132.42,181.3,132.42z"/>
		</g>
		<g>
			<path class="st3" d="M241.11,149.01c7.34-0.58,12.69-4.93,15.55-8.58c0.25-0.37,0.46-0.73,0.65-1.06c2.1-3.8,2.7-16.99-2.7-20.05
				c-3.06-1.74-5.45-0.03-6.95,1.78c0,0,0,0.01,0,0.01c-0.56,0.87-0.86,1.56-0.86,1.56L241.11,149.01z"/>
		</g>
		<g>
			<g>
				<path class="st8" d="M164.94,98.62c0.55,1.87,2.41,5.87,4.69,10.46c4.97,10,11.94,22.83,11.94,22.83l-3.95-30.03
					c1.66-1.45,2.01-2.77,2.67-4.81c0.31-0.95,0.5-1.93,1-2.8c2.46-4.25,10.43-3,12.4-7.49c0.45-1.03,0.84-1.95,1.23-2.87
					c0.38,0.35,0.79,0.67,1.21,0.94c4.2,2.7,9.73,2.61,13.93,5.32c2.42,1.57,4.2,3.95,6.58,5.57c2.51,1.73,5.65,2.53,8.69,2.21
					c2.91-0.3,5.7-1.58,8.63-1.53c0.06,0,0.12,0,0.18,0.01c0.49,0.02,0.98,0.07,1.47,0.16c0.87,2.31,1.31,4.77,1.7,7.23
					c0.29,1.78,0.55,3.59,1.33,5.23c1.12,2.38,3.23,4.2,4.22,6.63c1.74,4.26-2.25,14.84,0.96,18.13c-0.82-5.72,5.71-11.72,5.83-11.6
					c4.8,0.62,8.83,0.09,12.15-1.05c6.59-2.25,10.43-6.85,12.15-9.45c0.39,0.48,0.75,1,1.05,1.55c0.11-1.02,0.06-2.07-0.12-3.09
					c0.12-0.23,0.18-0.35,0.18-0.35c-0.09,0-0.18,0-0.26-0.01c-0.45-2.14-1.52-4.14-3.13-5.63c-0.51-0.47-1.08-0.91-1.46-1.48
					c0.01-0.51,0.04-1.02,0.07-1.53c0.06-1.14,0.11-2.32-0.06-3.45c0.23-3.31-0.88-6.7-3.05-9.23c-0.21-0.24-0.43-0.48-0.66-0.7
					c0.53-0.18,1.11-0.29,1.8-0.28c2.85,0.04,5.85,1.39,7.92,3.3c-0.84-1.85-1.96-3.62-3.55-4.89c-1.59-1.27-3.68-2-5.69-1.65
					c2.39-2.78,2.69-7.15,0.7-10.22c-0.34,3.17-2.04,6.16-4.56,8.11c0.39-4.89,1.68-10.07-1.44-13.63
					c-2.98-3.41-8.45-3.34-12.28-5.82c-3.29-2.12-5.27-6.06-9-7.32c-3.88-1.3-8.13,0.79-12.19,0.25c-4.01-0.54-7.26-3.55-11.2-4.39
					c-4.34-0.93-8.82,1.01-12,4.11c-2.91-2.31-6.7-3.57-10.46-3.38c-3.63,0.17-7.54,2.05-8.49,5.45c-0.4,1.46-0.23,3.05-0.78,4.47
					c-0.95,2.45-3.71,3.66-6.1,4.87c-2.4,1.21-4.94,3.16-4.81,5.77c0.07,1.52,1.09,2.91,1.04,4.44c-0.08,2.84-3.47,4.29-5.36,6.46
					c-1.79,2.08-2.2,5.01-1.73,7.69c-1.74,1.49-3.31,3.41-3.54,5.54C164.69,97.29,164.74,97.95,164.94,98.62z M205.98,82.68
					c0.65-0.04,1.3-0.03,1.95,0.1c3.01,0.59,5.07,3.38,7.88,4.63c4.07,1.81,9,0.11,13.16,1.7c2.41,0.91,4.29,2.86,5.56,5.13
					c0.15,0.27,0.3,0.54,0.43,0.81c-0.19-0.04-0.38-0.09-0.57-0.12c-1.4-0.29-2.86-0.36-4.34-0.18c-1.5,0.18-2.99,0.59-4.5,0.52
					c-2.83-0.13-5.32-1.9-7.4-3.84c-2.08-1.93-3.99-4.14-6.5-5.46c-1.65-0.86-3.53-1.35-4.94-2.56
					C206.43,83.18,206.19,82.94,205.98,82.68z"/>
			</g>
		</g>
		<g>
			<path class="st3" d="M76.76,137.38c-1.36,1.12,9.01,25.43,11.17,27.23l3.31,2.08l7.81,17.74c0,0-0.66-5.85,2.04-6.92
				c1.46-0.57,3.05-1.42,4.48-2.63c0.8-0.67,4.3,7.39,4.95,6.46c0.34-0.48-4.62-15.96-4.62-15.96s7.48-5.26,7.31-10.32
				c-0.1-2.98-0.19-6.01,0.83-8.82c0.53-1.47,1.26-2.87,1.62-4.39c0.36-1.52,0.31-3.24-0.63-4.5c-0.11-0.15-0.23-0.29-0.4-0.36
				c-0.35-0.15-0.74,0.05-1.06,0.29c-0.04,0.02-0.07,0.05-0.1,0.07c-3.41,2.75-5.84,6.71-6.76,10.99c0,0-7.99-12.31-8.98-16.32
				c0,0-4.3-7.86-5.94-7.36c-0.61,0.19-1.08,0.49-1.42,0.8c-0.6,0.52-0.85,1.06-0.85,1.06s6.79,17.79,6.49,18.63
				c-0.31,0.85-10.01-13.39-11.56-13.71c-0.44-0.09-0.98,0.17-1.51,0.62c-0.49,0.4-0.98,0.95-1.41,1.48
				c-0.72,0.88-1.24,1.71-1.24,1.71s-0.2,0.09-0.53,0.25c-0.44,0.23-1.09,0.58-1.76,0.99C77.56,136.78,77.13,137.07,76.76,137.38z"
				/>
		</g>
		<g>
			<g>
				<g>
					<path class="st10" d="M81.53,133.56c0.24,0.44,0.48,0.88,0.74,1.31c1.53,2.57,3.21,4.71,4.5,6.19c1.22,1.38,2.09,2.2,2.19,2.3
						c-0.06-0.13-0.54-1.22-1.35-2.86c-0.87-1.76-2.1-4.13-3.6-6.65c-0.36-0.61-0.73-1.2-1.08-1.76
						C82.44,132.48,81.95,133.02,81.53,133.56z"/>
				</g>
			</g>
			<g>
				<g>
					<path class="st10" d="M77.99,136.51c2.35,4.13,4.94,7.04,5.11,7.22c-0.06-0.24-1.12-3.99-3.35-8.21
						C79.31,135.75,78.66,136.1,77.99,136.51z"/>
				</g>
			</g>
		</g>
		<g>
			<path class="st7" d="M174.93,341.4c0,0.02,7.13,3.09,7.13,3.09l8.14,9.62l11.86-24.19l12.12,27.51l31.35-13l12.68,3.6l0.11,0
				c0,0,24.62-145.95-5.8-167.53c-2.42-1.72-5.16-2.65-8.24-2.65l-0.61-4.8l-22.36,26.26l-10.48,20.05l1.22-40.35
				c0,0-4.68,2.71-5.58,5.8c0,0-0.06,0.01-0.19,0.03c-1.34,0.22-9.64,1.8-16.86,8.09c-0.25,0.22-0.51,0.44-0.75,0.68
				c-2.17,2.01-4.22,4.46-5.91,7.46c-8.5,15.02-5.7,84.73-13.05,138.49C169.71,339.65,174.93,341.36,174.93,341.4z"/>
		</g>
		<g>
			<path class="st11" d="M220.01,298.22c0,0,4.81,36.34,10.52,47.38c5.7,11.04,78.42,72.19,75.11-11.55
				c-3.3-83.73-44.02-28.77-67.38-45.99L220.01,298.22z"/>
		</g>
		<g>
			<g>
				<g>
					<g>
						<g>
							<path class="st12" d="M212.06,179.02l-0.67,21.97l-13.71,12.89c0.06-8.38,8.46-27.86,8.81-29.05
								C207.39,181.72,212.06,179.02,212.06,179.02z"/>
						</g>
						<g>
							<polygon class="st12" points="217.09,204.28 233.95,215.85 252.52,180.5 243.67,173.06 							"/>
						</g>
					</g>
				</g>
			</g>
		</g>
		<g>
			<path class="st12" d="M270.72,250.73l-0.12,11.44c7.89,0.83,39.45-3.74,43.19-26.16C313.78,236,285.71,207.25,270.72,250.73z"/>
		</g>
		<g>
			<path class="st13" d="M222.78,316.09c0,0,47.7,22.77,77.41-17.58l3.64,15.89c0,0-12.69,33.3-77.17,24.26L222.78,316.09z"/>
		</g>
		<g>
			<path class="st13" d="M238.02,354.14c1.83-0.19,49.3,7.58,67.62-20.08v15.12c0,0-11.83,21.03-51.89,17.26
				c0,0-5.33-2.71-7.27-4.15C244.23,360.61,238.02,354.14,238.02,354.14z"/>
		</g>
		<g>
			<g>
				<path class="st3" d="M261.75,365.48c4.88-1.77,11.92-6.22,11.92-6.22c-0.33-1.08-0.91-2.2-1.66-3.32
					c-0.31-0.47-0.65-0.94-1.01-1.41c-0.81-1.03-1.74-2.06-2.74-3.04c-0.43-0.44-0.87-0.87-1.32-1.28c-1.2-1.11-2.44-2.16-3.63-3.11
					c-0.5-0.41-1-0.8-1.48-1.17c-1.3-0.99-2.46-1.82-3.34-2.43c-1.02-0.7-1.65-1.11-1.65-1.11c-3.81,2.85-6.77,9.78-6.77,9.78
					c0.69,1.68,1.73,3.26,2.93,4.71C257.73,362.56,261.75,365.48,261.75,365.48z"/>
			</g>
			<g>
				<g>
					<g>
						<path class="st10" d="M257.49,352.15c0,0,0.56-0.36,1.35-0.95c0.8-0.59,1.83-1.38,2.84-2.36c0.62-0.59,1.16-1.19,1.63-1.75
							c-0.5-0.41-1-0.8-1.48-1.17c-0.57,0.33-1.17,0.76-1.72,1.29c-1.12,1.08-1.81,2.35-2.18,3.31
							C257.57,351.49,257.49,352.15,257.49,352.15z"/>
					</g>
				</g>
				<g>
					<g>
						<path class="st10" d="M262.56,356.05c0,0,0.57-0.3,1.35-0.8c0.79-0.51,1.81-1.22,2.8-2.13c0.59-0.54,1.1-1.1,1.55-1.62
							c-0.43-0.44-0.87-0.87-1.32-1.28c-0.58,0.31-1.19,0.72-1.76,1.25c-1.07,0.99-1.76,2.17-2.14,3.07
							C262.66,355.43,262.56,356.05,262.56,356.05z"/>
					</g>
				</g>
				<g>
					<g>
						<path class="st10" d="M265.95,360.88c0,0,0.6-0.3,1.44-0.84c0.84-0.55,1.92-1.31,2.97-2.29c0.64-0.6,1.19-1.23,1.66-1.81
							c-0.31-0.47-0.65-0.94-1.01-1.41c-0.71,0.38-1.48,0.9-2.19,1.58c-1.11,1.05-1.85,2.26-2.27,3.19
							C266.1,360.24,265.95,360.88,265.95,360.88z"/>
					</g>
				</g>
			</g>
		</g>
		<g>
			<path class="st14" d="M210.46,392.28c-0.98-0.07-17.5-2.26-22.9-12.62"/>
		</g>
		<g>
			<path class="st3" d="M293.98,226.65c0,0,46.73,53.69,39.74,62.15c-7,8.46-24.49,28.39-63.12,55.09l-16.84-7.59
				c0,0,23.91-26.27,48.54-51.75l-36.06-48.39C266.23,236.16,283.1,221.25,293.98,226.65z"/>
		</g>
		<g>
			<path class="st7" d="M252.52,180.5c0,0,23.72,2.39,45.34,32.66c6.88,9.62,15.92,22.84,15.92,22.84s-17.29-3.74-27.41,0.42
				c-8.86,3.63-7.06,9.97-15.78,25.75c0,0-26.63-35.55-26.77-58.98C243.69,179.75,252.52,180.5,252.52,180.5z"/>
		</g>
		<g>
			<path class="st10" d="M234.88,118.35c-0.42,0-0.8-0.27-0.94-0.68c-3.16-9.9-8.89-11.17-13.53-11.17c-7.92,0-11.5,8.72-11.54,8.81
				c-0.2,0.5-0.77,0.75-1.28,0.55c-0.5-0.2-0.75-0.77-0.55-1.27c0.04-0.1,1.02-2.54,3.13-4.99c2.84-3.31,6.38-5.06,10.24-5.06
				c7.78,0,12.67,3.98,15.4,12.54c0.16,0.52-0.12,1.07-0.64,1.23C235.08,118.34,234.98,118.35,234.88,118.35z"/>
		</g>
		<g>
			<path class="st10" d="M172.53,124.65c-0.06,0-0.12-0.01-0.19-0.02c-0.53-0.1-0.88-0.62-0.78-1.15
				c0.11-0.58,2.81-14.12,11.49-14.27c4.38-0.08,8.85,0.82,11.87,7.79c0.22,0.5-0.01,1.08-0.51,1.29c-0.5,0.22-1.08-0.01-1.29-0.51
				c-2.69-6.21-6.43-6.67-10.04-6.61c-7.09,0.12-9.57,12.55-9.59,12.67C173.4,124.32,172.99,124.65,172.53,124.65z"/>
		</g>
		<g>
			
				<ellipse transform="matrix(0.999 -0.0443 0.0443 0.999 -5.1367 9.9215)" class="st15" cx="221.1" cy="120.76" rx="14.16" ry="15.26"/>
		</g>
		<g>
			
				<ellipse transform="matrix(0.999 -0.0443 0.0443 0.999 -5.1761 9.9447)" class="st16" cx="221.6" cy="121.66" rx="8.84" ry="10.63"/>
		</g>
		<g>
			<path class="st15" d="M172.54,126.1c-0.18,7.63,4.18,11.71,10.51,12.14c6.33,0.43,11.88-5.4,12.4-13.01
				c0.52-7.62-4.19-14.14-10.52-14.57C178.6,110.22,172.8,115.31,172.54,126.1z"/>
		</g>
		<g>
			
				<ellipse transform="matrix(0.9928 -0.1196 0.1196 0.9928 -13.697 23.1396)" class="st16" cx="185.94" cy="125.69" rx="7.2" ry="9.07"/>
		</g>
		<g>
			<path class="st16" d="M192.53,150.54c0,0,21.69,1.31,31.97-5.7c3.37-2.3-4.88,16.95-13.09,17.9
				C194.87,164.65,192.53,150.54,192.53,150.54z"/>
		</g>
		<g>
			<path class="st12" d="M181.3,204.51c0,0-10.24,28.37-5.32,49.66"/>
		</g>
		<g>
			<path class="st12" d="M245.36,213.87c0,0,4.6,26.7,22.23,40.99C267.59,254.86,246.9,224.56,245.36,213.87z"/>
		</g>
		<g>
			<path class="st11" d="M188.91,185.75c0,0,21.46,115.83,40.07,131.85c0,0,45.49,21.25,10.35-34.11
				c-22.28-35.1-35.01-101.88-35.01-101.88s-6.65-0.24-8.83,0.4C193.51,182.59,188.91,185.75,188.91,185.75z"/>
		</g>
		<g>
			<path class="st9" d="M202.63,106.52c0,0,12.09-13.41,28.33-8.49C241.59,101.25,214.29,98.03,202.63,106.52z"/>
		</g>
		<g>
			<path class="st9" d="M194.08,105.18c0,0-13.69-8.79-25.19-0.37C161.36,110.32,182.21,100.62,194.08,105.18z"/>
		</g>
		<g>
			<path class="st17" d="M202.71,162.08c0,0,3-11.49,20.49-11.45C223.2,150.63,218.86,168.04,202.71,162.08z"/>
		</g>
		<g>
			<path class="st3" d="M244.62,345.92c0.19,1.17,14.12,19.56,17.12,19.56c3.01,0,4.99-8.77,3.44-9.66
				c-0.13-0.08-0.52-2.86-0.68-2.92c-1.74-0.72,0.4-2.53-0.14-2.53c-0.58,0,7.29-5.66,7.46-8.47c0.13-2.14-4-11.57-8.95-14.26
				c-1.53-0.83-9.13,8.65-9.13,8.65S244.43,344.76,244.62,345.92z"/>
		</g>
		<g>
			<path class="st10" d="M195.49,146.36c-0.28,0-0.57-0.12-0.76-0.36c-1.7-2.08-4.43-5.84-3.68-7.7c0.14-0.35,0.52-0.95,1.49-1.07
				c5.35-0.65,5.5-3.72,5.5-3.85c0.02-0.53,0.45-0.96,0.98-0.96c0,0,0.01,0,0.01,0c0.54,0.01,0.97,0.44,0.97,0.97
				c0,0.2-0.08,4.88-7.13,5.78c0.07,0.87,1.6,3.4,3.38,5.59c0.34,0.42,0.28,1.04-0.14,1.38
				C195.93,146.29,195.71,146.36,195.49,146.36z"/>
		</g>
		<g>
			<path class="st10" d="M252.73,126.15c0,0-5.11,4.41-3.59,6.28s0.49,3.32-2.63,6.65c-3.12,3.32,5.4,4.51,8.93-4.81
				C258.96,124.95,252.73,126.15,252.73,126.15z"/>
		</g>
		<g>
			<path class="st10" d="M240.69,150.68c0,0-2.15,21.06-28.76,25.72l-0.21,9.36C211.72,185.75,242.48,173.06,240.69,150.68z"/>
		</g>
		<g>
			<path class="st8" d="M174.28,82.17c0,0-15.95-4.06-16.93,5.56c0,0,4.52-0.47,6.37,3.76c0,0-7.65,3.2-6.04,7.63
				c0,0,4.95-2.24,7.49-0.81c0,0-4.09,0.48-1.35,5.97c0,0-0.1-6.73,4.99-3.56L174.28,82.17z"/>
		</g>
		<g>
			<path class="st10" d="M202.71,166.23c0,0,9.47,3.11,15.07-1.45"/>
		</g>
		<g>
			<path class="st12" d="M201.36,272.65c-0.63-1.15,2.18,46.71,2.18,46.71S206.34,281.79,201.36,272.65z"/>
		</g>
		<g>
			
				<ellipse transform="matrix(0.9967 -0.081 0.081 0.9967 -10.8486 15.3895)" class="st18" cx="184.24" cy="141.39" rx="6.38" ry="3.72"/>
		</g>
		<g>
			
				<ellipse transform="matrix(0.9841 -0.1778 0.1778 0.9841 -20.9119 42.4843)" class="st18" cx="226.64" cy="137.95" rx="7.79" ry="3.72"/>
		</g>
		<g>
			<path class="st9" d="M211.93,67.8c0,0,19.59,0.52,23.03,4.83C238.4,76.93,231.56,59.91,211.93,67.8z"/>
		</g>
		<g>
			<path class="st9" d="M243.64,86.18c0,0-1.83,10.38,2.72,13.71c4.54,3.32,6.49,7.48,6.14,9.34s0,8.06,0,8.06s6.29-6.34,3.39-11.87
				s-4.18-5.96-5.85-10.16S243.23,91.16,243.64,86.18z"/>
		</g>
		<g>
			<path class="st9" d="M178.6,88.15c0,0,2.58-0.02,5.64-3.53c3.06-3.51,4.43-7.37,8.3-8.38c3.86-1.01-7.72-0.47-9.26,5.08
				C181.74,86.88,178.6,88.15,178.6,88.15z"/>
		</g>
		<g>
			<path class="st9" d="M186.9,67.8c0,0,2.15-7.89,8.55-7.48s6.4,0.42,6.4,0.42S192.72,61.36,186.9,67.8z"/>
		</g>
		<g>
			<path class="st9" d="M238.61,77.97c0,0,6.76,6.04,9.61,3.33c2.85-2.71,11.78,9.75,11.78,9.75s-6.95-14.74-14.17-13.91
				C238.61,77.97,238.61,77.97,238.61,77.97z"/>
		</g>
		<path class="st14" d="M232.65,398.34l18.39,72.7C251.04,471.05,228.75,433.26,232.65,398.34z"/>
		<path class="st14" d="M162.35,388.06c-0.25-7.89-9.43,70.87-9.43,70.87S163.37,420.26,162.35,388.06z"/>
		<g>
			<g>
				<path class="st19" d="M169.72,593.97c0.05,0.08,0.1,0.17,0.15,0.25c0.36,0.64,0.58,1.62-0.26,2.01
					c-0.43,0.2-0.93,0.14-1.39,0.05c-1.6-0.31-3.07-1-4.48-1.79c-1.51-0.86-3.13-1.79-4.12-3.27c-1.02-1.53,0.38-2.97,2.11-2.61
					C164.72,589.22,168.1,591.3,169.72,593.97z"/>
			</g>
			<g>
				<path class="st19" d="M164.26,597.87c0.05,0.08,0.1,0.17,0.15,0.25c0.35,0.64,0.58,1.62-0.26,2.01
					c-0.43,0.2-0.93,0.14-1.39,0.05c-1.6-0.31-3.07-1-4.48-1.79c-1.51-0.86-3.13-1.79-4.12-3.27c-1.02-1.53,0.38-2.97,2.11-2.61
					C159.26,593.12,162.65,595.21,164.26,597.87z"/>
			</g>
			<g>
				<path class="st19" d="M157.54,600.45c0.05,0.08,0.1,0.17,0.15,0.25c0.36,0.64,0.59,1.62-0.26,2c-0.43,0.2-0.93,0.14-1.39,0.05
					c-1.6-0.31-3.07-1-4.48-1.79c-1.51-0.86-3.13-1.79-4.12-3.27c-1.02-1.53,0.38-2.97,2.11-2.61
					C152.54,595.7,155.92,597.78,157.54,600.45z"/>
			</g>
		</g>
		<g>
			<g>
				<path class="st19" d="M263.76,588.59c0.09,0.04,0.18,0.07,0.27,0.11c0.67,0.3,1.44,0.94,1,1.76c-0.23,0.42-0.66,0.67-1.08,0.88
					c-1.46,0.71-3.05,1.05-4.66,1.26c-1.73,0.23-3.57,0.46-5.25-0.13c-1.74-0.61-1.49-2.6,0.11-3.35
					C256.9,587.81,260.86,587.43,263.76,588.59z"/>
			</g>
			<g>
				<path class="st19" d="M264.47,594.53c0.09,0.04,0.18,0.07,0.27,0.11c0.67,0.3,1.44,0.94,1,1.76c-0.23,0.42-0.66,0.67-1.08,0.88
					c-1.46,0.72-3.05,1.05-4.66,1.27c-1.73,0.23-3.57,0.46-5.26-0.13c-1.74-0.61-1.49-2.6,0.11-3.35
					C257.62,593.75,261.57,593.38,264.47,594.53z"/>
			</g>
			<g>
				<path class="st19" d="M265.19,600.47c0.09,0.04,0.18,0.07,0.27,0.11c0.67,0.3,1.44,0.94,1,1.76c-0.23,0.42-0.66,0.67-1.08,0.88
					c-1.46,0.71-3.05,1.05-4.66,1.27c-1.73,0.23-3.57,0.46-5.25-0.13c-1.74-0.61-1.49-2.6,0.11-3.35
					C258.33,599.7,262.29,599.32,265.19,600.47z"/>
			</g>
		</g>
	</g>
</g>
</svg>
