<?xml version="1.0" encoding="utf-8"?>
<!-- Generator: Adobe Illustrator 24.0.1, SVG Export Plug-In . SVG Version: 6.00 Build 0)  -->
<svg version="1.1" xmlns="http://www.w3.org/2000/svg" xmlns:xlink="http://www.w3.org/1999/xlink" x="0px" y="0px"
	 viewBox="0 0 365.39 654.66" style="enable-background:new 0 0 365.39 654.66;" xml:space="preserve">
<style type="text/css">
	.st0{display:none;}
	.st1{display:inline;fill:#FFFFFF;stroke:#1D1D1B;stroke-miterlimit:10;}
	.st2{display:inline;fill:#FFFFFF;}
	.st3{fill:#F29258;}
	.st4{fill:#9B9592;}
	.st5{fill:#161818;}
	.st6{fill:#725944;}
	.st7{fill:#FFB103;}
	.st8{fill:#773810;}
	.st9{fill:#57240E;}
	.st10{fill:#C15D24;}
	.st11{fill:#F0D2A3;}
	.st12{fill:#BC7002;}
	.st13{fill:#5C3D2B;}
	.st14{fill:#68462D;}
	.st15{fill:#FFFFFF;}
	.st16{fill:#4D3520;}
	.st17{fill:#E42320;}
	.st18{fill:#FFBC97;}
	.st19{fill:#FDEEE6;}
	.st20{fill:#BC7B4E;}
	.st21{fill:#3D1112;}
	.st22{fill:#75312F;}
	.st23{fill:#FCC306;}
	.st24{fill-rule:evenodd;clip-rule:evenodd;fill:#BC7B4E;}
	.st25{fill:#7D4E25;}
	.st26{fill:#79844C;}
	.st27{fill:#3253A0;}
	.st28{fill:#87573D;}
	.st29{fill:#143984;}
	.st30{fill:#DD3D05;}
	.st31{fill:#6EB3E3;}
	.st32{opacity:0.5;}
	.st33{fill:#265CC6;}
	.st34{fill:#B72F00;}
	.st35{fill:#ECB079;}
	.st36{fill-rule:evenodd;clip-rule:evenodd;fill:#87573D;}
	.st37{fill:#56A9FC;}
	.st38{fill:#517005;}
	.st39{fill:#9DC947;}
	.st40{fill:#1D1D1B;}
	.st41{fill:#FF0000;}
	.st42{fill:#FFE000;}
	.st43{fill:#7D9928;}
	.st44{fill:#6CF1FF;}
	.st45{fill:#606060;}
	.st46{clip-path:url(#SVGID_2_);}
	.st47{fill:#7906B5;}
	.st48{fill:#AE00FF;}
	.st49{fill:#FF1066;}
	.st50{fill:#AA0045;}
	.st51{fill:#CEC2CB;}
	.st52{fill:#6D5E66;}
	.st53{fill:#BFBEBB;}
	.st54{fill:#F39200;}
	.st55{fill:#DBDBDB;}
	.st56{fill:#00659D;}
	.st57{fill:#00ABBC;}
	.st58{fill:#FC8890;}
	.st59{clip-path:url(#SVGID_4_);}
	.st60{fill:#FF9999;}
	.st61{fill:#D3A148;}
	.st62{fill:#E2C58A;}
	.st63{clip-path:url(#SVGID_6_);fill:#00ABBC;}
	.st64{fill:#B35D7F;}
	.st65{fill:#722142;}
	.st66{fill:#EEBC99;}
	.st67{fill:#D68F5F;}
	.st68{fill:#FF9B57;}
</style>
<g id="Capa_2" class="st0">
</g>
<g id="Capa_1">
	<g>
		<g>
			<path d="M138.49,196.72c-18.62,4.69-24.13-15.05-24.13-15.05c-15.69-4.57-12.18-20.96-12.18-20.96s-5.72-1.84-7.38-12.64
				c-1.65-10.81,6.76-14.61,6.76-14.61s-10.23-8.96-5.69-20.24c4.57-11.36,16.85-7.55,16.85-7.55s-4.37-14.89,5.84-21.05
				c12.41-7.48,20.79,1.57,20.79,1.57s0.06-11.17,11.14-14.45c13.75-4.07,22.63,9.27,22.63,9.27s6.58-7.83,15.09-7.11
				c13.25,1.13,11.88,12.92,11.88,12.92c4.1-3.97,16.12-0.9,18.2,9.17c1.61,7.78-1.33,11.39-1.33,11.39s12.33,0.71,10.95,14.76
				c-0.63,6.37-5.69,8.23-8.64,10.53c0,0,8.44,0.34,8.22,11.73c-0.21,11.38-7.05,13.03-7.05,13.03s4.07,5.41,0.07,16.38
				c-3.99,10.97-11.39,10.18-11.39,10.18s-3.53,12.55-15.94,14.82C169.04,203.2,138.49,196.72,138.49,196.72z"/>
		</g>
		<path class="st20" d="M152.84,574.53c-0.14-0.3-0.27-0.58-0.41-0.86l0.79-39.11l-22.01,2.54c0,0,3,21.18,4.48,33.28
			c-0.41,0.88-0.62,1.48-0.62,1.48s-12.46,23.24-2.02,27.29C143.49,603.21,163.44,597.29,152.84,574.53z"/>
		<path class="st20" d="M259.73,600.46c-1.91-4.35-25.72-13.88-25.72-13.88s-3.93-2.85-6.4-11.68l-2.09-34.51l-23.44,3.29l5.31,42.9
			l0.24-0.09c-0.23,1.4-0.54,2.61-0.95,3.51c-2.82,6.21-4.2,14.67,5.23,14.95C221.36,605.24,262.27,606.23,259.73,600.46z"/>
		<g>
			<g>
				<path class="st61" d="M114.49,266.28c0,0-13,69.53-3.58,78.31c9.42,8.78,37.36-1.4,37.36-1.4l7.31-11.92l-11.29-72.9
					l-20.59-18.11L114.49,266.28z"/>
			</g>
			<g>
				<path class="st61" d="M115.26,213.83c0,0-15.85,2.64-18.41,10.05c-2.56,7.42,6.26,69.11,12.1,64.75
					c5.85-4.36,19.7-25.06,19.7-25.06L115.26,213.83z"/>
			</g>
		</g>
		<g>
			<g>
				<g>
					<path class="st20" d="M263.74,181.17c-4.66-4.04-7.65-9.94-8.15-16.09c1.87,2.29,3.74,4.57,5.6,6.86
						c0.1-7.65,3.18-15.22,8.45-20.76c-2.27,4.29-3.54,9.1-3.71,13.95c2.79-5.17,6.8-9.68,11.6-13.06
						c-2.01,4.18-4.02,8.36-6.02,12.54c3.74-4.37,8.55-7.81,13.88-9.94c-4.08,4.24-7.25,9.35-9.26,14.88
						c-1.01,2.78-1.77,5.76-3.65,8.04c-1.88,2.28-5.36,3.62-7.86,2.04"/>
				</g>
			</g>
			<g>
				<g>
					<path class="st20" d="M248.4,264.96c5.68-0.22,12.07-6.67,13.63-13.65c5.36-24.03,12.91-65.76,8.01-89.02
						c-7.57,7.33-34.24,68.19-39.43,83.43c-1.29,3.78,2.71,14.31,4.94,17.21"/>
				</g>
			</g>
		</g>
		<g>
			<g>
				<path class="st20" d="M177.14,211.72c1.14-2.03,1.79-4.5,1.71-7.41c0,0-1.46-9.66-3.04-20.06c-4.25,0.65-8.55,1.14-12.94,1.26
					c-3.66,0.1-7.27,0-10.85-0.28c-1.01,10.32-1.91,19.85-1.91,19.85c0.05,1.86,0.39,3.52,0.96,4.99
					C159.16,212.52,168.53,213.08,177.14,211.72z"/>
			</g>
		</g>
		<g>
			<g>
				<path class="st20" d="M166.42,191.23c-58.45,5.07-58.19-85.95-9.87-87.72C208.8,101.59,218,193.37,166.42,191.23L166.42,191.23z
					"/>
			</g>
		</g>
		<g>
			<path class="st24" d="M124.86,149.77c-4.85-4.18-14.35-4.36-13.27,3.8c0.63,7.31,8.8,6.67,14.39,6.08"/>
		</g>
		<g>
			<path class="st40" d="M132.67,148.31c-0.53,0-0.97-0.41-1-0.95c-0.01-0.24-0.26-6.04,3.5-10.2c2.22-2.46,5.35-3.8,9.3-4
				c13.26-0.62,14.84,12.52,14.86,12.65c0.06,0.55-0.34,1.04-0.89,1.1c-0.55,0.05-1.04-0.34-1.1-0.88
				c-0.05-0.47-1.37-11.45-12.77-10.87c-11.32,0.56-10.92,11.62-10.9,12.09c0.03,0.55-0.4,1.02-0.95,1.05
				C132.7,148.31,132.68,148.31,132.67,148.31z"/>
		</g>
		<g>
			<path class="st40" d="M193.7,144.96c-0.48,0-0.91-0.35-0.99-0.84c-1.17-7.07-3.18-10.66-10.94-10.66c-0.02,0-0.04,0-0.07,0
				c-7.1,0.02-10.06,10.13-10.08,10.23c-0.15,0.53-0.7,0.84-1.23,0.69c-0.53-0.15-0.84-0.7-0.69-1.23c0.13-0.48,3.4-11.67,12-11.69
				c0.02,0,0.05,0,0.07,0c9.06,0,11.66,4.72,12.92,12.33c0.09,0.54-0.28,1.06-0.82,1.15C193.81,144.96,193.75,144.96,193.7,144.96z"
				/>
		</g>
		<g>
			<path class="st24" d="M195.7,146.97c5.21-3.74,14.68-3.07,12.88,4.96c-1.27,7.23-9.36,5.86-14.88,4.79"/>
		</g>
		<g>
			
				<ellipse transform="matrix(0.0443 -0.999 0.999 0.0443 -8.6382 286.7324)" class="st15" cx="145.55" cy="147.88" rx="13.9" ry="12.9"/>
		</g>
		<g>
			<ellipse transform="matrix(0.0443 -0.999 0.999 0.0443 -8.7016 286.666)" cx="145.48" cy="147.88" rx="11.04" ry="8.91"/>
		</g>
		<g>
			
				<ellipse transform="matrix(0.0443 -0.999 0.999 0.0443 28.1033 321.8405)" class="st15" cx="182.27" cy="146.23" rx="13.9" ry="11.55"/>
		</g>
		<g>
			<ellipse transform="matrix(0.0443 -0.999 0.999 0.0443 25.955 320.9883)" cx="180.75" cy="146.93" rx="10.25" ry="8.51"/>
		</g>
		<g>
			<path class="st56" d="M112.5,332.13c0,0-16.47,10.24-6.2,65.47s17.04,150.16,17.04,150.16l39.48,0.11l-4.32-156.03
				C158.51,391.83,166.98,319.77,112.5,332.13z"/>
		</g>
		<g>
			<path class="st56" d="M194.44,328.71c0,0,18.4,6.13,21.25,62.24c2.85,56.11,19.77,149.86,19.77,149.86l-48,4.96l-23.89-148.3
				C163.57,397.47,138.58,329.35,194.44,328.71z"/>
		</g>
		<g>
			<path class="st56" d="M112.5,332.13l81.19,14.37l11.9-4.71c0,0,8.29,8.98-1.67,44.53c-3.51,12.51-86.19,36.31-100.69-12.25
				C98.46,358.08,112.5,332.13,112.5,332.13z"/>
		</g>
		<g>
			<path class="st15" d="M145.48,164.41c0,0,28.54,9.67,41,1.32C186.49,165.73,165.1,199.17,145.48,164.41z"/>
		</g>
		<g>
			<path d="M128.79,128.86c0,0,14.38-11.28,27.91-1.67C156.7,127.19,146.24,121.15,128.79,128.86z"/>
		</g>
		<polygon class="st29" points="141.87,349.58 140.5,362.35 145.58,363.85 145.58,349.58 		"/>
		<polygon class="st29" points="192.84,354.14 196.62,366.41 201.88,365.79 196.24,352.68 		"/>
		<path class="st29" d="M169.48,356.72c-0.14-0.23-4.56,39.25-4.56,39.25s7.61-5.71,8.25-10.47c0.48-3.57,5.71-18.3,4.28-25.96
			C176.98,356.99,170.7,358.72,169.48,356.72z"/>
		<g>
			<path d="M169.14,126.31c0,0,15.98-8.86,27.82,2.78C196.96,129.09,187.59,121.46,169.14,126.31z"/>
		</g>
		<g>
			<path class="st62" d="M136.97,208.26c0,0-20.81-2.64-27.89,11.39c-7.08,14.03-31.99,63.12-28.8,81.44s24.6,10.06,24.6,10.06
				s26.97-65.57,34.88-73.64C147.66,229.44,136.97,208.26,136.97,208.26z"/>
		</g>
		<g>
			<path class="st62" d="M174.45,197.13c0,0-3.24,16.34,8.22,27.09c11.46,10.74,43.39,44.59,61.87,46.69s17.48-19.59,17.48-19.59
				s-49.7-42.31-59.46-47.99C192.03,197.17,174.45,197.13,174.45,197.13z"/>
		</g>
		<g>
			<path class="st62" d="M126.21,227.89c0,0,4.58,60.19-1.1,69.76c-9.3,15.67-21.09,44.61-21.09,44.61s95.72,36.52,104.13,5.47
				c6.02-22.22,7.36-92.94,1.42-113.45c-5.94-20.51-10.48-25.19-22.23-32.2c0,0-24.61-1.72-44.1,2.99S126.21,227.89,126.21,227.89z"
				/>
		</g>
		<g>
			<defs>
				<path id="SVGID_5_" d="M262.02,251.31c0,0-49.7-42.31-59.46-47.99c-10.54-6.14-28.12-6.18-28.12-6.18s-0.36,1.83-0.41,4.66
					c-8.77,0.1-20.5,0.79-30.8,3.28c-3.05,0.74-5.56,1.8-7.63,3.08c-4.73-0.3-20.55-0.36-26.53,11.5
					c-7.08,14.03-31.99,63.12-28.8,81.44c3.2,18.32,24.6,10.06,24.6,10.06s12.45-30.25,22.91-52.19
					c0.44,16.31,0.18,33.88-2.67,38.69c-9.3,15.67-21.09,44.61-21.09,44.61s95.72,36.52,104.13,5.47
					c4.81-17.76,6.63-66.49,4.14-95.81c11.35,9.61,23.36,17.98,32.26,18.99C263.02,273,262.02,251.31,262.02,251.31z"/>
			</defs>
			<clipPath id="SVGID_2_">
				<use xlink:href="#SVGID_5_"  style="overflow:visible;"/>
			</clipPath>
			<rect x="72.81" y="190.27" style="clip-path:url(#SVGID_2_);fill:#00ABBC;" width="195.81" height="7.31"/>
			<rect x="72.81" y="209.55" style="clip-path:url(#SVGID_2_);fill:#00ABBC;" width="195.81" height="7.31"/>
			<rect x="72.81" y="228.83" style="clip-path:url(#SVGID_2_);fill:#00ABBC;" width="195.81" height="7.31"/>
			<rect x="72.81" y="248.11" style="clip-path:url(#SVGID_2_);fill:#00ABBC;" width="195.81" height="7.31"/>
			<rect x="72.81" y="267.39" style="clip-path:url(#SVGID_2_);fill:#00ABBC;" width="195.81" height="7.31"/>
			<rect x="72.81" y="286.67" style="clip-path:url(#SVGID_2_);fill:#00ABBC;" width="195.81" height="7.31"/>
			<rect x="72.81" y="305.95" style="clip-path:url(#SVGID_2_);fill:#00ABBC;" width="195.81" height="7.31"/>
			<rect x="72.81" y="325.23" style="clip-path:url(#SVGID_2_);fill:#00ABBC;" width="195.81" height="7.31"/>
			<rect x="72.81" y="344.51" style="clip-path:url(#SVGID_2_);fill:#00ABBC;" width="195.81" height="7.31"/>
		</g>
		<g>
			<path class="st61" d="M123.58,208.29c0,0,1.88-7.57,21.4-8.11c0,0,23.15,86.46-22.87,102.99
				C122.12,303.16,145.58,258.77,123.58,208.29z"/>
		</g>
		<g>
			<polygon class="st57" points="119.84,531.64 166.76,532.65 168.2,551.11 119.13,550.93 			"/>
		</g>
		<g>
			<polygon class="st57" points="181.41,530.86 237.67,522.35 244.58,542.91 184,549.99 			"/>
		</g>
		<g>
			<g>
				<path class="st20" d="M133.12,246.6c4.89,2.02,11.23,0.63,11.23,0.63c0.5-1.04,0.83-2.28,1.03-3.63c0.1-0.57,0.16-1.15,0.2-1.76
					c0.09-1.34,0.1-2.74,0.03-4.17c-0.02-0.62-0.06-1.25-0.11-1.87c-0.14-1.66-0.35-3.3-0.6-4.83c-0.1-0.66-0.21-1.29-0.31-1.89
					c-0.3-1.64-0.61-3.06-0.85-4.12c-0.28-1.23-0.48-1.97-0.48-1.97c-4.83-0.46-11.81,2.72-11.81,2.72
					c-0.63,1.74-0.94,3.64-1.02,5.56C130.08,238.78,133.12,246.6,133.12,246.6z"/>
			</g>
			<g>
				<g>
					<g>
						<path class="st28" d="M137.04,230.77c0,0,0.67,0.11,1.67,0.22c1.01,0.1,2.32,0.21,3.76,0.17c0.87-0.02,1.69-0.1,2.43-0.19
							c-0.1-0.66-0.21-1.29-0.31-1.89c-0.66-0.14-1.4-0.23-2.18-0.21c-1.59,0.05-2.97,0.53-3.91,1
							C137.56,230.33,137.04,230.77,137.04,230.77z"/>
					</g>
				</g>
				<g>
					<g>
						<path class="st28" d="M138.18,237.18c0,0,0.63,0.17,1.57,0.32c0.95,0.16,2.2,0.33,3.57,0.32c0.81,0,1.59-0.08,2.28-0.16
							c-0.02-0.62-0.06-1.25-0.11-1.87c-0.65-0.16-1.39-0.27-2.18-0.27c-1.49,0.01-2.81,0.43-3.71,0.84
							C138.69,236.79,138.18,237.18,138.18,237.18z"/>
					</g>
				</g>
				<g>
					<g>
						<path class="st28" d="M137.42,243.15c0,0,0.66,0.18,1.66,0.35c1.01,0.16,2.35,0.34,3.81,0.31c0.89-0.02,1.74-0.11,2.49-0.22
							c0.1-0.57,0.16-1.15,0.2-1.76c-0.79-0.2-1.73-0.34-2.74-0.32c-1.56,0.03-2.94,0.44-3.9,0.84
							C137.97,242.77,137.42,243.15,137.42,243.15z"/>
					</g>
				</g>
			</g>
		</g>
		<g>
			<path class="st20" d="M141.87,246.91c0,0-8.56,41.41-23.13,61.42c-3.12,4.29-14.23,5.19-18.05,4.96
				c-21.63-1.27-17.89-19.91-14.06-26.3c1.46-2.44,8.06-8.05,8.06-8.05s12.16-5.52,8.38-3.73c0,0,10.54-3.87,18.66-15.87
				c2.47-3.65,13.26-15.51,13.88-16.78L141.87,246.91z"/>
		</g>
		<g class="st32">
			<path class="st33" d="M157.82,403.08c1-0.07,17.83-2.3,23.33-12.86"/>
		</g>
		<g>
			<path class="st28" d="M169.18,165.73c-0.47,0-0.89-0.34-0.98-0.82c-0.1-0.54,0.26-1.07,0.8-1.17c0.18-0.03,4.41-0.91,4.9-5.17
				c0.01-0.04,0.02-0.14-0.12-0.31c-0.92-1.14-4.91-2.01-7.45-2.26c-0.55-0.05-0.95-0.54-0.9-1.09c0.05-0.55,0.54-0.95,1.09-0.9
				c1.16,0.12,7.05,0.8,8.81,2.99c0.44,0.54,0.63,1.16,0.55,1.79c-0.53,4.59-4.5,6.52-6.52,6.9
				C169.3,165.72,169.24,165.73,169.18,165.73z"/>
		</g>
		<g>
			
				<ellipse transform="matrix(0.9967 -0.081 0.081 0.9967 -12.6412 11.3843)" class="st35" cx="133.98" cy="161.48" rx="7.94" ry="3.79"/>
		</g>
		<g>
			
				<ellipse transform="matrix(0.9967 -0.081 0.081 0.9967 -12.217 16.27)" class="st35" cx="194.4" cy="158.7" rx="7.94" ry="3.79"/>
		</g>
		<path class="st36" d="M116.63,149.24c0,0,4.67,3.11,4.15,3.82c-0.52,0.72-4.15-0.41-3.11,1.84c1.04,2.25,3.15,3.41,3.15,3.41
			S111.65,156.84,116.63,149.24z"/>
		<path class="st36" d="M204.48,146.9c0,0-4.67,3.11-4.15,3.82c0.52,0.72,4.15-0.41,3.11,1.84c-1.04,2.25-3.15,3.41-3.15,3.41
			S209.46,154.5,204.48,146.9z"/>
		<g>
			<path class="st37" d="M128.63,527.82c-0.12,0-0.23-0.09-0.25-0.22c-0.23-1.66-0.61-4.39-1.1-7.98c-0.02-0.14,0.08-0.26,0.21-0.28
				c0.14-0.01,0.26,0.08,0.28,0.21c0.5,3.59,0.87,6.32,1.1,7.98c0.02,0.14-0.08,0.26-0.21,0.28
				C128.65,527.82,128.64,527.82,128.63,527.82z M126.42,511.88c-0.12,0-0.23-0.09-0.25-0.22l-1.1-7.96
				c-0.02-0.14,0.08-0.26,0.21-0.28c0.15-0.01,0.26,0.08,0.28,0.21l1.1,7.96c0.02,0.14-0.08,0.26-0.21,0.28
				C126.45,511.88,126.43,511.88,126.42,511.88z M124.23,495.97c-0.12,0-0.23-0.09-0.25-0.22l-1.09-7.95
				c-0.02-0.14,0.08-0.26,0.21-0.28c0.15-0.01,0.26,0.08,0.28,0.21l1.09,7.95c0.02,0.14-0.08,0.26-0.21,0.28
				C124.25,495.97,124.24,495.97,124.23,495.97z M122.05,480.07c-0.12,0-0.23-0.09-0.25-0.22l-1.09-7.95
				c-0.02-0.14,0.08-0.26,0.21-0.28c0.14-0.01,0.26,0.08,0.28,0.21l1.09,7.95c0.02,0.14-0.08,0.26-0.21,0.28
				C122.07,480.07,122.06,480.07,122.05,480.07z M119.87,464.18c-0.12,0-0.23-0.09-0.25-0.22l-1.08-7.95
				c-0.02-0.14,0.08-0.26,0.21-0.28c0.15-0.01,0.26,0.08,0.28,0.21l1.08,7.95c0.02,0.14-0.08,0.26-0.21,0.28
				C119.89,464.18,119.88,464.18,119.87,464.18z M117.71,448.28c-0.12,0-0.23-0.09-0.25-0.22l-1.08-7.94
				c-0.02-0.14,0.08-0.26,0.21-0.28c0.14-0.01,0.26,0.08,0.28,0.21l1.08,7.94c0.02,0.14-0.08,0.26-0.21,0.28
				C117.73,448.28,117.72,448.28,117.71,448.28z M115.55,432.39c-0.12,0-0.23-0.09-0.25-0.22l-1.07-7.95
				c-0.02-0.14,0.08-0.26,0.21-0.28c0.13-0.02,0.26,0.08,0.28,0.21l1.07,7.95c0.02,0.14-0.08,0.26-0.21,0.28
				C115.58,432.39,115.56,432.39,115.55,432.39z M113.42,416.49c-0.12,0-0.23-0.09-0.25-0.22c-0.36-2.72-0.72-5.37-1.06-7.95
				c-0.02-0.14,0.08-0.26,0.21-0.28c0.15-0.01,0.26,0.08,0.28,0.21c0.34,2.58,0.7,5.24,1.06,7.95c0.02,0.14-0.08,0.26-0.21,0.28
				C113.44,416.49,113.43,416.49,113.42,416.49z M111.3,400.58c-0.12,0-0.23-0.09-0.25-0.22c-0.37-2.79-0.71-5.45-1.04-7.96
				c-0.02-0.14,0.08-0.26,0.22-0.28c0.14-0.01,0.26,0.08,0.28,0.22c0.33,2.51,0.67,5.17,1.04,7.96c0.02,0.14-0.08,0.26-0.22,0.28
				C111.32,400.58,111.31,400.58,111.3,400.58z M109.24,384.65c-0.12,0-0.23-0.09-0.25-0.22c-0.39-3.06-0.72-5.74-0.99-7.98
				c-0.02-0.14,0.08-0.26,0.22-0.28c0.15-0.02,0.26,0.08,0.28,0.22c0.27,2.24,0.6,4.92,0.99,7.98c0.02,0.14-0.08,0.26-0.22,0.28
				C109.26,384.65,109.25,384.65,109.24,384.65z M107.5,368.65C107.5,368.65,107.5,368.65,107.5,368.65c-0.15,0-0.25-0.12-0.25-0.26
				c0.06-1.83,0.33-4.52,0.8-8c0.02-0.14,0.14-0.22,0.28-0.21c0.14,0.02,0.23,0.15,0.21,0.28c-0.48,3.46-0.75,6.14-0.8,7.95
				C107.75,368.54,107.64,368.65,107.5,368.65z M109.52,352.75c-0.01,0-0.03,0-0.04,0c-0.14-0.02-0.23-0.15-0.21-0.29
				c0.73-4.39,1.39-7.87,1.4-7.91c0.03-0.13,0.16-0.22,0.29-0.2c0.14,0.03,0.22,0.16,0.2,0.29c-0.01,0.03-0.67,3.52-1.39,7.9
				C109.75,352.66,109.64,352.75,109.52,352.75z"/>
		</g>
		<g>
			<rect x="198.47" y="604.47" class="st4" width="72.65" height="7.29"/>
		</g>
		<g>
			<path class="st4" d="M124.56,605.53c-1.04,3.69-0.59,12-0.59,12s13.12,1.7,17.16,2.04c4.04,0.33,25.25,2.08,25.25-2.04
				c0-0.78,0.81-5.01-1.17-12.03c-1.69-5.97-35.87-4.06-35.87-4.06S125.05,603.79,124.56,605.53z"/>
		</g>
		<path class="st5" d="M268.8,600.95c-4.65-2.22-21.75-9.16-26.32-12.99c-1.65-1.38-3.18-3.49-4.47-5.62
			c2.08-3.36,4.23-7.35,6.77-10.22c5.52-6.27-12.08-15.99-17.91-10.07c0,0-0.41,7.17-0.04,14.09l-24.28,0.63
			c-2.09,8.3-3.74,24.34-4.07,27.7h72.65C270.95,603.2,270.39,601.71,268.8,600.95z"/>
		<path class="st5" d="M160.73,575.16L160.73,575.16c1.88-2.64,3.22-5.72,5.31-7.81c4.27-4.27-1.94-9.33-11.27-7.38
			c-9.33,1.94-26.76,0.01-25.98,5.06c0.42,2.75,2.59,6.9,4.06,10.85l-0.35,0.01c-3.06,6.96-9.23,26.38-8.53,36.42
			c4,2.73,17.78,3.38,20.98,3.65c3.58,0.3,17.58-1.28,21.44-4.12c-0.1-6.52-4.09-25.5-5.05-26.94
			C160.85,584.16,160.73,579.11,160.73,575.16z"/>
		<path class="st20" d="M145.66,202.91c-0.41,0.46,10.07,26.28,23.57,23.93c22.48-3.91,18.12-28.5,18.12-28.5
			S155.01,192.51,145.66,202.91z"/>
		<g>
			<path class="st28" d="M151.2,190.18c0,0,9.65,4.29,25.52,0.09l0.18,1.16c0,0-14.25,9.54-25.69,5.7V190.18z"/>
		</g>
		<path d="M161.47,95.81h-2.2c-13.04,0.15-24.51,6.28-32.02,15.65c-0.78-0.09-16.99,17.4-8.01,38.33c0.03,0.19,0.05,0.37,0.08,0.56
			c0,0,0.07-0.07,0.18-0.19c1.74,2.57,3.88,4.81,6.52,6.53c0.28-9.59,3.95-21.4,9.61-29c0,0-0.01-4.16-1.2-8.28
			c5.42-1.59,13.4-5.74,12.08-12.85c2.52,2.66,12.85,12.78,22.49,0c0,0,4.23,8.04,14.53,6.67c0,0,1.12,8.05,8.51,8.66
			c-0.31,2.83-0.33,4.91-0.33,4.91c0.19,2.67,7.02,25.47,8.02,27.9c3.89-6.28,6.31-10.51,6.34-17.93
			C206.19,105.15,174.92,95.99,161.47,95.81z"/>
		<path class="st29" d="M211.4,249.35c-0.97,0.38,9.94-6.95,10.36-11.08C221.77,238.27,221.77,245.28,211.4,249.35z"/>
		<path class="st29" d="M212.33,249.31c-0.27,1.01,0.28-12.13-2.79-14.91C209.55,234.4,215.19,238.55,212.33,249.31z"/>
		<path class="st29" d="M110.56,270.93c0,0-17.23,0.69-23.26,4.82C87.3,275.74,98.93,267.02,110.56,270.93z"/>
		<path class="st29" d="M111.73,269.9c0,0-12.2-5.2-17.74-4.32C93.99,265.58,104.94,263.36,111.73,269.9z"/>
		<g>
			<g>
				<path class="st58" d="M139.57,588.59c-0.09,0.04-0.18,0.07-0.27,0.11c-0.67,0.3-1.44,0.94-1,1.76c0.23,0.42,0.66,0.67,1.08,0.88
					c1.46,0.71,3.05,1.05,4.66,1.26c1.73,0.23,3.57,0.46,5.25-0.13c1.74-0.61,1.49-2.6-0.11-3.35
					C146.43,587.81,142.47,587.43,139.57,588.59z"/>
			</g>
			<g>
				<path class="st58" d="M138.86,594.53c-0.09,0.04-0.18,0.07-0.27,0.11c-0.67,0.3-1.44,0.94-1,1.76c0.23,0.42,0.66,0.67,1.08,0.88
					c1.46,0.72,3.05,1.05,4.66,1.27c1.73,0.23,3.57,0.46,5.26-0.13c1.74-0.61,1.49-2.6-0.11-3.35
					C145.71,593.75,141.75,593.38,138.86,594.53z"/>
			</g>
			<g>
				<path class="st58" d="M138.14,600.47c-0.09,0.04-0.18,0.07-0.27,0.11c-0.67,0.3-1.44,0.94-1,1.76c0.23,0.42,0.66,0.67,1.08,0.88
					c1.46,0.71,3.05,1.05,4.66,1.27c1.73,0.23,3.57,0.46,5.25-0.13c1.74-0.61,1.49-2.6-0.11-3.35
					C145,599.7,141.04,599.32,138.14,600.47z"/>
			</g>
		</g>
		<g>
			<g>
				<path class="st58" d="M236.35,590.01c-0.05,0.08-0.1,0.17-0.15,0.25c-0.36,0.64-0.58,1.62,0.26,2.01
					c0.43,0.2,0.93,0.14,1.39,0.05c1.6-0.31,3.07-1,4.48-1.79c1.51-0.86,3.13-1.79,4.12-3.27c1.02-1.53-0.38-2.97-2.11-2.61
					C241.36,585.26,237.97,587.34,236.35,590.01z"/>
			</g>
			<g>
				<path class="st58" d="M241.81,593.91c-0.05,0.08-0.1,0.17-0.15,0.25c-0.35,0.64-0.58,1.62,0.26,2.01
					c0.43,0.2,0.93,0.14,1.39,0.05c1.6-0.31,3.07-1,4.48-1.79c1.51-0.86,3.13-1.79,4.12-3.27c1.02-1.53-0.38-2.97-2.11-2.61
					C246.81,589.16,243.43,591.25,241.81,593.91z"/>
			</g>
			<g>
				<path class="st58" d="M248.53,596.49c-0.05,0.08-0.1,0.17-0.15,0.25c-0.36,0.64-0.59,1.62,0.26,2c0.43,0.2,0.93,0.14,1.39,0.05
					c1.6-0.31,3.07-1,4.48-1.79c1.51-0.86,3.13-1.79,4.12-3.27c1.02-1.53-0.38-2.97-2.11-2.61
					C253.54,591.74,250.15,593.82,248.53,596.49z"/>
			</g>
		</g>
	</g>
</g>
</svg>
