<?xml version="1.0" encoding="utf-8"?>
<!-- Generator: Adobe Illustrator 24.0.1, SVG Export Plug-In . SVG Version: 6.00 Build 0)  -->
<svg version="1.1" xmlns="http://www.w3.org/2000/svg" xmlns:xlink="http://www.w3.org/1999/xlink" x="0px" y="0px"
	 viewBox="0 0 411.07 654.66" style="enable-background:new 0 0 411.07 654.66;" xml:space="preserve">
<style type="text/css">
	.st0{display:none;}
	.st1{display:inline;fill:#FFFFFF;stroke:#1D1D1B;stroke-miterlimit:10;}
	.st2{display:inline;fill:#FFFFFF;}
	.st3{fill:#F29258;}
	.st4{fill:#9B9592;}
	.st5{fill:#161818;}
	.st6{fill:#725944;}
	.st7{fill:#FFB103;}
	.st8{fill:#773810;}
	.st9{fill:#57240E;}
	.st10{fill:#C15D24;}
	.st11{fill:#F0D2A3;}
	.st12{fill:#BC7002;}
	.st13{fill:#5C3D2B;}
	.st14{fill:#68462D;}
	.st15{fill:#FFFFFF;}
	.st16{fill:#4D3520;}
	.st17{fill:#E42320;}
	.st18{fill:#FFBC97;}
	.st19{fill:#FDEEE6;}
	.st20{fill:#BC7B4E;}
	.st21{fill:#3D1112;}
	.st22{fill:#75312F;}
	.st23{fill:#FCC306;}
	.st24{fill-rule:evenodd;clip-rule:evenodd;fill:#BC7B4E;}
	.st25{fill:#7D4E25;}
	.st26{fill:#79844C;}
	.st27{fill:#3253A0;}
	.st28{fill:#87573D;}
	.st29{fill:#143984;}
	.st30{fill:#DD3D05;}
	.st31{fill:#6EB3E3;}
	.st32{opacity:0.5;}
	.st33{fill:#265CC6;}
	.st34{fill:#B72F00;}
	.st35{fill:#ECB079;}
	.st36{fill-rule:evenodd;clip-rule:evenodd;fill:#87573D;}
	.st37{fill:#56A9FC;}
	.st38{fill:#517005;}
	.st39{fill:#9DC947;}
	.st40{fill:#1D1D1B;}
	.st41{fill:#FF0000;}
	.st42{fill:#FFE000;}
	.st43{fill:#7D9928;}
	.st44{fill:#6CF1FF;}
	.st45{fill:#606060;}
	.st46{clip-path:url(#SVGID_2_);}
	.st47{fill:#7906B5;}
	.st48{fill:#AE00FF;}
	.st49{fill:#FF1066;}
	.st50{fill:#AA0045;}
	.st51{fill:#CEC2CB;}
	.st52{fill:#6D5E66;}
	.st53{fill:#BFBEBB;}
	.st54{fill:#F39200;}
	.st55{fill:#DBDBDB;}
	.st56{fill:#00659D;}
	.st57{fill:#00ABBC;}
	.st58{fill:#FC8890;}
	.st59{clip-path:url(#SVGID_4_);}
	.st60{fill:#FF9999;}
	.st61{fill:#D3A148;}
	.st62{fill:#E2C58A;}
	.st63{clip-path:url(#SVGID_6_);fill:#00ABBC;}
	.st64{fill:#B35D7F;}
	.st65{fill:#722142;}
	.st66{fill:#EEBC99;}
	.st67{fill:#D68F5F;}
	.st68{fill:#FF9B57;}
</style>
<g id="Capa_2" class="st0">
</g>
<g id="Capa_1">
	<g>
		<g>
			<path class="st57" d="M222.23,177.34c0,0,51.83-6.09,73.66,21.31c21.82,27.4,3.24,143.82-21.61,154.12
				c-24.85,10.3-61.45,5.22-70.6-15.08C194.53,317.39,196.27,214.69,222.23,177.34z"/>
			<path class="st56" d="M227.52,188.85c0,0,44.06,2.05,56.51,24.01c12.46,21.96,4.61,109.55-16.61,122.96
				c-21.22,13.41-43.51,5.57-58.89-19.81C206.44,269.15,210.7,225.67,227.52,188.85z"/>
		</g>
		<g>
			<path class="st35" d="M272.34,459.45c0,0-1.77,119.42-7.6,121.75s-15.93-3.11-15.93-3.11l-16.63-112.36L272.34,459.45z"/>
		</g>
		<path class="st58" d="M247.98,572.47c0-1.27-6.42-43.42-6.42-43.42h28.77l-3.74,55.25L247.98,572.47z"/>
		<g>
			<path class="st35" d="M176.62,457.96c1.61,1.69,17.03,91.95,15.48,126.93l-14.58,0.73c0,0-18.77-80.25-38.98-131.54
				C138.53,454.08,161.07,441.64,176.62,457.96z"/>
		</g>
		<polygon class="st58" points="165.37,538.23 189.17,537.16 194.09,588.42 173.25,583.37 		"/>
		<g>
			<g>
				<path class="st64" d="M257.23,108.18c0,0,32.34,16.54,46.78,4.18c14.44-12.36-53.2-36.27-69.4-34.6L257.23,108.18z"/>
			</g>
		</g>
		<path class="st65" d="M263.87,92.21c0,0,40.15,12.72,40.18,17.52c0.04,7.72-20.52,10.88-41.34,4.11
			C241.88,107.07,263.87,92.21,263.87,92.21z"/>
		<path class="st16" d="M267.73,88.89c0,0,4.29,20.32,2.59,28.56s13.21,9.58,16.07,3.83c0,0,0.69,12.01-7.59,9.48
			c0,0,4.73,6.26,9.17,2.18c0,0-13.1,14.06-17.65,4.2c0,0,0.26,8.53,8.48,6.63c0,0-10.49,8.84-13.98,1.41c0,0,4.37,9.33,10.91,6.03
			c0,0-16.41,18.4-35.03,0C240.69,151.19,223.57,82.02,267.73,88.89z"/>
		<g>
			<path class="st56" d="M134.96,608.95c0.17-1.27,0.73-2.76,2.32-3.52c4.65-2.22,21.75-9.16,26.32-12.99
				c3.56-2.97,6.58-9.33,7.76-12.03l32.18,0.84c2.09,8.3,3.74,24.34,4.07,27.7H134.96z"/>
		</g>
		<g>
			<rect x="134.96" y="608.95" class="st5" width="72.65" height="7.29"/>
		</g>
		<g>
			<g>
				<path class="st15" d="M169.72,594.49c0.05,0.08,0.1,0.17,0.15,0.25c0.36,0.64,0.58,1.62-0.26,2.01
					c-0.43,0.2-0.93,0.14-1.39,0.05c-1.6-0.31-3.07-1-4.48-1.79c-1.51-0.86-3.13-1.79-4.12-3.27c-1.02-1.53,0.38-2.97,2.11-2.61
					C164.72,589.74,168.1,591.82,169.72,594.49z"/>
			</g>
			<g>
				<path class="st15" d="M164.26,598.39c0.05,0.08,0.1,0.17,0.15,0.25c0.35,0.64,0.58,1.62-0.26,2.01
					c-0.43,0.2-0.93,0.14-1.39,0.05c-1.6-0.31-3.07-1-4.48-1.79c-1.51-0.86-3.13-1.79-4.12-3.27c-1.02-1.53,0.38-2.97,2.11-2.61
					C159.26,593.64,162.65,595.73,164.26,598.39z"/>
			</g>
			<g>
				<path class="st15" d="M157.54,600.97c0.05,0.08,0.1,0.17,0.15,0.25c0.36,0.64,0.59,1.62-0.26,2c-0.43,0.2-0.93,0.14-1.39,0.05
					c-1.6-0.31-3.07-1-4.48-1.79c-1.51-0.86-3.13-1.79-4.12-3.27c-1.02-1.53,0.38-2.97,2.11-2.61
					C152.54,596.22,155.92,598.3,157.54,600.97z"/>
			</g>
		</g>
		<g>
			<path class="st5" d="M241.99,585.41c0.49-0.73,0.61-5.77,0.61-9.73l28.24,0.72c3.06,6.96,5.38,20.55,7.94,29.65
				c1.04,3.69,0.59,12,0.59,12s-13.12,1.7-17.16,2.04c-4.04,0.33-25.25,2.08-25.25-2.04c0-0.78,0.31-8.89,0.78-11.98
				C238.89,598.49,241.03,586.84,241.99,585.41z"/>
		</g>
		<g>
			<path class="st56" d="M242.6,575.68l28.24,0.72c3.06,6.96,8.53,26.8,8.53,36.42c-4,2.73-17.78,3.38-20.98,3.65
				c-3.58,0.3-17.58-1.28-21.44-4.12c1.17-7.58,4.09-25.5,5.05-26.94C242.48,584.67,242.6,579.63,242.6,575.68z"/>
		</g>
		<g>
			<g>
				<path class="st15" d="M263.76,589.11c0.09,0.04,0.18,0.07,0.27,0.11c0.67,0.3,1.44,0.94,1,1.76c-0.23,0.42-0.66,0.67-1.08,0.88
					c-1.46,0.71-3.05,1.05-4.66,1.26c-1.73,0.23-3.57,0.46-5.25-0.13c-1.74-0.61-1.49-2.6,0.11-3.35
					C256.9,588.33,260.86,587.95,263.76,589.11z"/>
			</g>
			<g>
				<path class="st15" d="M264.47,595.05c0.09,0.04,0.18,0.07,0.27,0.11c0.67,0.3,1.44,0.94,1,1.76c-0.23,0.42-0.66,0.67-1.08,0.88
					c-1.46,0.72-3.05,1.05-4.66,1.27c-1.73,0.23-3.57,0.46-5.26-0.13c-1.74-0.61-1.49-2.6,0.11-3.35
					C257.62,594.27,261.57,593.89,264.47,595.05z"/>
			</g>
			<g>
				<path class="st15" d="M265.19,600.99c0.09,0.04,0.18,0.07,0.27,0.11c0.67,0.3,1.44,0.94,1,1.76c-0.23,0.42-0.66,0.67-1.08,0.88
					c-1.46,0.71-3.05,1.05-4.66,1.27c-1.73,0.23-3.57,0.46-5.25-0.13c-1.74-0.61-1.49-2.6,0.11-3.35
					C258.33,600.21,262.29,599.84,265.19,600.99z"/>
			</g>
		</g>
		<g>
			<path class="st56" d="M179.22,566.54c0,0,1.45,25.52-3.61,26.7c-5.05,1.18-8.78-10.37-14.3-16.64
				C155.79,570.33,173.39,560.61,179.22,566.54z"/>
		</g>
		<g>
			<path class="st56" d="M247,580.69c0,0-5.44-8.55-9.72-12.82c-4.27-4.27,1.94-9.33,11.27-7.38c9.33,1.94,26.76,0.01,25.98,5.06
				s-7.49,14.88-4.77,19.35L247,580.69z"/>
		</g>
		<g>
			<path class="st66" d="M205.01,231.77c0,0-66.21,49.28-73.47,41.04c-7.26-8.24-18.95-60.62-39.24-102.97l11.75-1.37
				c0,0,25.21,39.14,38.99,70.54l56.94-36.14C199.99,202.88,212.06,221.87,205.01,231.77z"/>
		</g>
		<g>
			<path class="st62" d="M267.73,373.22l11.58,98.64l-30.77,7.62l-27.75-2.91l-7.14-86.8l3.44-55.17
				C217.09,334.61,263.4,292.31,267.73,373.22z"/>
		</g>
		<g>
			<path class="st62" d="M211.66,374.73l-25.85,96.24h-29.47l-26.14-10l45.32-138.68C175.52,322.29,232.68,296.48,211.66,374.73z"/>
		</g>
		<g>
			<path class="st64" d="M208.91,181.89c0,0-19.45-2.35-42.15,26.53c-2.08,2.65-17,17.57-17,17.57s9.94,30.47,26.97,36.7
				c0,0,35.19-35.55,35.33-58.98C212.19,180.27,208.91,181.89,208.91,181.89z"/>
		</g>
		<g>
			<path class="st62" d="M259.78,330.5l-84.26-8.21c0,0-4.64,31,1.5,54.8c5.37,20.83,64.45,24.47,90.7-3.87L259.78,330.5z"/>
		</g>
		<path class="st61" d="M202.11,347.24c0.14-0.23,4.56,39.25,4.56,39.25s-7.61-5.71-8.25-10.47c-0.48-3.57-5.71-18.3-4.28-25.96
			C194.61,347.51,200.89,349.24,202.11,347.24z"/>
		<g>
			<path class="st66" d="M243.69,180.27c-0.73,0.73-32.86,39.62-32.86,39.62s0.7-29.75,1.05-37.39c0.1-2.36,0.18-4.06,0.18-4.43
				c0-3.05-2.61-16.28-2.61-16.28l32.46-14.84c0,0,0.51,6.69,1.01,14.08C243.52,169.94,244.09,179.87,243.69,180.27z"/>
		</g>
		<g>
			<path class="st66" d="M246.35,148.08c0,0-0.81,2.34-4.44,5.55h-0.01c-0.74,0.66-1.61,1.36-2.6,2.07
				c-3.81,2.73-8.46,27.27-40.15,19.87c-8.55-2-16.76-18.59-19.43-25.43c-4.47-11.46-10.09-50.47-10.09-50.47
				c13.55-41.01,69.03-17.87,74.52-13.84C249.65,89.86,246.35,148.08,246.35,148.08z"/>
		</g>
		<g>
			<path class="st66" d="M241.11,149.53c7.34-0.58,12.69-4.93,15.55-8.58c0.25-0.37,0.46-0.73,0.65-1.06
				c2.1-3.8,2.7-16.99-2.7-20.05c-3.06-1.74-5.45-0.03-6.95,1.78c0,0,0,0.01,0,0.01c-0.56,0.87-0.86,1.56-0.86,1.56L241.11,149.53z"
				/>
		</g>
		<g>
			<path class="st66" d="M76.76,137.9c-1.36,1.12,9.01,25.43,11.17,27.23l3.31,2.08l7.81,17.74c0,0-0.66-5.85,2.04-6.92
				c1.46-0.57,3.05-1.42,4.48-2.63c0.8-0.67,4.3,7.39,4.95,6.46c0.34-0.48-4.62-15.96-4.62-15.96s7.48-5.26,7.31-10.32
				c-0.1-2.98-0.19-6.01,0.83-8.82c0.53-1.47,1.26-2.87,1.62-4.39c0.36-1.52,0.31-3.24-0.63-4.5c-0.11-0.15-0.23-0.29-0.4-0.36
				c-0.35-0.15-0.74,0.05-1.06,0.29c-0.04,0.02-0.07,0.05-0.1,0.07c-3.41,2.75-5.84,6.71-6.76,10.99c0,0-7.99-12.31-8.98-16.32
				c0,0-4.3-7.86-5.94-7.36c-0.61,0.19-1.08,0.49-1.42,0.8c-0.6,0.52-0.85,1.06-0.85,1.06s6.79,17.79,6.49,18.63
				c-0.31,0.85-10.01-13.39-11.56-13.71c-0.44-0.09-0.98,0.17-1.51,0.62c-0.49,0.4-0.98,0.95-1.41,1.48
				c-0.72,0.88-1.24,1.71-1.24,1.71s-0.2,0.09-0.53,0.25c-0.44,0.23-1.09,0.58-1.76,0.99C77.56,137.3,77.13,137.59,76.76,137.9z"/>
		</g>
		<g>
			<g>
				<g>
					<path class="st67" d="M81.53,134.07c0.24,0.44,0.48,0.88,0.74,1.31c1.53,2.57,3.21,4.71,4.5,6.19c1.22,1.38,2.09,2.2,2.19,2.3
						c-0.06-0.13-0.54-1.22-1.35-2.86c-0.87-1.76-2.1-4.13-3.6-6.65c-0.36-0.61-0.73-1.2-1.08-1.76
						C82.44,133,81.95,133.54,81.53,134.07z"/>
				</g>
			</g>
			<g>
				<g>
					<path class="st67" d="M77.99,137.03c2.35,4.13,4.94,7.04,5.11,7.22c-0.06-0.24-1.12-3.99-3.35-8.21
						C79.31,136.27,78.66,136.62,77.99,137.03z"/>
				</g>
			</g>
		</g>
		<g>
			<path class="st64" d="M207.22,354.46c44.64,3.6,71.58,6.94,50.99-5.91L268.26,366c0,0,14.68-163.4-15.74-184.98
				c-2.42-1.72-5.16-2.65-8.24-2.65l-8.76,3.47l-23.46-2.31c0,0-4.68,2.71-5.58,5.8c0,0-0.06,0.01-0.19,0.03
				c-1.34,0.22-9.64,1.8-16.86,8.09c-0.25,0.22-0.51,0.44-0.75,0.68c-2.17,2.01-4.22,4.46-5.91,7.46
				c-8.5,15.02-5.7,84.73-13.05,138.49C169.71,340.17,197.21,353.65,207.22,354.46z"/>
		</g>
		<g>
			<path class="st65" d="M270.72,251.25l-0.12,11.44c7.89,0.83,39.45-3.74,43.19-26.16C313.78,236.52,285.71,207.77,270.72,251.25z"
				/>
		</g>
		<g>
			<g>
				<path class="st3" d="M261.75,366c4.88-1.77,11.92-6.22,11.92-6.22c-0.33-1.08-0.91-2.2-1.66-3.32
					c-0.31-0.47-0.65-0.94-1.01-1.41c-0.81-1.03-1.74-2.06-2.74-3.04c-0.43-0.44-0.87-0.87-1.32-1.28c-1.2-1.11-2.44-2.16-3.63-3.11
					c-0.5-0.41-1-0.8-1.48-1.17c-1.3-0.99-2.46-1.82-3.34-2.43c-1.02-0.7-1.65-1.11-1.65-1.11c-3.81,2.85-6.77,9.78-6.77,9.78
					c0.69,1.68,1.73,3.26,2.93,4.71C257.73,363.08,261.75,366,261.75,366z"/>
			</g>
			<g>
				<g>
					<g>
						<path class="st10" d="M257.49,352.67c0,0,0.56-0.36,1.35-0.95c0.8-0.59,1.83-1.38,2.84-2.36c0.62-0.59,1.16-1.19,1.63-1.75
							c-0.5-0.41-1-0.8-1.48-1.17c-0.57,0.33-1.17,0.76-1.72,1.29c-1.12,1.08-1.81,2.35-2.18,3.31
							C257.57,352.01,257.49,352.67,257.49,352.67z"/>
					</g>
				</g>
				<g>
					<g>
						<path class="st10" d="M262.56,356.57c0,0,0.57-0.3,1.35-0.8c0.79-0.51,1.81-1.22,2.8-2.13c0.59-0.54,1.1-1.1,1.55-1.62
							c-0.43-0.44-0.87-0.87-1.32-1.28c-0.58,0.31-1.19,0.72-1.76,1.25c-1.07,0.99-1.76,2.17-2.14,3.07
							C262.66,355.94,262.56,356.57,262.56,356.57z"/>
					</g>
				</g>
				<g>
					<g>
						<path class="st10" d="M265.95,361.4c0,0,0.6-0.3,1.44-0.84c0.84-0.55,1.92-1.31,2.97-2.29c0.64-0.6,1.19-1.23,1.66-1.81
							c-0.31-0.47-0.65-0.94-1.01-1.41c-0.71,0.38-1.48,0.9-2.19,1.58c-1.11,1.05-1.85,2.26-2.27,3.19
							C266.1,360.76,265.95,361.4,265.95,361.4z"/>
					</g>
				</g>
			</g>
		</g>
		<g>
			<path class="st61" d="M210.46,392.8c-0.98-0.07-17.5-2.26-22.9-12.62"/>
		</g>
		<g>
			<path class="st66" d="M293.98,227.17c0,0,46.73,53.69,39.74,62.15c-7,8.46-24.49,28.39-63.12,55.09l-16.84-7.59
				c0,0,23.91-26.27,48.54-51.75l-36.06-48.39C266.23,236.67,283.1,221.77,293.98,227.17z"/>
		</g>
		<g>
			<path class="st64" d="M252.52,181.02c0,0,23.72,2.39,45.34,32.66c6.88,9.62,15.92,22.84,15.92,22.84s-17.29-3.74-27.41,0.42
				c-8.86,3.63-7.06,9.97-15.78,25.75c0,0-26.63-35.55-26.77-58.98C243.69,180.27,252.52,181.02,252.52,181.02z"/>
		</g>
		<g>
			<path class="st16" d="M234.88,118.87c-0.42,0-0.8-0.27-0.94-0.68c-3.16-9.9-8.89-11.17-13.53-11.17c-7.92,0-11.5,8.72-11.54,8.81
				c-0.2,0.5-0.77,0.75-1.28,0.55c-0.5-0.2-0.75-0.77-0.55-1.27c0.04-0.1,1.02-2.54,3.13-4.99c2.84-3.31,6.38-5.06,10.24-5.06
				c7.78,0,12.67,3.98,15.4,12.54c0.16,0.52-0.12,1.07-0.64,1.23C235.08,118.86,234.98,118.87,234.88,118.87z"/>
		</g>
		<g>
			<path class="st16" d="M172.53,125.17c-0.06,0-0.12-0.01-0.19-0.02c-0.53-0.1-0.88-0.62-0.78-1.15
				c0.11-0.58,2.81-14.12,11.49-14.27c4.38-0.08,8.85,0.82,11.87,7.79c0.22,0.5-0.01,1.08-0.51,1.29c-0.5,0.22-1.08-0.01-1.29-0.51
				c-2.69-6.21-6.43-6.67-10.04-6.61c-7.09,0.12-9.57,12.55-9.59,12.67C173.4,124.84,172.99,125.17,172.53,125.17z"/>
		</g>
		<g>
			
				<ellipse transform="matrix(0.999 -0.0443 0.0443 0.999 -5.1598 9.922)" class="st15" cx="221.1" cy="121.28" rx="14.16" ry="15.26"/>
		</g>
		<g>
			
				<ellipse transform="matrix(0.999 -0.0443 0.0443 0.999 -5.1991 9.9452)" class="st16" cx="221.6" cy="122.18" rx="8.84" ry="10.63"/>
		</g>
		<g>
			<path class="st15" d="M172.54,126.62c-0.18,7.63,4.18,11.71,10.51,12.14c6.33,0.43,11.88-5.4,12.4-13.01
				c0.52-7.62-4.19-14.14-10.52-14.57C178.6,110.74,172.8,115.83,172.54,126.62z"/>
		</g>
		<g>
			
				<ellipse transform="matrix(0.9928 -0.1196 0.1196 0.9928 -13.7591 23.1434)" class="st16" cx="185.94" cy="126.2" rx="7.2" ry="9.07"/>
		</g>
		<g>
			<path d="M191.16,151.4c0,0,24.24,1.46,35.73-6.37c3.77-2.57-5.46,18.94-14.63,20C193.77,167.16,191.16,151.4,191.16,151.4z"/>
		</g>
		<g>
			<path class="st17" d="M202.53,164.29c0,0,3.35-12.84,22.9-12.8C225.43,151.5,220.58,170.96,202.53,164.29z"/>
		</g>
		<g>
			<path class="st66" d="M244.62,346.44c0.19,1.17,14.12,19.56,17.12,19.56c3.01,0,4.99-8.77,3.44-9.66
				c-0.13-0.08-0.52-2.86-0.68-2.92c-1.74-0.72,0.4-2.53-0.14-2.53c-0.58,0,7.29-5.66,7.46-8.47c0.13-2.14-4-11.57-8.95-14.26
				c-1.53-0.83-9.13,8.65-9.13,8.65S244.43,345.28,244.62,346.44z"/>
		</g>
		<g>
			<path class="st67" d="M195.49,146.88c-0.28,0-0.57-0.12-0.76-0.36c-1.7-2.08-4.43-5.84-3.68-7.7c0.14-0.35,0.52-0.95,1.49-1.07
				c5.35-0.65,5.5-3.72,5.5-3.85c0.02-0.53,0.45-0.96,0.98-0.96c0,0,0.01,0,0.01,0c0.54,0.01,0.97,0.44,0.97,0.97
				c0,0.2-0.08,4.88-7.13,5.78c0.07,0.87,1.6,3.4,3.38,5.59c0.34,0.42,0.28,1.04-0.14,1.38
				C195.93,146.81,195.71,146.88,195.49,146.88z"/>
		</g>
		<g>
			<path class="st67" d="M252.73,126.67c0,0-5.11,4.41-3.59,6.28s0.49,3.32-2.63,6.65c-3.12,3.32,5.4,4.51,8.93-4.81
				C258.96,125.47,252.73,126.67,252.73,126.67z"/>
		</g>
		<g>
			
				<ellipse transform="matrix(0.9967 -0.081 0.081 0.9967 -10.9471 15.189)" class="st68" cx="181.72" cy="142.51" rx="8.94" ry="3.33"/>
		</g>
		<g>
			
				<ellipse transform="matrix(0.9841 -0.1778 0.1778 0.9841 -20.7281 42.913)" class="st68" cx="229.12" cy="137.13" rx="10.47" ry="4.59"/>
		</g>
		<g>
			<path class="st9" d="M211.93,68.32c0,0,19.59,0.52,23.03,4.83C238.4,77.45,231.56,60.43,211.93,68.32z"/>
		</g>
		<g>
			<path class="st9" d="M186.9,68.32c0,0,2.15-7.89,8.55-7.48c6.4,0.42,6.4,0.42,6.4,0.42S192.72,61.88,186.9,68.32z"/>
		</g>
		<g>
			<path class="st9" d="M238.61,78.49c0,0,6.76,6.04,9.61,3.33c2.85-2.71,11.78,9.75,11.78,9.75s-6.95-14.74-14.17-13.91
				C238.61,78.49,238.61,78.49,238.61,78.49z"/>
		</g>
		<g>
			<g>
				<path class="st16" d="M258.01,124.96c0,0-5.24-11.65-16.35,4.95c0,0-2.49-16.63-5.34-23.39c-2.85-6.75-14.4-6.72-16.03-14.67
					c0,0-29.71,14.89-46.84,2.98c-19.17-13.34,42.23-40.59,71.1-25.89C267.22,80.49,262.64,103.92,258.01,124.96z"/>
			</g>
		</g>
		<g>
			<g>
				<g>
					<path class="st65" d="M167.53,97.6c0,0,1.31,0.84,4.48,1.85c1.07-3.65,7.22-22.06,22.01-22.37
						c14.87-0.29,17.83,21.39,18.27,25.55c25.76-1.87,56.74-6.65,56.74-6.65c-0.43-39.99-42.2-59.53-73.33-48.24
						C161.21,60.24,167.53,97.6,167.53,97.6z"/>
				</g>
			</g>
			<g>
				<g>
					<g>
						<path class="st64" d="M210.28,92.79c0,0-14.95,4.87-36.12-0.58c-1.84,1.78-2.48,5.04-2.15,7.24c0,0,6.21,6.22,40.28,3.18
							C212.29,102.63,214.24,97.62,210.28,92.79z"/>
					</g>
				</g>
			</g>
		</g>
		<g>
			<path class="st16" d="M201.29,107.62c0,0,13.73-11.72,29.19-4.73C240.61,107.47,213.96,100.72,201.29,107.62z"/>
		</g>
		<g>
			<path class="st16" d="M190.92,107.49c0,0-13.69-8.79-25.19-0.37C158.2,112.63,179.05,102.93,190.92,107.49z"/>
		</g>
		<path class="st66" d="M194.07,185.97c0,0,3.24,21.04,13.16,21.09c11.5,0.05,32.72,2.36,41.65-28.08
			C248.87,178.97,234.06,166.95,194.07,185.97z"/>
		<g>
			<path class="st67" d="M241.92,153.63c0,0-3.37,18.62-29.98,23.29l-0.21,9.36C211.72,186.27,243.71,176.01,241.92,153.63z"/>
		</g>
		<path class="st64" d="M278.89,90.37L255.2,75.69c0,0,1.9,14.69,22.63,20.29C277.82,95.98,281.23,97.14,278.89,90.37z"/>
		<polygon class="st61" points="236.06,356.57 237.43,367.03 232.36,368.54 232.36,356.57 		"/>
		<polygon class="st61" points="182.91,346.12 179.49,357.59 174.23,356.97 179.51,344.66 		"/>
		<path class="st56" d="M257.69,179.19c0,0-40.46,108.59,15.11,132.6c0.35,0.46,2.87,1.27,2.55,1.66
			c-5.69,6.98-7.38,9.24-12.03,12.95c0,0-43.19-20.1-36.98-74.11c6.22-54.01,18.27-76.72,18.27-76.72S250.67,169.61,257.69,179.19z"
			/>
		<path class="st61" d="M260.4,381.96v89.01C260.4,470.97,267.79,406.53,260.4,381.96z"/>
		<path class="st61" d="M196.63,398.14l-36.03,64.72C160.6,462.86,187.57,430.5,196.63,398.14z"/>
		<path class="st65" d="M182.76,201.59c0,0-13.46,36.97-6.04,61.1C176.73,262.69,177.15,221.24,182.76,201.59z"/>
		<path class="st65" d="M251.17,219.89L270.59,259C270.59,259,270.19,241.98,251.17,219.89z"/>
		<path class="st64" d="M171.28,537.96l2.82,18.72C174.1,556.68,176.05,545.47,171.28,537.96z"/>
		<path class="st64" d="M179.73,536.96l2.82,18.72C182.54,555.68,184.49,544.47,179.73,536.96z"/>
		<path class="st64" d="M262.53,528.38l-0.19,18.93C262.34,547.31,258.85,536.48,262.53,528.38z"/>
		<path class="st64" d="M254.02,528.56l-0.19,18.93C253.83,547.49,250.35,536.66,254.02,528.56z"/>
		<path class="st67" d="M211.89,182.5l-0.35,17.08C211.53,199.59,215.73,190.95,211.89,182.5z"/>
		<path class="st56" d="M202.31,181.51c0,0-23.69,25.6-29.67,130.65c0,0-13.65-73.97,11.59-126.77
			C184.23,185.39,187.96,179.71,202.31,181.51z"/>
	</g>
</g>
</svg>
