<?xml version="1.0" encoding="utf-8"?>
<!-- Generator: Adobe Illustrator 24.0.1, SVG Export Plug-In . SVG Version: 6.00 Build 0)  -->
<svg version="1.1" xmlns="http://www.w3.org/2000/svg" xmlns:xlink="http://www.w3.org/1999/xlink" x="0px" y="0px"
	 viewBox="0 0 365.39 654.66" style="enable-background:new 0 0 365.39 654.66;" xml:space="preserve">
<style type="text/css">
	.st0{display:none;}
	.st1{display:inline;fill:#FFFFFF;stroke:#1D1D1B;stroke-miterlimit:10;}
	.st2{display:inline;fill:#FFFFFF;}
	.st3{fill:#F29258;}
	.st4{fill:#9B9592;}
	.st5{fill:#161818;}
	.st6{fill:#725944;}
	.st7{fill:#FFB103;}
	.st8{fill:#773810;}
	.st9{fill:#57240E;}
	.st10{fill:#C15D24;}
	.st11{fill:#F0D2A3;}
	.st12{fill:#BC7002;}
	.st13{fill:#5C3D2B;}
	.st14{fill:#68462D;}
	.st15{fill:#FFFFFF;}
	.st16{fill:#4D3520;}
	.st17{fill:#E42320;}
	.st18{fill:#FFBC97;}
	.st19{fill:#FDEEE6;}
	.st20{fill:#BC7B4E;}
	.st21{fill:#3D1112;}
	.st22{fill:#75312F;}
	.st23{fill:#FCC306;}
	.st24{fill-rule:evenodd;clip-rule:evenodd;fill:#BC7B4E;}
	.st25{fill:#7D4E25;}
	.st26{fill:#79844C;}
	.st27{fill:#3253A0;}
	.st28{fill:#87573D;}
	.st29{fill:#143984;}
	.st30{fill:#DD3D05;}
	.st31{fill:#6EB3E3;}
	.st32{opacity:0.5;}
	.st33{fill:#265CC6;}
	.st34{fill:#B72F00;}
	.st35{fill:#ECB079;}
	.st36{fill-rule:evenodd;clip-rule:evenodd;fill:#87573D;}
	.st37{fill:#56A9FC;}
	.st38{fill:#517005;}
	.st39{fill:#9DC947;}
	.st40{fill:#1D1D1B;}
	.st41{fill:#FF0000;}
	.st42{fill:#FFE000;}
	.st43{fill:#7D9928;}
	.st44{fill:#6CF1FF;}
	.st45{fill:#606060;}
	.st46{clip-path:url(#SVGID_2_);}
	.st47{fill:#7906B5;}
	.st48{fill:#AE00FF;}
	.st49{fill:#FF1066;}
	.st50{fill:#AA0045;}
	.st51{fill:#CEC2CB;}
	.st52{fill:#6D5E66;}
	.st53{fill:#BFBEBB;}
	.st54{fill:#F39200;}
	.st55{fill:#DBDBDB;}
	.st56{fill:#00659D;}
	.st57{fill:#00ABBC;}
	.st58{fill:#FC8890;}
	.st59{clip-path:url(#SVGID_4_);}
	.st60{fill:#FF9999;}
	.st61{fill:#D3A148;}
	.st62{fill:#E2C58A;}
	.st63{clip-path:url(#SVGID_6_);fill:#00ABBC;}
	.st64{fill:#B35D7F;}
	.st65{fill:#722142;}
	.st66{fill:#EEBC99;}
	.st67{fill:#D68F5F;}
	.st68{fill:#FF9B57;}
</style>
<g id="Capa_2" class="st0">
</g>
<g id="Capa_1">
	<g>
		<g>
			<path d="M133.92,589.45c0,0-13.98,25.12-2.27,29.5s34.09-2.02,22.2-26.62C141.97,567.73,133.92,589.45,133.92,589.45z"/>
		</g>
		<path class="st20" d="M152.84,587.4c-0.14-0.3-0.27-0.58-0.41-0.86l0.79-39.11l-22.01,2.54c0,0,3,21.18,4.48,33.28
			c-0.41,0.88-0.62,1.48-0.62,1.48s-12.46,23.24-2.02,27.29C143.49,616.08,163.44,610.16,152.84,587.4z"/>
		<path class="st20" d="M259.73,613.33c-1.91-4.35-25.72-13.88-25.72-13.88s-3.93-2.85-6.4-11.68l-2.09-34.51l-23.44,3.29l5.31,42.9
			l0.24-0.09c-0.23,1.4-0.54,2.61-0.95,3.51c-2.82,6.21-4.2,14.67,5.23,14.95C221.36,618.11,262.27,619.09,259.73,613.33z"/>
		<g>
			<path d="M259.73,618.23l-53.04-0.45c0,0-1.86-3.43-2.1-5.68c-0.21-1.96,0-6.13,0-6.13l52.6,3.88c0,0,4.23,0.42,4.51,5.01
				C261.78,616.09,259.73,618.23,259.73,618.23z"/>
		</g>
		<g>
			<g>
				<path class="st21" d="M114.49,279.15c0,0-13,69.53-3.58,78.31c9.42,8.78,37.36-1.4,37.36-1.4l7.31-11.92l-11.29-72.9
					l-20.59-18.11L114.49,279.15z"/>
			</g>
			<g>
				<path class="st22" d="M115.26,226.7c0,0-15.85,2.64-18.41,10.05c-2.56,7.42,6.26,69.11,12.1,64.75
					c5.85-4.36,19.7-25.06,19.7-25.06L115.26,226.7z"/>
			</g>
		</g>
		<g>
			<g>
				<g>
					<path class="st20" d="M263.74,194.03c-4.66-4.04-7.65-9.94-8.15-16.09c1.87,2.29,3.74,4.57,5.6,6.86
						c0.1-7.65,3.18-15.22,8.45-20.76c-2.27,4.29-3.54,9.1-3.71,13.95c2.79-5.17,6.8-9.68,11.6-13.06
						c-2.01,4.18-4.02,8.36-6.02,12.54c3.74-4.37,8.55-7.81,13.88-9.94c-4.08,4.24-7.25,9.35-9.26,14.88
						c-1.01,2.78-1.77,5.76-3.65,8.04c-1.88,2.28-5.36,3.62-7.86,2.04"/>
				</g>
			</g>
			<g>
				<g>
					<path class="st20" d="M248.4,277.82c5.68-0.22,12.07-6.67,13.63-13.65c5.36-24.03,12.91-65.76,8.01-89.02
						c-7.57,7.33-34.24,68.19-39.43,83.43c-1.29,3.78,2.71,14.31,4.94,17.21"/>
				</g>
			</g>
		</g>
		<g>
			<path class="st23" d="M198.29,201.45c-6.72,0-12.96-4.33-15.06-11.07c-2.59-8.3,2.06-17.15,10.36-19.74
				c8.3-2.59,17.15,2.06,19.74,10.36l0,0c1.25,4.02,0.87,8.29-1.09,12.01c-1.96,3.73-5.25,6.47-9.27,7.72
				C201.41,201.21,199.84,201.45,198.29,201.45z M198.27,172.59c-1.29,0-2.59,0.19-3.89,0.59c-6.89,2.15-10.75,9.5-8.6,16.39
				c2.15,6.89,9.5,10.75,16.4,8.6c3.34-1.04,6.07-3.32,7.7-6.42c1.62-3.1,1.95-6.64,0.91-9.98
				C209.03,176.19,203.85,172.59,198.27,172.59z"/>
		</g>
		<g>
			<path class="st16" d="M186.41,126.85c0.23,8.78,1.78,11.3,4.13,19.75c2.05,7.13,2.44,11.65,6.34,17.93
				c1-2.42,7.82-25.23,8.02-27.9L186.41,126.85z"/>
		</g>
		<g>
			<g>
				<path class="st20" d="M177.14,224.59c1.14-2.03,1.79-4.5,1.71-7.41c0,0-1.46-9.66-3.04-20.06c-4.25,0.65-8.55,1.14-12.94,1.26
					c-3.66,0.1-7.27,0-10.85-0.28c-1.01,10.32-1.91,19.85-1.91,19.85c0.05,1.86,0.39,3.52,0.96,4.99
					C159.16,225.38,168.53,225.95,177.14,224.59z"/>
			</g>
		</g>
		<path class="st24" d="M198.99,160.76c-2.8-22.43-18.18-45.03-42.44-44.38c-23.44,0.63-35.57,22.47-35.18,44.22
			c-4.85-1.85-10.63-0.62-9.77,5.85c0.52,6.06,6.23,6.65,11.35,6.35c4.51,18.29,18.73,33.45,43.48,31.31
			c21,0.87,31.28-13.72,32.83-31.25c2.05-0.72,3.62-2.22,4.12-5.07C204.32,163.49,202.08,161.3,198.99,160.76z"/>
		<g>
			<path d="M130.32,164.08c-1.25,0.12,1.9-2.93,2.68-6.44c1.14-5.12,4.05-8.94,10.42-10.57c6.86-1.75,11.21,1.96,12.74,5.03
				c0.43,0.86,0.81,3.77,0.81,3.77S136.52,163.49,130.32,164.08z"/>
			<path d="M130.26,165.09c-0.63,0-0.94-0.38-1.05-0.55c-0.46-0.73-0.03-1.43,0.75-2.7c0.71-1.16,1.69-2.75,2.06-4.42
				c1.34-6.04,4.99-9.74,11.15-11.32c7.78-1.99,12.39,2.55,13.88,5.55c0.48,0.96,0.84,3.57,0.9,4.08c0.06,0.46-0.21,0.9-0.64,1.07
				c-0.84,0.31-20.64,7.67-26.9,8.27l0,0C130.36,165.09,130.31,165.09,130.26,165.09z M130.23,163.09
				C130.23,163.09,130.23,163.09,130.23,163.09L130.23,163.09C130.23,163.09,130.23,163.09,130.23,163.09z M146.84,147.63
				c-0.97,0-2.03,0.13-3.17,0.42c-5.43,1.39-8.51,4.51-9.69,9.81c-0.44,1.98-1.56,3.8-2.3,5.01c6.41-1.21,20.73-6.39,24.18-7.66
				c-0.17-1.06-0.4-2.27-0.6-2.66C154.25,150.52,151.47,147.63,146.84,147.63z"/>
		</g>
		<g>
			<path d="M195.8,160.04c1.25-0.06-1.31-2.25-2.58-5.61c-1.86-4.91-3.63-9.58-10.19-9.91c-5.1-0.25-8.89,3.94-10.16,6.71
				c-0.46,1-1.99,3.93-1.99,3.93S189.57,160.34,195.8,160.04z"/>
			<path d="M195.26,161.06c-6.78,0-23.9-4.72-24.65-4.92c-0.29-0.08-0.53-0.29-0.65-0.56c-0.12-0.28-0.11-0.59,0.03-0.86
				c0.01-0.03,1.52-2.92,1.96-3.89c1.42-3.08,5.55-7.57,11.12-7.29c7.21,0.36,9.17,5.54,11.07,10.54c0.55,1.46,1.38,2.71,1.99,3.63
				c0.78,1.18,1.25,1.89,0.86,2.66c-0.12,0.24-0.44,0.65-1.16,0.69C195.66,161.05,195.46,161.06,195.26,161.06z M195.75,159.04
				l0.05,1L195.75,159.04L195.75,159.04L195.75,159.04z M172.33,154.52c3.92,1.05,16.49,4.29,22.29,4.52
				c-0.05-0.08-0.11-0.16-0.16-0.24c-0.66-0.99-1.56-2.36-2.19-4.01c-1.83-4.82-3.4-8.97-9.3-9.26c-4.54-0.22-8.06,3.64-9.2,6.13
				C173.48,152.27,172.82,153.58,172.33,154.52z"/>
		</g>
		<g>
			<path class="st16" d="M112.82,126.85c-2.59,12.58-0.01,29.55,11.37,36.96c0.28-9.59,3.95-21.4,9.61-29L112.82,126.85z"/>
		</g>
		<g>
			<g>
				<path class="st13" d="M128.28,77.72c-3.83-3.89-10.07-8.25-15.58-5.44c-5.79,2.55-4.04,8.09-3.12,12.86
					c-15.89-7.03-26.29,12.15-9.62,18.62c-5.23,3.33-11.83,5.64-9.49,13.56c1.49,6.08,6.8,5.41,11.62,6.34
					c-2.23,6.18-4.36,16.09,5,17.7c5.89,1.17,11.08-3.76,13.62-8.35c-0.07,7.45,2.01,15.39,11.55,13.8
					c7.68-1.54,8.54-9.28,9.43-15.69c4.87,12.91,22.5,15.37,25.28-0.41c1.7,13.8,21.79,18.58,21.62,2.09
					c0.48,7.97,7.29,13.91,15.48,11.57c5.55-1.48,7.17-10.57,2.81-14.45c4.66,4.93,14.19,3.08,15.88-3.35
					c2.17-8.58-3.1-16.42-11.4-18.06c15.91-2.29,7.49-28.68-7.48-21.1c7.4-12.18-8.75-28.51-17.73-16.03
					c-0.68-15.42-25.51-18.22-25.6-1.71c-2.27-5.26-6.13-10.22-12.51-9.78c-6.38,0.44-9.95,6.12-9.79,12.24
					c-3-2.58-6.54-5.68-10.99-2.9c-2.87,2.21-3.02,6.47,0.23,8.51"/>
			</g>
			<g>
				<g>
					<path class="st25" d="M114.43,97.26c-1.18,0.64-2.19,1.56-2.99,2.62c-0.81,1.06-1.42,2.27-1.73,3.55
						c-0.31,1.27-0.35,2.63,0.06,3.86c0.43,1.22,1.19,2.34,2.25,3.05c1.05,0.74,2.32,1.12,3.61,1.28c1.29,0.16,2.61,0.06,3.88-0.2
						c1.27-0.28,2.51-0.73,3.61-1.4c1.09-0.66,2.07-1.55,2.62-2.65l0.86,0.4c-0.56,1.43-1.01,2.9-1.27,4.39
						c-0.25,1.49-0.32,3.02-0.02,4.45c0.28,1.43,1.04,2.71,2.22,3.48c1.18,0.77,2.66,1.09,4.15,1.11c2.97,0.08,6.06-0.83,7.98-3.07
						c1.95-2.19,2.64-5.3,2.41-8.28l1.32-0.06c0.11,2.61,0.91,5.22,2.56,7.26c1.61,2.05,3.91,3.58,6.43,4.25
						c1.26,0.33,2.58,0.45,3.82,0.23c1.23-0.23,2.42-0.78,3.17-1.74c0.76-0.95,1.11-2.2,1.12-3.48c0.01-1.29-0.28-2.59-0.66-3.87
						l1.09-0.19c0.05,3.19,1.86,6.22,4.45,8.16c2.57,1.96,5.93,3.03,9.15,2.52c0.8-0.12,1.59-0.34,2.34-0.66
						c0.74-0.32,1.49-0.68,2.1-1.21c0.65-0.48,1.15-1.13,1.6-1.8c0.17-0.37,0.4-0.71,0.51-1.1l0.2-0.58l0.13-0.6
						c0.6-3.23-0.72-6.78-3.32-8.91c2.7,2.01,4.22,5.57,3.7,8.98l-0.11,0.64l-0.19,0.62c-0.1,0.42-0.34,0.79-0.51,1.19
						c-0.45,0.74-0.97,1.46-1.66,2c-0.65,0.59-1.42,1-2.2,1.37c-0.79,0.36-1.63,0.61-2.48,0.76c-3.44,0.61-7.02-0.44-9.81-2.48
						c-1.4-1.03-2.62-2.32-3.51-3.83c-0.91-1.5-1.43-3.25-1.51-5.03l-0.2-4.3l1.29,4.11c0.42,1.35,0.75,2.76,0.74,4.23
						c0,1.45-0.39,3-1.35,4.22c-0.96,1.22-2.43,1.91-3.88,2.19c-1.46,0.26-2.95,0.13-4.35-0.23c-2.8-0.73-5.32-2.39-7.13-4.64
						c-1.84-2.25-2.79-5.15-2.87-8.02l1.32-0.06c0.1,1.62-0.01,3.27-0.46,4.86c-0.44,1.58-1.21,3.1-2.33,4.35
						c-1.11,1.25-2.56,2.18-4.12,2.72c-1.56,0.54-3.21,0.77-4.83,0.7c-1.61-0.04-3.32-0.38-4.76-1.34
						c-0.71-0.48-1.33-1.12-1.78-1.85c-0.45-0.73-0.73-1.55-0.9-2.36c-0.32-1.64-0.19-3.29,0.1-4.86c0.31-1.58,0.81-3.1,1.42-4.57
						l0.86,0.4c-0.7,1.3-1.82,2.25-3.02,2.95c-1.21,0.71-2.54,1.16-3.89,1.43c-1.36,0.25-2.75,0.32-4.13,0.13
						c-1.37-0.19-2.74-0.65-3.86-1.5c-1.14-0.84-1.93-2.08-2.34-3.4c-0.39-1.34-0.3-2.77,0.07-4.08
						C110.14,100.72,112.02,98.46,114.43,97.26z"/>
				</g>
				<g>
					<path class="st25" d="M152.04,90.4c-0.13-1.17-0.17-2.35-0.02-3.53c0.15-1.17,0.51-2.33,1.07-3.38
						c0.57-1.05,1.36-1.99,2.34-2.7c0.98-0.7,2.14-1.16,3.35-1.33c2.42-0.39,5.01,0.66,6.55,2.6c0.78,0.96,1.31,2.1,1.62,3.28
						c0.31,1.18,0.41,2.4,0.4,3.61l-0.86-0.13c0.77-2.97,1.75-5.96,3.59-8.56c0.93-1.27,2.15-2.47,3.76-3.04
						c0.79-0.29,1.65-0.4,2.48-0.34c0.83,0.05,1.64,0.26,2.39,0.55c0.76,0.28,1.46,0.67,2.15,1.09c0.32,0.25,0.67,0.48,0.97,0.76
						c0.28,0.29,0.61,0.55,0.85,0.88c1.06,1.24,1.77,2.74,2.18,4.28c0.42,1.55,0.51,3.16,0.39,4.74c-0.13,1.58-0.48,3.15-1.11,4.63
						l-1.09-0.68c0.98-1.1,2.04-2.14,3.34-2.94c1.3-0.78,2.84-1.26,4.4-1.2c1.57,0.06,3.06,0.69,4.28,1.59
						c1.22,0.91,2.19,2.09,2.93,3.39c0.73,1.3,1.22,2.74,1.42,4.22c0.2,1.48,0.07,3.05-0.52,4.48c-0.57,1.43-1.65,2.66-2.96,3.44
						c-1.31,0.79-2.79,1.17-4.25,1.36l0-1.13c1.77,0.22,3.5,0.64,5.18,1.24c1.67,0.6,3.29,1.4,4.73,2.5
						c1.42,1.09,2.68,2.54,3.24,4.32c0.58,1.78,0.33,3.7-0.31,5.36c-0.34,0.83-0.71,1.64-1.29,2.37l-0.2,0.28
						c-0.07,0.09-0.16,0.16-0.24,0.24l-0.48,0.48c-0.32,0.32-0.72,0.55-1.07,0.83c-1.53,0.96-3.32,1.38-5.08,1.47
						c-3.52,0.15-7.05-0.81-9.98-2.68c1.5,0.88,3.15,1.48,4.83,1.87c1.68,0.39,3.42,0.55,5.12,0.4c1.7-0.15,3.39-0.61,4.78-1.56
						c1.39-0.95,2.35-2.36,2.92-3.96c0.56-1.58,0.73-3.3,0.19-4.85c-0.52-1.55-1.66-2.84-3.01-3.82c-1.35-0.99-2.9-1.72-4.51-2.26
						c-1.61-0.54-3.28-0.9-4.96-1.11l-4.37-0.54l4.37-0.6c1.34-0.18,2.66-0.54,3.77-1.22c1.12-0.67,1.98-1.69,2.46-2.89
						c0.49-1.2,0.6-2.55,0.41-3.87c-0.18-1.32-0.64-2.61-1.3-3.77c-0.66-1.16-1.54-2.2-2.59-2.98c-1.05-0.77-2.29-1.28-3.56-1.32
						c-1.27-0.04-2.54,0.37-3.67,1.02c-1.13,0.69-2.12,1.63-3.03,2.64l-2.6,2.87l1.51-3.55c1.13-2.65,1.41-5.74,0.71-8.55
						c-0.36-1.4-0.99-2.72-1.9-3.81c-0.21-0.29-0.49-0.51-0.74-0.77c-0.26-0.24-0.55-0.43-0.82-0.66c-0.61-0.37-1.25-0.74-1.92-0.99
						c-1.32-0.52-2.77-0.69-4.07-0.22c-1.3,0.46-2.4,1.44-3.28,2.6c-1.75,2.36-2.79,5.26-3.6,8.15l-0.99,3.54l0.13-3.67
						c0.08-2.26-0.32-4.62-1.72-6.4c-1.36-1.77-3.65-2.79-5.91-2.52c-1.12,0.12-2.23,0.51-3.18,1.14c-0.95,0.64-1.74,1.51-2.32,2.5
						c-0.58,1-0.96,2.11-1.17,3.26C151.99,88.05,151.97,89.23,152.04,90.4z"/>
				</g>
			</g>
		</g>
		<g>
			
				<ellipse transform="matrix(0.0443 -0.999 0.999 0.0443 -21.4917 299.0281)" class="st15" cx="145.55" cy="160.75" rx="13.9" ry="12.9"/>
		</g>
		<g>
			
				<ellipse transform="matrix(0.0443 -0.999 0.999 0.0443 -21.5551 298.9618)" class="st26" cx="145.48" cy="160.75" rx="11.04" ry="8.91"/>
		</g>
		<g>
			
				<ellipse transform="matrix(0.0443 -0.999 0.999 0.0443 15.2498 334.1363)" class="st15" cx="182.27" cy="159.1" rx="13.9" ry="11.55"/>
		</g>
		<g>
			
				<ellipse transform="matrix(0.0443 -0.999 0.999 0.0443 14.1005 332.3284)" class="st26" cx="180.75" cy="158.79" rx="10.25" ry="8.51"/>
		</g>
		<g>
			<path class="st27" d="M112.5,345c0,0-16.47,10.24-6.2,65.47s17.04,150.16,17.04,150.16l39.48,0.11l-4.32-156.03
				C158.51,404.7,166.98,332.64,112.5,345z"/>
		</g>
		<g>
			<path class="st27" d="M194.44,341.58c0,0,18.4,6.13,21.25,62.24c2.85,56.11,19.77,149.86,19.77,149.86l-48,4.96l-23.89-148.3
				C163.57,410.33,138.58,342.22,194.44,341.58z"/>
		</g>
		<g>
			<path class="st27" d="M112.5,345l81.19,14.37l11.9-4.71c0,0,8.29,8.98-1.67,44.53c-3.51,12.51-86.19,36.31-100.69-12.25
				C98.46,370.95,112.5,345,112.5,345z"/>
		</g>
		<g>
			<path class="st15" d="M150.3,179.36c0,0,23.13,5.66,30.16,3.67C180.46,183.03,168.46,204.83,150.3,179.36z"/>
		</g>
		<g>
			<path class="st28" d="M150.3,179.36c0,0,20.5,29.49,30.16,3.67C180.46,183.03,171.2,196.14,150.3,179.36z"/>
		</g>
		<g>
			<path class="st16" d="M128.79,141.72c0,0,14.38-11.28,27.91-1.67C156.7,140.05,146.24,134.01,128.79,141.72z"/>
		</g>
		<polygon class="st29" points="141.87,362.44 140.5,375.21 145.58,376.72 145.58,362.44 		"/>
		<polygon class="st29" points="192.84,367.01 196.62,379.28 201.88,378.66 196.24,365.54 		"/>
		<path class="st29" d="M169.48,369.58c-0.14-0.23-4.56,39.25-4.56,39.25s7.61-5.71,8.25-10.47c0.48-3.57,5.71-18.3,4.28-25.96
			C176.98,369.86,170.7,371.58,169.48,369.58z"/>
		<g>
			<path class="st16" d="M169.14,139.17c0,0,15.98-8.86,27.82,2.78C196.96,141.95,187.59,134.33,169.14,139.17z"/>
		</g>
		<g>
			<path class="st28" d="M150.3,179.36c0,0,13.31,0.59,16.95,2.03s7.08,0.1,8-0.63s5.21,2.27,5.21,2.27S165,189.77,150.3,179.36z"/>
		</g>
		<g>
			<path class="st30" d="M136.97,221.12c0,0-20.81-2.64-27.89,11.39c-7.08,14.03-31.99,63.12-28.8,81.44
				c3.2,18.32,24.6,10.06,24.6,10.06s26.97-65.57,34.88-73.64C147.66,242.31,136.97,221.12,136.97,221.12z"/>
		</g>
		<g>
			<path class="st30" d="M174.45,209.99c0,0-3.24,16.34,8.22,27.09s43.39,44.59,61.87,46.69s17.48-19.59,17.48-19.59
				s-49.7-42.31-59.46-47.99C192.03,210.04,174.45,209.99,174.45,209.99z"/>
		</g>
		<g>
			<path class="st30" d="M126.21,240.75c0,0,4.58,60.19-1.1,69.76c-9.3,15.67-21.09,44.61-21.09,44.61s95.72,36.52,104.13,5.47
				c6.02-22.22-8.99-46.16-5.04-62.89c3.95-16.72,12.4-30.05,6.46-50.56c-5.94-20.51-10.48-25.19-22.23-32.2
				c0,0-24.61-1.72-44.1,2.99S126.21,240.75,126.21,240.75z"/>
		</g>
		<g>
			<path class="st20" d="M136.33,215.49c0,0,23.01,44.81,36.25,44.98c13.24,0.16,28.55-29.38,12.72-44.85
				c-3.2-3.13-5.7-6.93-10.84-5.62c-2.79,0.71-11.7-0.95-19.6,0.54C148.22,211.79,136.33,215.49,136.33,215.49z"/>
		</g>
		<g>
			<path class="st15" d="M151.2,240.47c0,0,27.65,7.93,40.83-2.59c0,0-5.02,22.38-19.46,22.59S151.2,240.47,151.2,240.47z"/>
		</g>
		<g>
			<path class="st22" d="M123.58,221.15c0,0,1.88-7.57,21.4-8.11c0,0,23.15,86.46-22.87,102.99
				C122.12,316.03,145.58,271.64,123.58,221.15z"/>
		</g>
		<g>
			<polygon class="st31" points="119.84,544.51 166.76,545.52 168.2,563.98 119.13,563.79 			"/>
		</g>
		<g>
			<polygon class="st31" points="181.41,543.73 237.67,535.21 244.58,555.78 184,562.85 			"/>
		</g>
		<g>
			<g>
				<path class="st20" d="M133.12,259.46c4.89,2.02,11.23,0.63,11.23,0.63c0.5-1.04,0.83-2.28,1.03-3.63
					c0.1-0.57,0.16-1.15,0.2-1.76c0.09-1.34,0.1-2.74,0.03-4.17c-0.02-0.62-0.06-1.25-0.11-1.87c-0.14-1.66-0.35-3.3-0.6-4.83
					c-0.1-0.66-0.21-1.29-0.31-1.89c-0.3-1.64-0.61-3.06-0.85-4.12c-0.28-1.23-0.48-1.97-0.48-1.97
					c-4.83-0.46-11.81,2.72-11.81,2.72c-0.63,1.74-0.94,3.64-1.02,5.56C130.08,251.65,133.12,259.46,133.12,259.46z"/>
			</g>
			<g>
				<g>
					<g>
						<path class="st28" d="M137.04,243.64c0,0,0.67,0.11,1.67,0.22c1.01,0.1,2.32,0.21,3.76,0.17c0.87-0.02,1.69-0.1,2.43-0.19
							c-0.1-0.66-0.21-1.29-0.31-1.89c-0.66-0.14-1.4-0.23-2.18-0.21c-1.59,0.05-2.97,0.53-3.91,1
							C137.56,243.2,137.04,243.64,137.04,243.64z"/>
					</g>
				</g>
				<g>
					<g>
						<path class="st28" d="M138.18,250.05c0,0,0.63,0.17,1.57,0.32c0.95,0.16,2.2,0.33,3.57,0.32c0.81,0,1.59-0.08,2.28-0.16
							c-0.02-0.62-0.06-1.25-0.11-1.87c-0.65-0.16-1.39-0.27-2.18-0.27c-1.49,0.01-2.81,0.43-3.71,0.84
							C138.69,249.66,138.18,250.05,138.18,250.05z"/>
					</g>
				</g>
				<g>
					<g>
						<path class="st28" d="M137.42,256.02c0,0,0.66,0.18,1.66,0.35c1.01,0.16,2.35,0.34,3.81,0.31c0.89-0.02,1.74-0.11,2.49-0.22
							c0.1-0.57,0.16-1.15,0.2-1.76c-0.79-0.2-1.73-0.34-2.74-0.32c-1.56,0.03-2.94,0.44-3.9,0.84
							C137.97,255.64,137.42,256.02,137.42,256.02z"/>
					</g>
				</g>
			</g>
		</g>
		<g>
			<path class="st20" d="M141.87,259.78c0,0-8.56,41.41-23.13,61.42c-3.12,4.29-14.23,5.19-18.05,4.96
				c-21.63-1.27-17.89-19.91-14.06-26.3c1.46-2.44,8.06-8.05,8.06-8.05s12.16-5.52,8.38-3.73c0,0,10.54-3.87,18.66-15.87
				c2.47-3.65,13.26-15.51,13.88-16.78L141.87,259.78z"/>
		</g>
		<g class="st32">
			<path class="st33" d="M157.82,415.95c1-0.07,17.83-2.3,23.33-12.86"/>
		</g>
		<g>
			<path class="st28" d="M169.18,178.6c-0.47,0-0.89-0.34-0.98-0.82c-0.1-0.54,0.26-1.07,0.8-1.17c0.18-0.03,4.41-0.91,4.9-5.17
				c0.01-0.04,0.02-0.14-0.12-0.31c-0.92-1.14-4.91-2.01-7.45-2.26c-0.55-0.05-0.95-0.54-0.9-1.09c0.05-0.55,0.54-0.95,1.09-0.9
				c1.16,0.12,7.05,0.8,8.81,2.99c0.44,0.54,0.63,1.16,0.55,1.79c-0.53,4.59-4.5,6.52-6.52,6.9
				C169.3,178.59,169.24,178.6,169.18,178.6z"/>
		</g>
		<g>
			<path class="st28" d="M151.2,203.05c0,0,9.65,4.29,25.52,0.09l0.18,1.16c0,0-14.25,9.54-25.69,5.7V203.05z"/>
		</g>
		<g>
			<path class="st34" d="M189.57,279.99l-14.67,18.06C174.9,298.05,189.29,291.84,189.57,279.99z"/>
		</g>
		<g>
			
				<ellipse transform="matrix(0.9967 -0.081 0.081 0.9967 -13.9204 12.0785)" class="st35" cx="141.9" cy="177.59" rx="7.94" ry="3.79"/>
		</g>
		<g>
			
				<ellipse transform="matrix(0.9967 -0.081 0.081 0.9967 -13.4991 15.9724)" class="st35" cx="190.09" cy="174.35" rx="7.94" ry="3.79"/>
		</g>
		<path class="st36" d="M116.63,162.11c0,0,4.67,3.11,4.15,3.82c-0.52,0.72-4.15-0.41-3.11,1.84c1.04,2.25,3.15,3.41,3.15,3.41
			S111.65,169.71,116.63,162.11z"/>
		<g>
			<path class="st23" d="M111.84,197.28c-8.32,0-15.13-6.72-15.22-15.06c-0.04-4.07,1.5-7.9,4.35-10.81
				c2.85-2.9,6.65-4.53,10.72-4.57c4.04-0.03,7.9,1.5,10.81,4.35c2.9,2.85,4.53,6.65,4.57,10.72c0.09,8.39-6.67,15.29-15.06,15.38
				C111.94,197.28,111.89,197.28,111.84,197.28z M111.84,169.51c-0.04,0-0.09,0-0.13,0c-3.35,0.03-6.49,1.37-8.84,3.77
				c-2.35,2.4-3.62,5.56-3.59,8.91c0.07,6.88,5.69,12.42,12.55,12.42c0.04,0,0.09,0,0.13,0c6.92-0.07,12.49-5.76,12.42-12.68
				c-0.03-3.35-1.37-6.49-3.77-8.84C118.26,170.78,115.15,169.51,111.84,169.51z"/>
		</g>
		<g>
			<path class="st37" d="M128.63,540.68c-0.12,0-0.23-0.09-0.25-0.22l-1.1-7.98c-0.02-0.14,0.08-0.26,0.21-0.28
				c0.13-0.01,0.26,0.08,0.28,0.21l1.1,7.98c0.02,0.14-0.08,0.26-0.21,0.28C128.65,540.68,128.64,540.68,128.63,540.68z
				 M126.42,524.75c-0.12,0-0.23-0.09-0.25-0.22l-1.1-7.96c-0.02-0.14,0.08-0.26,0.21-0.28c0.13-0.01,0.26,0.08,0.28,0.21l1.1,7.96
				c0.02,0.14-0.08,0.26-0.21,0.28C126.45,524.75,126.44,524.75,126.42,524.75z M124.23,508.84c-0.12,0-0.23-0.09-0.25-0.22
				l-1.09-7.95c-0.02-0.14,0.08-0.26,0.21-0.28c0.13-0.01,0.26,0.08,0.28,0.21l1.09,7.95c0.02,0.14-0.08,0.26-0.21,0.28
				C124.25,508.84,124.24,508.84,124.23,508.84z M122.05,492.94c-0.12,0-0.23-0.09-0.25-0.22l-1.09-7.95
				c-0.02-0.14,0.08-0.26,0.21-0.28c0.13-0.02,0.26,0.08,0.28,0.21l1.09,7.95c0.02,0.14-0.08,0.26-0.21,0.28
				C122.07,492.94,122.06,492.94,122.05,492.94z M119.87,477.04c-0.12,0-0.23-0.09-0.25-0.22l-1.08-7.95
				c-0.02-0.14,0.08-0.26,0.21-0.28c0.13-0.02,0.26,0.08,0.28,0.21l1.08,7.95c0.02,0.14-0.08,0.26-0.21,0.28
				C119.89,477.04,119.88,477.04,119.87,477.04z M117.71,461.15c-0.12,0-0.23-0.09-0.25-0.22l-1.08-7.94
				c-0.02-0.14,0.08-0.26,0.21-0.28c0.14-0.02,0.26,0.08,0.28,0.21l1.08,7.94c0.02,0.14-0.08,0.26-0.21,0.28
				C117.73,461.15,117.72,461.15,117.71,461.15z M115.55,445.26c-0.12,0-0.23-0.09-0.25-0.22l-1.07-7.95
				c-0.02-0.14,0.08-0.26,0.21-0.28c0.13-0.01,0.26,0.08,0.28,0.21l1.07,7.95c0.02,0.14-0.08,0.26-0.21,0.28
				C115.57,445.26,115.56,445.26,115.55,445.26z M113.41,429.36c-0.12,0-0.23-0.09-0.25-0.22c-0.36-2.72-0.72-5.37-1.06-7.95
				c-0.02-0.14,0.08-0.26,0.22-0.28c0.13-0.02,0.26,0.08,0.28,0.21c0.34,2.58,0.7,5.24,1.06,7.95c0.02,0.14-0.08,0.26-0.21,0.28
				C113.44,429.35,113.43,429.36,113.41,429.36z M111.3,413.44c-0.12,0-0.23-0.09-0.25-0.22c-0.37-2.79-0.72-5.45-1.04-7.96
				c-0.02-0.14,0.08-0.26,0.22-0.28c0.13-0.01,0.26,0.08,0.28,0.22c0.33,2.51,0.67,5.17,1.04,7.96c0.02,0.14-0.08,0.26-0.22,0.28
				C111.32,413.44,111.31,413.44,111.3,413.44z M109.24,397.52c-0.12,0-0.23-0.09-0.25-0.22c-0.39-3.06-0.72-5.74-0.99-7.98
				c-0.02-0.14,0.08-0.26,0.22-0.28c0.13-0.02,0.26,0.08,0.28,0.22c0.27,2.24,0.6,4.92,0.99,7.98c0.02,0.14-0.08,0.26-0.22,0.28
				C109.26,397.52,109.25,397.52,109.24,397.52z M107.5,381.51C107.5,381.51,107.5,381.51,107.5,381.51c-0.15,0-0.25-0.12-0.25-0.26
				c0.06-1.82,0.33-4.51,0.8-8c0.02-0.14,0.14-0.23,0.28-0.21c0.14,0.02,0.23,0.15,0.21,0.28c-0.48,3.47-0.74,6.14-0.8,7.95
				C107.75,381.4,107.64,381.51,107.5,381.51z M109.52,365.62c-0.01,0-0.03,0-0.04,0c-0.14-0.02-0.23-0.15-0.21-0.29
				c0.73-4.39,1.39-7.87,1.4-7.91c0.03-0.13,0.16-0.22,0.29-0.2c0.14,0.03,0.23,0.16,0.2,0.29c-0.01,0.03-0.66,3.52-1.39,7.9
				C109.75,365.53,109.64,365.62,109.52,365.62z"/>
		</g>
	</g>
</g>
</svg>
