<?xml version="1.0" encoding="utf-8"?>
<!-- Generator: Adobe Illustrator 24.0.1, SVG Export Plug-In . SVG Version: 6.00 Build 0)  -->
<svg version="1.1" xmlns="http://www.w3.org/2000/svg" xmlns:xlink="http://www.w3.org/1999/xlink" x="0px" y="0px"
	 viewBox="0 0 566.93 566.93" style="enable-background:new 0 0 566.93 566.93;" xml:space="preserve">
<style type="text/css">
	.st0{display:none;}
	.st1{display:inline;fill:#FFFFFF;}
	.st2{clip-path:url(#SVGID_2_);fill:#35A8E0;}
	.st3{clip-path:url(#SVGID_2_);fill:#FFFFFF;}
	.st4{clip-path:url(#SVGID_2_);}
	.st5{fill:#F1B2DF;}
	.st6{fill:#4528AF;}
	.st7{fill:url(#SVGID_3_);}
	.st8{fill:#009FE3;}
	.st9{fill:#FFFFFF;}
	.st10{fill:url(#SVGID_4_);}
	.st11{fill:url(#SVGID_5_);}
	.st12{clip-path:url(#SVGID_7_);fill:#00659D;}
	.st13{clip-path:url(#SVGID_7_);fill:#FFFFFF;}
	.st14{clip-path:url(#SVGID_7_);}
	.st15{fill:#FC8890;}
	.st16{fill:#00ABBC;}
	.st17{fill:#00659D;}
	.st18{fill:#E76F3D;}
	.st19{opacity:0.3;clip-path:url(#SVGID_9_);}
	.st20{fill:#9BCFE0;}
	.st21{fill:#FEAB6B;}
	.st22{fill:#333333;}
	.st23{fill:none;stroke:#E76F3D;stroke-width:5;stroke-linecap:round;stroke-linejoin:round;stroke-miterlimit:10;}
	.st24{clip-path:url(#SVGID_11_);fill:#00659D;}
	.st25{clip-path:url(#SVGID_11_);fill:#FFFFFF;}
	.st26{clip-path:url(#SVGID_11_);}
	.st27{fill:#E2C58A;}
	.st28{clip-path:url(#SVGID_13_);fill:#00659D;}
	.st29{clip-path:url(#SVGID_13_);fill:#FFFFFF;}
	.st30{clip-path:url(#SVGID_13_);}
	.st31{clip-path:url(#SVGID_15_);fill:#00659D;}
	.st32{clip-path:url(#SVGID_15_);fill:#FFFFFF;}
	.st33{clip-path:url(#SVGID_15_);}
	.st34{clip-path:url(#SVGID_17_);fill:#00659D;}
	.st35{clip-path:url(#SVGID_17_);fill:#FFFFFF;}
	.st36{clip-path:url(#SVGID_17_);}
</style>
<g id="Capa_2" class="st0">
	
		<rect x="-205.57" y="-150.6" transform="matrix(6.123234e-17 -1 1 6.123234e-17 -144.9765 345.8294)" class="st1" width="612" height="792"/>
</g>
<g id="Capa_1">
	<g>
		<g>
			<defs>
				<circle id="SVGID_16_" cx="283.46" cy="203.43" r="185.28"/>
			</defs>
			<use xlink:href="#SVGID_16_"  style="overflow:visible;fill:#FFFFFF;"/>
			<clipPath id="SVGID_2_">
				<use xlink:href="#SVGID_16_"  style="overflow:visible;"/>
			</clipPath>
			<circle style="clip-path:url(#SVGID_2_);fill:#00659D;" cx="283.46" cy="203.43" r="185.28"/>
			<path class="st3" d="M399.21,146.28c-11.08-52.76-58.67-92.09-115.12-90.31c-60.68,1.9-109.56,51.87-110.22,112.57
				c-0.27,24.5,4.93,58.6,17.04,77.83c16.79,26.67,24.69,31.61,24.69,31.61v142.72c0,4.26,10.38,7.71,49.85,7.71
				c39.46,0,71.46-3.45,71.46-7.71V283.69h32.32c9.68,0,17.9-7.09,19.31-16.67l6.94-46.93h21.75L399.21,146.28z"/>
			<g class="st4">
				<path class="st15" d="M358.49,145.76c-0.02,0.74,0.15,1.44,0.44,2.11c0.3,0.71,0.67,1.37,1.09,2.01c0.4,0.61,0.77,1.23,1.1,1.88
					c0.86,1.74,1.49,3.58,2.12,5.41c0.06,0.18,0.12,0.36,0.18,0.53c0.21-0.05,0.23-0.2,0.29-0.32c0.26-0.52,0.54-1.05,0.77-1.59
					c1.59-3.66,1.95-7.39,0.73-11.24c-0.52-1.65-1.14-3.25-1.88-4.81c-0.81-1.7-1.14-3.48-0.94-5.37c0.11-1.05,0.3-2.09,0.45-3.14
					c0.27-1.97,0.46-3.93,0.18-5.92c-0.26-1.83-0.8-3.55-1.97-5.03c-0.6-0.75-1.26-1.45-2-2.07c-0.85-0.72-1.54-1.56-2.03-2.56
					c-0.26-0.53-0.52-1.05-0.79-1.57c-0.63-1.22-1.32-2.41-2.2-3.47c-0.64-0.77-1.36-1.46-2.13-2.11c-0.96-0.81-2.11-1.27-3.22-1.77
					c-1.47-0.66-3.06-0.89-4.66-0.63c-3.6,0.59-6.68,2.18-9.05,5.02c-0.71,0.84-1.33,1.74-1.9,2.68c-1.49,2.48-2.37,5.19-2.99,8
					c-0.41,1.87-0.59,3.75-0.37,5.66c0.09,0.81,0.13,1.63,0.19,2.44c-0.65,0.09-0.65,0.08-1-0.31c-0.39-0.43-0.64-0.92-0.83-1.47
					c-0.57-1.66-0.92-3.36-1.06-5.11c-0.05-0.59-0.05-1.19,0.06-1.75c0.66-3.25,1.74-6.34,3.45-9.2c2.32-3.87,5.5-6.7,9.8-8.2
					c1.89-0.66,3.82-1.02,5.83-0.88c0.43,0.03,0.84,0.16,1.29,0.13c0.01-0.08,0.02-0.1,0.01-0.12c-0.03-0.07-0.06-0.15-0.1-0.22
					c-1.26-2.54-3.06-4.63-5.28-6.38c-1.66-1.31-3.55-2.23-5.54-2.93c-1.61-0.57-2.76-1.59-3.55-3.08c-0.36-0.68-0.74-1.34-1.13-2
					c-1.24-2.1-2.89-3.79-4.94-5.1c-3.36-2.16-7-3.09-10.98-2.58c-0.76,0.1-1.52,0.12-2.28-0.09c-0.82-0.23-1.57-0.61-2.27-1.09
					c-2.17-1.47-4.56-2.4-7.11-2.98c-2.1-0.48-4.19-0.59-6.29-0.1c-3.41,0.79-5.84,2.86-7.44,5.91c-1.2,2.3-1.73,4.78-1.76,7.37
					c-0.04,3.89,0.54,7.7,1.47,11.46c0.67,2.72,1.4,5.43,1.88,8.19c0.09,0.49,0.11,1,0.28,1.47c0.06-0.02,0.08-0.02,0.09-0.03
					c0.06-0.05,0.11-0.1,0.17-0.16c0.87-0.97,1.94-1.64,3.16-2.07c0.84-0.3,1.71-0.42,2.6-0.31c0.44,0.06,0.89,0.15,1.14,0.57
					c-0.11,0.41-0.4,0.64-0.7,0.87c-0.54,0.41-1.14,0.7-1.75,0.96c-1.75,0.77-3.17,1.92-4.17,3.58c-0.13,0.21-0.2,0.41-0.19,0.65
					c0.04,0.67,0.07,1.33,0.09,2c0.06,1.82,0,3.65-0.07,5.47c-0.11,2.76-0.26,5.52-0.56,8.27c-0.08,0.71-0.16,1.42-0.26,2.25
					c0.41-0.49,0.74-0.89,1.08-1.29c2.42-2.83,5.54-3.66,9.11-3.23c0.66,0.08,1.3,0.28,1.8,0.81c-0.29,0.4-0.69,0.58-1.11,0.76
					c-0.6,0.25-1.24,0.35-1.88,0.44c-2.64,0.36-4.74,1.65-6.37,3.73c-1.3,1.67-2.31,3.5-2.98,5.5c-0.29,0.87-0.55,1.76-0.83,2.63
					c-0.43,1.31-0.74,2.64-0.73,4.03c0,0.18-0.03,0.35-0.04,0.53c-0.19,2.39-0.11,4.78,0,7.17c0.09,1.96,0.4,3.9,0.7,5.84
					c0.07,0.49,0.08,0.99,0.24,1.47c0.17-0.08,0.21-0.22,0.28-0.34c0.46-0.75,0.96-1.48,1.52-2.16c1.03-1.25,2.2-2.34,3.68-3.06
					c0.44-0.21,0.9-0.38,1.4-0.4c0.39-0.01,0.83-0.08,1.04,0.35c0.21,0.42-0.06,0.75-0.3,1.07c-0.39,0.52-0.9,0.93-1.37,1.37
					c-1.47,1.37-2.82,2.83-3.83,4.59c-0.61,1.07-1.12,2.2-1.71,3.28c-0.76,1.38-1.29,2.84-1.66,4.38c-0.47,1.98-0.91,3.97-1.1,6.01
					c-0.22,2.32,0.01,4.62,0.38,6.91c0.41,2.54,1.33,4.86,2.86,6.94c0.53,0.72,1.05,1.46,1.53,2.23c0.28,0.45,0.43,0.93,0.54,1.45
					c-1.83,0.44-3.03-0.66-4.24-1.63c-0.06,0.03-0.09,0.04-0.09,0.05c-0.4,1.85-0.54,3.72-0.26,5.61c0.15,1.01,0.44,1.99,1.01,2.86
					c0.77,1.15,1.83,1.66,3.23,1.43c0.84-0.14,1.64-0.39,2.41-0.73c0.79-0.35,1.57-0.71,2.37-1.03c1.16-0.47,2.35-0.75,3.61-0.62
					c0.82,0.08,1.63,0.2,2.43,0.4c2.02,0.5,4.03,1.01,6.11,1.17c2.1,0.16,4.15,0,6.13-0.75c1.21-0.46,2.39-0.98,3.55-1.56
					c1.75-0.88,3.59-1.33,5.55-1.3c1.43,0.03,2.86,0.01,4.29-0.01c2.22-0.03,4.43-0.19,6.6-0.69c5.66-1.3,10.85-3.53,15.33-7.34
					c2.67-2.27,4.73-4.98,6.16-8.13c2.08-4.56,3.25-9.34,3.21-14.4c-0.03-3.62-0.51-7.14-1.77-10.55c-0.74-2.01-1.52-3.99-2.76-5.76
					c-0.26-0.37-0.45-0.78-0.65-1.18c-0.78-1.52-1.1-3.12-0.99-4.83c0.1-1.52,0.2-3.05,0.04-4.58c-0.17-1.65-0.47-3.26-1.1-4.79
					c-0.97-2.35-2.62-4.16-4.6-5.7c-0.87-0.67-1.85-0.96-2.95-1.01c-0.96-0.04-1.84,0.35-2.75,0.34c-0.12,0.12-0.12,0.24-0.15,0.35
					c-0.22,0.84-0.51,1.65-0.89,2.42c-0.49,0.98-1.15,1.82-2.04,2.47c-0.4,0.29-0.82,0.54-1.33,0.58c-0.33,0.03-0.66-0.02-0.99,0.09
					c-0.18,0.06-0.36-0.01-0.45-0.19c-0.08-0.17,0-0.31,0.11-0.42c0.12-0.12,0.27-0.22,0.32-0.41c0.12-0.44,0.37-0.82,0.61-1.2
					c0.43-0.72,0.82-1.47,1.16-2.24c0.78-1.79,1.14-3.66,0.93-5.62c-0.11-1.04-0.4-2.04-0.74-3.02c-0.16-0.46-0.34-0.92-0.39-1.41
					c-0.06-0.63,0.27-1.2,0.82-1.42c0.53-0.21,1.13-0.05,1.54,0.42c0.18,0.21,0.3,0.46,0.42,0.7c0.81,1.68,1.23,3.46,1.36,5.32
					c0.01,0.14-0.05,0.32,0.15,0.44c0.85-0.26,1.75-0.26,2.66-0.24c1.47,0.03,2.81,0.47,4.03,1.3c0.75,0.51,1.44,1.09,2.09,1.71
					c1.72,1.64,3.13,3.5,4,5.74c1.13,2.92,1.47,5.96,1.3,9.07C358.54,144.35,358.51,145.06,358.49,145.76z M303.05,94.3
					c-0.24-0.41-0.39-0.85-0.53-1.3c-0.3-0.95-0.65-1.89-1.06-2.8c-0.55-1.23-1.27-2.34-2.25-3.27c-0.27-0.26-0.52-0.53-0.72-0.85
					c-0.4-0.62-0.14-1.13,0.6-1.18c0.4-0.03,0.78,0.05,1.14,0.21c0.83,0.36,1.49,0.94,2.09,1.59c1.3,1.42,2.11,3.1,2.69,4.91
					c0.1,0.3,0.2,0.59,0.31,0.89c0.02,0.05,0.06,0.1,0.11,0.16c0.48-0.23,0.95-0.47,1.43-0.67c1.76-0.71,3.57-1.01,5.46-0.65
					c1.64,0.31,3,1.09,4.12,2.32c1.6,1.76,2.45,3.85,2.79,6.17c0.08,0.52,0.13,1.04,0.19,1.6c0.31-0.12,0.46-0.36,0.64-0.55
					c1.52-1.52,3.24-2.71,5.28-3.43c0.54-0.19,1.08-0.34,1.67-0.23c0.62,0.11,1.03,0.45,1.13,0.96c0.11,0.57-0.15,0.99-0.6,1.3
					c-0.24,0.16-0.5,0.32-0.76,0.44c-2.85,1.19-4.95,3.26-6.7,5.73c-0.99,1.4-1.79,2.89-2.46,4.47c-0.54,1.28-0.8,2.61-0.83,4
					c-0.04,1.57,0.06,3.13,0.17,4.7c0.04,0.52,0.01,1.02-0.09,1.52c-0.11,0.54-0.44,0.67-0.9,0.36c-0.42-0.29-0.76-0.67-0.99-1.14
					c-0.51-1.03-0.84-2.11-0.98-3.25c-0.27-2.16-0.29-4.3,0.44-6.39c0.46-1.32,1.02-2.59,1.73-3.79c0.24-0.4,0.35-0.82,0.37-1.28
					c0.07-1.17,0.21-2.34,0.1-3.52c-0.18-1.97-0.72-3.8-2-5.37c-0.86-1.05-1.93-1.69-3.3-1.82c-1-0.1-1.96,0.06-2.89,0.38
					c-0.57,0.2-1.12,0.46-1.68,0.69c-0.24,0.1-0.47,0.2-0.71,0.28C304.8,95.87,303.72,95.44,303.05,94.3z M317.02,159.37
					c0.58,0.95,1.26,1.85,1.94,2.73c0.2,0.26,0.41,0.53,0.52,0.85c0.15,0.42,0.26,0.86,0.67,1.14c0.13,0.09,0.18,0.26,0.1,0.42
					c-0.09,0.18-0.27,0.27-0.44,0.19c-0.51-0.25-1.07-0.23-1.6-0.34c-0.33-0.07-0.62-0.24-0.89-0.43c-1.11-0.76-2.06-1.69-2.82-2.8
					c-0.08-0.11-0.15-0.22-0.27-0.4c-0.95,0.46-1.76,1.04-2.5,1.72c-0.45,0.41-0.89,0.83-1.28,1.29c-0.53,0.63-1.22,1.09-1.76,1.72
					c-0.03,0.04-0.1,0.04-0.23,0.08c-0.34-0.77-0.67-1.52-0.47-2.4c0.23-1.01,0.8-1.82,1.53-2.52c0.91-0.87,1.92-1.61,3.04-2.19
					c0.15-0.08,0.34-0.12,0.46-0.31c-0.12-0.42-0.26-0.87-0.37-1.32c-0.6-2.41-0.54-4.82,0.19-7.19c0.76-2.46,1.9-4.72,3.72-6.58
					c0.65-0.66,1.36-1.24,2.18-1.69c0.42-0.23,0.85-0.4,1.31-0.5c0.39-0.08,0.78-0.06,1.16,0.08c0.5,0.2,0.81,0.56,0.83,1.11
					c0.02,0.52-0.23,0.93-0.71,1.12c-1.54,0.59-2.58,1.74-3.48,3.05c-1.1,1.59-1.92,3.33-2.31,5.23
					C314.97,154.26,315.52,156.91,317.02,159.37z M328.49,187.55c-0.4,0.07-0.81,0.1-1.24,0.14c-0.11,1.32-0.61,2.48-1.34,3.55
					c-0.43,0.62-0.93,1.17-1.59,1.54c-0.59,0.33-1.18,0.39-1.77-0.04c-0.16-0.57,0.04-1.07,0.37-1.53c0.43-0.61,0.86-1.22,1.19-1.89
					c0.19-0.39,0.37-0.78,0.48-1.2c0.06-0.21,0.11-0.42,0.06-0.65c-0.21-0.16-0.48-0.15-0.72-0.2c-2.42-0.51-4.7-1.36-6.75-2.78
					c-0.43-0.3-0.88-0.59-1.36-0.82c-0.59-0.27-0.68-0.27-1.12,0.2c-0.68,0.73-1.34,1.48-2.02,2.21c-0.67,0.72-1.36,1.41-2.12,2.04
					c-1.25,1.04-2.68,1.69-4.26,2c-0.52,0.1-1.02,0.06-1.48-0.2c-0.47-0.27-0.56-0.63-0.28-1.08c0.23-0.37,0.56-0.65,0.94-0.87
					c1.94-1.1,3.66-2.48,5.15-4.15c0.64-0.72,1.29-1.43,1.94-2.13c0.55-0.58,1.19-1.02,1.99-1.19c0.7-0.15,1.36-0.05,2.02,0.2
					c0.61,0.23,1.18,0.53,1.72,0.9c2.2,1.52,4.64,2.42,7.27,2.85c1.51,0.25,2.95,0.09,4.37-0.5c1.61-0.68,3.03-1.63,4.29-2.84
					c0.61-0.58,1.22-1.16,1.83-1.74c0.2-0.19,0.42-0.37,0.68-0.46c0.43-0.16,0.85-0.14,1.22,0.17c0.38,0.32,0.49,0.74,0.38,1.22
					c-0.08,0.37-0.27,0.69-0.48,1c-0.88,1.29-1.96,2.4-3.19,3.35C332.83,186.1,330.81,187.14,328.49,187.55z M352.64,174.45
					c0.65-3.11,0.52-6.19-0.28-9.25c-0.09-0.34-0.19-0.68-0.19-1.04c0.01-0.57,0.29-1.02,0.76-1.22c0.49-0.2,1.05-0.05,1.44,0.38
					c0.21,0.24,0.35,0.52,0.48,0.81c0.47,1.05,0.73,2.15,0.91,3.27c0.47,2.99,0.33,5.94-0.52,8.84c-0.47,1.62-1.27,3.07-2.42,4.32
					c-1.62,1.75-3.52,2.67-5.94,2.84c-0.52,1.21-1.18,2.32-1.97,3.35c-0.91,1.19-2,2.15-3.37,2.76c-1.37,0.62-2.76,0.67-4.17,0.17
					c-0.34-0.12-0.65-0.28-0.89-0.55c-0.36-0.43-0.26-0.91,0.24-1.16c0.29-0.14,0.6-0.19,0.91-0.22c2.42-0.25,4.28-1.42,5.6-3.45
					c0.33-0.51,0.65-1.03,0.97-1.54c0.13-0.21,0.26-0.38,0.51-0.45c0.94-0.29,1.81-0.73,2.63-1.29c0.73-0.5,1.47-0.97,2.19-1.49
					C351.25,178.27,352.21,176.52,352.64,174.45z M341.07,160.89c2.51-2.27,3.72-5.14,3.75-8.51c0.02-1.88-0.31-3.71-1.01-5.46
					c-0.14-0.36-0.34-0.7-0.52-1.05c-0.15-0.3-0.3-0.6-0.36-0.93c-0.09-0.51,0.06-0.94,0.49-1.24c0.41-0.29,0.84-0.29,1.28-0.05
					c0.37,0.2,0.65,0.5,0.91,0.82c0.6,0.74,1.01,1.58,1.32,2.48c1.29,3.72,1.34,7.42-0.17,11.09c-0.93,2.27-2.38,4.18-4.32,5.71
					c-0.12,0.1-0.27,0.17-0.36,0.35c0.09,0.16,0.2,0.34,0.31,0.52c0.71,1.15,1.33,2.35,1.71,3.66c0.37,1.29,0.44,2.59,0.09,3.89
					c-0.16,0.62-0.25,0.68-0.89,0.72c-0.1,0.01-0.2,0.01-0.29,0.01c-0.63,0.01-0.81-0.1-0.95-0.71c-0.25-1.09-0.54-2.16-0.92-3.22
					c-0.42-1.17-1.02-2.24-1.75-3.36c-3.23,1.65-6.64,2.14-10.18,1.84c-0.15,0.42-0.11,0.76-0.13,1.08c-0.06,1-0.04,2-0.19,2.99
					c-0.13,0.88-0.38,1.72-0.78,2.51c-0.3,0.6-0.72,1.07-1.35,1.34c-0.17,0.07-0.3,0.18-0.44,0.29c-0.14,0.11-0.31,0.17-0.49,0.05
					c-0.15-0.11-0.14-0.26-0.14-0.42c-0.07-1.39,0.24-2.76,0.27-4.15c0.02-1.04,0.06-2.08,0.09-3.12c0.01-0.35,0.04-0.7,0.1-1.05
					c0.24-1.34,1.09-2.2,2.44-2.44c0.46-0.08,0.93-0.1,1.41-0.09c1.77,0.03,3.53,0.01,5.25-0.51
					C337.38,163.31,339.4,162.41,341.07,160.89z M338.39,147.71c-0.09,0.22-0.3,0.24-0.5,0.18c-0.36-0.11-0.69-0.03-1.03,0.06
					c-0.86,0.23-1.75,0.15-2.63,0.21c-1,0.07-2,0.05-2.98,0.26c-0.11,0.02-0.24,0.02-0.33,0.13c-0.06,0.21,0.01,0.42,0.03,0.63
					c0.17,1.64,0.34,3.27,0.27,4.92c-0.02,0.55-0.1,1.09-0.21,1.63c-0.06,0.3-0.19,0.56-0.4,0.77c-0.29,0.29-0.64,0.29-0.93,0
					c-0.25-0.24-0.37-0.55-0.44-0.88c-0.26-1.15-0.34-2.32-0.47-3.49c-0.13-1.21-0.22-2.42-0.45-3.61c-0.23-1.19-0.27-2.4-0.59-3.58
					c-0.32-1.17-0.59-2.35-0.88-3.53c-0.08-0.34-0.16-0.69-0.17-1.04c-0.01-0.53,0.25-0.93,0.66-1.07c0.45-0.16,0.88,0,1.22,0.47
					c0.3,0.42,0.5,0.88,0.68,1.36c0.46,1.25,0.79,2.54,1.06,3.85c0.04,0.21,0.09,0.41,0.14,0.61c0.23,0.07,0.41-0.02,0.6-0.05
					c1.52-0.22,3.04-0.3,4.55,0.05c0.78,0.18,1.48,0.5,1.96,1.19c0.15,0.22,0.4,0.31,0.61,0.44
					C338.34,147.34,338.48,147.48,338.39,147.71z"/>
				<path class="st15" d="M210.54,151.56c-0.37,0.56-0.71,1.13-1,1.73c-2.42,5.1-3.49,10.46-3.1,16.1c0.06,0.88,0.09,1.76,0.23,2.63
					c0.49,3.07,1.35,6.04,2.57,8.9c1.2,2.82,2.86,5.36,5.04,7.53c1.24,1.23,2.62,2.31,4.04,3.32c2.82,2.01,5.97,3.35,9.24,4.42
					c2.83,0.92,5.72,1.49,8.7,1.59c1.92,0.07,3.84,0.06,5.76,0.05c1.92-0.01,3.72,0.43,5.44,1.28c1,0.49,2.03,0.94,3.05,1.37
					c1.07,0.45,2.18,0.75,3.34,0.9c2.01,0.27,3.99,0.04,5.96-0.31c1.37-0.24,2.71-0.63,4.06-0.94c2.03-0.46,4.01-0.37,5.91,0.53
					c0.64,0.3,1.29,0.57,1.93,0.86c0.79,0.35,1.61,0.61,2.47,0.74c1.32,0.2,2.34-0.28,3.11-1.35c0.35-0.48,0.57-1.03,0.75-1.59
					c0.52-1.58,0.53-3.2,0.4-4.83c-0.06-0.73-0.18-1.46-0.35-2.17c-0.21-0.03-0.27,0.12-0.37,0.2c-0.44,0.36-0.87,0.73-1.38,1
					c-0.81,0.43-1.65,0.72-2.56,0.37c0.12-0.85,0.58-1.53,1.04-2.21c0.52-0.76,1.05-1.51,1.57-2.28c0.71-1.06,1.27-2.21,1.66-3.43
					c0.43-1.35,0.67-2.74,0.86-4.14c0.27-1.99,0.32-3.98,0.11-5.98c-0.24-2.19-0.74-4.32-1.31-6.44c-0.15-0.55-0.25-1.11-0.51-1.62
					c-0.71-1.42-1.41-2.84-2.14-4.25c-0.74-1.44-1.66-2.75-2.78-3.92c-0.68-0.71-1.38-1.39-2.11-2.05c-0.38-0.34-0.75-0.7-0.99-1.15
					c-0.32-0.58-0.08-1.02,0.57-1.07c0.58-0.05,1.13,0.09,1.65,0.33c0.85,0.39,1.61,0.9,2.3,1.51c1.22,1.1,2.21,2.38,3.06,3.78
					c0.07,0.12,0.09,0.31,0.31,0.32c0.06-0.45,0.13-0.89,0.19-1.34c0.22-1.59,0.51-3.17,0.63-4.78c0.25-3.25,0.26-6.5-0.01-9.75
					c-0.04-0.53-0.08-1.05-0.23-1.57c-0.4-1.43-0.82-2.86-1.31-4.27c-0.81-2.34-1.99-4.48-3.71-6.28c-0.94-0.99-1.98-1.84-3.3-2.29
					c-0.76-0.26-1.54-0.46-2.33-0.6c-0.64-0.11-1.28-0.19-1.88-0.44c-0.42-0.17-0.82-0.36-1.1-0.75c0.34-0.39,0.77-0.56,1.22-0.69
					c1.1-0.31,2.22-0.23,3.33-0.17c0.92,0.05,1.82,0.24,2.69,0.59c1.69,0.68,2.98,1.85,4.13,3.22c0.18,0.22,0.36,0.45,0.57,0.71
					c0.09-0.3-0.02-0.52-0.05-0.75c-0.48-3.9-0.68-7.81-0.79-11.73c-0.05-1.78-0.02-3.57,0.08-5.35c0.01-0.21,0.05-0.42-0.08-0.63
					c-0.82-1.21-1.69-2.36-3.02-3.06c-0.43-0.23-0.87-0.45-1.3-0.68c-0.59-0.31-1.21-0.56-1.74-0.98c-0.29-0.23-0.59-0.46-0.65-0.86
					c0.19-0.26,0.44-0.38,0.74-0.46c0.4-0.11,0.81-0.14,1.22-0.11c1.92,0.11,3.49,0.95,4.83,2.28c0.11,0.11,0.18,0.29,0.4,0.32
					c0.03-0.11,0.05-0.18,0.06-0.26c0.21-1.43,0.5-2.86,0.81-4.27c0.53-2.43,1.25-4.82,1.74-7.26c0.62-3.08,1.03-6.19,0.99-9.34
					c-0.03-2.59-0.55-5.08-1.76-7.37c-2.1-3.97-5.43-6.1-9.94-6.22c-3.04-0.08-5.88,0.8-8.61,2.06c-1.04,0.48-1.96,1.15-2.94,1.72
					c-1.23,0.72-2.53,0.97-3.95,0.79c-2.8-0.37-5.51-0.02-8.12,1.09c-3.38,1.45-6.11,3.65-7.93,6.89c-0.33,0.58-0.66,1.16-0.97,1.75
					c-0.77,1.45-1.89,2.48-3.46,3c-0.84,0.28-1.64,0.65-2.43,1.03c-3.49,1.64-6.08,4.24-8.03,7.52c-0.2,0.34-0.41,0.69-0.51,1.1
					c0.21,0.06,0.39,0.01,0.56-0.02c1.55-0.23,3.09-0.16,4.61,0.21c4.8,1.15,8.55,3.78,11.24,7.93c1.84,2.83,3.05,5.9,3.81,9.18
					c0.17,0.75,0.31,1.51,0.26,2.26c-0.12,1.9-0.48,3.77-1.12,5.57c-0.19,0.53-0.47,0.98-0.83,1.41c-0.28,0.34-0.59,0.39-0.97,0.25
					c0.1-1.18,0.21-2.33,0.28-3.48c0.11-1.76-0.19-3.47-0.58-5.18c-0.69-3.03-1.8-5.87-3.52-8.47c-2.29-3.46-5.45-5.64-9.49-6.51
					c-2.09-0.45-4.13-0.27-6.02,0.82c-0.12,0.07-0.25,0.12-0.38,0.14c-0.26,0.04-0.48,0.16-0.7,0.28c-2.05,1.12-3.6,2.74-4.84,4.7
					c-0.64,1.01-1.19,2.07-1.7,3.15c-0.55,1.15-1.3,2.14-2.29,2.95c-2.6,2.13-3.86,4.91-4.01,8.25c-0.09,2.09,0.18,4.15,0.55,6.2
					c0.47,2.61,0.29,5.1-0.96,7.49c-0.59,1.13-1.01,2.34-1.41,3.55c-0.57,1.72-0.99,3.47-0.98,5.29c0,3.06,0.9,5.86,2.35,8.52
					c0.03,0.05,0.06,0.1,0.15,0.09c0.1-0.04,0.09-0.15,0.11-0.24c0.97-2.91,2.02-5.76,3.76-8.33c0.87-1.28,1.22-2.74,1.06-4.31
					c-0.19-1.86-0.14-3.71,0.07-5.57c0.58-5.17,3.08-9.18,7.3-12.15c1.19-0.83,2.53-1.23,3.98-1.27c0.92-0.02,1.83,0,2.69,0.25
					c0.05-0.07,0.08-0.08,0.08-0.1c0.01-0.14,0.03-0.27,0.04-0.41c0.14-1.83,0.55-3.6,1.35-5.26c0.15-0.3,0.3-0.6,0.55-0.83
					c0.39-0.37,0.86-0.48,1.36-0.31c0.48,0.16,0.76,0.53,0.86,1.03c0.07,0.34-0.01,0.67-0.1,0.98c-0.11,0.38-0.25,0.74-0.37,1.11
					c-0.53,1.6-0.85,3.22-0.65,4.91c0.17,1.46,0.59,2.83,1.25,4.14c0.36,0.7,0.73,1.39,1.14,2.06c0.24,0.39,0.3,0.89,0.7,1.2
					c0.09,0.07,0.1,0.21,0.04,0.33c-0.08,0.16-0.22,0.21-0.39,0.2c-0.2-0.01-0.37-0.12-0.57-0.1c-0.78,0.09-1.41-0.26-1.99-0.72
					c-0.85-0.67-1.46-1.52-1.93-2.49c-0.4-0.83-0.66-1.71-0.91-2.65c-0.57,0.07-1.09-0.15-1.63-0.22c-1.31-0.18-2.6-0.14-3.73,0.65
					c-1.82,1.28-3.36,2.83-4.43,4.8c-1.47,2.7-1.8,5.64-1.73,8.66c0.02,0.76,0.1,1.53,0.13,2.29c0.04,1.25-0.15,2.46-0.64,3.62
					C211.54,149.88,211.08,150.74,210.54,151.56z M263.11,189.98c-0.47,0.24-0.97,0.26-1.49,0.16c-1.97-0.38-3.62-1.35-5.04-2.73
					c-1.04-1.01-2.01-2.09-2.98-3.17c-0.78-0.86-0.7-0.97-1.91-0.29c-0.6,0.34-1.16,0.74-1.74,1.1c-1.94,1.22-4.09,1.87-6.31,2.33
					c-0.09,0.02-0.19,0.04-0.31,0.07c-0.04,0.44,0.08,0.79,0.21,1.14c0.35,0.91,0.87,1.71,1.43,2.49c0.5,0.7,0.55,0.9,0.48,1.65
					c-0.55,0.45-1.15,0.4-1.74,0.08c-0.69-0.37-1.2-0.94-1.64-1.57c-0.73-1.07-1.22-2.23-1.34-3.55c-0.66-0.08-1.31-0.11-1.94-0.27
					c-2.56-0.67-4.77-1.97-6.68-3.78c-0.68-0.65-1.32-1.34-1.86-2.12c-0.26-0.37-0.51-0.75-0.61-1.2c-0.11-0.51,0.02-0.94,0.43-1.26
					c0.4-0.3,0.84-0.29,1.28-0.08c0.37,0.19,0.66,0.49,0.96,0.77c0.7,0.66,1.39,1.33,2.1,1.97c1.22,1.1,2.64,1.88,4.18,2.46
					c1.43,0.54,2.88,0.48,4.35,0.2c2.44-0.46,4.7-1.36,6.75-2.76c0.6-0.41,1.24-0.75,1.94-0.97c1.24-0.4,2.36-0.17,3.35,0.67
					c0.27,0.23,0.51,0.48,0.75,0.74c0.53,0.58,1.06,1.16,1.58,1.74c1.5,1.69,3.23,3.08,5.19,4.19c0.36,0.21,0.68,0.47,0.91,0.82
					C263.75,189.31,263.65,189.7,263.11,189.98z M255.47,158.46c1.12,0.59,2.13,1.33,3.03,2.21c0.7,0.68,1.25,1.45,1.47,2.43
					c0.11,0.47,0.12,0.94-0.05,1.39c-0.13,0.34-0.16,0.73-0.39,1.01c-0.13,0.04-0.22,0-0.29-0.07c-0.9-0.84-1.74-1.74-2.6-2.62
					c-0.68-0.69-1.45-1.26-2.28-1.75c-0.18-0.11-0.36-0.24-0.58-0.27c-0.18,0.08-0.23,0.26-0.33,0.4c-0.77,1.1-1.72,2.03-2.84,2.78
					c-0.41,0.28-0.86,0.46-1.37,0.48c-0.32,0.01-0.62,0.08-0.91,0.22c-0.2,0.1-0.43,0.12-0.58-0.1c-0.16-0.23-0.03-0.43,0.16-0.55
					c0.28-0.2,0.4-0.47,0.48-0.78c0.11-0.4,0.33-0.75,0.59-1.08c0.63-0.82,1.26-1.66,1.81-2.53c1.97-3.11,2.41-6.4,1.14-9.88
					c-0.67-1.82-1.59-3.49-2.92-4.92c-0.63-0.68-1.35-1.25-2.23-1.59c-0.62-0.24-0.92-0.71-0.86-1.26c0.05-0.55,0.44-0.95,1.06-1.11
					c0.48-0.12,0.93-0.04,1.38,0.11c0.81,0.27,1.52,0.73,2.17,1.27c1.13,0.93,2.06,2.04,2.79,3.31c1.16,2,2.02,4.11,2.28,6.43
					c0.2,1.81,0.09,3.6-0.44,5.35c-0.08,0.26-0.16,0.52-0.24,0.8C255.1,158.32,255.3,158.37,255.47,158.46z M240.42,99.46
					c-0.45-0.32-0.71-0.75-0.57-1.31c0.14-0.56,0.54-0.83,1.09-0.93c0.58-0.11,1.13,0.03,1.67,0.22c1.63,0.57,3.08,1.45,4.38,2.58
					c0.37,0.32,0.71,0.67,1.07,1.01c0.14,0.13,0.26,0.29,0.5,0.41c0.07-0.55,0.12-1.07,0.2-1.58c0.3-2.03,0.99-3.9,2.24-5.55
					c1.63-2.13,3.79-3.17,6.46-3.12c1.61,0.03,3.13,0.46,4.56,1.21c0.17,0.09,0.35,0.18,0.59,0.3c0.31-0.85,0.58-1.65,0.88-2.43
					c0.58-1.5,1.44-2.82,2.58-3.96c0.5-0.5,1.07-0.92,1.73-1.2c0.39-0.17,0.79-0.23,1.21-0.19c0.64,0.07,0.88,0.54,0.55,1.09
					c-0.14,0.23-0.3,0.47-0.5,0.65c-1.71,1.53-2.63,3.53-3.35,5.65c-0.13,0.37-0.23,0.75-0.37,1.12c-0.17,0.46-0.36,0.91-0.68,1.29
					c-0.67,0.81-1.52,1.07-2.53,0.82c-0.63-0.16-1.2-0.47-1.8-0.72c-1.24-0.53-2.52-0.84-3.89-0.66c-1.14,0.15-2.08,0.66-2.84,1.51
					c-1.05,1.16-1.68,2.53-2.01,4.06c-0.31,1.41-0.28,2.84-0.21,4.27c0.05,1.04,0.34,1.97,0.85,2.88c0.82,1.47,1.51,3.03,1.75,4.71
					c0.39,2.7,0.26,5.36-0.92,7.88c-0.23,0.49-0.57,0.89-1.01,1.2c-0.48,0.34-0.82,0.21-0.93-0.37c-0.1-0.5-0.12-1.01-0.08-1.52
					c0.12-1.86,0.26-3.72,0.11-5.58c-0.06-0.81-0.22-1.59-0.5-2.35c-1.25-3.39-3.17-6.33-5.87-8.74c-0.96-0.85-2.05-1.5-3.22-2.04
					C241.17,99.89,240.78,99.71,240.42,99.46z M229.81,147.24c0.38-0.18,0.64-0.5,0.92-0.8c0.58-0.62,1.37-0.83,2.16-0.95
					c1.37-0.21,2.73-0.17,4.1,0.06c0.17,0.03,0.34,0.1,0.55,0.05c0.16-0.71,0.32-1.43,0.5-2.15c0.26-1.03,0.55-2.04,1-3
					c0.13-0.28,0.28-0.56,0.48-0.8c0.3-0.36,0.72-0.49,1.1-0.35c0.41,0.15,0.62,0.47,0.67,0.89c0.05,0.4-0.05,0.78-0.14,1.16
					c-0.35,1.45-0.78,2.87-1.04,4.34c-0.11,0.63-0.22,1.26-0.26,1.91c-0.04,0.61-0.27,1.21-0.33,1.84
					c-0.13,1.29-0.29,2.57-0.42,3.85c-0.08,0.8-0.2,1.59-0.37,2.38c-0.06,0.27-0.16,0.52-0.34,0.74c-0.36,0.43-0.78,0.42-1.13-0.02
					c-0.17-0.22-0.26-0.47-0.32-0.75c-0.26-1.28-0.23-2.57-0.15-3.86c0.07-1.07,0.17-2.14,0.31-3.26c-0.81-0.22-1.55-0.27-2.29-0.31
					c-0.98-0.05-1.96-0.08-2.93-0.13c-0.23-0.01-0.47-0.04-0.69-0.11c-0.38-0.12-0.75-0.2-1.15-0.07c-0.18,0.06-0.37,0.01-0.45-0.17
					C229.5,147.5,229.62,147.33,229.81,147.24z M221.22,146.5c0.33-0.85,0.77-1.63,1.39-2.3c0.21-0.23,0.45-0.44,0.73-0.58
					c0.42-0.2,0.84-0.18,1.23,0.1c0.4,0.29,0.55,0.7,0.48,1.19c-0.06,0.39-0.25,0.74-0.43,1.09c-1.57,3.15-1.92,6.44-0.94,9.82
					c0.75,2.6,2.31,4.66,4.6,6.12c2.58,1.65,5.39,2.58,8.49,2.54c0.78-0.01,1.57-0.07,2.35,0.04c1.61,0.22,2.48,1.07,2.75,2.67
					c0.08,0.49,0.07,0.98,0.08,1.47c0.05,1.68,0.04,3.37,0.32,5.04c0.1,0.58-0.07,1.17,0.01,1.75c0.04,0.32-0.26,0.42-0.59,0.27
					c-1.49-0.7-2.14-1.98-2.47-3.5c-0.26-1.18-0.24-2.38-0.31-3.57c-0.02-0.35,0-0.7-0.08-1.05c-0.35-0.16-0.71-0.11-1.05-0.09
					c-3.06,0.18-5.97-0.37-8.74-1.67c-0.11-0.05-0.21-0.1-0.32-0.14c-0.03-0.01-0.08-0.01-0.15-0.02c-0.68,1.01-1.28,2.09-1.7,3.25
					c-0.36,1.02-0.66,2.05-0.89,3.1c-0.18,0.82-0.3,0.89-1.12,0.86c-0.04,0-0.08,0-0.12,0c-0.69-0.04-0.78-0.09-0.95-0.79
					c-0.22-0.86-0.27-1.74-0.14-2.63c0.21-1.44,0.75-2.75,1.46-4.01c0.26-0.46,0.54-0.91,0.8-1.35c-0.06-0.2-0.24-0.27-0.37-0.38
					c-3.86-3.2-5.63-7.32-5.39-12.32C220.22,149.72,220.61,148.09,221.22,146.5z M212.52,165.95c0.17-0.71,0.41-1.39,0.72-2.05
					c0.13-0.27,0.28-0.52,0.5-0.72c0.39-0.34,0.83-0.43,1.31-0.24c0.46,0.18,0.69,0.56,0.75,1.04c0.05,0.4-0.06,0.78-0.17,1.16
					c-0.51,1.86-0.73,3.77-0.7,5.7c0.02,1.51,0.2,3.01,0.63,4.47c0.52,1.79,1.52,3.26,3.06,4.33c0.95,0.66,1.92,1.29,2.89,1.91
					c0.51,0.33,1.09,0.53,1.67,0.72c0.28,0.09,0.47,0.24,0.62,0.5c0.37,0.64,0.77,1.27,1.2,1.88c1.29,1.82,3.05,2.83,5.25,3.09
					c0.33,0.04,0.66,0.08,0.97,0.21c0.57,0.25,0.67,0.77,0.24,1.23c-0.22,0.24-0.5,0.38-0.8,0.49c-1.41,0.51-2.8,0.47-4.17-0.13
					c-1.36-0.6-2.45-1.53-3.35-2.7c-0.76-0.98-1.41-2.02-1.91-3.16c-0.04-0.09-0.09-0.17-0.14-0.27c-0.49-0.02-0.98-0.08-1.45-0.2
					c-2.81-0.66-4.72-2.43-6.07-4.9c-0.76-1.39-1.14-2.91-1.38-4.47C211.8,171.18,211.9,168.55,212.52,165.95z"/>
				<path class="st15" d="M264.76,203.24c2.42,1.37,4.39,3.27,6.23,5.32c2.56,2.85,4.85,5.91,7.03,9.05c1,1.43,2,2.86,3.08,4.23
					c0.49,0.62,1.01,1.2,1.58,1.74c0.21,0.2,0.43,0.4,0.67,0.58c0.67,0.52,0.96,0.52,1.61-0.01c0.76-0.62,1.42-1.35,2-2.14
					c1.18-1.61,2.35-3.24,3.54-4.85c1.99-2.7,3.99-5.39,6.24-7.88c2.11-2.33,4.51-4.3,7.33-5.71c0.12-0.06,0.26-0.1,0.33-0.22
					c-1.33-0.51-3.24-0.67-4.27-0.26c-0.78,0.31-1.57,0.61-2.33,0.97c-1.2,0.55-2.43,0.98-3.75,1.14c-2.28,0.28-4.13-0.48-5.57-2.23
					c-1.08-1.31-1.6-2.88-1.82-4.53c-0.32-2.33-0.24-4.65,0.41-6.93c0.21-0.72,0.5-1.4,0.93-2.04c-0.03-0.07-0.05-0.15-0.08-0.21
					c-1.05-2.07-1.55-4.3-1.87-6.58c-0.26-1.87-0.41-3.74-0.3-5.63c0.15-2.56,0.64-5.05,1.28-7.52c0.25-0.99,0.54-1.97,0.75-2.96
					c0.31-1.47,0.27-2.96,0.09-4.45c-0.24-2.06-0.65-4.1-0.83-6.18c-0.22-2.58-0.34-5.16-0.22-7.75c0.1-2.12,0.25-4.23,0.49-6.33
					c0.21-1.79,0.56-3.56,0.89-5.33c0.72-3.92,1.19-7.86,1.37-11.85c0.08-1.65,0.15-3.29,0.19-4.94c0.11-4.71-0.41-9.35-1.55-13.92
					c-0.58-2.34-1.23-4.66-1.66-7.03c-0.55-3-0.91-6.01-0.86-9.06c0.02-1.05,0.13-2.07,0.29-3.08c-1.25-0.35-2.91-0.67-4.06-0.34
					c0.21,1.16,0.33,2.34,0.34,3.54c0.02,3.43-0.42,6.8-1.11,10.15c-0.5,2.46-1.21,4.86-1.76,7.31c-0.96,4.29-1.32,8.63-1.19,13.02
					c0.08,2.74,0.22,5.48,0.43,8.22c0.17,2.19,0.51,4.36,0.86,6.52c0.39,2.38,0.91,4.73,1.18,7.13c0.2,1.75,0.31,3.51,0.42,5.27
					c0.17,2.65,0.05,5.29-0.14,7.93c-0.11,1.62-0.39,3.23-0.63,4.84c-0.17,1.14-0.32,2.29-0.38,3.45c-0.07,1.38,0.13,2.74,0.5,4.07
					c0.56,2.02,1.08,4.05,1.41,6.12c0.44,2.77,0.51,5.54,0.11,8.32c-0.26,1.83-0.58,3.64-1.21,5.38c-0.23,0.63-0.51,1.23-0.8,1.85
					c1.02,1.56,1.35,3.33,1.47,5.14c0.14,2.06,0.05,4.12-0.68,6.09c-0.6,1.63-1.55,2.98-3.09,3.86c-1.39,0.79-2.86,0.86-4.39,0.58
					c-1.09-0.2-2.11-0.59-3.11-1.05c-0.73-0.33-1.47-0.64-2.23-0.92c-1.11-0.42-2.21-0.32-3.33-0.08
					C264.62,203.18,264.7,203.21,264.76,203.24z"/>
			</g>
			<g class="st4">
				<rect x="281.31" y="245.66" class="st16" width="3.15" height="149.97"/>
				
					<rect x="270.78" y="221.91" transform="matrix(0.7071 -0.7071 0.7071 0.7071 -87.6721 261.9392)" class="st16" width="3.15" height="29.78"/>
				<path class="st16" d="M256.88,255.8c-4.38,0-7.94-3.57-7.94-7.95c0-4.38,3.57-7.95,7.94-7.95c4.39,0,7.95,3.57,7.95,7.95
					C264.84,252.23,261.27,255.8,256.88,255.8z M256.88,243.04c-2.64,0-4.8,2.16-4.8,4.8c0,2.65,2.16,4.8,4.8,4.8
					c2.65,0,4.8-2.16,4.8-4.8C261.69,245.2,259.54,243.04,256.88,243.04z"/>
				<path class="st16" d="M257.6,229.45c-4.38,0-7.95-3.57-7.95-7.95c0-4.38,3.57-7.95,7.95-7.95c4.38,0,7.95,3.57,7.95,7.95
					C265.55,225.88,261.98,229.45,257.6,229.45z M257.6,216.7c-2.65,0-4.8,2.15-4.8,4.8c0,2.65,2.16,4.8,4.8,4.8
					c2.65,0,4.8-2.16,4.8-4.8C262.4,218.85,260.24,216.7,257.6,216.7z"/>
				
					<rect x="278.52" y="235.23" transform="matrix(0.7072 -0.7071 0.7071 0.7072 -81.5068 276.8017)" class="st16" width="29.78" height="3.15"/>
				<path class="st16" d="M308.17,229.45c-4.39,0-7.95-3.57-7.95-7.95c0-4.38,3.57-7.95,7.95-7.95c4.38,0,7.95,3.57,7.95,7.95
					C316.12,225.88,312.56,229.45,308.17,229.45z M308.17,216.7c-2.65,0-4.8,2.15-4.8,4.8c0,2.65,2.16,4.8,4.8,4.8
					c2.64,0,4.8-2.16,4.8-4.8C312.98,218.85,310.82,216.7,308.17,216.7z"/>
				<polygon class="st16" points="275.85,340.64 272.7,340.64 272.7,265.83 260.31,253.43 262.54,251.2 275.85,264.53 				"/>
				<path class="st16" d="M256.99,292.12c-4.38,0-7.94-3.57-7.94-7.95c0-4.38,3.57-7.95,7.94-7.95c4.39,0,7.95,3.57,7.95,7.95
					C264.94,288.55,261.38,292.12,256.99,292.12z M256.99,279.36c-2.64,0-4.8,2.16-4.8,4.8c0,2.65,2.16,4.8,4.8,4.8
					c2.65,0,4.8-2.16,4.8-4.8C261.8,281.52,259.64,279.36,256.99,279.36z"/>
				<polygon class="st16" points="275.96,396.74 272.81,396.74 272.81,302.16 260.42,289.75 262.65,287.52 275.96,300.86 				"/>
				<path class="st16" d="M226.22,257.54c-4.38,0-7.94-3.57-7.94-7.95c0-4.38,3.57-7.95,7.94-7.95c4.39,0,7.95,3.57,7.95,7.95
					C234.17,253.98,230.61,257.54,226.22,257.54z M226.22,244.79c-2.64,0-4.8,2.16-4.8,4.8c0,2.65,2.16,4.8,4.8,4.8
					c2.65,0,4.8-2.16,4.8-4.8C231.02,246.95,228.87,244.79,226.22,244.79z"/>
				<polygon class="st16" points="272.7,276.22 229.65,255.17 231.87,252.95 272.87,273.76 				"/>
				<path class="st16" d="M333.12,249.59c0-4.38,3.57-7.95,7.95-7.95c4.38,0,7.94,3.57,7.94,7.95c0,4.39-3.57,7.95-7.94,7.95
					C336.69,257.54,333.12,253.98,333.12,249.59z M336.27,249.59c0,2.65,2.15,4.8,4.8,4.8c2.64,0,4.8-2.16,4.8-4.8
					c0-2.64-2.16-4.8-4.8-4.8C338.42,244.79,336.27,246.95,336.27,249.59z"/>
				<polygon class="st16" points="294.59,276.22 337.64,255.17 335.42,252.95 294.42,273.76 				"/>
				<path class="st16" d="M302.61,306.7c0-4.38,3.57-7.95,7.95-7.95c4.38,0,7.94,3.57,7.94,7.95c0,4.39-3.57,7.95-7.94,7.95
					C306.18,314.66,302.61,311.09,302.61,306.7z M305.76,306.7c0,2.65,2.15,4.8,4.8,4.8c2.64,0,4.8-2.16,4.8-4.8
					c0-2.64-2.16-4.8-4.8-4.8C307.91,301.9,305.76,304.06,305.76,306.7z"/>
				<polygon class="st16" points="291.6,341.16 294.75,341.16 294.75,324.69 307.14,312.29 304.91,310.06 291.6,323.39 				"/>
				<path class="st16" d="M256.88,347.26c-4.38,0-7.94-3.57-7.94-7.95c0-4.38,3.57-7.95,7.94-7.95c4.39,0,7.95,3.57,7.95,7.95
					C264.84,343.69,261.27,347.26,256.88,347.26z M256.88,334.5c-2.64,0-4.8,2.16-4.8,4.8c0,2.65,2.16,4.8,4.8,4.8
					c2.65,0,4.8-2.16,4.8-4.8C261.69,336.66,259.54,334.5,256.88,334.5z"/>
				<polygon class="st16" points="275.85,373.77 272.7,373.77 272.7,357.3 260.31,344.89 262.54,342.66 275.85,355.99 				"/>
				<path class="st16" d="M302.61,247.96c0-4.38,3.57-7.95,7.95-7.95c4.38,0,7.94,3.57,7.94,7.95c0,4.39-3.57,7.95-7.94,7.95
					C306.18,255.91,302.61,252.35,302.61,247.96z M305.76,247.96c0,2.65,2.15,4.8,4.8,4.8c2.64,0,4.8-2.16,4.8-4.8
					c0-2.64-2.16-4.8-4.8-4.8C307.91,243.16,305.76,245.32,305.76,247.96z"/>
				<polygon class="st16" points="291.6,394.33 294.75,394.33 294.75,265.95 307.14,253.54 304.91,251.32 291.6,264.65 				"/>
			</g>
		</g>
		<g>
			<g>
				<path class="st17" d="M81.47,467.83c1.8,0,3.73,0.07,5.79,0.22c2.06,0.15,4.31,0.62,6.75,1.44c3.54,1.22,6.4,3.04,8.58,5.45
					c2.18,2.41,3.88,5.03,5.1,7.84c1.22,2.82,2.03,5.68,2.44,8.58c0.41,2.91,0.61,5.46,0.61,7.67c0,1.34-0.07,2.89-0.22,4.66
					c-0.15,1.77-0.42,3.62-0.83,5.53c-0.41,1.92-0.99,3.85-1.74,5.79c-0.76,1.95-1.76,3.79-3.01,5.53
					c-1.25,1.74-2.78,3.33-4.58,4.75c-1.8,1.42-3.92,2.54-6.36,3.35c-2.09,0.7-4.14,1.13-6.14,1.31c-2,0.17-4.14,0.26-6.4,0.26
					H65.35c-1.1,0-1.99-0.04-2.66-0.13c-0.67-0.09-1.18-0.3-1.53-0.65s-0.57-0.86-0.65-1.52c-0.09-0.67-0.13-1.55-0.13-2.66V472.8
					c0-1.1,0.06-1.99,0.17-2.66c0.12-0.67,0.35-1.18,0.7-1.52c0.35-0.35,0.84-0.57,1.48-0.65c0.64-0.09,1.51-0.13,2.61-0.13H81.47z
					 M66.31,525.08h14.73c0.58,0,1.35-0.01,2.31-0.04c0.96-0.03,1.99-0.1,3.09-0.22c1.1-0.12,2.21-0.29,3.31-0.52
					c1.1-0.23,2.15-0.58,3.14-1.05c2.44-1.1,4.41-2.57,5.92-4.4c1.51-1.83,2.69-3.88,3.53-6.14c0.84-2.26,1.42-4.65,1.74-7.14
					c0.32-2.5,0.48-4.97,0.48-7.41c0-1.22-0.1-2.89-0.3-5.01c-0.2-2.12-0.7-4.31-1.48-6.58c-0.78-2.27-1.95-4.46-3.49-6.58
					c-1.54-2.12-3.65-3.79-6.32-5.01c-1.92-0.87-3.94-1.42-6.05-1.66c-2.12-0.23-4.08-0.35-5.88-0.35H66.31V525.08z"/>
				<path class="st17" d="M123.07,474.41c-0.67,0.67-1.47,1-2.4,1c-0.99,0-1.8-0.33-2.44-1c-0.64-0.67-0.96-1.47-0.96-2.4
					c0-0.99,0.32-1.8,0.96-2.44c0.64-0.64,1.45-0.96,2.44-0.96c0.93,0,1.73,0.32,2.4,0.96c0.67,0.64,1,1.45,1,2.44
					C124.07,472.95,123.74,473.74,123.07,474.41z M123.29,526.91c0,0.99-0.12,1.96-0.35,2.92c-0.23,0.96-0.99,1.44-2.27,1.44
					c-0.7,0-1.22-0.13-1.57-0.39c-0.35-0.26-0.61-0.61-0.78-1.05c-0.17-0.44-0.28-0.9-0.3-1.39c-0.03-0.49-0.04-1-0.04-1.52v-38.42
					c0-0.52,0.01-1.05,0.04-1.57c0.03-0.52,0.13-1,0.3-1.44c0.17-0.44,0.44-0.78,0.78-1.04c0.35-0.26,0.87-0.39,1.57-0.39
					c0.64,0,1.13,0.15,1.48,0.44c0.35,0.29,0.61,0.65,0.78,1.09c0.17,0.44,0.28,0.91,0.31,1.44c0.03,0.52,0.04,1.02,0.04,1.48
					V526.91z"/>
				<path class="st17" d="M167.03,487.87c0-0.35,0.01-0.75,0.04-1.22c0.03-0.46,0.12-0.88,0.26-1.26c0.14-0.38,0.39-0.7,0.74-0.96
					c0.35-0.26,0.87-0.39,1.57-0.39c1.28,0,2.05,0.42,2.31,1.26c0.26,0.84,0.39,2.11,0.39,3.79v36.16c0,1.8-0.04,3.56-0.13,5.27
					c-0.09,1.71-0.33,3.37-0.74,4.97c-0.41,1.6-0.99,3.11-1.74,4.53c-0.76,1.42-1.83,2.71-3.22,3.88c-1.63,1.33-3.69,2.48-6.19,3.44
					c-2.5,0.96-5.72,1.44-9.67,1.44c-3.66,0-6.64-0.45-8.93-1.35c-2.29-0.9-4.23-2.19-5.79-3.88c-1.05-1.1-1.9-2.28-2.57-3.53
					c-0.67-1.25-1-2.25-1-3.01c0-0.7,0.22-1.31,0.65-1.83c0.44-0.52,1.06-0.78,1.87-0.78c0.7,0,1.19,0.17,1.48,0.52
					c0.29,0.35,0.81,1.22,1.57,2.61c1.22,2.32,2.82,4.05,4.79,5.18c1.97,1.13,4.62,1.7,7.93,1.7c2.5,0,4.62-0.25,6.36-0.74
					c1.74-0.49,3.19-1.12,4.36-1.87c1.16-0.76,2.08-1.57,2.74-2.44c0.67-0.87,1.15-1.71,1.44-2.53c0.35-0.81,0.61-1.58,0.78-2.31
					c0.17-0.73,0.31-1.57,0.39-2.53c0.09-0.96,0.16-2.12,0.22-3.49c0.06-1.36,0.09-3.12,0.09-5.27c-0.47,0.64-1.06,1.39-1.79,2.27
					c-0.73,0.87-1.82,1.77-3.27,2.7c-1.86,1.22-3.76,2.03-5.71,2.44c-1.95,0.41-3.73,0.61-5.36,0.61c-3.2,0-5.92-0.47-8.19-1.39
					s-4.15-2.13-5.66-3.62c-1.51-1.48-2.73-3.12-3.66-4.92c-0.93-1.8-1.63-3.57-2.09-5.31c-0.47-1.74-0.77-3.35-0.92-4.84
					c-0.15-1.48-0.22-2.63-0.22-3.44c0-2.44,0.33-5.04,1-7.8c0.67-2.76,1.8-5.31,3.4-7.67c1.6-2.35,3.69-4.31,6.27-5.88
					c2.58-1.57,5.79-2.35,9.63-2.35c2.44,0,4.54,0.28,6.32,0.83c1.77,0.55,3.3,1.25,4.57,2.09c1.28,0.84,2.37,1.76,3.27,2.75
					c0.9,0.99,1.7,1.89,2.4,2.7V487.87z M137.06,516.58c0.87,2.47,2.03,4.47,3.49,6.01c1.45,1.54,3.12,2.64,5.01,3.31
					c1.89,0.67,3.85,1,5.88,1c1.74,0,3.54-0.31,5.4-0.92c1.86-0.61,3.54-1.66,5.05-3.14c1.51-1.48,2.76-3.41,3.75-5.79
					c0.99-2.38,1.48-5.37,1.48-8.97c0-3.66-0.48-6.74-1.44-9.24c-0.96-2.5-2.19-4.53-3.7-6.1c-1.51-1.57-3.21-2.69-5.1-3.35
					c-1.89-0.67-3.76-1-5.62-1c-1.74,0-3.54,0.32-5.4,0.96c-1.86,0.64-3.53,1.7-5.01,3.18c-1.48,1.48-2.7,3.44-3.66,5.88
					c-0.96,2.44-1.44,5.46-1.44,9.06C135.75,511.08,136.18,514.11,137.06,516.58z"/>
				<path class="st17" d="M187.02,474.41c-0.67,0.67-1.47,1-2.4,1c-0.99,0-1.8-0.33-2.44-1c-0.64-0.67-0.96-1.47-0.96-2.4
					c0-0.99,0.32-1.8,0.96-2.44c0.64-0.64,1.45-0.96,2.44-0.96c0.93,0,1.73,0.32,2.4,0.96c0.67,0.64,1,1.45,1,2.44
					C188.03,472.95,187.69,473.74,187.02,474.41z M187.24,526.91c0,0.99-0.12,1.96-0.35,2.92c-0.23,0.96-0.99,1.44-2.27,1.44
					c-0.7,0-1.22-0.13-1.57-0.39c-0.35-0.26-0.61-0.61-0.78-1.05c-0.17-0.44-0.28-0.9-0.3-1.39c-0.03-0.49-0.04-1-0.04-1.52v-38.42
					c0-0.52,0.01-1.05,0.04-1.57c0.03-0.52,0.13-1,0.3-1.44c0.17-0.44,0.44-0.78,0.78-1.04c0.35-0.26,0.87-0.39,1.57-0.39
					c0.64,0,1.13,0.15,1.48,0.44c0.35,0.29,0.61,0.65,0.78,1.09c0.17,0.44,0.28,0.91,0.31,1.44c0.03,0.52,0.04,1.02,0.04,1.48
					V526.91z"/>
				<path class="st17" d="M203.27,485.09h4.88c0.29,0,0.64,0.01,1.05,0.04c0.41,0.03,0.78,0.1,1.13,0.22
					c0.35,0.12,0.64,0.3,0.87,0.57c0.23,0.26,0.35,0.62,0.35,1.09c0,0.99-0.42,1.57-1.26,1.74c-0.84,0.17-1.55,0.26-2.13,0.26h-4.88
					v29.71c0,2.73,0.29,4.72,0.87,5.97c0.58,1.25,1.97,1.87,4.18,1.87c0.17,0,0.44-0.01,0.78-0.04c0.35-0.03,0.71-0.07,1.09-0.13
					c0.38-0.06,0.74-0.1,1.09-0.13c0.35-0.03,0.58-0.04,0.7-0.04c0.64,0,1.13,0.2,1.48,0.61c0.35,0.41,0.52,0.9,0.52,1.48
					c0,0.99-0.57,1.67-1.7,2.05s-2.63,0.57-4.49,0.57c-2.44,0-4.33-0.36-5.66-1.09c-1.34-0.73-2.31-1.64-2.92-2.74
					c-0.61-1.1-0.97-2.34-1.09-3.7c-0.12-1.36-0.17-2.71-0.17-4.05v-30.32h-2.7c-0.29,0-0.64-0.01-1.05-0.04
					c-0.41-0.03-0.78-0.1-1.13-0.22c-0.35-0.12-0.64-0.3-0.87-0.57c-0.23-0.26-0.35-0.62-0.35-1.09c0-0.99,0.42-1.57,1.26-1.74
					c0.84-0.17,1.55-0.26,2.13-0.26h2.7v-8.02c0-1.68,0.1-3.05,0.3-4.09c0.2-1.05,0.97-1.57,2.31-1.57c1.33,0,2.12,0.49,2.35,1.48
					c0.23,0.99,0.35,2.29,0.35,3.92V485.09z"/>
				<path class="st17" d="M245.97,496.34c-0.12-1.3-0.47-2.5-1.05-3.6c-0.46-0.93-1.09-1.66-1.87-2.21s-1.63-0.98-2.53-1.3
					c-0.9-0.32-1.86-0.54-2.88-0.65c-1.02-0.12-1.99-0.17-2.92-0.17c-0.7,0-1.69,0.06-2.96,0.17c-1.28,0.11-2.6,0.39-3.96,0.81
					c-1.37,0.43-2.66,1.07-3.88,1.93c-1.22,0.86-2.12,2-2.7,3.43c-0.64,1.6-1.13,2.66-1.48,3.17c-0.35,0.51-0.96,0.77-1.83,0.77
					c-0.58,0-1.15-0.22-1.7-0.65c-0.55-0.44-0.83-1.09-0.83-1.96c0-0.52,0.23-1.44,0.7-2.75c0.46-1.31,1.36-2.66,2.7-4.05
					c1.33-1.39,3.24-2.61,5.71-3.66c2.47-1.04,5.71-1.57,9.71-1.57c4.3,0,7.62,0.54,9.98,1.61c2.35,1.08,4.07,2.48,5.14,4.23
					c1.07,1.74,1.7,3.75,1.87,6.01c0.17,2.27,0.26,4.59,0.26,6.97c0,0.58-0.01,1.55-0.04,2.92c-0.03,1.37-0.04,2.83-0.04,4.4
					c0,1.51-0.02,2.93-0.04,4.27c-0.03,1.34-0.04,2.27-0.04,2.79c0,0.99,0.04,2.15,0.13,3.49c0.09,1.34,0.28,2.5,0.57,3.49
					c0.29,1.04,0.57,2,0.83,2.88s0.39,1.51,0.39,1.92c0,0.81-0.3,1.41-0.91,1.79c-0.61,0.38-1.15,0.57-1.61,0.57
					c-0.7,0-1.28-0.22-1.74-0.65c-0.47-0.44-0.83-1.02-1.09-1.74c-0.26-0.73-0.48-1.57-0.65-2.53c-0.17-0.96-0.32-1.96-0.44-3.01
					c-2.44,2.61-5.27,4.57-8.5,5.88c-3.22,1.31-6.61,1.96-10.15,1.96c-2.26,0-4.27-0.33-6.01-1c-1.74-0.67-3.22-1.58-4.44-2.73
					s-2.15-2.5-2.79-4.04c-0.64-1.53-0.96-3.17-0.96-4.9c0-2.72,0.58-4.9,1.74-6.55c1.16-1.65,2.6-2.95,4.31-3.91
					c1.71-0.95,3.56-1.63,5.53-2.04c1.97-0.4,3.78-0.75,5.4-1.04c4.36-0.69,7.7-1.24,10.02-1.65c2.32-0.4,4.07-0.9,5.23-1.47
					C246.14,499.5,246.08,497.64,245.97,496.34z M240.3,507.7c-2.5,0.44-5.14,0.95-7.93,1.52c-1.22,0.23-2.57,0.5-4.05,0.78
					c-1.48,0.29-2.88,0.73-4.18,1.31c-1.31,0.58-2.41,1.41-3.31,2.48c-0.9,1.08-1.35,2.51-1.35,4.31c0,0.7,0.13,1.51,0.39,2.44
					c0.26,0.93,0.75,1.83,1.48,2.7c0.73,0.87,1.71,1.61,2.96,2.22c1.25,0.61,2.86,0.92,4.84,0.92c1.34,0,2.79-0.17,4.36-0.52
					s3.08-0.86,4.53-1.53c1.45-0.67,2.76-1.52,3.92-2.57c1.16-1.04,2.06-2.26,2.7-3.66c0.64-1.45,1.06-3.06,1.26-4.84
					c0.2-1.77,0.28-4.2,0.22-7.28C244.75,506.69,242.8,507.26,240.3,507.7z"/>
				<path class="st17" d="M265.83,526.91c0,0.99-0.12,1.96-0.35,2.92c-0.23,0.96-0.99,1.44-2.27,1.44c-0.7,0-1.22-0.13-1.57-0.39
					c-0.35-0.26-0.61-0.61-0.78-1.05c-0.17-0.44-0.28-0.9-0.3-1.39c-0.03-0.49-0.04-1-0.04-1.52v-55.68c0-0.52,0.01-1.05,0.04-1.57
					c0.03-0.52,0.13-1,0.3-1.44c0.17-0.44,0.44-0.78,0.78-1.04c0.35-0.26,0.84-0.39,1.48-0.39c0.7,0,1.22,0.13,1.57,0.39
					c0.35,0.26,0.61,0.61,0.78,1.04c0.17,0.44,0.28,0.92,0.31,1.44c0.03,0.52,0.04,1.04,0.04,1.57V526.91z"/>
			</g>
			<g>
				<path class="st15" d="M303.62,520.82l-10-39.74v43.05c0,2.38-0.53,4.17-1.6,5.36c-1.06,1.19-2.47,1.79-4.23,1.79
					c-1.7,0-3.09-0.59-4.17-1.77c-1.08-1.18-1.62-2.97-1.62-5.38v-49.35c0-2.72,0.71-4.56,2.13-5.51c1.42-0.95,3.33-1.42,5.74-1.42
					h3.91c2.35,0,4.06,0.21,5.13,0.64c1.06,0.43,1.85,1.19,2.36,2.3c0.51,1.11,1.09,2.91,1.75,5.4l9.06,34.16l9.06-34.16
					c0.65-2.5,1.23-4.3,1.75-5.4c0.51-1.11,1.3-1.87,2.36-2.3c1.06-0.42,2.77-0.64,5.13-0.64h3.91c2.41,0,4.33,0.48,5.74,1.42
					c1.42,0.95,2.13,2.79,2.13,5.51v49.35c0,2.38-0.53,4.17-1.6,5.36c-1.06,1.19-2.49,1.79-4.28,1.79c-1.67,0-3.05-0.6-4.13-1.79
					c-1.08-1.19-1.62-2.98-1.62-5.36v-43.05l-10,39.74c-0.65,2.58-1.19,4.47-1.6,5.68c-0.41,1.21-1.17,2.3-2.28,3.3
					c-1.11,0.99-2.64,1.49-4.59,1.49c-1.48,0-2.72-0.32-3.74-0.96c-1.02-0.64-1.82-1.45-2.38-2.45c-0.57-0.99-1.01-2.09-1.34-3.3
					C304.29,523.38,303.96,522.12,303.62,520.82z"/>
				<path class="st15" d="M382.39,510.52h-22.72c0.03,2.64,0.56,4.96,1.59,6.98s2.41,3.53,4.13,4.55c1.72,1.02,3.61,1.53,5.68,1.53
					c1.39,0,2.66-0.16,3.81-0.49c1.15-0.33,2.26-0.84,3.34-1.53c1.08-0.69,2.07-1.44,2.98-2.23c0.91-0.79,2.08-1.87,3.53-3.23
					c0.6-0.51,1.45-0.77,2.55-0.77c1.19,0,2.16,0.33,2.89,0.98c0.74,0.65,1.11,1.57,1.11,2.77c0,1.05-0.41,2.28-1.23,3.68
					c-0.82,1.4-2.06,2.75-3.72,4.04c-1.66,1.29-3.74,2.36-6.25,3.21c-2.51,0.85-5.4,1.28-8.66,1.28c-7.46,0-13.26-2.13-17.4-6.38
					c-4.14-4.25-6.21-10.03-6.21-17.32c0-3.43,0.51-6.62,1.53-9.55c1.02-2.94,2.51-5.45,4.47-7.55s4.37-3.71,7.23-4.83
					c2.86-1.12,6.04-1.68,9.53-1.68c4.54,0,8.43,0.96,11.68,2.87c3.25,1.91,5.68,4.39,7.3,7.42c1.62,3.04,2.42,6.13,2.42,9.27
					c0,2.92-0.84,4.82-2.51,5.68C387.78,510.09,385.43,510.52,382.39,510.52z M359.67,503.93h21.06c-0.28-3.97-1.36-6.94-3.21-8.91
					s-4.3-2.96-7.34-2.96c-2.89,0-5.27,1-7.13,3C361.2,497.06,360.07,500.01,359.67,503.93z"/>
				<path class="st15" d="M407.94,490.48v1.4c2.04-2.69,4.28-4.67,6.7-5.93c2.42-1.26,5.21-1.89,8.36-1.89c3.06,0,5.8,0.67,8.21,2
					s4.21,3.22,5.4,5.66c0.77,1.42,1.26,2.95,1.49,4.59c0.23,1.65,0.34,3.74,0.34,6.3v21.61c0,2.33-0.53,4.08-1.59,5.28
					c-1.06,1.19-2.45,1.79-4.15,1.79c-1.73,0-3.13-0.61-4.21-1.83c-1.08-1.22-1.62-2.96-1.62-5.23v-19.36c0-3.83-0.53-6.76-1.6-8.79
					s-3.18-3.04-6.36-3.04c-2.07,0-3.96,0.62-5.66,1.85c-1.7,1.23-2.95,2.93-3.74,5.08c-0.57,1.73-0.85,4.96-0.85,9.7v14.55
					c0,2.35-0.55,4.12-1.64,5.3s-2.5,1.77-4.23,1.77c-1.67,0-3.05-0.61-4.13-1.83c-1.08-1.22-1.62-2.96-1.62-5.23v-33.57
					c0-2.21,0.48-3.86,1.45-4.96s2.28-1.64,3.96-1.64c1.02,0,1.94,0.24,2.77,0.72c0.82,0.48,1.48,1.21,1.98,2.17
					C407.7,487.92,407.94,489.09,407.94,490.48z"/>
				<path class="st15" d="M446.3,485.08h1.28v-6.98c0-1.87,0.05-3.34,0.15-4.4c0.1-1.06,0.38-1.98,0.83-2.74
					c0.45-0.79,1.11-1.44,1.96-1.94c0.85-0.5,1.8-0.74,2.85-0.74c1.47,0,2.81,0.55,4,1.66c0.79,0.74,1.3,1.64,1.51,2.7
					s0.32,2.57,0.32,4.53v7.91h4.25c1.64,0,2.9,0.39,3.77,1.17c0.86,0.78,1.3,1.78,1.3,3c0,1.56-0.62,2.65-1.85,3.28
					c-1.23,0.62-3,0.94-5.3,0.94h-2.17v21.36c0,1.82,0.06,3.21,0.19,4.19c0.13,0.98,0.47,1.77,1.02,2.38
					c0.55,0.61,1.45,0.92,2.7,0.92c0.68,0,1.6-0.12,2.76-0.36s2.07-0.36,2.72-0.36c0.94,0,1.78,0.38,2.53,1.13
					c0.75,0.75,1.13,1.68,1.13,2.79c0,1.87-1.02,3.3-3.06,4.3c-2.04,0.99-4.98,1.49-8.81,1.49c-3.63,0-6.38-0.61-8.25-1.83
					c-1.87-1.22-3.1-2.91-3.68-5.06s-0.87-5.04-0.87-8.64v-22.29h-1.53c-1.67,0-2.95-0.4-3.83-1.19c-0.88-0.79-1.32-1.8-1.32-3.02
					c0-1.22,0.46-2.22,1.38-3C443.2,485.47,444.54,485.08,446.3,485.08z"/>
				<path class="st15" d="M504.57,510.52h-22.72c0.03,2.64,0.56,4.96,1.59,6.98s2.41,3.53,4.13,4.55c1.72,1.02,3.61,1.53,5.68,1.53
					c1.39,0,2.66-0.16,3.81-0.49c1.15-0.33,2.26-0.84,3.34-1.53c1.08-0.69,2.07-1.44,2.98-2.23c0.91-0.79,2.08-1.87,3.53-3.23
					c0.6-0.51,1.45-0.77,2.55-0.77c1.19,0,2.16,0.33,2.89,0.98c0.74,0.65,1.11,1.57,1.11,2.77c0,1.05-0.41,2.28-1.23,3.68
					c-0.82,1.4-2.06,2.75-3.72,4.04c-1.66,1.29-3.74,2.36-6.25,3.21c-2.51,0.85-5.4,1.28-8.66,1.28c-7.46,0-13.26-2.13-17.4-6.38
					c-4.14-4.25-6.21-10.03-6.21-17.32c0-3.43,0.51-6.62,1.53-9.55c1.02-2.94,2.51-5.45,4.47-7.55s4.37-3.71,7.23-4.83
					c2.86-1.12,6.04-1.68,9.53-1.68c4.54,0,8.43,0.96,11.68,2.87c3.25,1.91,5.68,4.39,7.3,7.42c1.62,3.04,2.42,6.13,2.42,9.27
					c0,2.92-0.84,4.82-2.51,5.68C509.96,510.09,507.61,510.52,504.57,510.52z M481.85,503.93h21.06c-0.28-3.97-1.36-6.94-3.21-8.91
					s-4.3-2.96-7.34-2.96c-2.89,0-5.27,1-7.13,3C483.38,497.06,482.25,500.01,481.85,503.93z"/>
			</g>
		</g>
		<g>
			<path class="st17" d="M154.68,415.96c1.01,0,1.89,0.06,2.65,0.19s1.42,0.3,2,0.53c0.57,0.22,1.07,0.48,1.49,0.78
				c0.42,0.29,0.78,0.6,1.09,0.9c1.65,1.74,2.48,3.81,2.48,6.22c0,0.92-0.15,1.9-0.46,2.92c-0.31,1.02-0.83,1.97-1.58,2.84
				c-0.74,0.87-1.74,1.58-2.98,2.14s-2.81,0.84-4.69,0.84h-7.57v10.89c0,0.25-0.01,0.52-0.02,0.8c-0.01,0.28-0.07,0.54-0.17,0.78
				c-0.1,0.24-0.25,0.43-0.44,0.57c-0.2,0.14-0.46,0.21-0.8,0.21c-0.36,0-0.65-0.07-0.84-0.21c-0.2-0.14-0.34-0.32-0.42-0.55
				c-0.08-0.22-0.13-0.48-0.15-0.76c-0.01-0.28-0.02-0.56-0.02-0.84v-25.85c0-0.59,0.04-1.05,0.11-1.39c0.07-0.34,0.2-0.57,0.4-0.71
				c0.2-0.14,0.48-0.22,0.84-0.25c0.36-0.03,0.85-0.04,1.47-0.04H154.68z M147.11,418.56v12.28h6.77c0.81,0,1.66-0.08,2.54-0.23
				c0.88-0.15,1.7-0.45,2.44-0.88s1.35-1.06,1.83-1.87c0.48-0.81,0.71-1.88,0.71-3.19c0-1.51-0.29-2.68-0.88-3.51
				c-0.59-0.83-1.29-1.43-2.1-1.81c-0.81-0.38-1.65-0.6-2.5-0.67c-0.86-0.07-1.53-0.11-2.04-0.11H147.11z"/>
			<path class="st17" d="M201.05,443.53c0.28,0.42,0.46,0.74,0.55,0.95c0.08,0.21,0.13,0.43,0.13,0.65c0,0.39-0.15,0.73-0.46,1.01
				c-0.31,0.28-0.66,0.42-1.05,0.42c-0.22,0-0.4-0.02-0.53-0.06s-0.26-0.13-0.4-0.25c-0.14-0.13-0.3-0.32-0.48-0.59
				c-0.18-0.27-0.41-0.62-0.69-1.07l-3.11-4.88c-1.04-1.6-1.93-2.89-2.67-3.87c-0.74-0.98-1.45-1.74-2.12-2.27
				c-0.67-0.53-1.37-0.89-2.08-1.07c-0.71-0.18-1.55-0.27-2.5-0.27h-4.37v11.94c0,0.28-0.01,0.56-0.02,0.84
				c-0.01,0.28-0.06,0.54-0.15,0.78c-0.08,0.24-0.22,0.43-0.4,0.57s-0.46,0.21-0.82,0.21c-0.36,0-0.65-0.07-0.84-0.21
				c-0.2-0.14-0.34-0.33-0.44-0.57c-0.1-0.24-0.15-0.5-0.17-0.78c-0.01-0.28-0.02-0.56-0.02-0.84v-25.81c0-0.53,0.03-0.96,0.08-1.28
				c0.06-0.32,0.17-0.57,0.34-0.74c0.17-0.17,0.41-0.27,0.71-0.31c0.31-0.04,0.73-0.06,1.26-0.06h10.3c1.26,0,2.41,0.13,3.45,0.4
				c1.04,0.27,1.92,0.68,2.65,1.24c0.95,0.73,1.69,1.66,2.21,2.79c0.52,1.14,0.78,2.33,0.78,3.59c0,2.41-0.75,4.27-2.25,5.57
				c-1.5,1.3-3.5,2.11-5.99,2.42c0.9,0.53,1.75,1.21,2.54,2.02c0.8,0.81,1.63,1.89,2.5,3.24L201.05,443.53z M181.25,418.44v11.31
				h7.95c0.31,0,0.71-0.01,1.22-0.02c0.5-0.01,1.05-0.08,1.64-0.19c0.59-0.11,1.19-0.28,1.81-0.5c0.62-0.22,1.17-0.55,1.66-0.99
				c0.49-0.43,0.89-0.98,1.2-1.64c0.31-0.66,0.46-1.46,0.46-2.42c0-0.9-0.21-1.75-0.63-2.56c-0.42-0.81-1.02-1.46-1.81-1.93
				c-0.31-0.2-0.69-0.36-1.16-0.5c-0.46-0.14-0.95-0.25-1.45-0.34c-0.5-0.08-1-0.14-1.49-0.17c-0.49-0.03-0.93-0.04-1.32-0.04
				H181.25z"/>
			<path class="st17" d="M233.67,417.03c1.82,1.05,3.26,2.36,4.31,3.93s1.78,3.26,2.19,5.07s0.61,3.47,0.61,4.98
				c0,1.6-0.22,3.31-0.65,5.13c-0.43,1.82-1.18,3.5-2.25,5.04c-1.07,1.54-2.5,2.82-4.31,3.85c-1.81,1.02-4.08,1.54-6.83,1.54
				c-1.85,0-3.49-0.25-4.92-0.74s-2.66-1.14-3.7-1.95c-1.04-0.81-1.9-1.75-2.59-2.82c-0.69-1.06-1.24-2.17-1.66-3.32
				s-0.71-2.31-0.88-3.47c-0.17-1.16-0.25-2.25-0.25-3.26c0-1.57,0.21-3.26,0.63-5.09c0.42-1.82,1.16-3.51,2.23-5.07
				c1.06-1.56,2.5-2.84,4.31-3.87s4.08-1.54,6.83-1.54C229.53,415.45,231.85,415.98,233.67,417.03z M225.47,417.89
				c-0.59,0.06-1.25,0.2-2,0.44c-0.74,0.24-1.53,0.6-2.35,1.07c-0.83,0.48-1.61,1.12-2.33,1.93c-1.15,1.35-1.95,2.85-2.4,4.52
				c-0.45,1.67-0.67,3.38-0.67,5.15c0,0.45,0.03,1.05,0.08,1.81c0.06,0.76,0.19,1.58,0.4,2.48c0.21,0.9,0.52,1.82,0.92,2.77
				c0.41,0.95,0.96,1.82,1.66,2.61c1.04,1.18,2.28,2.06,3.72,2.65s2.85,0.88,4.23,0.88c1.4,0,2.82-0.29,4.27-0.88
				c1.44-0.59,2.67-1.47,3.68-2.65c0.7-0.78,1.26-1.65,1.68-2.61c0.42-0.95,0.74-1.88,0.95-2.77c0.21-0.9,0.34-1.72,0.4-2.48
				c0.06-0.76,0.08-1.36,0.08-1.81c0-0.7-0.04-1.46-0.13-2.27c-0.08-0.81-0.24-1.65-0.46-2.5c-0.22-0.85-0.54-1.7-0.95-2.52
				c-0.41-0.83-0.93-1.62-1.58-2.38c-0.67-0.78-1.41-1.42-2.21-1.89c-0.8-0.48-1.58-0.83-2.33-1.07c-0.76-0.24-1.44-0.39-2.06-0.46
				c-0.62-0.07-1.07-0.11-1.34-0.11C226.48,417.8,226.06,417.83,225.47,417.89z"/>
			<path class="st17" d="M262.13,430.42l8.87-13.66c0.34-0.53,0.59-0.88,0.76-1.05c0.17-0.17,0.43-0.25,0.8-0.25
				c0.42,0,0.75,0.14,0.99,0.42c0.24,0.28,0.36,0.56,0.36,0.84s-0.06,0.52-0.17,0.71c-0.11,0.2-0.28,0.46-0.5,0.8l-9.84,14.84v11.14
				c0,0.25-0.01,0.52-0.02,0.8c-0.01,0.28-0.06,0.54-0.15,0.78c-0.08,0.24-0.22,0.43-0.42,0.57s-0.48,0.21-0.84,0.21
				s-0.64-0.07-0.84-0.21s-0.34-0.33-0.42-0.57c-0.08-0.24-0.13-0.5-0.15-0.78s-0.02-0.55-0.02-0.8v-11.14l-9.37-14.63
				c-0.22-0.36-0.4-0.66-0.53-0.88s-0.19-0.48-0.19-0.76c0-0.36,0.13-0.68,0.38-0.95c0.25-0.27,0.57-0.4,0.97-0.4
				c0.39,0,0.69,0.1,0.9,0.29c0.21,0.2,0.51,0.62,0.9,1.26L262.13,430.42z"/>
			<path class="st17" d="M290.13,429.32h13.62c0.22,0,0.46,0.01,0.71,0.02c0.25,0.01,0.48,0.06,0.67,0.13s0.36,0.19,0.48,0.36
				c0.13,0.17,0.19,0.41,0.19,0.71c0,0.31-0.06,0.55-0.19,0.71c-0.13,0.17-0.29,0.29-0.48,0.38s-0.42,0.13-0.67,0.15
				c-0.25,0.01-0.49,0.02-0.71,0.02h-13.62v11.77h15.47c0.53,0,1.01,0.06,1.43,0.19c0.42,0.13,0.63,0.47,0.63,1.03
				c0,0.31-0.06,0.55-0.19,0.71c-0.13,0.17-0.29,0.29-0.48,0.38c-0.2,0.08-0.42,0.13-0.67,0.15c-0.25,0.01-0.49,0.02-0.71,0.02
				h-15.93c-0.53,0-0.96-0.02-1.28-0.06s-0.57-0.15-0.74-0.31c-0.17-0.17-0.27-0.41-0.32-0.74c-0.04-0.32-0.06-0.75-0.06-1.28
				v-25.31c0-0.53,0.03-0.96,0.08-1.28c0.06-0.32,0.17-0.57,0.34-0.74c0.17-0.17,0.41-0.27,0.71-0.31c0.31-0.04,0.73-0.06,1.26-0.06
				h15.26c0.22,0,0.46,0.01,0.71,0.02c0.25,0.01,0.48,0.06,0.69,0.15c0.21,0.08,0.38,0.21,0.5,0.38c0.13,0.17,0.19,0.41,0.19,0.71
				c0,0.34-0.06,0.59-0.19,0.76s-0.29,0.29-0.5,0.36c-0.21,0.07-0.44,0.11-0.69,0.11c-0.22,0-0.46,0-0.71,0h-14.8V429.32z"/>
			<path class="st17" d="M321.07,424.62c0.67-1.91,1.62-3.54,2.84-4.9c1.22-1.36,2.68-2.41,4.37-3.15c1.7-0.74,3.58-1.11,5.65-1.11
				c1.46,0,2.75,0.18,3.89,0.55s2.13,0.83,2.99,1.39c0.85,0.56,1.58,1.18,2.19,1.87c0.6,0.69,1.09,1.35,1.47,1.98
				c0.38,0.63,0.65,1.19,0.82,1.68c0.17,0.49,0.25,0.83,0.25,1.03c0,0.14-0.08,0.37-0.23,0.69c-0.15,0.32-0.48,0.48-0.99,0.48
				c-0.2,0-0.36-0.02-0.48-0.06s-0.25-0.15-0.38-0.32c-0.13-0.17-0.29-0.41-0.48-0.74c-0.2-0.32-0.45-0.78-0.76-1.37
				c-0.37-0.64-0.82-1.28-1.37-1.89c-0.55-0.62-1.18-1.15-1.91-1.6c-0.48-0.31-1.1-0.61-1.87-0.9s-1.74-0.44-2.92-0.44
				c-0.45,0-1.04,0.05-1.77,0.15c-0.73,0.1-1.5,0.31-2.31,0.63c-0.81,0.32-1.64,0.78-2.48,1.37c-0.84,0.59-1.6,1.37-2.27,2.35
				c-0.67,0.98-1.22,2.19-1.64,3.64c-0.42,1.44-0.63,3.17-0.63,5.19c0,2.52,0.34,4.62,1.01,6.31s1.53,3.03,2.59,4.04
				c1.05,1.01,2.21,1.72,3.47,2.14c1.26,0.42,2.47,0.63,3.62,0.63c1.65,0,3.19-0.35,4.6-1.05c1.42-0.7,2.6-1.71,3.55-3.03
				c0.36-0.53,0.65-1.06,0.86-1.6s0.4-1.02,0.57-1.45c0.17-0.43,0.35-0.79,0.55-1.07c0.2-0.28,0.46-0.42,0.8-0.42
				c0.31,0,0.59,0.09,0.84,0.27c0.25,0.18,0.38,0.47,0.38,0.86c0,0.34-0.08,0.81-0.25,1.41c-0.17,0.6-0.44,1.27-0.82,2
				c-0.38,0.73-0.88,1.47-1.49,2.23c-0.62,0.76-1.37,1.45-2.27,2.08c-0.9,0.63-1.95,1.14-3.15,1.53c-1.21,0.39-2.58,0.59-4.12,0.59
				c-1.96,0-3.67-0.28-5.13-0.84c-1.46-0.56-2.69-1.3-3.7-2.21s-1.83-1.94-2.46-3.09s-1.13-2.3-1.49-3.45
				c-0.37-1.15-0.61-2.26-0.74-3.32c-0.13-1.06-0.19-1.98-0.19-2.73C320.06,428.64,320.39,426.52,321.07,424.62z"/>
			<path class="st17" d="M369.41,444.21c0,0.25-0.01,0.52-0.02,0.8c-0.01,0.28-0.06,0.54-0.15,0.78c-0.08,0.24-0.22,0.43-0.42,0.57
				s-0.48,0.21-0.84,0.21s-0.64-0.07-0.84-0.21s-0.34-0.32-0.42-0.55s-0.13-0.48-0.15-0.76c-0.01-0.28-0.02-0.56-0.02-0.84v-25.6
				h-7.57c-0.25,0-0.5-0.01-0.76-0.02c-0.25-0.01-0.48-0.06-0.69-0.15s-0.39-0.21-0.53-0.38c-0.14-0.17-0.21-0.42-0.21-0.76
				c0-0.34,0.07-0.59,0.21-0.78c0.14-0.18,0.32-0.32,0.53-0.4s0.44-0.13,0.69-0.15c0.25-0.01,0.5-0.02,0.76-0.02h17.99
				c0.25,0,0.5,0.01,0.76,0.02c0.25,0.01,0.48,0.06,0.69,0.15c0.21,0.08,0.39,0.21,0.53,0.38c0.14,0.17,0.21,0.42,0.21,0.76
				c0,0.34-0.07,0.6-0.21,0.78c-0.14,0.18-0.32,0.32-0.53,0.4c-0.21,0.08-0.44,0.13-0.69,0.15c-0.25,0.01-0.5,0.02-0.76,0.02h-7.57
				V444.21z"/>
			<path class="st17" d="M408.59,417.03c1.82,1.05,3.26,2.36,4.31,3.93s1.78,3.26,2.19,5.07s0.61,3.47,0.61,4.98
				c0,1.6-0.22,3.31-0.65,5.13c-0.43,1.82-1.18,3.5-2.25,5.04c-1.07,1.54-2.5,2.82-4.31,3.85c-1.81,1.02-4.08,1.54-6.83,1.54
				c-1.85,0-3.49-0.25-4.92-0.74s-2.66-1.14-3.7-1.95c-1.04-0.81-1.9-1.75-2.59-2.82c-0.69-1.06-1.24-2.17-1.66-3.32
				s-0.71-2.31-0.88-3.47c-0.17-1.16-0.25-2.25-0.25-3.26c0-1.57,0.21-3.26,0.63-5.09c0.42-1.82,1.16-3.51,2.23-5.07
				c1.06-1.56,2.5-2.84,4.31-3.87s4.08-1.54,6.83-1.54C404.46,415.45,406.77,415.98,408.59,417.03z M400.39,417.89
				c-0.59,0.06-1.25,0.2-2,0.44c-0.74,0.24-1.53,0.6-2.35,1.07c-0.83,0.48-1.61,1.12-2.33,1.93c-1.15,1.35-1.95,2.85-2.4,4.52
				c-0.45,1.67-0.67,3.38-0.67,5.15c0,0.45,0.03,1.05,0.08,1.81c0.06,0.76,0.19,1.58,0.4,2.48c0.21,0.9,0.52,1.82,0.92,2.77
				c0.41,0.95,0.96,1.82,1.66,2.61c1.04,1.18,2.28,2.06,3.72,2.65s2.85,0.88,4.23,0.88c1.4,0,2.82-0.29,4.27-0.88
				c1.44-0.59,2.67-1.47,3.68-2.65c0.7-0.78,1.26-1.65,1.68-2.61c0.42-0.95,0.74-1.88,0.95-2.77c0.21-0.9,0.34-1.72,0.4-2.48
				c0.06-0.76,0.08-1.36,0.08-1.81c0-0.7-0.04-1.46-0.13-2.27c-0.08-0.81-0.24-1.65-0.46-2.5c-0.22-0.85-0.54-1.7-0.95-2.52
				c-0.41-0.83-0.93-1.62-1.58-2.38c-0.67-0.78-1.41-1.42-2.21-1.89c-0.8-0.48-1.58-0.83-2.33-1.07c-0.76-0.24-1.44-0.39-2.06-0.46
				c-0.62-0.07-1.07-0.11-1.34-0.11C401.4,417.8,400.98,417.83,400.39,417.89z"/>
		</g>
	</g>
</g>
</svg>
