<?xml version="1.0" encoding="utf-8"?>
<!-- Generator: Adobe Illustrator 24.0.1, SVG Export Plug-In . SVG Version: 6.00 Build 0)  -->
<svg version="1.1" xmlns="http://www.w3.org/2000/svg" xmlns:xlink="http://www.w3.org/1999/xlink" x="0px" y="0px"
	 viewBox="0 0 566.93 566.93" style="enable-background:new 0 0 566.93 566.93;" xml:space="preserve">
<style type="text/css">
	.st0{display:none;}
	.st1{display:inline;fill:#FFFFFF;}
	.st2{clip-path:url(#SVGID_2_);fill:#35A8E0;}
	.st3{clip-path:url(#SVGID_2_);fill:#FFFFFF;}
	.st4{clip-path:url(#SVGID_2_);}
	.st5{fill:#F1B2DF;}
	.st6{fill:#4528AF;}
	.st7{fill:url(#SVGID_3_);}
	.st8{fill:#009FE3;}
	.st9{fill:#FFFFFF;}
	.st10{fill:url(#SVGID_4_);}
	.st11{fill:url(#SVGID_5_);}
	.st12{clip-path:url(#SVGID_7_);fill:#00659D;}
	.st13{clip-path:url(#SVGID_7_);fill:#FFFFFF;}
	.st14{clip-path:url(#SVGID_7_);}
	.st15{fill:#FC8890;}
	.st16{fill:#00ABBC;}
	.st17{fill:#00659D;}
	.st18{fill:#E76F3D;}
	.st19{opacity:0.3;clip-path:url(#SVGID_9_);}
	.st20{fill:#9BCFE0;}
	.st21{fill:#FEAB6B;}
	.st22{fill:#333333;}
	.st23{fill:none;stroke:#E76F3D;stroke-width:5;stroke-linecap:round;stroke-linejoin:round;stroke-miterlimit:10;}
	.st24{clip-path:url(#SVGID_11_);fill:#00659D;}
	.st25{clip-path:url(#SVGID_11_);fill:#FFFFFF;}
	.st26{clip-path:url(#SVGID_11_);}
	.st27{fill:#E2C58A;}
	.st28{clip-path:url(#SVGID_13_);fill:#00659D;}
	.st29{clip-path:url(#SVGID_13_);fill:#FFFFFF;}
	.st30{clip-path:url(#SVGID_13_);}
	.st31{clip-path:url(#SVGID_15_);fill:#00659D;}
	.st32{clip-path:url(#SVGID_15_);fill:#FFFFFF;}
	.st33{clip-path:url(#SVGID_15_);}
	.st34{clip-path:url(#SVGID_17_);fill:#00659D;}
	.st35{clip-path:url(#SVGID_17_);fill:#FFFFFF;}
	.st36{clip-path:url(#SVGID_17_);}
</style>
<g id="Capa_2" class="st0">
</g>
<g id="Capa_1">
	<g>
		<path class="st27" d="M357.03,271.05l-10.55-43.22c-7.11-33.71-37.34-57.39-71.83-56.3c-38.16,1.2-68.38,32.06-68.8,70.26
			c-0.16,15.2,3.06,35.93,10.65,47.97c6.85,10.88,11.38,15.96,13.82,18.25v72.23h8.59v-74.23c0-1.48-0.65-2.78-1.91-3.57
			c-0.04-0.03-4.39-3.21-13.23-17.25c-6.62-10.51-9.48-29.82-9.33-43.3c0.37-33.58,26.93-60.71,60.47-61.76
			c30.42-0.99,56.94,19.89,63.17,49.55c0.01,0.05,0.02,0.09,0.03,0.14l9.27,37.97h-7.28c-2.13,0-3.94,1.56-4.25,3.67l-4.07,27.52
			c-0.51,3.48-3.55,6.1-7.07,6.1h-18.95c-2.37,0-4.3,1.92-4.3,4.3v70.87h8.59v-66.57h14.65c7.75,0,14.44-5.78,15.57-13.44
			l3.53-23.85h9.05c1.32,0,2.56-0.61,3.38-1.64C357.05,273.69,357.34,272.33,357.03,271.05z"/>
		<g>
			<g>
				<path class="st15" d="M318.41,228.48c-0.01,0.43,0.09,0.84,0.26,1.24c0.18,0.41,0.39,0.8,0.64,1.18
					c0.23,0.36,0.45,0.72,0.64,1.1c0.51,1.02,0.87,2.1,1.24,3.18c0.04,0.1,0.07,0.21,0.1,0.31c0.13-0.03,0.13-0.12,0.17-0.19
					c0.16-0.31,0.31-0.61,0.45-0.93c0.93-2.14,1.15-4.33,0.43-6.59c-0.31-0.97-0.67-1.91-1.1-2.82c-0.47-1-0.67-2.04-0.55-3.15
					c0.06-0.62,0.18-1.23,0.26-1.84c0.16-1.15,0.27-2.31,0.1-3.47c-0.15-1.07-0.47-2.08-1.16-2.95c-0.35-0.44-0.74-0.85-1.17-1.21
					c-0.5-0.42-0.9-0.92-1.19-1.5c-0.15-0.31-0.31-0.62-0.47-0.92c-0.37-0.72-0.77-1.41-1.29-2.04c-0.37-0.45-0.8-0.86-1.25-1.23
					c-0.56-0.47-1.24-0.75-1.89-1.04c-0.86-0.39-1.8-0.52-2.73-0.37c-2.11,0.35-3.92,1.28-5.31,2.94c-0.41,0.49-0.78,1.02-1.12,1.57
					c-0.88,1.46-1.39,3.04-1.75,4.69c-0.24,1.1-0.35,2.2-0.22,3.32c0.06,0.47,0.08,0.95,0.11,1.43c-0.38,0.05-0.38,0.05-0.59-0.18
					c-0.23-0.25-0.38-0.54-0.49-0.86c-0.33-0.97-0.54-1.97-0.62-2.99c-0.03-0.35-0.03-0.7,0.04-1.03c0.39-1.9,1.02-3.72,2.03-5.39
					c1.36-2.27,3.22-3.93,5.75-4.81c1.11-0.39,2.24-0.6,3.42-0.51c0.25,0.02,0.5,0.1,0.76,0.08c0-0.05,0.01-0.06,0.01-0.07
					c-0.02-0.04-0.04-0.09-0.06-0.13c-0.74-1.49-1.8-2.72-3.1-3.74c-0.98-0.77-2.08-1.31-3.25-1.72c-0.94-0.33-1.62-0.93-2.08-1.81
					c-0.21-0.4-0.43-0.78-0.66-1.17c-0.72-1.23-1.7-2.22-2.9-2.99c-1.97-1.26-4.1-1.81-6.44-1.51c-0.45,0.06-0.89,0.07-1.33-0.06
					c-0.48-0.14-0.92-0.36-1.33-0.64c-1.27-0.86-2.68-1.41-4.17-1.75c-1.23-0.28-2.46-0.34-3.69-0.06c-2,0.47-3.43,1.68-4.36,3.47
					c-0.7,1.35-1.02,2.8-1.03,4.32c-0.03,2.28,0.32,4.51,0.86,6.72c0.39,1.6,0.82,3.18,1.1,4.8c0.05,0.29,0.06,0.58,0.16,0.86
					c0.03-0.01,0.05-0.01,0.05-0.02c0.03-0.03,0.07-0.06,0.1-0.09c0.51-0.57,1.14-0.96,1.85-1.22c0.49-0.18,1.01-0.25,1.53-0.18
					c0.26,0.03,0.52,0.09,0.67,0.33c-0.06,0.24-0.24,0.38-0.41,0.51c-0.31,0.24-0.67,0.41-1.02,0.57c-1.03,0.45-1.86,1.13-2.45,2.1
					c-0.08,0.12-0.12,0.24-0.11,0.38c0.02,0.39,0.04,0.78,0.05,1.17c0.03,1.07,0,2.14-0.04,3.21c-0.06,1.62-0.15,3.24-0.33,4.85
					c-0.05,0.42-0.1,0.83-0.15,1.32c0.24-0.28,0.44-0.52,0.64-0.76c1.42-1.66,3.25-2.15,5.34-1.89c0.39,0.05,0.76,0.17,1.06,0.47
					c-0.17,0.23-0.41,0.34-0.65,0.44c-0.35,0.15-0.73,0.2-1.11,0.26c-1.55,0.21-2.78,0.97-3.74,2.19c-0.76,0.98-1.35,2.05-1.75,3.23
					c-0.17,0.51-0.32,1.03-0.49,1.54c-0.25,0.77-0.43,1.55-0.43,2.36c0,0.1-0.02,0.21-0.02,0.31c-0.11,1.4-0.07,2.8,0,4.21
					c0.05,1.15,0.24,2.29,0.41,3.42c0.04,0.29,0.05,0.58,0.14,0.86c0.1-0.05,0.12-0.13,0.16-0.2c0.27-0.44,0.56-0.87,0.89-1.27
					c0.6-0.74,1.29-1.37,2.16-1.79c0.26-0.13,0.53-0.23,0.82-0.24c0.23-0.01,0.49-0.05,0.61,0.21c0.12,0.24-0.03,0.44-0.17,0.63
					c-0.23,0.3-0.53,0.54-0.81,0.8c-0.86,0.8-1.66,1.66-2.24,2.69c-0.36,0.63-0.66,1.29-1,1.93c-0.44,0.81-0.76,1.67-0.97,2.57
					c-0.28,1.16-0.53,2.33-0.64,3.52c-0.13,1.36,0.01,2.71,0.22,4.05c0.24,1.49,0.78,2.85,1.68,4.07c0.31,0.42,0.62,0.86,0.9,1.31
					c0.16,0.26,0.25,0.55,0.32,0.85c-1.07,0.26-1.77-0.39-2.49-0.96c-0.03,0.02-0.05,0.02-0.05,0.03c-0.24,1.09-0.32,2.18-0.15,3.29
					c0.09,0.59,0.26,1.17,0.59,1.68c0.45,0.68,1.08,0.97,1.89,0.84c0.49-0.08,0.96-0.23,1.41-0.43c0.46-0.2,0.92-0.42,1.39-0.61
					c0.68-0.27,1.38-0.44,2.12-0.37c0.48,0.05,0.96,0.12,1.43,0.23c1.18,0.29,2.36,0.59,3.58,0.69c1.23,0.1,2.43,0,3.6-0.44
					c0.71-0.27,1.4-0.57,2.08-0.91c1.03-0.51,2.1-0.78,3.26-0.76c0.84,0.01,1.68,0.01,2.52,0c1.3-0.02,2.6-0.11,3.87-0.41
					c3.32-0.76,6.36-2.07,8.99-4.3c1.56-1.33,2.77-2.92,3.61-4.77c1.22-2.67,1.91-5.48,1.88-8.44c-0.02-2.12-0.3-4.19-1.04-6.19
					c-0.44-1.18-0.89-2.34-1.62-3.38c-0.15-0.22-0.26-0.46-0.38-0.69c-0.46-0.89-0.65-1.83-0.58-2.83c0.06-0.89,0.12-1.79,0.02-2.69
					c-0.1-0.97-0.28-1.91-0.65-2.81c-0.57-1.38-1.54-2.44-2.7-3.34c-0.51-0.4-1.08-0.57-1.73-0.59c-0.56-0.02-1.08,0.2-1.61,0.2
					c-0.07,0.07-0.07,0.14-0.09,0.21c-0.13,0.49-0.3,0.97-0.52,1.42c-0.28,0.58-0.67,1.07-1.19,1.45c-0.23,0.17-0.48,0.31-0.78,0.34
					c-0.19,0.02-0.39-0.01-0.58,0.05c-0.1,0.04-0.21,0-0.26-0.11c-0.05-0.1,0-0.18,0.07-0.25c0.07-0.07,0.16-0.13,0.19-0.24
					c0.07-0.26,0.22-0.48,0.36-0.71c0.25-0.42,0.48-0.86,0.68-1.32c0.46-1.05,0.67-2.15,0.54-3.3c-0.07-0.61-0.24-1.19-0.43-1.77
					c-0.09-0.27-0.2-0.54-0.23-0.83c-0.04-0.37,0.16-0.71,0.48-0.83c0.31-0.12,0.66-0.03,0.9,0.25c0.11,0.12,0.18,0.27,0.25,0.41
					c0.48,0.99,0.72,2.03,0.8,3.12c0.01,0.08-0.03,0.19,0.09,0.26c0.5-0.15,1.03-0.15,1.56-0.14c0.86,0.02,1.65,0.27,2.36,0.76
					c0.44,0.3,0.84,0.64,1.23,1c1.01,0.96,1.84,2.06,2.34,3.37c0.66,1.71,0.86,3.49,0.76,5.32
					C318.44,227.65,318.42,228.06,318.41,228.48z M285.9,198.3c-0.14-0.24-0.23-0.5-0.31-0.76c-0.18-0.56-0.38-1.11-0.62-1.64
					c-0.32-0.72-0.75-1.37-1.32-1.92c-0.16-0.15-0.31-0.31-0.42-0.5c-0.23-0.36-0.08-0.66,0.35-0.69c0.23-0.02,0.45,0.03,0.67,0.12
					c0.49,0.21,0.87,0.55,1.22,0.93c0.76,0.83,1.24,1.82,1.58,2.88c0.06,0.17,0.12,0.35,0.18,0.52c0.01,0.03,0.04,0.06,0.06,0.09
					c0.28-0.13,0.55-0.28,0.84-0.39c1.03-0.41,2.09-0.59,3.2-0.38c0.96,0.18,1.76,0.64,2.42,1.36c0.94,1.03,1.43,2.26,1.64,3.62
					c0.05,0.3,0.07,0.61,0.11,0.94c0.18-0.07,0.27-0.21,0.38-0.32c0.89-0.89,1.9-1.59,3.1-2.01c0.32-0.11,0.64-0.2,0.98-0.14
					c0.36,0.07,0.6,0.26,0.66,0.57c0.06,0.34-0.09,0.58-0.35,0.76c-0.14,0.1-0.29,0.19-0.45,0.26c-1.67,0.7-2.9,1.91-3.93,3.36
					c-0.58,0.82-1.05,1.7-1.44,2.62c-0.32,0.75-0.47,1.53-0.49,2.35c-0.02,0.92,0.03,1.84,0.1,2.76c0.02,0.3,0.01,0.6-0.05,0.89
					c-0.07,0.32-0.26,0.39-0.53,0.21c-0.25-0.17-0.44-0.39-0.58-0.67c-0.3-0.6-0.49-1.24-0.58-1.9c-0.16-1.27-0.17-2.52,0.26-3.75
					c0.27-0.77,0.6-1.52,1.01-2.22c0.14-0.24,0.2-0.48,0.22-0.75c0.04-0.69,0.12-1.37,0.06-2.07c-0.1-1.15-0.42-2.23-1.17-3.15
					c-0.51-0.62-1.13-0.99-1.93-1.07c-0.58-0.06-1.15,0.03-1.69,0.23c-0.34,0.12-0.66,0.27-0.99,0.41
					c-0.14,0.06-0.28,0.12-0.42,0.16C286.92,199.22,286.29,198.97,285.9,198.3z M294.09,236.46c0.34,0.56,0.74,1.08,1.14,1.6
					c0.12,0.16,0.24,0.31,0.31,0.5c0.09,0.25,0.15,0.51,0.39,0.67c0.08,0.05,0.11,0.15,0.06,0.25c-0.05,0.11-0.16,0.16-0.26,0.11
					c-0.3-0.15-0.63-0.13-0.94-0.2c-0.19-0.04-0.36-0.14-0.52-0.25c-0.65-0.45-1.21-0.99-1.65-1.64c-0.04-0.07-0.09-0.13-0.16-0.23
					c-0.56,0.27-1.03,0.61-1.46,1.01c-0.26,0.24-0.52,0.49-0.75,0.76c-0.31,0.37-0.72,0.64-1.03,1.01
					c-0.02,0.02-0.06,0.02-0.13,0.05c-0.2-0.45-0.39-0.89-0.28-1.4c0.14-0.59,0.47-1.07,0.9-1.48c0.53-0.51,1.13-0.95,1.78-1.28
					c0.09-0.05,0.2-0.07,0.27-0.18c-0.07-0.25-0.15-0.51-0.22-0.77c-0.35-1.42-0.32-2.83,0.11-4.22c0.44-1.45,1.11-2.77,2.18-3.86
					c0.38-0.39,0.8-0.73,1.28-0.99c0.24-0.13,0.5-0.24,0.77-0.29c0.23-0.05,0.46-0.04,0.68,0.05c0.29,0.12,0.47,0.33,0.49,0.65
					c0.01,0.31-0.13,0.55-0.42,0.65c-0.9,0.35-1.51,1.02-2.04,1.79c-0.65,0.94-1.12,1.95-1.35,3.07
					C292.89,233.46,293.21,235.02,294.09,236.46z M300.82,252.98c-0.24,0.04-0.48,0.06-0.73,0.08c-0.07,0.78-0.36,1.46-0.79,2.08
					c-0.25,0.36-0.55,0.68-0.93,0.9c-0.34,0.19-0.69,0.23-1.04-0.02c-0.09-0.34,0.03-0.63,0.22-0.9c0.25-0.36,0.5-0.71,0.7-1.11
					c0.11-0.23,0.22-0.46,0.28-0.7c0.03-0.12,0.06-0.24,0.03-0.38c-0.12-0.09-0.28-0.09-0.42-0.12c-1.42-0.3-2.76-0.8-3.96-1.63
					c-0.25-0.18-0.51-0.35-0.8-0.48c-0.35-0.16-0.4-0.16-0.66,0.12c-0.4,0.43-0.79,0.87-1.19,1.3c-0.39,0.42-0.8,0.83-1.24,1.2
					c-0.73,0.61-1.57,0.99-2.5,1.18c-0.3,0.06-0.6,0.03-0.87-0.12c-0.28-0.16-0.33-0.37-0.16-0.63c0.14-0.22,0.33-0.38,0.55-0.51
					c1.14-0.65,2.15-1.46,3.02-2.43c0.38-0.42,0.75-0.84,1.14-1.25c0.32-0.34,0.7-0.6,1.17-0.7c0.41-0.09,0.8-0.03,1.18,0.12
					c0.36,0.13,0.69,0.31,1.01,0.53c1.29,0.89,2.72,1.42,4.26,1.67c0.89,0.14,1.73,0.06,2.56-0.3c0.95-0.4,1.78-0.96,2.52-1.67
					c0.36-0.34,0.71-0.68,1.07-1.02c0.12-0.11,0.24-0.21,0.4-0.27c0.25-0.09,0.5-0.08,0.71,0.1c0.22,0.19,0.29,0.43,0.22,0.72
					c-0.05,0.22-0.16,0.41-0.28,0.59c-0.51,0.76-1.15,1.41-1.87,1.97C303.36,252.13,302.18,252.74,300.82,252.98z M314.98,245.3
					c0.38-1.82,0.3-3.63-0.17-5.43c-0.05-0.2-0.11-0.4-0.11-0.61c0-0.33,0.17-0.6,0.45-0.71c0.29-0.12,0.61-0.03,0.84,0.22
					c0.13,0.14,0.2,0.3,0.28,0.47c0.27,0.61,0.43,1.26,0.53,1.92c0.27,1.75,0.2,3.48-0.3,5.19c-0.28,0.95-0.75,1.8-1.42,2.53
					c-0.95,1.03-2.06,1.56-3.48,1.66c-0.31,0.71-0.69,1.36-1.16,1.96c-0.53,0.7-1.17,1.26-1.98,1.62c-0.8,0.36-1.62,0.39-2.45,0.1
					c-0.2-0.07-0.38-0.16-0.52-0.32c-0.21-0.25-0.15-0.54,0.14-0.68c0.17-0.08,0.35-0.11,0.53-0.13c1.42-0.15,2.51-0.83,3.28-2.02
					c0.19-0.3,0.38-0.6,0.57-0.91c0.07-0.12,0.15-0.22,0.3-0.27c0.55-0.17,1.06-0.43,1.54-0.76c0.43-0.29,0.86-0.57,1.28-0.87
					C314.17,247.54,314.73,246.51,314.98,245.3z M308.2,237.35c1.47-1.33,2.18-3.01,2.2-4.99c0.01-1.1-0.18-2.17-0.59-3.2
					c-0.08-0.21-0.2-0.41-0.3-0.62c-0.09-0.17-0.18-0.35-0.21-0.54c-0.05-0.3,0.04-0.55,0.29-0.73c0.24-0.17,0.5-0.17,0.75-0.03
					c0.22,0.12,0.38,0.29,0.53,0.48c0.35,0.44,0.59,0.93,0.77,1.45c0.76,2.18,0.78,4.35-0.1,6.5c-0.55,1.33-1.39,2.45-2.53,3.35
					c-0.07,0.06-0.16,0.1-0.21,0.21c0.06,0.09,0.12,0.2,0.18,0.31c0.42,0.68,0.78,1.38,1,2.15c0.22,0.76,0.26,1.52,0.05,2.28
					c-0.1,0.37-0.15,0.4-0.52,0.42c-0.06,0-0.11,0-0.17,0.01c-0.37,0.01-0.48-0.06-0.56-0.41c-0.15-0.64-0.32-1.27-0.54-1.89
					c-0.24-0.69-0.6-1.31-1.02-1.97c-1.89,0.97-3.9,1.26-5.97,1.08c-0.09,0.25-0.07,0.44-0.08,0.64c-0.04,0.58-0.02,1.17-0.11,1.75
					c-0.08,0.51-0.22,1.01-0.46,1.47c-0.18,0.35-0.42,0.63-0.79,0.79c-0.1,0.04-0.17,0.11-0.26,0.17c-0.08,0.07-0.18,0.1-0.29,0.03
					c-0.09-0.06-0.08-0.15-0.08-0.25c-0.04-0.82,0.14-1.62,0.16-2.43c0.01-0.61,0.04-1.22,0.05-1.83c0.01-0.21,0.02-0.41,0.06-0.62
					c0.14-0.79,0.64-1.29,1.43-1.43c0.27-0.05,0.55-0.06,0.82-0.05c1.04,0.02,2.07,0.01,3.08-0.3
					C306.03,238.77,307.21,238.24,308.2,237.35z M306.62,229.62c-0.06,0.13-0.18,0.14-0.29,0.1c-0.21-0.06-0.4-0.02-0.61,0.04
					c-0.5,0.13-1.03,0.09-1.54,0.12c-0.58,0.04-1.17,0.03-1.75,0.15c-0.07,0.01-0.14,0.01-0.19,0.07c-0.03,0.12,0,0.25,0.02,0.37
					c0.1,0.96,0.2,1.92,0.16,2.89c-0.01,0.32-0.06,0.64-0.12,0.96c-0.04,0.17-0.11,0.33-0.24,0.45c-0.17,0.17-0.37,0.17-0.55,0
					c-0.14-0.14-0.21-0.32-0.26-0.52c-0.15-0.67-0.2-1.36-0.28-2.05c-0.08-0.71-0.13-1.42-0.27-2.12c-0.14-0.7-0.16-1.41-0.34-2.1
					c-0.19-0.69-0.34-1.38-0.52-2.07c-0.05-0.2-0.09-0.4-0.1-0.61c0-0.31,0.15-0.54,0.39-0.63c0.26-0.09,0.52,0,0.71,0.28
					c0.17,0.24,0.29,0.52,0.4,0.8c0.27,0.73,0.46,1.49,0.62,2.26c0.03,0.12,0.06,0.24,0.08,0.36c0.13,0.04,0.24-0.01,0.35-0.03
					c0.89-0.13,1.78-0.17,2.67,0.03c0.46,0.11,0.87,0.29,1.15,0.7c0.09,0.13,0.23,0.18,0.36,0.26
					C306.59,229.4,306.68,229.49,306.62,229.62z"/>
			</g>
			<g>
				<path class="st15" d="M231.65,231.88c-0.22,0.33-0.42,0.66-0.59,1.01c-1.42,2.99-2.05,6.13-1.82,9.44
					c0.04,0.52,0.05,1.03,0.14,1.55c0.29,1.8,0.79,3.54,1.51,5.22c0.7,1.65,1.68,3.14,2.95,4.42c0.73,0.72,1.53,1.35,2.37,1.95
					c1.66,1.18,3.5,1.96,5.42,2.59c1.66,0.54,3.35,0.88,5.1,0.94c1.13,0.04,2.25,0.03,3.38,0.03c1.13-0.01,2.18,0.25,3.19,0.75
					c0.59,0.29,1.19,0.55,1.79,0.81c0.63,0.26,1.28,0.44,1.96,0.53c1.18,0.16,2.34,0.02,3.5-0.18c0.8-0.14,1.59-0.37,2.38-0.55
					c1.19-0.27,2.35-0.22,3.47,0.31c0.37,0.18,0.76,0.34,1.13,0.5c0.46,0.21,0.94,0.36,1.45,0.43c0.77,0.12,1.37-0.16,1.82-0.79
					c0.2-0.28,0.33-0.6,0.44-0.93c0.3-0.93,0.31-1.88,0.24-2.83c-0.03-0.43-0.11-0.86-0.2-1.27c-0.12-0.02-0.16,0.07-0.22,0.12
					c-0.26,0.21-0.51,0.43-0.81,0.58c-0.48,0.25-0.97,0.43-1.5,0.22c0.07-0.5,0.34-0.9,0.61-1.3c0.3-0.45,0.62-0.89,0.92-1.33
					c0.42-0.62,0.74-1.29,0.97-2.01c0.25-0.79,0.39-1.61,0.51-2.43c0.16-1.17,0.19-2.33,0.06-3.51c-0.14-1.28-0.43-2.54-0.77-3.78
					c-0.09-0.32-0.15-0.65-0.3-0.95c-0.42-0.83-0.83-1.67-1.25-2.49c-0.43-0.84-0.97-1.61-1.63-2.3c-0.4-0.42-0.81-0.81-1.24-1.2
					c-0.22-0.2-0.44-0.41-0.58-0.68c-0.18-0.34-0.05-0.6,0.33-0.63c0.34-0.03,0.66,0.05,0.97,0.19c0.5,0.23,0.94,0.52,1.35,0.89
					c0.72,0.64,1.3,1.39,1.8,2.22c0.04,0.07,0.05,0.18,0.18,0.19c0.04-0.26,0.08-0.52,0.11-0.79c0.13-0.93,0.3-1.86,0.37-2.8
					c0.15-1.91,0.15-3.81,0-5.72c-0.03-0.31-0.05-0.62-0.13-0.92c-0.24-0.84-0.48-1.68-0.77-2.5c-0.48-1.37-1.17-2.62-2.17-3.68
					c-0.55-0.58-1.16-1.08-1.94-1.34c-0.45-0.15-0.9-0.27-1.37-0.35c-0.37-0.07-0.75-0.11-1.1-0.26c-0.24-0.1-0.48-0.21-0.65-0.44
					c0.2-0.23,0.45-0.33,0.72-0.41c0.64-0.18,1.3-0.13,1.95-0.1c0.54,0.03,1.07,0.14,1.58,0.34c0.99,0.4,1.75,1.08,2.42,1.89
					c0.11,0.13,0.21,0.26,0.33,0.42c0.05-0.18-0.01-0.31-0.03-0.44c-0.28-2.28-0.4-4.58-0.47-6.88c-0.03-1.05-0.01-2.09,0.04-3.14
					c0.01-0.12,0.03-0.25-0.05-0.37c-0.48-0.71-0.99-1.39-1.77-1.8c-0.25-0.13-0.51-0.27-0.76-0.4c-0.35-0.18-0.71-0.33-1.02-0.57
					c-0.17-0.13-0.35-0.27-0.38-0.5c0.11-0.15,0.26-0.22,0.43-0.27c0.24-0.07,0.48-0.08,0.72-0.07c1.12,0.06,2.05,0.56,2.83,1.34
					c0.07,0.07,0.11,0.17,0.23,0.19c0.02-0.06,0.03-0.11,0.04-0.15c0.12-0.84,0.29-1.67,0.47-2.51c0.31-1.43,0.73-2.82,1.02-4.26
					c0.36-1.81,0.6-3.63,0.58-5.48c-0.02-1.52-0.32-2.98-1.03-4.32c-1.23-2.33-3.18-3.58-5.83-3.64c-1.78-0.05-3.45,0.47-5.05,1.21
					c-0.61,0.28-1.15,0.67-1.72,1.01c-0.72,0.42-1.48,0.57-2.32,0.46c-1.64-0.22-3.23-0.01-4.76,0.64
					c-1.98,0.85-3.58,2.14-4.65,4.04c-0.19,0.34-0.39,0.68-0.57,1.02c-0.45,0.85-1.11,1.45-2.03,1.76c-0.49,0.16-0.96,0.38-1.43,0.6
					c-2.05,0.96-3.56,2.49-4.71,4.41c-0.12,0.2-0.24,0.41-0.3,0.64c0.13,0.04,0.23,0,0.33-0.01c0.91-0.13,1.81-0.09,2.7,0.12
					c2.81,0.67,5.01,2.22,6.59,4.65c1.08,1.66,1.79,3.46,2.23,5.38c0.1,0.44,0.18,0.89,0.15,1.33c-0.07,1.12-0.28,2.21-0.66,3.27
					c-0.11,0.31-0.28,0.57-0.49,0.82c-0.16,0.2-0.35,0.23-0.57,0.14c0.06-0.69,0.12-1.37,0.16-2.04c0.06-1.03-0.11-2.04-0.34-3.04
					c-0.4-1.77-1.05-3.44-2.06-4.97c-1.34-2.03-3.2-3.3-5.57-3.82c-1.23-0.27-2.42-0.16-3.53,0.48c-0.07,0.04-0.15,0.07-0.23,0.08
					c-0.15,0.02-0.28,0.1-0.41,0.17c-1.2,0.66-2.11,1.61-2.84,2.76c-0.37,0.59-0.7,1.22-1,1.85c-0.32,0.68-0.76,1.25-1.34,1.73
					c-1.52,1.25-2.26,2.88-2.35,4.84c-0.05,1.23,0.1,2.43,0.32,3.63c0.28,1.53,0.17,2.99-0.56,4.39c-0.35,0.66-0.59,1.37-0.83,2.08
					c-0.33,1.01-0.58,2.03-0.58,3.1c0,1.79,0.53,3.44,1.38,5c0.02,0.03,0.03,0.06,0.09,0.05c0.06-0.02,0.05-0.09,0.07-0.14
					c0.57-1.7,1.19-3.38,2.2-4.88c0.51-0.75,0.71-1.61,0.62-2.53c-0.11-1.09-0.08-2.18,0.04-3.27c0.34-3.03,1.8-5.38,4.28-7.12
					c0.7-0.49,1.48-0.72,2.33-0.74c0.54-0.01,1.07,0,1.58,0.14c0.03-0.04,0.04-0.05,0.05-0.06c0.01-0.08,0.02-0.16,0.02-0.24
					c0.08-1.08,0.32-2.11,0.79-3.09c0.09-0.18,0.17-0.35,0.32-0.49c0.23-0.22,0.5-0.28,0.8-0.18c0.28,0.1,0.45,0.31,0.5,0.6
					c0.04,0.2,0,0.39-0.06,0.58c-0.06,0.22-0.15,0.44-0.22,0.65c-0.31,0.94-0.5,1.89-0.38,2.88c0.1,0.85,0.34,1.66,0.73,2.43
					c0.21,0.41,0.43,0.82,0.67,1.21c0.14,0.23,0.17,0.52,0.41,0.7c0.05,0.04,0.06,0.12,0.02,0.19c-0.05,0.09-0.13,0.12-0.23,0.12
					c-0.11-0.01-0.22-0.07-0.34-0.06c-0.46,0.05-0.83-0.15-1.17-0.42c-0.5-0.39-0.86-0.89-1.13-1.46c-0.23-0.49-0.39-1-0.54-1.55
					c-0.34,0.04-0.64-0.09-0.95-0.13c-0.77-0.1-1.52-0.08-2.19,0.38c-1.07,0.75-1.97,1.66-2.6,2.81c-0.86,1.58-1.06,3.31-1.02,5.08
					c0.01,0.45,0.06,0.9,0.07,1.34c0.03,0.73-0.09,1.44-0.38,2.12C232.24,230.89,231.97,231.4,231.65,231.88z M262.48,254.41
					c-0.28,0.14-0.57,0.15-0.87,0.09c-1.16-0.22-2.12-0.79-2.96-1.6c-0.61-0.59-1.18-1.23-1.75-1.86c-0.46-0.5-0.41-0.57-1.12-0.17
					c-0.35,0.2-0.68,0.43-1.02,0.65c-1.14,0.72-2.4,1.09-3.7,1.36c-0.06,0.01-0.11,0.03-0.18,0.04c-0.02,0.26,0.05,0.46,0.12,0.67
					c0.2,0.53,0.51,1,0.84,1.46c0.29,0.41,0.32,0.53,0.28,0.97c-0.32,0.26-0.67,0.24-1.02,0.05c-0.4-0.22-0.71-0.55-0.96-0.92
					c-0.43-0.62-0.72-1.31-0.79-2.08c-0.39-0.05-0.77-0.07-1.14-0.16c-1.5-0.39-2.79-1.16-3.92-2.22c-0.4-0.38-0.77-0.79-1.09-1.24
					c-0.15-0.22-0.3-0.44-0.36-0.7c-0.07-0.3,0.01-0.55,0.25-0.74c0.23-0.18,0.49-0.17,0.75-0.05c0.22,0.11,0.39,0.29,0.56,0.45
					c0.41,0.38,0.81,0.78,1.23,1.16c0.72,0.65,1.55,1.11,2.45,1.44c0.84,0.31,1.69,0.28,2.55,0.12c1.43-0.27,2.75-0.8,3.96-1.62
					c0.35-0.24,0.73-0.44,1.14-0.57c0.73-0.23,1.39-0.1,1.97,0.39c0.16,0.13,0.3,0.28,0.44,0.44c0.31,0.34,0.62,0.68,0.93,1.02
					c0.88,0.99,1.89,1.81,3.04,2.46c0.21,0.12,0.4,0.28,0.53,0.48C262.85,254.02,262.79,254.25,262.48,254.41z M258,235.92
					c0.66,0.34,1.25,0.78,1.78,1.29c0.41,0.4,0.73,0.85,0.86,1.42c0.06,0.28,0.07,0.55-0.03,0.81c-0.08,0.2-0.09,0.43-0.23,0.59
					c-0.08,0.03-0.13,0-0.17-0.04c-0.53-0.49-1.02-1.02-1.53-1.54c-0.4-0.4-0.85-0.74-1.34-1.03c-0.11-0.06-0.21-0.14-0.34-0.16
					c-0.1,0.05-0.14,0.15-0.19,0.24c-0.45,0.65-1.01,1.19-1.66,1.63c-0.24,0.16-0.5,0.27-0.8,0.28c-0.19,0-0.36,0.04-0.53,0.13
					c-0.12,0.06-0.25,0.07-0.34-0.06c-0.09-0.14-0.02-0.25,0.09-0.33c0.16-0.11,0.23-0.28,0.28-0.46c0.07-0.24,0.2-0.44,0.34-0.63
					c0.37-0.48,0.74-0.97,1.06-1.49c1.15-1.82,1.41-3.75,0.67-5.8c-0.39-1.07-0.93-2.05-1.71-2.88c-0.37-0.4-0.79-0.73-1.31-0.93
					c-0.36-0.14-0.54-0.41-0.51-0.74c0.03-0.32,0.26-0.56,0.62-0.65c0.28-0.07,0.55-0.02,0.81,0.06c0.48,0.16,0.89,0.43,1.27,0.74
					c0.66,0.55,1.21,1.2,1.64,1.94c0.68,1.17,1.19,2.41,1.34,3.77c0.12,1.06,0.05,2.11-0.26,3.14c-0.05,0.15-0.09,0.31-0.14,0.47
					C257.78,235.84,257.9,235.87,258,235.92z M249.17,201.33c-0.26-0.19-0.42-0.44-0.33-0.77c0.08-0.33,0.32-0.49,0.64-0.55
					c0.34-0.06,0.66,0.02,0.98,0.13c0.96,0.34,1.81,0.85,2.57,1.51c0.22,0.19,0.42,0.39,0.63,0.59c0.08,0.08,0.15,0.17,0.29,0.24
					c0.04-0.32,0.07-0.63,0.11-0.93c0.17-1.19,0.58-2.29,1.32-3.25c0.96-1.25,2.22-1.86,3.79-1.83c0.94,0.02,1.84,0.27,2.68,0.71
					c0.1,0.05,0.2,0.1,0.34,0.18c0.18-0.5,0.34-0.97,0.52-1.42c0.34-0.88,0.84-1.66,1.51-2.32c0.3-0.29,0.63-0.54,1.01-0.7
					c0.23-0.1,0.46-0.14,0.71-0.11c0.37,0.04,0.52,0.32,0.33,0.64c-0.08,0.14-0.18,0.27-0.3,0.38c-1,0.9-1.54,2.07-1.96,3.31
					c-0.07,0.22-0.14,0.44-0.21,0.65c-0.1,0.27-0.21,0.53-0.4,0.76c-0.39,0.48-0.89,0.63-1.48,0.48c-0.37-0.09-0.71-0.27-1.05-0.42
					c-0.73-0.31-1.48-0.49-2.28-0.39c-0.67,0.09-1.22,0.39-1.67,0.88c-0.62,0.68-0.99,1.49-1.18,2.38c-0.18,0.83-0.16,1.66-0.12,2.5
					c0.03,0.61,0.2,1.15,0.5,1.69c0.48,0.86,0.89,1.78,1.03,2.76c0.23,1.58,0.15,3.14-0.54,4.62c-0.14,0.29-0.33,0.52-0.59,0.71
					c-0.28,0.2-0.48,0.12-0.55-0.21c-0.06-0.29-0.07-0.59-0.05-0.89c0.07-1.09,0.15-2.18,0.07-3.27c-0.04-0.47-0.13-0.93-0.29-1.38
					c-0.73-1.99-1.86-3.71-3.44-5.13c-0.56-0.5-1.2-0.88-1.89-1.2C249.61,201.58,249.38,201.48,249.17,201.33z M242.95,229.35
					c0.22-0.11,0.37-0.29,0.54-0.47c0.34-0.37,0.8-0.49,1.27-0.56c0.8-0.13,1.6-0.1,2.4,0.04c0.1,0.02,0.2,0.06,0.32,0.03
					c0.1-0.41,0.19-0.84,0.29-1.26c0.15-0.6,0.32-1.2,0.59-1.76c0.08-0.17,0.16-0.33,0.28-0.47c0.18-0.21,0.42-0.29,0.65-0.2
					c0.24,0.09,0.36,0.27,0.39,0.52c0.03,0.23-0.03,0.46-0.08,0.68c-0.2,0.85-0.46,1.68-0.61,2.54c-0.07,0.37-0.13,0.74-0.15,1.12
					c-0.02,0.36-0.16,0.71-0.19,1.08c-0.07,0.75-0.17,1.51-0.25,2.26c-0.05,0.47-0.12,0.93-0.21,1.39c-0.03,0.16-0.09,0.31-0.2,0.43
					c-0.21,0.25-0.46,0.25-0.66-0.01c-0.1-0.13-0.15-0.28-0.18-0.44c-0.15-0.75-0.14-1.51-0.09-2.27c0.04-0.63,0.1-1.26,0.18-1.91
					c-0.47-0.13-0.91-0.16-1.34-0.18c-0.57-0.03-1.15-0.05-1.72-0.08c-0.14-0.01-0.28-0.02-0.41-0.06
					c-0.22-0.07-0.44-0.12-0.67-0.04c-0.11,0.04-0.22,0.01-0.27-0.1C242.77,229.5,242.84,229.4,242.95,229.35z M237.91,228.91
					c0.19-0.5,0.45-0.96,0.81-1.35c0.12-0.14,0.26-0.26,0.43-0.34c0.25-0.12,0.49-0.11,0.72,0.06c0.24,0.17,0.32,0.41,0.28,0.7
					c-0.03,0.23-0.15,0.43-0.25,0.64c-0.92,1.85-1.13,3.78-0.55,5.76c0.44,1.52,1.35,2.73,2.7,3.59c1.52,0.97,3.16,1.51,4.98,1.49
					c0.46-0.01,0.92-0.04,1.38,0.02c0.95,0.13,1.46,0.63,1.61,1.57c0.05,0.29,0.04,0.57,0.05,0.86c0.03,0.99,0.02,1.98,0.19,2.96
					c0.06,0.34-0.04,0.68,0.01,1.03c0.02,0.19-0.16,0.24-0.35,0.16c-0.88-0.41-1.25-1.16-1.45-2.05c-0.15-0.69-0.14-1.39-0.18-2.09
					c-0.01-0.2,0-0.41-0.05-0.62c-0.21-0.09-0.41-0.06-0.62-0.05c-1.79,0.11-3.5-0.22-5.13-0.98c-0.06-0.03-0.13-0.06-0.19-0.08
					c-0.02-0.01-0.05-0.01-0.09-0.01c-0.4,0.59-0.75,1.22-0.99,1.91c-0.21,0.6-0.38,1.2-0.52,1.82c-0.11,0.48-0.17,0.52-0.66,0.5
					c-0.02,0-0.05,0-0.07,0c-0.41-0.02-0.46-0.05-0.56-0.46c-0.13-0.51-0.16-1.02-0.08-1.54c0.12-0.84,0.44-1.61,0.86-2.35
					c0.15-0.27,0.31-0.53,0.47-0.79c-0.04-0.12-0.14-0.16-0.22-0.22c-2.27-1.88-3.3-4.29-3.16-7.23
					C237.33,230.8,237.56,229.84,237.91,228.91z M232.81,240.32c0.1-0.41,0.24-0.81,0.42-1.2c0.07-0.16,0.16-0.3,0.3-0.42
					c0.23-0.2,0.49-0.25,0.77-0.14c0.27,0.11,0.41,0.33,0.44,0.61c0.03,0.23-0.04,0.46-0.1,0.68c-0.3,1.09-0.43,2.21-0.41,3.34
					c0.01,0.89,0.12,1.76,0.37,2.62c0.31,1.05,0.89,1.91,1.79,2.54c0.56,0.39,1.12,0.76,1.7,1.12c0.3,0.19,0.64,0.31,0.98,0.42
					c0.16,0.05,0.28,0.14,0.36,0.29c0.22,0.38,0.45,0.75,0.7,1.1c0.76,1.07,1.79,1.66,3.08,1.81c0.19,0.02,0.39,0.04,0.57,0.12
					c0.33,0.15,0.39,0.45,0.14,0.72c-0.13,0.14-0.29,0.22-0.47,0.28c-0.83,0.3-1.64,0.28-2.45-0.08c-0.8-0.35-1.44-0.9-1.97-1.58
					c-0.45-0.57-0.83-1.19-1.12-1.85c-0.02-0.05-0.05-0.1-0.08-0.16c-0.29-0.01-0.57-0.05-0.85-0.12c-1.65-0.39-2.77-1.43-3.56-2.87
					c-0.45-0.82-0.67-1.71-0.81-2.62C232.39,243.39,232.45,241.84,232.81,240.32z"/>
			</g>
			<g>
				<path class="st15" d="M263.45,262.19c1.42,0.8,2.57,1.92,3.66,3.12c1.5,1.67,2.84,3.46,4.12,5.31c0.58,0.84,1.17,1.68,1.81,2.48
					c0.29,0.36,0.59,0.7,0.93,1.02c0.12,0.12,0.25,0.23,0.39,0.34c0.39,0.3,0.56,0.3,0.94-0.01c0.45-0.36,0.83-0.79,1.17-1.26
					c0.69-0.95,1.38-1.9,2.07-2.84c1.17-1.58,2.34-3.16,3.66-4.62c1.24-1.37,2.64-2.52,4.3-3.35c0.07-0.03,0.15-0.06,0.2-0.13
					c-0.78-0.3-1.9-0.39-2.51-0.15c-0.46,0.18-0.92,0.36-1.37,0.57c-0.7,0.32-1.42,0.57-2.2,0.67c-1.33,0.17-2.42-0.28-3.27-1.31
					c-0.63-0.77-0.94-1.69-1.07-2.65c-0.19-1.37-0.14-2.73,0.24-4.07c0.12-0.42,0.29-0.82,0.55-1.19c-0.02-0.04-0.03-0.09-0.05-0.12
					c-0.61-1.22-0.91-2.52-1.1-3.86c-0.15-1.09-0.24-2.19-0.17-3.3c0.09-1.5,0.38-2.96,0.75-4.41c0.15-0.58,0.32-1.15,0.44-1.74
					c0.18-0.86,0.16-1.73,0.05-2.61c-0.14-1.21-0.38-2.41-0.49-3.62c-0.13-1.51-0.2-3.03-0.13-4.55c0.06-1.24,0.14-2.48,0.29-3.71
					c0.12-1.05,0.33-2.09,0.52-3.13c0.42-2.3,0.7-4.61,0.8-6.95c0.04-0.96,0.09-1.93,0.11-2.9c0.07-2.76-0.24-5.48-0.91-8.16
					c-0.34-1.37-0.72-2.73-0.97-4.12c-0.32-1.76-0.53-3.52-0.5-5.31c0.01-0.61,0.07-1.21,0.17-1.81c-0.73-0.2-1.7-0.39-2.38-0.2
					c0.12,0.68,0.2,1.37,0.2,2.08c0.01,2.01-0.25,3.99-0.65,5.95c-0.3,1.44-0.71,2.85-1.03,4.29c-0.56,2.52-0.77,5.06-0.7,7.64
					c0.05,1.61,0.13,3.22,0.25,4.82c0.1,1.28,0.3,2.56,0.51,3.83c0.23,1.39,0.53,2.78,0.69,4.18c0.11,1.03,0.18,2.06,0.25,3.09
					c0.1,1.55,0.03,3.1-0.08,4.65c-0.07,0.95-0.23,1.89-0.37,2.84c-0.1,0.67-0.19,1.34-0.22,2.02c-0.04,0.81,0.08,1.6,0.3,2.39
					c0.33,1.18,0.63,2.38,0.83,3.59c0.26,1.62,0.3,3.25,0.06,4.88c-0.15,1.07-0.34,2.13-0.71,3.15c-0.13,0.37-0.3,0.72-0.47,1.08
					c0.6,0.91,0.79,1.95,0.86,3.01c0.08,1.21,0.03,2.41-0.4,3.57c-0.35,0.96-0.91,1.75-1.81,2.26c-0.81,0.46-1.68,0.51-2.57,0.34
					c-0.64-0.12-1.24-0.35-1.82-0.62c-0.43-0.2-0.86-0.37-1.3-0.54c-0.65-0.25-1.3-0.19-1.95-0.05
					C263.36,262.15,263.41,262.16,263.45,262.19z"/>
			</g>
		</g>
		<g>
			<g>
				<rect x="273.15" y="287.06" class="st16" width="1.84" height="90.63"/>
			</g>
			<g>
				
					<rect x="266.97" y="273.13" transform="matrix(0.7071 -0.7071 0.7071 0.7071 -120.8427 271.9888)" class="st16" width="1.85" height="17.47"/>
			</g>
			<g>
				<path class="st16" d="M258.83,293c-2.57,0-4.66-2.09-4.66-4.66c0-2.57,2.09-4.66,4.66-4.66c2.57,0,4.66,2.09,4.66,4.66
					C263.49,290.91,261.4,293,258.83,293z M258.83,285.52c-1.55,0-2.81,1.27-2.81,2.82c0,1.55,1.26,2.82,2.81,2.82
					c1.55,0,2.82-1.26,2.82-2.82C261.64,286.79,260.38,285.52,258.83,285.52z"/>
			</g>
			<g>
				<path class="st16" d="M259.25,277.55c-2.57,0-4.66-2.09-4.66-4.66c0-2.57,2.09-4.66,4.66-4.66c2.57,0,4.66,2.09,4.66,4.66
					C263.91,275.46,261.82,277.55,259.25,277.55z M259.25,270.08c-1.55,0-2.82,1.26-2.82,2.81c0,1.55,1.26,2.82,2.82,2.82
					c1.55,0,2.81-1.26,2.81-2.82C262.06,271.34,260.8,270.08,259.25,270.08z"/>
			</g>
			<g>
				
					<rect x="271.52" y="280.94" transform="matrix(0.7072 -0.7071 0.7071 0.7072 -117.2254 280.6904)" class="st16" width="17.47" height="1.85"/>
			</g>
			<g>
				<path class="st16" d="M288.9,277.55c-2.57,0-4.66-2.09-4.66-4.66c0-2.57,2.09-4.66,4.66-4.66c2.57,0,4.66,2.09,4.66,4.66
					C293.56,275.46,291.47,277.55,288.9,277.55z M288.9,270.08c-1.55,0-2.82,1.26-2.82,2.81c0,1.55,1.26,2.82,2.82,2.82
					c1.55,0,2.82-1.26,2.82-2.82C291.72,271.34,290.45,270.08,288.9,270.08z"/>
			</g>
			<g>
				<polygon class="st16" points="269.95,342.76 268.1,342.76 268.1,298.89 260.84,291.61 262.14,290.31 269.95,298.13 				"/>
			</g>
			<g>
				<path class="st16" d="M258.89,314.3c-2.57,0-4.66-2.09-4.66-4.66c0-2.57,2.09-4.66,4.66-4.66c2.57,0,4.66,2.09,4.66,4.66
					C263.55,312.21,261.46,314.3,258.89,314.3z M258.89,306.83c-1.55,0-2.81,1.27-2.81,2.82c0,1.55,1.26,2.82,2.81,2.82
					c1.55,0,2.82-1.26,2.82-2.82C261.71,308.09,260.45,306.83,258.89,306.83z"/>
			</g>
			<g>
				<polygon class="st16" points="270.01,377.69 268.17,377.69 268.17,320.19 260.9,312.91 262.21,311.61 270.01,319.43 				"/>
			</g>
			<g>
				<path class="st16" d="M240.85,294.03c-2.57,0-4.66-2.09-4.66-4.66c0-2.57,2.09-4.66,4.66-4.66c2.57,0,4.66,2.09,4.66,4.66
					C245.51,291.94,243.42,294.03,240.85,294.03z M240.85,286.55c-1.55,0-2.81,1.27-2.81,2.82c0,1.55,1.26,2.82,2.81,2.82
					c1.55,0,2.82-1.26,2.82-2.82C243.66,287.82,242.4,286.55,240.85,286.55z"/>
			</g>
			<g>
				<polygon class="st16" points="268.1,304.98 242.86,292.64 244.16,291.33 268.2,303.54 				"/>
			</g>
			<g>
				<path class="st16" d="M303.53,289.37c0-2.57,2.09-4.66,4.66-4.66c2.57,0,4.66,2.09,4.66,4.66c0,2.57-2.09,4.66-4.66,4.66
					C305.62,294.03,303.53,291.94,303.53,289.37z M305.38,289.37c0,1.55,1.26,2.82,2.82,2.82c1.55,0,2.81-1.26,2.81-2.82
					c0-1.55-1.26-2.82-2.81-2.82C306.64,286.55,305.38,287.82,305.38,289.37z"/>
			</g>
			<g>
				<polygon class="st16" points="280.94,304.98 306.19,292.64 304.88,291.33 280.84,303.54 				"/>
			</g>
			<g>
				<path class="st16" d="M285.64,322.86c0-2.57,2.09-4.66,4.66-4.66c2.57,0,4.66,2.09,4.66,4.66c0,2.57-2.09,4.66-4.66,4.66
					C287.73,327.52,285.64,325.43,285.64,322.86z M287.49,322.86c0,1.55,1.26,2.82,2.82,2.82c1.55,0,2.81-1.26,2.81-2.82
					c0-1.55-1.26-2.82-2.81-2.82C288.75,320.04,287.49,321.31,287.49,322.86z"/>
			</g>
			<g>
				<polygon class="st16" points="279.18,343.07 281.03,343.07 281.03,333.41 288.3,326.13 286.99,324.83 279.18,332.64 				"/>
			</g>
			<g>
				<path class="st16" d="M258.83,346.64c-2.57,0-4.66-2.09-4.66-4.66c0-2.57,2.09-4.66,4.66-4.66c2.57,0,4.66,2.09,4.66,4.66
					C263.49,344.55,261.4,346.64,258.83,346.64z M258.83,339.16c-1.55,0-2.81,1.27-2.81,2.82c0,1.55,1.26,2.82,2.81,2.82
					c1.55,0,2.82-1.26,2.82-2.82C261.64,340.43,260.38,339.16,258.83,339.16z"/>
			</g>
			<g>
				<polygon class="st16" points="269.95,362.18 268.1,362.18 268.1,352.53 260.84,345.25 262.14,343.94 269.95,351.76 				"/>
			</g>
			<g>
				<path class="st16" d="M285.64,288.41c0-2.57,2.09-4.66,4.66-4.66c2.57,0,4.66,2.09,4.66,4.66c0,2.57-2.09,4.66-4.66,4.66
					C287.73,293.07,285.64,290.98,285.64,288.41z M287.49,288.41c0,1.55,1.26,2.82,2.82,2.82c1.55,0,2.81-1.26,2.81-2.82
					c0-1.55-1.26-2.82-2.81-2.82C288.75,285.59,287.49,286.86,287.49,288.41z"/>
			</g>
			<g>
				<polygon class="st16" points="279.18,377.68 281.03,377.68 281.03,298.96 288.3,291.68 286.99,290.38 279.18,298.2 				"/>
			</g>
		</g>
		<g>
			<path class="st17" d="M46.2,318.01c1.72,0,3.57,0.07,5.54,0.21c1.97,0.14,4.13,0.6,6.46,1.37c3.39,1.17,6.13,2.9,8.21,5.21
				c2.08,2.31,3.71,4.81,4.88,7.5c1.17,2.7,1.94,5.43,2.33,8.21c0.39,2.78,0.58,5.22,0.58,7.34c0,1.28-0.07,2.76-0.21,4.46
				c-0.14,1.7-0.4,3.46-0.79,5.29c-0.39,1.83-0.95,3.68-1.67,5.54c-0.72,1.86-1.68,3.63-2.88,5.29c-1.2,1.67-2.65,3.18-4.38,4.54
				c-1.72,1.36-3.75,2.43-6.08,3.21c-2,0.67-3.96,1.08-5.88,1.25c-1.92,0.17-3.96,0.25-6.13,0.25H30.78c-1.06,0-1.9-0.04-2.54-0.12
				c-0.64-0.08-1.13-0.29-1.46-0.63c-0.33-0.33-0.54-0.82-0.63-1.46c-0.08-0.64-0.13-1.49-0.13-2.54v-50.18
				c0-1.06,0.05-1.9,0.17-2.54c0.11-0.64,0.33-1.12,0.67-1.46c0.33-0.33,0.8-0.54,1.42-0.62c0.61-0.08,1.44-0.13,2.5-0.13H46.2z
				 M31.69,372.77h14.09c0.55,0,1.29-0.01,2.21-0.04c0.92-0.03,1.9-0.1,2.96-0.21c1.05-0.11,2.11-0.28,3.17-0.5
				c1.05-0.22,2.06-0.55,3-1c2.33-1.05,4.22-2.46,5.67-4.21c1.44-1.75,2.57-3.71,3.38-5.88c0.8-2.17,1.36-4.44,1.67-6.83
				c0.3-2.39,0.46-4.75,0.46-7.08c0-1.17-0.1-2.76-0.29-4.79c-0.2-2.03-0.67-4.13-1.42-6.29c-0.75-2.17-1.86-4.27-3.33-6.29
				c-1.47-2.03-3.49-3.63-6.04-4.79c-1.83-0.83-3.77-1.36-5.79-1.58c-2.03-0.22-3.9-0.33-5.63-0.33H31.69V372.77z"/>
			<path class="st17" d="M86,324.3c-0.64,0.64-1.4,0.96-2.29,0.96c-0.95,0-1.72-0.32-2.33-0.96c-0.61-0.64-0.92-1.4-0.92-2.29
				c0-0.95,0.3-1.72,0.92-2.33c0.61-0.61,1.39-0.92,2.33-0.92c0.89,0,1.65,0.31,2.29,0.92c0.64,0.61,0.96,1.39,0.96,2.33
				C86.95,322.9,86.63,323.66,86,324.3z M86.2,374.52c0,0.95-0.11,1.87-0.33,2.79c-0.22,0.92-0.95,1.37-2.17,1.37
				c-0.67,0-1.17-0.13-1.5-0.38c-0.33-0.25-0.58-0.58-0.75-1c-0.17-0.42-0.26-0.86-0.29-1.33c-0.03-0.47-0.04-0.96-0.04-1.46v-36.76
				c0-0.5,0.01-1,0.04-1.5c0.03-0.5,0.13-0.96,0.29-1.37c0.17-0.42,0.42-0.75,0.75-1c0.33-0.25,0.83-0.37,1.5-0.37
				c0.61,0,1.08,0.14,1.42,0.42c0.33,0.28,0.58,0.62,0.75,1.04c0.17,0.42,0.26,0.87,0.29,1.37c0.03,0.5,0.04,0.97,0.04,1.42V374.52z
				"/>
			<path class="st17" d="M128.04,337.18c0-0.33,0.01-0.72,0.04-1.17c0.03-0.44,0.11-0.85,0.25-1.21c0.14-0.36,0.38-0.67,0.71-0.92
				c0.33-0.25,0.83-0.37,1.5-0.37c1.22,0,1.96,0.4,2.21,1.21c0.25,0.81,0.38,2.01,0.38,3.63v34.59c0,1.72-0.04,3.4-0.13,5.04
				c-0.08,1.64-0.32,3.22-0.71,4.75c-0.39,1.53-0.94,2.97-1.67,4.33c-0.72,1.36-1.75,2.6-3.08,3.71c-1.56,1.28-3.53,2.38-5.92,3.29
				c-2.39,0.92-5.47,1.37-9.25,1.37c-3.5,0-6.35-0.43-8.54-1.29c-2.2-0.86-4.04-2.1-5.54-3.71c-1-1.06-1.82-2.18-2.46-3.38
				c-0.64-1.2-0.96-2.15-0.96-2.88c0-0.67,0.21-1.25,0.62-1.75c0.42-0.5,1.01-0.75,1.79-0.75c0.67,0,1.14,0.17,1.42,0.5
				c0.28,0.33,0.78,1.17,1.5,2.5c1.17,2.22,2.69,3.88,4.58,4.96c1.89,1.08,4.42,1.62,7.58,1.62c2.39,0,4.42-0.24,6.08-0.71
				c1.67-0.47,3.06-1.07,4.17-1.79c1.11-0.72,1.99-1.5,2.63-2.33c0.64-0.83,1.1-1.64,1.38-2.42c0.33-0.78,0.58-1.51,0.75-2.21
				c0.17-0.69,0.29-1.5,0.38-2.42c0.08-0.92,0.15-2.03,0.21-3.33c0.05-1.31,0.08-2.99,0.08-5.04c-0.44,0.61-1.01,1.33-1.71,2.17
				c-0.69,0.83-1.74,1.7-3.13,2.58c-1.78,1.17-3.6,1.94-5.46,2.33c-1.86,0.39-3.57,0.58-5.13,0.58c-3.06,0-5.67-0.44-7.83-1.33
				c-2.17-0.89-3.97-2.04-5.42-3.46c-1.45-1.42-2.61-2.99-3.5-4.71c-0.89-1.72-1.56-3.42-2-5.08c-0.45-1.67-0.74-3.21-0.88-4.63
				c-0.14-1.42-0.21-2.51-0.21-3.29c0-2.33,0.32-4.82,0.96-7.46c0.64-2.64,1.72-5.08,3.25-7.34c1.53-2.25,3.53-4.13,6-5.63
				c2.47-1.5,5.54-2.25,9.21-2.25c2.33,0,4.35,0.26,6.04,0.79c1.69,0.53,3.15,1.2,4.38,2c1.22,0.81,2.26,1.68,3.13,2.63
				c0.86,0.95,1.63,1.81,2.29,2.58V337.18z M99.37,364.64c0.83,2.36,1.94,4.28,3.33,5.75c1.39,1.47,2.99,2.53,4.79,3.17
				c1.8,0.64,3.68,0.96,5.63,0.96c1.67,0,3.39-0.29,5.17-0.87c1.78-0.58,3.39-1.58,4.83-3c1.44-1.42,2.64-3.26,3.58-5.54
				c0.94-2.28,1.42-5.14,1.42-8.59c0-3.5-0.46-6.44-1.38-8.84c-0.92-2.39-2.1-4.33-3.54-5.83c-1.45-1.5-3.07-2.57-4.88-3.21
				c-1.81-0.64-3.6-0.96-5.38-0.96c-1.67,0-3.39,0.31-5.17,0.92c-1.78,0.61-3.38,1.62-4.79,3.04c-1.42,1.42-2.58,3.29-3.5,5.63
				c-0.92,2.33-1.37,5.22-1.37,8.67C98.12,359.38,98.54,362.28,99.37,364.64z"/>
			<path class="st17" d="M147.17,324.3c-0.64,0.64-1.4,0.96-2.29,0.96c-0.95,0-1.72-0.32-2.33-0.96c-0.61-0.64-0.92-1.4-0.92-2.29
				c0-0.95,0.3-1.72,0.92-2.33c0.61-0.61,1.39-0.92,2.33-0.92c0.89,0,1.65,0.31,2.29,0.92c0.64,0.61,0.96,1.39,0.96,2.33
				C148.13,322.9,147.81,323.66,147.17,324.3z M147.38,374.52c0,0.95-0.11,1.87-0.33,2.79c-0.22,0.92-0.95,1.37-2.17,1.37
				c-0.67,0-1.17-0.13-1.5-0.38c-0.33-0.25-0.58-0.58-0.75-1c-0.17-0.42-0.26-0.86-0.29-1.33c-0.03-0.47-0.04-0.96-0.04-1.46v-36.76
				c0-0.5,0.01-1,0.04-1.5c0.03-0.5,0.13-0.96,0.29-1.37c0.17-0.42,0.42-0.75,0.75-1c0.33-0.25,0.83-0.37,1.5-0.37
				c0.61,0,1.08,0.14,1.42,0.42c0.33,0.28,0.58,0.62,0.75,1.04c0.17,0.42,0.26,0.87,0.29,1.37c0.03,0.5,0.04,0.97,0.04,1.42V374.52z
				"/>
			<path class="st17" d="M162.72,334.51h4.67c0.28,0,0.61,0.02,1,0.04c0.39,0.03,0.75,0.1,1.08,0.21c0.33,0.11,0.61,0.29,0.83,0.54
				c0.22,0.25,0.33,0.6,0.33,1.04c0,0.94-0.4,1.5-1.21,1.67c-0.81,0.17-1.49,0.25-2.04,0.25h-4.67v28.42c0,2.61,0.28,4.52,0.83,5.71
				c0.56,1.2,1.89,1.79,4,1.79c0.17,0,0.42-0.01,0.75-0.04c0.33-0.03,0.68-0.07,1.04-0.13c0.36-0.05,0.71-0.1,1.04-0.12
				c0.33-0.03,0.56-0.04,0.67-0.04c0.61,0,1.08,0.19,1.42,0.58c0.33,0.39,0.5,0.86,0.5,1.42c0,0.95-0.54,1.6-1.62,1.96
				c-1.08,0.36-2.51,0.54-4.29,0.54c-2.33,0-4.14-0.35-5.42-1.04c-1.28-0.69-2.21-1.57-2.79-2.63c-0.58-1.05-0.93-2.24-1.04-3.54
				c-0.11-1.31-0.17-2.6-0.17-3.88v-29.01h-2.58c-0.28,0-0.61-0.01-1-0.04c-0.39-0.03-0.75-0.1-1.08-0.21
				c-0.33-0.11-0.61-0.29-0.83-0.54c-0.22-0.25-0.33-0.6-0.33-1.04c0-0.95,0.4-1.5,1.21-1.67c0.8-0.17,1.49-0.25,2.04-0.25h2.58
				v-7.67c0-1.61,0.1-2.92,0.29-3.92c0.19-1,0.93-1.5,2.21-1.5c1.28,0,2.03,0.47,2.25,1.42c0.22,0.94,0.33,2.2,0.33,3.75V334.51z"/>
			<path class="st17" d="M203.56,345.27c-0.11-1.24-0.44-2.39-1-3.44c-0.44-0.88-1.04-1.59-1.79-2.12
				c-0.75-0.53-1.56-0.94-2.42-1.24c-0.86-0.31-1.78-0.51-2.75-0.62c-0.97-0.11-1.9-0.17-2.79-0.17c-0.67,0-1.61,0.06-2.83,0.16
				c-1.22,0.11-2.49,0.37-3.79,0.78c-1.31,0.41-2.54,1.03-3.71,1.84c-1.17,0.82-2.03,1.91-2.58,3.28c-0.61,1.53-1.08,2.54-1.42,3.03
				c-0.33,0.49-0.92,0.74-1.75,0.74c-0.56,0-1.1-0.21-1.63-0.62c-0.53-0.42-0.79-1.04-0.79-1.88c0-0.5,0.22-1.37,0.67-2.63
				c0.44-1.25,1.3-2.54,2.58-3.88c1.28-1.33,3.1-2.5,5.46-3.5c2.36-1,5.46-1.5,9.29-1.5c4.11,0,7.29,0.51,9.54,1.54
				c2.25,1.03,3.89,2.38,4.92,4.04c1.03,1.67,1.62,3.58,1.79,5.75c0.17,2.17,0.25,4.39,0.25,6.67c0,0.56-0.02,1.49-0.04,2.79
				c-0.03,1.31-0.04,2.71-0.04,4.21c0,1.45-0.02,2.81-0.04,4.08c-0.03,1.28-0.04,2.17-0.04,2.67c0,0.94,0.04,2.06,0.13,3.33
				c0.08,1.28,0.26,2.39,0.54,3.34c0.28,1,0.54,1.92,0.79,2.75c0.25,0.83,0.38,1.45,0.38,1.83c0,0.78-0.29,1.35-0.88,1.71
				c-0.58,0.36-1.1,0.54-1.54,0.54c-0.67,0-1.22-0.21-1.67-0.63c-0.45-0.42-0.79-0.97-1.04-1.67c-0.25-0.69-0.46-1.5-0.63-2.42
				c-0.17-0.92-0.31-1.87-0.42-2.88c-2.33,2.5-5.04,4.38-8.13,5.63c-3.09,1.25-6.32,1.87-9.71,1.87c-2.17,0-4.09-0.32-5.75-0.96
				c-1.67-0.63-3.08-1.51-4.25-2.62c-1.17-1.11-2.06-2.39-2.67-3.86c-0.61-1.47-0.92-3.03-0.92-4.69c0-2.6,0.56-4.69,1.67-6.27
				c1.11-1.58,2.49-2.82,4.13-3.74c1.64-0.91,3.4-1.56,5.29-1.95c1.89-0.39,3.61-0.72,5.17-1c4.17-0.66,7.36-1.19,9.58-1.58
				c2.22-0.39,3.89-0.86,5-1.41C203.72,348.3,203.67,346.52,203.56,345.27z M198.14,356.14c-2.39,0.42-4.92,0.9-7.58,1.46
				c-1.17,0.22-2.46,0.47-3.88,0.75s-2.75,0.69-4,1.25c-1.25,0.56-2.31,1.35-3.17,2.38c-0.86,1.03-1.29,2.4-1.29,4.13
				c0,0.67,0.12,1.45,0.37,2.33c0.25,0.89,0.72,1.75,1.42,2.58c0.69,0.83,1.64,1.54,2.83,2.13c1.2,0.58,2.74,0.87,4.63,0.87
				c1.28,0,2.67-0.17,4.17-0.5c1.5-0.33,2.95-0.82,4.33-1.46c1.39-0.64,2.64-1.46,3.75-2.46c1.11-1,1.97-2.17,2.58-3.5
				c0.61-1.39,1.01-2.93,1.21-4.63s0.26-4.01,0.21-6.96C202.39,355.18,200.53,355.72,198.14,356.14z"/>
			<path class="st17" d="M222.56,374.52c0,0.95-0.11,1.87-0.33,2.79c-0.22,0.92-0.95,1.37-2.17,1.37c-0.67,0-1.17-0.13-1.5-0.38
				c-0.33-0.25-0.58-0.58-0.75-1c-0.17-0.42-0.27-0.86-0.29-1.33c-0.03-0.47-0.04-0.96-0.04-1.46v-53.26c0-0.5,0.01-1,0.04-1.5
				c0.03-0.5,0.12-0.96,0.29-1.37c0.17-0.42,0.42-0.75,0.75-1c0.33-0.25,0.8-0.37,1.42-0.37c0.67,0,1.17,0.12,1.5,0.37
				c0.33,0.25,0.58,0.58,0.75,1c0.17,0.42,0.26,0.87,0.29,1.37c0.03,0.5,0.04,1,0.04,1.5V374.52z"/>
		</g>
		<g>
			<path class="st15" d="M339.51,368.69l-9.56-38.01v41.19c0,2.28-0.51,3.99-1.53,5.13c-1.02,1.14-2.37,1.71-4.05,1.71
				c-1.63,0-2.96-0.56-3.99-1.69c-1.03-1.13-1.55-2.84-1.55-5.15v-47.21c0-2.61,0.68-4.36,2.04-5.27c1.36-0.91,3.19-1.36,5.49-1.36
				h3.74c2.25,0,3.89,0.2,4.9,0.61c1.02,0.41,1.77,1.14,2.26,2.2c0.49,1.06,1.04,2.78,1.67,5.17l8.67,32.68l8.67-32.68
				c0.62-2.39,1.18-4.11,1.67-5.17c0.49-1.06,1.24-1.79,2.26-2.2c1.02-0.41,2.65-0.61,4.9-0.61h3.74c2.31,0,4.14,0.45,5.49,1.36
				c1.36,0.91,2.04,2.67,2.04,5.27v47.21c0,2.28-0.51,3.99-1.53,5.13c-1.02,1.14-2.38,1.71-4.09,1.71c-1.6,0-2.92-0.57-3.95-1.71
				c-1.03-1.14-1.55-2.85-1.55-5.13v-41.19l-9.56,38.01c-0.62,2.47-1.13,4.28-1.53,5.43c-0.39,1.15-1.12,2.21-2.18,3.16
				c-1.06,0.95-2.52,1.42-4.4,1.42c-1.41,0-2.6-0.31-3.58-0.91c-0.98-0.61-1.74-1.39-2.28-2.34c-0.54-0.95-0.97-2-1.28-3.15
				C340.16,371.14,339.84,369.94,339.51,368.69z"/>
			<path class="st15" d="M414.87,358.84h-21.73c0.03,2.52,0.54,4.75,1.53,6.67c0.99,1.93,2.31,3.38,3.95,4.36
				c1.64,0.98,3.45,1.47,5.43,1.47c1.33,0,2.54-0.16,3.64-0.47c1.1-0.31,2.16-0.8,3.19-1.47c1.03-0.66,1.98-1.38,2.85-2.14
				c0.87-0.76,1.99-1.79,3.38-3.09c0.57-0.49,1.38-0.73,2.44-0.73c1.14,0,2.06,0.31,2.77,0.93c0.7,0.62,1.06,1.51,1.06,2.65
				c0,1.01-0.39,2.18-1.18,3.52c-0.79,1.34-1.97,2.63-3.56,3.87c-1.59,1.24-3.58,2.26-5.98,3.07s-5.16,1.22-8.28,1.22
				c-7.14,0-12.68-2.03-16.65-6.1c-3.96-4.07-5.94-9.59-5.94-16.56c0-3.28,0.49-6.33,1.47-9.14c0.98-2.81,2.4-5.22,4.27-7.22
				s4.18-3.55,6.92-4.62c2.74-1.07,5.78-1.61,9.12-1.61c4.34,0,8.06,0.92,11.17,2.75c3.11,1.83,5.43,4.2,6.98,7.1
				s2.32,5.86,2.32,8.87c0,2.79-0.8,4.61-2.4,5.43C420.02,358.43,417.77,358.84,414.87,358.84z M393.14,352.53h20.15
				c-0.27-3.8-1.3-6.64-3.07-8.53c-1.78-1.88-4.12-2.83-7.02-2.83c-2.77,0-5.04,0.96-6.82,2.87
				C394.6,345.96,393.52,348.79,393.14,352.53z"/>
			<path class="st15" d="M439.31,339.67v1.34c1.95-2.58,4.09-4.47,6.41-5.68c2.32-1.21,4.99-1.81,8-1.81c2.93,0,5.55,0.64,7.86,1.91
				c2.31,1.28,4.03,3.08,5.17,5.41c0.73,1.36,1.21,2.82,1.42,4.4c0.22,1.57,0.33,3.58,0.33,6.02v20.67c0,2.23-0.51,3.91-1.53,5.05
				c-1.02,1.14-2.34,1.71-3.97,1.71c-1.66,0-3-0.58-4.03-1.75c-1.03-1.17-1.55-2.83-1.55-5.01v-18.52c0-3.66-0.51-6.46-1.53-8.4
				c-1.02-1.94-3.05-2.91-6.08-2.91c-1.98,0-3.79,0.59-5.41,1.77c-1.63,1.18-2.82,2.8-3.58,4.86c-0.54,1.66-0.81,4.75-0.81,9.28
				v13.92c0,2.25-0.52,3.94-1.57,5.07c-1.04,1.13-2.39,1.69-4.05,1.69c-1.6,0-2.92-0.58-3.95-1.75c-1.03-1.17-1.55-2.83-1.55-5.01
				v-32.11c0-2.12,0.46-3.7,1.38-4.74c0.92-1.04,2.19-1.57,3.79-1.57c0.98,0,1.86,0.23,2.65,0.69c0.79,0.46,1.42,1.15,1.89,2.08
				C439.08,337.22,439.31,338.34,439.31,339.67z"/>
			<path class="st15" d="M476.01,334.5h1.22v-6.68c0-1.79,0.05-3.19,0.14-4.21c0.09-1.02,0.36-1.89,0.79-2.63
				c0.43-0.76,1.06-1.38,1.87-1.85c0.82-0.48,1.72-0.71,2.73-0.71c1.41,0,2.69,0.53,3.83,1.59c0.76,0.7,1.24,1.57,1.45,2.58
				c0.2,1.02,0.3,2.46,0.3,4.33v7.57h4.07c1.57,0,2.77,0.37,3.6,1.12c0.83,0.75,1.24,1.7,1.24,2.87c0,1.49-0.59,2.54-1.77,3.13
				c-1.18,0.6-2.87,0.89-5.07,0.89h-2.08v20.43c0,1.74,0.06,3.07,0.18,4.01c0.12,0.94,0.45,1.7,0.98,2.28
				c0.53,0.58,1.39,0.87,2.58,0.87c0.65,0,1.53-0.11,2.65-0.35c1.11-0.23,1.98-0.35,2.6-0.35c0.89,0,1.7,0.36,2.42,1.08
				c0.72,0.72,1.08,1.61,1.08,2.67c0,1.79-0.98,3.16-2.93,4.11c-1.95,0.95-4.76,1.42-8.42,1.42c-3.47,0-6.11-0.58-7.9-1.75
				c-1.79-1.17-2.96-2.78-3.52-4.84c-0.56-2.06-0.83-4.82-0.83-8.26v-21.33h-1.47c-1.6,0-2.82-0.38-3.66-1.14
				c-0.84-0.76-1.26-1.72-1.26-2.89s0.44-2.12,1.32-2.87C473.04,334.88,474.32,334.5,476.01,334.5z"/>
			<path class="st15" d="M531.75,358.84h-21.73c0.03,2.52,0.54,4.75,1.53,6.67c0.99,1.93,2.31,3.38,3.95,4.36
				c1.64,0.98,3.45,1.47,5.43,1.47c1.33,0,2.54-0.16,3.64-0.47c1.1-0.31,2.17-0.8,3.2-1.47c1.03-0.66,1.98-1.38,2.85-2.14
				c0.87-0.76,2-1.79,3.38-3.09c0.57-0.49,1.38-0.73,2.44-0.73c1.14,0,2.06,0.31,2.77,0.93c0.71,0.62,1.06,1.51,1.06,2.65
				c0,1.01-0.39,2.18-1.18,3.52c-0.79,1.34-1.97,2.63-3.56,3.87c-1.59,1.24-3.58,2.26-5.98,3.07c-2.4,0.81-5.16,1.22-8.28,1.22
				c-7.14,0-12.68-2.03-16.64-6.1c-3.96-4.07-5.94-9.59-5.94-16.56c0-3.28,0.49-6.33,1.46-9.14c0.98-2.81,2.4-5.22,4.27-7.22
				c1.87-2.01,4.18-3.55,6.92-4.62c2.74-1.07,5.78-1.61,9.12-1.61c4.34,0,8.06,0.92,11.17,2.75c3.11,1.83,5.43,4.2,6.98,7.1
				c1.55,2.9,2.32,5.86,2.32,8.87c0,2.79-0.8,4.61-2.4,5.43C536.9,358.43,534.65,358.84,531.75,358.84z M510.01,352.53h20.15
				c-0.27-3.8-1.3-6.64-3.07-8.53c-1.78-1.88-4.12-2.83-7.02-2.83c-2.77,0-5.04,0.96-6.82,2.87
				C511.47,345.96,510.39,348.79,510.01,352.53z"/>
		</g>
	</g>
</g>
</svg>
