<?xml version="1.0" encoding="utf-8"?>
<!-- Generator: Adobe Illustrator 24.0.1, SVG Export Plug-In . SVG Version: 6.00 Build 0)  -->
<svg version="1.1" xmlns="http://www.w3.org/2000/svg" xmlns:xlink="http://www.w3.org/1999/xlink" x="0px" y="0px"
	 viewBox="0 0 566.93 566.93" style="enable-background:new 0 0 566.93 566.93;" xml:space="preserve">
<style type="text/css">
	.st0{display:none;}
	.st1{display:inline;fill:#FFFFFF;}
	.st2{clip-path:url(#SVGID_2_);fill:#35A8E0;}
	.st3{clip-path:url(#SVGID_2_);fill:#FFFFFF;}
	.st4{clip-path:url(#SVGID_2_);}
	.st5{fill:#F1B2DF;}
	.st6{fill:#4528AF;}
	.st7{fill:url(#SVGID_3_);}
	.st8{fill:#009FE3;}
	.st9{fill:#FFFFFF;}
	.st10{fill:url(#SVGID_4_);}
	.st11{fill:url(#SVGID_5_);}
	.st12{clip-path:url(#SVGID_7_);fill:#00659D;}
	.st13{clip-path:url(#SVGID_7_);fill:#FFFFFF;}
	.st14{clip-path:url(#SVGID_7_);}
	.st15{fill:#FC8890;}
	.st16{fill:#00ABBC;}
	.st17{fill:#00659D;}
	.st18{fill:#E76F3D;}
	.st19{opacity:0.3;clip-path:url(#SVGID_9_);}
	.st20{fill:#9BCFE0;}
	.st21{fill:#FEAB6B;}
	.st22{fill:#333333;}
	.st23{fill:none;stroke:#E76F3D;stroke-width:5;stroke-linecap:round;stroke-linejoin:round;stroke-miterlimit:10;}
	.st24{clip-path:url(#SVGID_11_);fill:#00659D;}
	.st25{clip-path:url(#SVGID_11_);fill:#FFFFFF;}
	.st26{clip-path:url(#SVGID_11_);}
	.st27{fill:#E2C58A;}
	.st28{clip-path:url(#SVGID_13_);fill:#00659D;}
	.st29{clip-path:url(#SVGID_13_);fill:#FFFFFF;}
	.st30{clip-path:url(#SVGID_13_);}
	.st31{clip-path:url(#SVGID_15_);fill:#00659D;}
	.st32{clip-path:url(#SVGID_15_);fill:#FFFFFF;}
	.st33{clip-path:url(#SVGID_15_);}
	.st34{clip-path:url(#SVGID_17_);fill:#00659D;}
	.st35{clip-path:url(#SVGID_17_);fill:#FFFFFF;}
	.st36{clip-path:url(#SVGID_17_);}
</style>
<g id="Capa_2" class="st0">
</g>
<g id="Capa_1">
	<g>
		<g>
			<defs>
				<circle id="SVGID_10_" cx="283.46" cy="283.46" r="237.34"/>
			</defs>
			<use xlink:href="#SVGID_10_"  style="overflow:visible;fill:#FFFFFF;"/>
			<clipPath id="SVGID_2_">
				<use xlink:href="#SVGID_10_"  style="overflow:visible;"/>
			</clipPath>
			<circle style="clip-path:url(#SVGID_2_);fill:#00659D;" cx="283.46" cy="283.46" r="237.34"/>
			<path class="st3" d="M412.3,244.19c-12.94-61.6-68.5-107.52-134.42-105.45c-70.85,2.22-127.93,60.56-128.7,131.44
				c-0.31,28.6,5.76,68.43,19.89,90.87c19.61,31.14,41.52,42.09,41.52,42.09v166.65c0,4.98-0.57,3.82,45.51,3.82
				c46.08,0,83.44-4.03,83.44-9.01V404.64h37.73c11.3,0,20.9-8.28,22.55-19.46l8.11-54.8h25.4L412.3,244.19z"/>
			<g class="st4">
				<path class="st15" d="M364.76,243.58c-0.02,0.86,0.17,1.68,0.51,2.47c0.35,0.82,0.78,1.6,1.27,2.35
					c0.46,0.71,0.9,1.43,1.28,2.19c1.01,2.04,1.74,4.18,2.47,6.32c0.07,0.21,0.14,0.42,0.21,0.62c0.25-0.05,0.27-0.24,0.33-0.37
					c0.31-0.61,0.63-1.22,0.9-1.85c1.85-4.27,2.28-8.63,0.86-13.12c-0.61-1.92-1.33-3.8-2.19-5.62c-0.94-1.99-1.33-4.07-1.1-6.27
					c0.13-1.23,0.35-2.44,0.52-3.67c0.32-2.3,0.54-4.59,0.21-6.91c-0.31-2.14-0.93-4.15-2.3-5.87c-0.7-0.88-1.47-1.69-2.34-2.42
					c-1-0.84-1.8-1.82-2.38-2.99c-0.31-0.61-0.61-1.23-0.93-1.84c-0.73-1.43-1.54-2.81-2.56-4.05c-0.75-0.9-1.59-1.7-2.49-2.46
					c-1.12-0.94-2.46-1.48-3.76-2.07c-1.72-0.77-3.58-1.04-5.44-0.74c-4.21,0.69-7.8,2.54-10.57,5.86
					c-0.82,0.99-1.56,2.03-2.22,3.13c-1.74,2.9-2.77,6.06-3.49,9.34c-0.48,2.19-0.69,4.38-0.43,6.61c0.11,0.95,0.15,1.9,0.23,2.84
					c-0.76,0.11-0.75,0.1-1.17-0.36c-0.45-0.5-0.75-1.08-0.97-1.72c-0.67-1.94-1.08-3.92-1.24-5.96c-0.06-0.69-0.06-1.39,0.07-2.05
					c0.77-3.79,2.03-7.4,4.03-10.74c2.71-4.52,6.42-7.82,11.44-9.58c2.21-0.77,4.46-1.2,6.81-1.02c0.5,0.04,0.99,0.19,1.51,0.16
					c0.01-0.09,0.02-0.12,0.01-0.14c-0.03-0.09-0.07-0.17-0.11-0.25c-1.47-2.96-3.58-5.41-6.17-7.45c-1.94-1.53-4.15-2.6-6.47-3.42
					c-1.88-0.66-3.22-1.86-4.14-3.6c-0.42-0.79-0.87-1.56-1.32-2.33c-1.44-2.45-3.38-4.42-5.77-5.96c-3.92-2.52-8.17-3.6-12.82-3.01
					c-0.89,0.11-1.78,0.14-2.66-0.11c-0.96-0.27-1.84-0.72-2.65-1.27c-2.54-1.72-5.33-2.8-8.3-3.48c-2.45-0.56-4.89-0.69-7.35-0.11
					c-3.98,0.93-6.82,3.34-8.69,6.9c-1.4,2.68-2.02,5.58-2.06,8.6c-0.05,4.54,0.63,8.99,1.71,13.38c0.78,3.18,1.63,6.34,2.19,9.56
					c0.1,0.57,0.13,1.16,0.32,1.72c0.07-0.02,0.09-0.02,0.11-0.03c0.07-0.06,0.13-0.12,0.19-0.19c1.02-1.13,2.27-1.91,3.69-2.42
					c0.98-0.35,2-0.49,3.04-0.36c0.52,0.07,1.04,0.17,1.33,0.66c-0.13,0.48-0.47,0.75-0.82,1.01c-0.62,0.48-1.33,0.81-2.04,1.13
					c-2.05,0.9-3.71,2.24-4.87,4.17c-0.15,0.25-0.24,0.48-0.22,0.76c0.04,0.78,0.08,1.55,0.1,2.33c0.07,2.13,0,4.26-0.08,6.39
					c-0.13,3.23-0.31,6.45-0.66,9.66c-0.09,0.83-0.19,1.66-0.3,2.62c0.48-0.57,0.87-1.04,1.27-1.5c2.82-3.3,6.47-4.28,10.64-3.77
					c0.77,0.1,1.51,0.33,2.1,0.94c-0.34,0.46-0.81,0.68-1.3,0.88c-0.7,0.29-1.45,0.41-2.2,0.51c-3.09,0.42-5.54,1.92-7.44,4.36
					c-1.52,1.95-2.7,4.08-3.48,6.43c-0.34,1.02-0.64,2.05-0.97,3.07c-0.5,1.53-0.86,3.08-0.86,4.7c0,0.21-0.03,0.41-0.05,0.62
					c-0.22,2.79-0.13,5.58,0,8.37c0.11,2.29,0.47,4.55,0.81,6.81c0.09,0.57,0.09,1.15,0.28,1.72c0.2-0.09,0.24-0.26,0.32-0.39
					c0.54-0.88,1.12-1.73,1.78-2.52c1.2-1.46,2.57-2.73,4.3-3.57c0.52-0.25,1.06-0.45,1.64-0.47c0.45-0.02,0.97-0.09,1.22,0.41
					c0.24,0.49-0.07,0.88-0.35,1.25c-0.46,0.61-1.05,1.08-1.6,1.6c-1.72,1.6-3.3,3.31-4.47,5.36c-0.72,1.25-1.31,2.57-2,3.83
					c-0.88,1.62-1.51,3.32-1.93,5.11c-0.55,2.32-1.06,4.64-1.28,7.01c-0.25,2.71,0.01,5.39,0.45,8.07c0.48,2.96,1.55,5.68,3.34,8.11
					c0.62,0.85,1.23,1.71,1.78,2.61c0.32,0.53,0.51,1.09,0.63,1.7c-2.13,0.52-3.53-0.77-4.95-1.9c-0.07,0.04-0.1,0.05-0.1,0.06
					c-0.47,2.17-0.63,4.35-0.31,6.55c0.18,1.18,0.51,2.33,1.18,3.34c0.9,1.35,2.14,1.94,3.77,1.67c0.98-0.16,1.91-0.46,2.81-0.85
					c0.92-0.4,1.83-0.83,2.77-1.21c1.35-0.55,2.75-0.87,4.22-0.73c0.96,0.1,1.91,0.23,2.84,0.47c2.35,0.58,4.7,1.18,7.14,1.37
					c2.45,0.19,4.85,0,7.16-0.87c1.41-0.53,2.8-1.14,4.15-1.82c2.04-1.02,4.19-1.56,6.48-1.52c1.67,0.03,3.34,0.02,5.01-0.01
					c2.59-0.03,5.17-0.22,7.7-0.81c6.61-1.52,12.67-4.12,17.9-8.57c3.11-2.65,5.52-5.82,7.2-9.5c2.43-5.33,3.8-10.9,3.75-16.81
					c-0.03-4.23-0.59-8.34-2.07-12.32c-0.87-2.34-1.78-4.66-3.22-6.73c-0.3-0.43-0.52-0.91-0.76-1.38
					c-0.91-1.77-1.29-3.65-1.15-5.64c0.12-1.78,0.23-3.56,0.05-5.35c-0.2-1.93-0.55-3.81-1.29-5.6c-1.13-2.75-3.06-4.86-5.38-6.65
					c-1.02-0.79-2.16-1.13-3.44-1.17c-1.12-0.04-2.15,0.41-3.21,0.4c-0.14,0.14-0.14,0.28-0.17,0.41c-0.26,0.98-0.59,1.92-1.04,2.83
					c-0.57,1.15-1.34,2.13-2.38,2.89c-0.46,0.34-0.96,0.63-1.55,0.67c-0.38,0.03-0.77-0.03-1.15,0.1c-0.21,0.07-0.42-0.01-0.52-0.22
					c-0.09-0.19,0-0.36,0.13-0.49c0.14-0.14,0.31-0.25,0.37-0.48c0.14-0.51,0.44-0.95,0.71-1.41c0.5-0.85,0.96-1.72,1.35-2.62
					c0.91-2.09,1.33-4.28,1.08-6.56c-0.13-1.21-0.47-2.38-0.87-3.52c-0.19-0.54-0.4-1.07-0.46-1.65c-0.08-0.74,0.32-1.41,0.96-1.66
					c0.62-0.25,1.32-0.06,1.8,0.49c0.21,0.24,0.35,0.53,0.49,0.82c0.95,1.96,1.43,4.05,1.59,6.21c0.01,0.17-0.06,0.37,0.17,0.52
					c0.99-0.3,2.05-0.31,3.1-0.28c1.72,0.04,3.28,0.54,4.7,1.51c0.87,0.6,1.68,1.27,2.44,2c2.01,1.92,3.66,4.09,4.67,6.71
					c1.31,3.41,1.72,6.96,1.52,10.59C364.82,241.93,364.78,242.76,364.76,243.58z M300.02,183.49c-0.28-0.48-0.46-1-0.62-1.52
					c-0.35-1.11-0.76-2.2-1.24-3.27c-0.64-1.44-1.49-2.73-2.63-3.82c-0.32-0.3-0.61-0.62-0.85-0.99c-0.47-0.72-0.16-1.32,0.7-1.37
					c0.46-0.03,0.91,0.05,1.34,0.24c0.97,0.42,1.74,1.09,2.44,1.86c1.52,1.65,2.46,3.62,3.14,5.73c0.11,0.35,0.24,0.69,0.36,1.04
					c0.02,0.06,0.07,0.11,0.12,0.18c0.56-0.26,1.1-0.55,1.67-0.78c2.06-0.83,4.17-1.18,6.38-0.76c1.91,0.36,3.5,1.27,4.82,2.71
					c1.87,2.05,2.86,4.49,3.26,7.2c0.09,0.6,0.15,1.21,0.23,1.87c0.36-0.14,0.54-0.42,0.75-0.64c1.77-1.78,3.79-3.16,6.16-4
					c0.63-0.22,1.27-0.4,1.95-0.27c0.72,0.13,1.2,0.52,1.32,1.13c0.13,0.67-0.17,1.16-0.71,1.52c-0.28,0.19-0.58,0.38-0.89,0.51
					c-3.33,1.39-5.78,3.8-7.83,6.69c-1.16,1.63-2.09,3.38-2.87,5.22c-0.63,1.5-0.93,3.05-0.97,4.67c-0.04,1.83,0.07,3.66,0.2,5.49
					c0.04,0.6,0.02,1.19-0.11,1.77c-0.13,0.63-0.51,0.79-1.05,0.42c-0.5-0.34-0.89-0.78-1.16-1.33c-0.6-1.2-0.98-2.46-1.15-3.79
					c-0.32-2.52-0.33-5.03,0.51-7.46c0.53-1.54,1.19-3.02,2.02-4.43c0.28-0.47,0.4-0.95,0.44-1.49c0.08-1.37,0.25-2.74,0.12-4.11
					c-0.21-2.3-0.84-4.44-2.33-6.27c-1.01-1.23-2.25-1.97-3.85-2.13c-1.16-0.11-2.28,0.07-3.37,0.45c-0.67,0.24-1.31,0.54-1.97,0.81
					c-0.28,0.11-0.55,0.23-0.83,0.32C302.06,185.32,300.8,184.82,300.02,183.49z M316.33,259.47c0.68,1.11,1.47,2.16,2.26,3.19
					c0.24,0.31,0.47,0.62,0.61,0.99c0.18,0.49,0.3,1.01,0.78,1.33c0.16,0.1,0.21,0.31,0.11,0.49c-0.11,0.21-0.32,0.32-0.52,0.22
					c-0.59-0.29-1.24-0.27-1.87-0.4c-0.39-0.08-0.72-0.28-1.04-0.51c-1.29-0.89-2.4-1.97-3.29-3.27c-0.09-0.13-0.18-0.26-0.32-0.46
					c-1.11,0.54-2.05,1.22-2.92,2c-0.52,0.48-1.04,0.97-1.5,1.51c-0.62,0.74-1.43,1.28-2.05,2.01c-0.04,0.04-0.12,0.05-0.26,0.1
					c-0.4-0.9-0.78-1.77-0.55-2.8c0.27-1.18,0.93-2.13,1.79-2.94c1.07-1.02,2.24-1.88,3.55-2.56c0.18-0.09,0.39-0.14,0.54-0.37
					c-0.14-0.49-0.31-1.01-0.44-1.54c-0.7-2.82-0.63-5.63,0.22-8.4c0.88-2.88,2.22-5.51,4.35-7.69c0.76-0.77,1.59-1.45,2.54-1.97
					c0.48-0.26,0.99-0.47,1.53-0.58c0.46-0.1,0.91-0.07,1.35,0.1c0.58,0.23,0.94,0.65,0.97,1.29c0.02,0.61-0.27,1.09-0.83,1.3
					c-1.8,0.69-3.02,2.04-4.07,3.56c-1.28,1.86-2.24,3.89-2.69,6.11C313.94,253.5,314.58,256.6,316.33,259.47z M329.73,292.38
					c-0.47,0.08-0.95,0.11-1.45,0.17c-0.13,1.55-0.71,2.9-1.57,4.15c-0.5,0.72-1.09,1.36-1.86,1.8c-0.69,0.39-1.38,0.46-2.07-0.05
					c-0.19-0.67,0.05-1.25,0.43-1.79c0.5-0.71,1-1.42,1.39-2.2c0.23-0.45,0.43-0.91,0.56-1.4c0.07-0.24,0.13-0.49,0.06-0.76
					c-0.24-0.19-0.56-0.17-0.84-0.23c-2.83-0.59-5.49-1.59-7.88-3.25c-0.51-0.35-1.02-0.69-1.59-0.95
					c-0.69-0.32-0.79-0.32-1.31,0.24c-0.8,0.85-1.57,1.73-2.36,2.59c-0.78,0.84-1.59,1.65-2.47,2.38c-1.46,1.21-3.13,1.97-4.98,2.34
					c-0.6,0.12-1.19,0.07-1.73-0.24c-0.55-0.31-0.66-0.73-0.33-1.26c0.27-0.44,0.66-0.76,1.1-1.01c2.27-1.29,4.28-2.9,6.01-4.85
					c0.75-0.84,1.5-1.67,2.27-2.49c0.64-0.68,1.39-1.19,2.32-1.38c0.81-0.17,1.59-0.05,2.36,0.23c0.71,0.26,1.38,0.62,2,1.05
					c2.57,1.77,5.42,2.83,8.49,3.33c1.77,0.29,3.45,0.11,5.11-0.59c1.88-0.8,3.54-1.91,5.01-3.32c0.71-0.68,1.42-1.36,2.14-2.04
					c0.23-0.22,0.49-0.43,0.79-0.54c0.5-0.19,1-0.16,1.42,0.2c0.44,0.38,0.57,0.86,0.44,1.43c-0.1,0.43-0.32,0.81-0.56,1.17
					c-1.02,1.51-2.29,2.8-3.73,3.91C334.79,290.68,332.43,291.89,329.73,292.38z M357.93,277.07c0.76-3.63,0.6-7.23-0.33-10.81
					c-0.1-0.4-0.22-0.79-0.22-1.21c0.01-0.67,0.34-1.2,0.89-1.42c0.58-0.23,1.22-0.06,1.68,0.44c0.25,0.28,0.41,0.61,0.56,0.94
					c0.55,1.22,0.85,2.51,1.06,3.82c0.54,3.49,0.39,6.93-0.6,10.33c-0.55,1.89-1.48,3.59-2.83,5.04c-1.89,2.04-4.11,3.11-6.94,3.31
					c-0.61,1.41-1.38,2.7-2.3,3.91c-1.06,1.39-2.34,2.5-3.94,3.23c-1.6,0.72-3.22,0.78-4.87,0.2c-0.39-0.14-0.76-0.32-1.04-0.65
					c-0.42-0.5-0.3-1.07,0.29-1.36c0.33-0.16,0.7-0.22,1.06-0.25c2.83-0.29,5-1.65,6.54-4.03c0.39-0.59,0.76-1.2,1.13-1.8
					c0.15-0.24,0.3-0.44,0.6-0.53c1.1-0.34,2.12-0.85,3.07-1.51c0.85-0.58,1.72-1.13,2.55-1.73
					C356.3,281.54,357.42,279.49,357.93,277.07z M344.42,261.25c2.92-2.65,4.34-6,4.38-9.93c0.02-2.2-0.36-4.33-1.18-6.37
					c-0.17-0.42-0.4-0.82-0.6-1.23c-0.18-0.35-0.35-0.7-0.42-1.08c-0.1-0.59,0.07-1.09,0.57-1.45c0.47-0.34,0.99-0.33,1.49-0.06
					c0.43,0.23,0.76,0.58,1.06,0.96c0.69,0.87,1.18,1.85,1.54,2.9c1.5,4.34,1.56,8.67-0.2,12.94c-1.09,2.65-2.77,4.89-5.04,6.66
					c-0.14,0.11-0.31,0.2-0.42,0.41c0.11,0.19,0.23,0.4,0.36,0.61c0.83,1.35,1.55,2.75,1.99,4.28c0.43,1.51,0.51,3.02,0.11,4.54
					c-0.19,0.73-0.3,0.79-1.04,0.84c-0.11,0.01-0.23,0.01-0.34,0.01c-0.74,0.02-0.95-0.11-1.11-0.83c-0.29-1.27-0.63-2.53-1.07-3.76
					c-0.49-1.37-1.19-2.62-2.04-3.92c-3.77,1.93-7.76,2.5-11.89,2.15c-0.17,0.49-0.13,0.88-0.15,1.26
					c-0.07,1.16-0.05,2.33-0.23,3.49c-0.16,1.02-0.44,2.01-0.91,2.93c-0.35,0.69-0.84,1.25-1.57,1.56
					c-0.19,0.08-0.35,0.21-0.51,0.34c-0.17,0.13-0.36,0.2-0.57,0.06c-0.18-0.12-0.16-0.3-0.17-0.49c-0.08-1.63,0.27-3.23,0.31-4.85
					c0.03-1.21,0.07-2.43,0.11-3.64c0.01-0.41,0.04-0.82,0.12-1.23c0.28-1.57,1.27-2.57,2.85-2.85c0.54-0.1,1.09-0.11,1.64-0.1
					c2.06,0.04,4.12,0.01,6.13-0.59C340.11,264.07,342.46,263.02,344.42,261.25z M341.28,245.85c-0.11,0.25-0.35,0.28-0.59,0.21
					c-0.42-0.13-0.8-0.04-1.21,0.07c-1,0.26-2.05,0.18-3.07,0.25c-1.16,0.08-2.33,0.06-3.48,0.3c-0.13,0.03-0.28,0.03-0.38,0.15
					c-0.07,0.24,0.01,0.49,0.03,0.74c0.2,1.91,0.39,3.82,0.31,5.75c-0.03,0.64-0.12,1.27-0.24,1.9c-0.07,0.35-0.22,0.65-0.47,0.9
					c-0.34,0.34-0.74,0.34-1.09,0c-0.29-0.28-0.43-0.64-0.51-1.03c-0.3-1.34-0.4-2.71-0.55-4.07c-0.16-1.41-0.26-2.83-0.53-4.22
					c-0.27-1.39-0.32-2.81-0.69-4.18c-0.37-1.37-0.68-2.75-1.03-4.12c-0.1-0.4-0.19-0.8-0.19-1.22c-0.01-0.61,0.29-1.08,0.78-1.25
					c0.52-0.18,1.03,0.01,1.42,0.55c0.35,0.49,0.59,1.03,0.79,1.59c0.54,1.46,0.92,2.97,1.24,4.49c0.05,0.24,0.11,0.48,0.16,0.71
					c0.27,0.08,0.48-0.02,0.7-0.05c1.78-0.25,3.55-0.35,5.32,0.06c0.92,0.21,1.73,0.58,2.28,1.39c0.18,0.26,0.47,0.36,0.72,0.52
					C341.22,245.42,341.4,245.59,341.28,245.85z"/>
				<path class="st15" d="M192,250.35c-0.43,0.65-0.83,1.32-1.17,2.02c-2.83,5.95-4.08,12.21-3.61,18.79
					c0.07,1.03,0.11,2.06,0.27,3.08c0.57,3.59,1.58,7.05,3,10.39c1.4,3.3,3.34,6.26,5.88,8.79c1.45,1.44,3.06,2.69,4.72,3.88
					c3.3,2.35,6.97,3.91,10.79,5.16c3.3,1.08,6.68,1.74,10.16,1.86c2.24,0.08,4.49,0.07,6.73,0.05c2.25-0.01,4.34,0.5,6.35,1.49
					c1.17,0.58,2.36,1.1,3.57,1.6c1.25,0.52,2.55,0.88,3.9,1.05c2.35,0.31,4.66,0.05,6.96-0.36c1.6-0.28,3.16-0.74,4.75-1.1
					c2.38-0.54,4.68-0.43,6.9,0.62c0.74,0.35,1.5,0.67,2.26,1c0.92,0.41,1.88,0.71,2.88,0.87c1.54,0.23,2.73-0.32,3.63-1.57
					c0.4-0.56,0.66-1.2,0.88-1.85c0.6-1.84,0.62-3.74,0.47-5.64c-0.07-0.86-0.21-1.71-0.41-2.54c-0.24-0.03-0.31,0.14-0.43,0.24
					c-0.51,0.42-1.02,0.85-1.61,1.16c-0.95,0.5-1.92,0.85-2.99,0.43c0.14-0.99,0.68-1.79,1.22-2.58c0.61-0.89,1.23-1.76,1.83-2.66
					c0.83-1.24,1.48-2.58,1.94-4c0.5-1.58,0.78-3.2,1.01-4.83c0.32-2.32,0.38-4.65,0.13-6.98c-0.28-2.56-0.86-5.05-1.52-7.52
					c-0.17-0.64-0.29-1.29-0.6-1.89c-0.83-1.65-1.65-3.32-2.5-4.97c-0.86-1.68-1.93-3.21-3.24-4.58c-0.79-0.83-1.61-1.62-2.46-2.39
					c-0.44-0.4-0.87-0.82-1.16-1.35c-0.37-0.68-0.1-1.19,0.66-1.25c0.68-0.06,1.32,0.11,1.93,0.38c0.99,0.45,1.88,1.05,2.69,1.77
					c1.43,1.28,2.59,2.78,3.58,4.41c0.09,0.14,0.11,0.36,0.36,0.37c0.08-0.52,0.15-1.04,0.23-1.56c0.26-1.86,0.59-3.71,0.74-5.58
					c0.29-3.8,0.31-7.59-0.01-11.39c-0.05-0.62-0.1-1.23-0.27-1.83c-0.47-1.67-0.96-3.34-1.53-4.99c-0.95-2.73-2.33-5.23-4.33-7.34
					c-1.09-1.15-2.32-2.15-3.86-2.67c-0.89-0.3-1.8-0.54-2.72-0.7c-0.74-0.13-1.49-0.22-2.2-0.51c-0.48-0.2-0.95-0.42-1.29-0.88
					c0.4-0.45,0.9-0.66,1.43-0.81c1.28-0.36,2.59-0.27,3.89-0.2c1.08,0.06,2.13,0.28,3.14,0.69c1.97,0.8,3.49,2.16,4.82,3.76
					c0.22,0.26,0.42,0.52,0.67,0.83c0.1-0.35-0.02-0.61-0.05-0.87c-0.56-4.55-0.79-9.12-0.93-13.7c-0.06-2.08-0.02-4.17,0.09-6.25
					c0.01-0.25,0.06-0.5-0.1-0.73c-0.95-1.41-1.97-2.76-3.53-3.57c-0.51-0.26-1.01-0.53-1.52-0.79c-0.69-0.36-1.41-0.66-2.03-1.14
					c-0.34-0.27-0.69-0.54-0.76-1c0.22-0.3,0.52-0.45,0.86-0.54c0.47-0.13,0.95-0.16,1.43-0.13c2.24,0.13,4.07,1.11,5.64,2.67
					c0.13,0.13,0.21,0.34,0.47,0.38c0.03-0.13,0.06-0.21,0.07-0.3c0.25-1.68,0.58-3.33,0.94-4.99c0.61-2.84,1.46-5.62,2.03-8.47
					c0.72-3.6,1.2-7.22,1.15-10.9c-0.04-3.02-0.64-5.93-2.06-8.6c-2.46-4.63-6.33-7.12-11.61-7.26c-3.55-0.09-6.86,0.93-10.06,2.4
					c-1.21,0.56-2.29,1.34-3.43,2.01c-1.44,0.84-2.96,1.14-4.62,0.92c-3.27-0.43-6.43-0.03-9.48,1.28
					c-3.95,1.69-7.13,4.26-9.26,8.04c-0.38,0.68-0.77,1.35-1.13,2.04c-0.9,1.69-2.21,2.89-4.04,3.51c-0.98,0.33-1.91,0.76-2.84,1.2
					c-4.07,1.92-7.1,4.96-9.38,8.78c-0.24,0.4-0.48,0.81-0.59,1.28c0.25,0.08,0.45,0.01,0.65-0.02c1.81-0.27,3.61-0.18,5.39,0.24
					c5.6,1.34,9.98,4.42,13.12,9.26c2.15,3.3,3.56,6.89,4.45,10.72c0.2,0.88,0.36,1.76,0.31,2.64c-0.14,2.22-0.56,4.4-1.31,6.5
					c-0.22,0.62-0.55,1.14-0.97,1.64c-0.33,0.39-0.69,0.46-1.13,0.29c0.11-1.38,0.25-2.72,0.33-4.07c0.12-2.05-0.22-4.06-0.68-6.05
					c-0.81-3.53-2.1-6.86-4.11-9.89c-2.67-4.04-6.36-6.58-11.08-7.6c-2.44-0.53-4.82-0.32-7.03,0.96c-0.14,0.08-0.29,0.14-0.45,0.16
					c-0.3,0.04-0.56,0.19-0.82,0.33c-2.39,1.31-4.21,3.2-5.65,5.49c-0.74,1.18-1.39,2.42-1.99,3.68c-0.64,1.35-1.51,2.5-2.67,3.44
					c-3.03,2.49-4.5,5.74-4.68,9.63c-0.11,2.44,0.21,4.85,0.64,7.23c0.55,3.04,0.34,5.96-1.12,8.74c-0.69,1.32-1.18,2.73-1.65,4.14
					c-0.66,2.01-1.15,4.05-1.15,6.18c0.01,3.57,1.05,6.85,2.74,9.95c0.03,0.06,0.07,0.12,0.17,0.11c0.12-0.04,0.1-0.18,0.13-0.27
					c1.13-3.39,2.36-6.73,4.39-9.73c1.01-1.5,1.42-3.2,1.24-5.03c-0.22-2.17-0.16-4.34,0.08-6.51c0.68-6.04,3.59-10.72,8.52-14.19
					c1.38-0.97,2.95-1.44,4.64-1.48c1.07-0.03,2.14,0,3.14,0.29c0.06-0.08,0.09-0.1,0.09-0.12c0.02-0.16,0.03-0.32,0.04-0.48
					c0.16-2.14,0.64-4.2,1.58-6.14c0.17-0.35,0.35-0.7,0.64-0.97c0.46-0.43,1-0.56,1.59-0.36c0.57,0.19,0.89,0.61,1,1.2
					c0.08,0.4-0.01,0.78-0.12,1.15c-0.13,0.44-0.29,0.87-0.43,1.3c-0.62,1.86-0.99,3.76-0.75,5.74c0.2,1.7,0.69,3.31,1.46,4.83
					c0.41,0.82,0.85,1.62,1.33,2.4c0.28,0.46,0.35,1.04,0.81,1.4c0.11,0.08,0.12,0.25,0.05,0.38c-0.09,0.19-0.26,0.25-0.46,0.24
					c-0.23-0.01-0.43-0.15-0.67-0.12c-0.91,0.1-1.64-0.3-2.32-0.84c-0.99-0.78-1.71-1.77-2.25-2.9c-0.46-0.97-0.77-2-1.07-3.09
					c-0.67,0.08-1.27-0.17-1.9-0.26c-1.53-0.21-3.03-0.17-4.36,0.76c-2.13,1.49-3.92,3.31-5.17,5.6c-1.71,3.15-2.11,6.59-2.02,10.11
					c0.02,0.89,0.12,1.78,0.15,2.67c0.05,1.46-0.18,2.87-0.75,4.22C193.17,248.39,192.63,249.39,192,250.35z M253.39,295.21
					c-0.55,0.28-1.13,0.3-1.74,0.18c-2.3-0.45-4.22-1.58-5.89-3.19c-1.22-1.18-2.34-2.45-3.48-3.7c-0.91-1-0.82-1.13-2.23-0.34
					c-0.7,0.39-1.35,0.86-2.03,1.28c-2.26,1.42-4.77,2.18-7.36,2.72c-0.11,0.02-0.22,0.05-0.37,0.09c-0.05,0.52,0.09,0.93,0.25,1.33
					c0.4,1.06,1.01,2,1.66,2.91c0.58,0.81,0.64,1.05,0.56,1.93c-0.65,0.52-1.34,0.47-2.03,0.1c-0.8-0.43-1.41-1.09-1.92-1.84
					c-0.86-1.24-1.43-2.6-1.56-4.15c-0.77-0.09-1.53-0.13-2.26-0.32c-2.99-0.78-5.56-2.3-7.8-4.42c-0.8-0.76-1.54-1.57-2.17-2.48
					c-0.3-0.43-0.59-0.87-0.71-1.4c-0.13-0.59,0.02-1.1,0.51-1.47c0.47-0.35,0.98-0.34,1.49-0.09c0.44,0.22,0.77,0.57,1.12,0.9
					c0.82,0.77,1.62,1.55,2.45,2.3c1.43,1.29,3.09,2.2,4.88,2.87c1.67,0.63,3.36,0.56,5.07,0.24c2.85-0.53,5.48-1.59,7.88-3.23
					c0.7-0.48,1.45-0.87,2.26-1.13c1.45-0.46,2.76-0.19,3.92,0.78c0.31,0.26,0.6,0.56,0.88,0.87c0.62,0.67,1.24,1.35,1.85,2.03
					c1.75,1.97,3.77,3.6,6.06,4.9c0.42,0.24,0.79,0.55,1.06,0.96C254.14,294.43,254.01,294.89,253.39,295.21z M244.47,258.4
					c1.31,0.68,2.48,1.55,3.54,2.57c0.82,0.79,1.46,1.7,1.72,2.83c0.13,0.55,0.15,1.1-0.06,1.62c-0.16,0.4-0.18,0.85-0.45,1.17
					c-0.16,0.05-0.26,0.01-0.34-0.08c-1.05-0.98-2.03-2.03-3.04-3.06c-0.79-0.8-1.69-1.47-2.66-2.04c-0.21-0.13-0.42-0.29-0.67-0.32
					c-0.2,0.1-0.27,0.31-0.38,0.47c-0.9,1.29-2.01,2.37-3.31,3.25c-0.48,0.33-1,0.54-1.6,0.56c-0.37,0.01-0.72,0.09-1.06,0.25
					c-0.24,0.12-0.5,0.14-0.68-0.11c-0.18-0.27-0.03-0.5,0.18-0.65c0.32-0.23,0.46-0.55,0.57-0.91c0.13-0.47,0.39-0.87,0.69-1.26
					c0.74-0.96,1.47-1.93,2.12-2.96c2.3-3.63,2.82-7.47,1.33-11.54c-0.78-2.12-1.86-4.08-3.41-5.74c-0.74-0.79-1.57-1.46-2.6-1.86
					c-0.72-0.28-1.07-0.82-1.01-1.47c0.06-0.64,0.52-1.11,1.24-1.3c0.55-0.14,1.09-0.05,1.62,0.13c0.95,0.32,1.77,0.85,2.53,1.48
					c1.32,1.09,2.4,2.39,3.26,3.86c1.36,2.33,2.36,4.8,2.67,7.51c0.24,2.12,0.1,4.2-0.52,6.25c-0.09,0.31-0.18,0.61-0.28,0.94
					C244.04,258.25,244.27,258.3,244.47,258.4z M226.9,189.51c-0.52-0.38-0.83-0.87-0.67-1.53c0.16-0.65,0.63-0.97,1.27-1.09
					c0.68-0.13,1.32,0.03,1.95,0.26c1.9,0.67,3.6,1.69,5.11,3.01c0.43,0.38,0.83,0.78,1.25,1.18c0.16,0.15,0.3,0.34,0.58,0.48
					c0.08-0.64,0.14-1.25,0.23-1.85c0.35-2.37,1.15-4.56,2.62-6.48c1.9-2.49,4.42-3.7,7.54-3.64c1.88,0.04,3.66,0.54,5.33,1.41
					c0.2,0.1,0.4,0.21,0.68,0.35c0.36-0.99,0.67-1.92,1.03-2.84c0.67-1.75,1.68-3.3,3.01-4.62c0.59-0.59,1.25-1.07,2.02-1.4
					c0.45-0.2,0.92-0.27,1.41-0.22c0.75,0.08,1.03,0.63,0.65,1.28c-0.16,0.27-0.35,0.55-0.59,0.76c-2,1.79-3.07,4.13-3.91,6.6
					c-0.15,0.43-0.27,0.87-0.43,1.3c-0.19,0.54-0.42,1.06-0.79,1.51c-0.78,0.95-1.77,1.25-2.95,0.96c-0.74-0.18-1.41-0.54-2.1-0.84
					c-1.45-0.62-2.94-0.98-4.54-0.77c-1.33,0.18-2.43,0.77-3.32,1.76c-1.23,1.36-1.96,2.96-2.35,4.74
					c-0.36,1.65-0.33,3.31-0.24,4.99c0.06,1.22,0.39,2.3,0.99,3.37c0.96,1.72,1.77,3.54,2.05,5.5c0.45,3.15,0.31,6.25-1.08,9.2
					c-0.27,0.58-0.66,1.04-1.18,1.41c-0.56,0.4-0.95,0.24-1.09-0.43c-0.12-0.58-0.14-1.17-0.1-1.77c0.14-2.17,0.3-4.34,0.13-6.51
					c-0.07-0.94-0.26-1.86-0.58-2.74c-1.46-3.96-3.7-7.39-6.86-10.21c-1.12-1-2.4-1.75-3.76-2.38
					C227.77,190.02,227.31,189.81,226.9,189.51z M214.51,245.31c0.45-0.22,0.75-0.58,1.07-0.94c0.67-0.73,1.6-0.97,2.53-1.11
					c1.59-0.25,3.19-0.19,4.78,0.07c0.2,0.03,0.4,0.11,0.65,0.05c0.19-0.83,0.37-1.67,0.58-2.51c0.3-1.2,0.64-2.38,1.17-3.51
					c0.16-0.33,0.32-0.66,0.56-0.94c0.36-0.42,0.83-0.57,1.29-0.41c0.48,0.17,0.72,0.55,0.78,1.04c0.06,0.46-0.06,0.91-0.16,1.36
					c-0.4,1.69-0.91,3.35-1.22,5.07c-0.13,0.74-0.25,1.48-0.3,2.23c-0.05,0.72-0.32,1.42-0.39,2.15c-0.15,1.5-0.33,3-0.49,4.5
					c-0.1,0.93-0.23,1.86-0.43,2.78c-0.07,0.32-0.19,0.61-0.4,0.86c-0.42,0.5-0.91,0.49-1.32-0.03c-0.2-0.26-0.3-0.55-0.37-0.87
					c-0.31-1.49-0.27-3-0.17-4.51c0.08-1.25,0.19-2.5,0.36-3.8c-0.94-0.26-1.81-0.32-2.67-0.36c-1.14-0.06-2.28-0.1-3.43-0.16
					c-0.27-0.01-0.55-0.04-0.81-0.12c-0.45-0.14-0.88-0.24-1.34-0.08c-0.21,0.07-0.43,0.01-0.53-0.2
					C214.14,245.61,214.29,245.41,214.51,245.31z M204.48,244.45c0.38-0.99,0.9-1.9,1.62-2.69c0.25-0.27,0.52-0.52,0.86-0.68
					c0.5-0.23,0.98-0.21,1.43,0.11c0.47,0.34,0.65,0.82,0.56,1.39c-0.07,0.46-0.29,0.86-0.5,1.27c-1.84,3.68-2.24,7.52-1.1,11.47
					c0.88,3.03,2.7,5.44,5.37,7.15c3.02,1.93,6.3,3.01,9.92,2.96c0.91-0.01,1.83-0.08,2.74,0.04c1.88,0.25,2.9,1.25,3.21,3.12
					c0.09,0.57,0.08,1.14,0.09,1.71c0.06,1.97,0.05,3.94,0.38,5.89c0.11,0.68-0.08,1.36,0.01,2.05c0.05,0.37-0.31,0.49-0.69,0.31
					c-1.74-0.81-2.49-2.31-2.89-4.08c-0.31-1.37-0.29-2.77-0.37-4.17c-0.02-0.41,0-0.82-0.09-1.23c-0.41-0.19-0.83-0.12-1.23-0.1
					c-3.57,0.21-6.97-0.43-10.21-1.95c-0.12-0.06-0.25-0.11-0.38-0.16c-0.04-0.02-0.09-0.01-0.18-0.02
					c-0.79,1.18-1.49,2.44-1.98,3.8c-0.42,1.19-0.77,2.39-1.04,3.62c-0.22,0.96-0.35,1.04-1.31,1c-0.05,0-0.09,0-0.14,0
					c-0.81-0.04-0.91-0.11-1.11-0.92c-0.26-1.01-0.32-2.03-0.17-3.07c0.24-1.68,0.88-3.22,1.71-4.68c0.3-0.54,0.63-1.06,0.94-1.58
					c-0.07-0.24-0.28-0.32-0.43-0.45c-4.51-3.74-6.58-8.55-6.29-14.39C203.31,248.2,203.76,246.29,204.48,244.45z M194.31,267.15
					c0.19-0.83,0.48-1.62,0.84-2.39c0.15-0.31,0.33-0.61,0.59-0.84c0.45-0.4,0.97-0.5,1.53-0.28c0.54,0.22,0.81,0.65,0.88,1.22
					c0.06,0.47-0.07,0.91-0.19,1.35c-0.6,2.18-0.86,4.4-0.82,6.65c0.03,1.77,0.24,3.51,0.73,5.22c0.61,2.09,1.77,3.81,3.57,5.05
					c1.11,0.77,2.24,1.51,3.38,2.23c0.6,0.38,1.27,0.62,1.95,0.84c0.33,0.1,0.55,0.29,0.72,0.58c0.44,0.75,0.9,1.49,1.4,2.2
					c1.51,2.12,3.56,3.3,6.13,3.61c0.39,0.05,0.77,0.09,1.13,0.25c0.66,0.3,0.78,0.9,0.28,1.44c-0.26,0.27-0.58,0.44-0.93,0.57
					c-1.65,0.6-3.27,0.55-4.87-0.16c-1.59-0.7-2.86-1.79-3.92-3.15c-0.89-1.14-1.65-2.36-2.23-3.69c-0.05-0.1-0.1-0.2-0.16-0.32
					c-0.58-0.02-1.14-0.1-1.7-0.23c-3.28-0.77-5.51-2.84-7.08-5.72c-0.89-1.63-1.33-3.4-1.61-5.22
					C193.48,273.26,193.59,270.19,194.31,267.15z"/>
				<path class="st15" d="M255.32,310.7c2.83,1.6,5.12,3.82,7.28,6.21c2.99,3.33,5.66,6.9,8.21,10.56c1.16,1.67,2.34,3.34,3.6,4.94
					c0.57,0.72,1.18,1.4,1.85,2.03c0.25,0.24,0.51,0.47,0.78,0.68c0.79,0.6,1.12,0.61,1.88-0.01c0.89-0.73,1.66-1.58,2.34-2.5
					c1.38-1.88,2.74-3.78,4.13-5.66c2.33-3.15,4.66-6.29,7.29-9.2c2.47-2.73,5.26-5.02,8.56-6.67c0.14-0.07,0.3-0.11,0.39-0.26
					c-1.56-0.6-3.78-0.78-4.99-0.3c-0.91,0.36-1.83,0.72-2.73,1.13c-1.4,0.64-2.84,1.14-4.38,1.34c-2.66,0.33-4.82-0.56-6.5-2.61
					c-1.26-1.53-1.86-3.36-2.13-5.28c-0.38-2.72-0.28-5.43,0.48-8.1c0.24-0.84,0.58-1.64,1.09-2.38c-0.03-0.08-0.05-0.17-0.09-0.25
					c-1.22-2.42-1.81-5.03-2.18-7.69c-0.3-2.18-0.48-4.36-0.35-6.57c0.18-2.98,0.75-5.9,1.49-8.78c0.3-1.15,0.63-2.3,0.88-3.46
					c0.36-1.72,0.31-3.45,0.11-5.19c-0.28-2.41-0.76-4.79-0.97-7.21c-0.25-3.01-0.39-6.03-0.25-9.05c0.12-2.47,0.29-4.93,0.58-7.39
					c0.25-2.09,0.66-4.16,1.04-6.23c0.84-4.58,1.39-9.18,1.6-13.83c0.09-1.92,0.17-3.84,0.22-5.76c0.13-5.5-0.48-10.92-1.81-16.26
					c-0.68-2.73-1.43-5.44-1.94-8.21c-0.64-3.5-1.06-7.02-1-10.58c0.02-1.22,0.15-2.42,0.33-3.6c-1.46-0.41-3.39-0.78-4.74-0.4
					c0.25,1.36,0.39,2.73,0.4,4.14c0.02,4-0.49,7.94-1.29,11.85c-0.59,2.87-1.42,5.68-2.06,8.54c-1.12,5.01-1.54,10.08-1.39,15.2
					c0.09,3.2,0.26,6.4,0.5,9.6c0.2,2.56,0.59,5.09,1.01,7.62c0.46,2.78,1.06,5.53,1.38,8.33c0.23,2.05,0.36,4.1,0.49,6.16
					c0.19,3.09,0.05,6.18-0.16,9.26c-0.13,1.9-0.45,3.77-0.74,5.65c-0.2,1.34-0.38,2.68-0.45,4.02c-0.08,1.61,0.16,3.2,0.59,4.75
					c0.65,2.36,1.26,4.73,1.65,7.15c0.52,3.23,0.59,6.46,0.12,9.71c-0.31,2.13-0.68,4.25-1.42,6.28c-0.27,0.73-0.59,1.44-0.94,2.16
					c1.19,1.82,1.57,3.89,1.72,6c0.17,2.41,0.06,4.81-0.79,7.11c-0.71,1.9-1.81,3.48-3.61,4.51c-1.62,0.92-3.34,1.01-5.12,0.68
					c-1.27-0.24-2.46-0.69-3.63-1.23c-0.85-0.39-1.72-0.74-2.6-1.08c-1.29-0.49-2.59-0.37-3.88-0.09
					C255.15,310.62,255.24,310.66,255.32,310.7z"/>
			</g>
			<g class="st4">
				<rect x="274.64" y="360.22" class="st16" width="3.67" height="175.11"/>
				
					<rect x="262.34" y="332.49" transform="matrix(0.7071 -0.7071 0.7071 0.7071 -170.0265 289.2794)" class="st16" width="3.68" height="34.78"/>
				<path class="st16" d="M246.12,372.06c-5.11,0-9.28-4.16-9.28-9.28c0-5.12,4.16-9.28,9.28-9.28c5.12,0,9.28,4.16,9.28,9.28
					C255.4,367.9,251.24,372.06,246.12,372.06z M246.12,357.17c-3.09,0-5.6,2.52-5.6,5.61c0,3.09,2.52,5.61,5.6,5.61
					c3.09,0,5.61-2.52,5.61-5.61C251.72,359.69,249.21,357.17,246.12,357.17z"/>
				<path class="st16" d="M246.95,341.29c-5.12,0-9.28-4.16-9.28-9.28c0-5.12,4.16-9.28,9.28-9.28c5.12,0,9.28,4.16,9.28,9.28
					C256.23,337.13,252.07,341.29,246.95,341.29z M246.95,326.41c-3.09,0-5.61,2.51-5.61,5.6c0,3.09,2.52,5.61,5.61,5.61
					c3.09,0,5.6-2.52,5.6-5.61C252.55,328.92,250.04,326.41,246.95,326.41z"/>
				
					<rect x="271.38" y="348.04" transform="matrix(0.7072 -0.7071 0.7071 0.7072 -162.8206 306.6323)" class="st16" width="34.78" height="3.68"/>
				<path class="st16" d="M306,341.29c-5.12,0-9.28-4.16-9.28-9.28c0-5.12,4.16-9.28,9.28-9.28c5.12,0,9.28,4.16,9.28,9.28
					C315.28,337.13,311.12,341.29,306,341.29z M306,326.41c-3.09,0-5.61,2.51-5.61,5.6c0,3.09,2.52,5.61,5.61,5.61
					c3.09,0,5.61-2.52,5.61-5.61C311.61,328.92,309.09,326.41,306,326.41z"/>
				<polygon class="st16" points="268.26,471.13 264.59,471.13 264.59,383.78 250.12,369.29 252.72,366.7 268.26,382.26 				"/>
				<path class="st16" d="M246.24,414.47c-5.11,0-9.28-4.16-9.28-9.28c0-5.12,4.16-9.28,9.28-9.28c5.12,0,9.28,4.16,9.28,9.28
					C255.53,410.31,251.36,414.47,246.24,414.47z M246.24,399.58c-3.09,0-5.6,2.52-5.6,5.61c0,3.09,2.52,5.61,5.6,5.61
					c3.09,0,5.61-2.52,5.61-5.61C251.85,402.1,249.34,399.58,246.24,399.58z"/>
				<polygon class="st16" points="268.39,536.63 264.71,536.63 264.71,426.19 250.25,411.71 252.84,409.11 268.39,424.68 				"/>
				<path class="st16" d="M210.31,374.1c-5.11,0-9.28-4.16-9.28-9.28c0-5.12,4.16-9.28,9.28-9.28c5.12,0,9.28,4.16,9.28,9.28
					C219.6,369.94,215.43,374.1,210.31,374.1z M210.31,359.21c-3.09,0-5.6,2.52-5.6,5.61c0,3.09,2.52,5.61,5.6,5.61
					c3.09,0,5.61-2.52,5.61-5.61C215.92,361.73,213.41,359.21,210.31,359.21z"/>
				<polygon class="st16" points="264.59,395.91 214.32,371.33 216.91,368.74 264.79,393.04 				"/>
				<path class="st16" d="M335.13,364.82c0-5.12,4.16-9.28,9.28-9.28c5.11,0,9.28,4.16,9.28,9.28c0,5.12-4.16,9.28-9.28,9.28
					C339.3,374.1,335.13,369.94,335.13,364.82z M338.81,364.82c0,3.09,2.51,5.61,5.61,5.61c3.09,0,5.6-2.52,5.6-5.61
					c0-3.09-2.52-5.61-5.6-5.61C341.32,359.21,338.81,361.73,338.81,364.82z"/>
				<polygon class="st16" points="290.14,395.91 340.41,371.33 337.82,368.74 289.95,393.04 				"/>
				<path class="st16" d="M299.51,431.5c0-5.12,4.16-9.28,9.28-9.28c5.11,0,9.28,4.16,9.28,9.28c0,5.12-4.16,9.28-9.28,9.28
					C303.68,440.79,299.51,436.62,299.51,431.5z M303.19,431.5c0,3.09,2.51,5.61,5.61,5.61c3.09,0,5.6-2.52,5.6-5.61
					c0-3.09-2.52-5.61-5.6-5.61C305.7,425.9,303.19,428.42,303.19,431.5z"/>
				<polygon class="st16" points="286.65,471.74 290.33,471.74 290.33,452.51 304.79,438.02 302.2,435.42 286.65,450.99 				"/>
				<path class="st16" d="M246.12,478.86c-5.11,0-9.28-4.16-9.28-9.28c0-5.12,4.16-9.28,9.28-9.28c5.12,0,9.28,4.16,9.28,9.28
					C255.4,474.69,251.24,478.86,246.12,478.86z M246.12,463.96c-3.09,0-5.6,2.52-5.6,5.61c0,3.09,2.52,5.61,5.6,5.61
					c3.09,0,5.61-2.52,5.61-5.61C251.72,466.48,249.21,463.96,246.12,463.96z"/>
				<polygon class="st16" points="268.26,509.81 264.59,509.81 264.59,490.58 250.12,476.09 252.72,473.49 268.26,489.06 				"/>
				<path class="st16" d="M299.51,362.91c0-5.12,4.16-9.28,9.28-9.28c5.11,0,9.28,4.16,9.28,9.28c0,5.12-4.16,9.28-9.28,9.28
					C303.68,372.2,299.51,368.03,299.51,362.91z M303.19,362.91c0,3.09,2.51,5.61,5.61,5.61c3.09,0,5.6-2.52,5.6-5.61
					c0-3.09-2.52-5.61-5.6-5.61C305.7,357.3,303.19,359.82,303.19,362.91z"/>
				<polygon class="st16" points="286.65,533.82 290.33,533.82 290.33,383.92 304.79,369.43 302.2,366.83 286.65,382.4 				"/>
			</g>
		</g>
		<g>
			<path class="st9" d="M121.02,323.47c0.37,1.23,0.71,2.56,1.03,4c0.32,1.44,0.44,3.07,0.36,4.91c-0.15,2.68-0.86,5.02-2.13,7.02
				c-1.28,2.01-2.8,3.73-4.57,5.17c-1.77,1.44-3.65,2.61-5.64,3.51c-2,0.9-3.78,1.59-5.36,2.07c-0.96,0.29-2.08,0.57-3.38,0.86
				c-1.3,0.28-2.68,0.49-4.13,0.63c-1.46,0.14-2.96,0.16-4.51,0.06c-1.55-0.1-3.07-0.38-4.58-0.86s-2.95-1.17-4.34-2.09
				c-1.39-0.92-2.62-2.12-3.71-3.61c-0.93-1.28-1.66-2.58-2.2-3.9c-0.54-1.33-1.04-2.77-1.5-4.31l-3.31-10.99
				c-0.23-0.75-0.38-1.37-0.45-1.84c-0.07-0.47-0.02-0.87,0.16-1.18c0.18-0.31,0.5-0.57,0.96-0.77c0.46-0.2,1.08-0.42,1.88-0.66
				l37.54-11.31c0.79-0.24,1.44-0.39,1.94-0.45c0.5-0.07,0.91-0.02,1.24,0.15c0.32,0.16,0.58,0.45,0.77,0.87
				c0.19,0.42,0.4,1,0.63,1.75L121.02,323.47z M76.94,325.48l3.02,10.04c0.12,0.4,0.29,0.92,0.51,1.57
				c0.22,0.65,0.48,1.33,0.79,2.06c0.31,0.73,0.66,1.44,1.05,2.14c0.39,0.7,0.86,1.34,1.39,1.91c1.29,1.42,2.75,2.45,4.37,3.09
				c1.62,0.63,3.33,1,5.12,1.08c1.79,0.09,3.62-0.03,5.47-0.35c1.85-0.32,3.65-0.74,5.4-1.27c0.87-0.26,2.05-0.69,3.52-1.29
				c1.48-0.6,2.94-1.41,4.4-2.43c1.46-1.02,2.79-2.29,3.99-3.79c1.2-1.51,1.96-3.3,2.29-5.39c0.23-1.49,0.21-2.99-0.06-4.48
				c-0.27-1.5-0.59-2.86-0.96-4.08l-3.02-10.04L76.94,325.48z"/>
			<path class="st9" d="M91.81,369.98c-0.67,0.32-1.36,0.56-2.08,0.72c-0.72,0.16-1.27-0.17-1.67-0.99
				c-0.21-0.45-0.29-0.83-0.22-1.13c0.07-0.31,0.23-0.59,0.47-0.84c0.24-0.25,0.52-0.47,0.85-0.65c0.32-0.18,0.66-0.35,1.01-0.52
				l25.91-12.39c0.35-0.17,0.71-0.33,1.07-0.48c0.36-0.15,0.71-0.24,1.06-0.27c0.35-0.03,0.66,0.03,0.95,0.17
				c0.28,0.14,0.53,0.43,0.75,0.88c0.2,0.41,0.25,0.77,0.16,1.09c-0.09,0.32-0.25,0.6-0.49,0.85c-0.24,0.25-0.53,0.47-0.88,0.66
				c-0.34,0.19-0.67,0.36-0.98,0.51L91.81,369.98z M127.15,352.91c-0.66-0.21-1.13-0.62-1.41-1.22c-0.3-0.63-0.33-1.26-0.07-1.89
				c0.25-0.63,0.7-1.09,1.32-1.39c0.67-0.32,1.31-0.38,1.94-0.17c0.63,0.2,1.09,0.62,1.4,1.26c0.28,0.6,0.31,1.21,0.09,1.85
				c-0.23,0.63-0.67,1.11-1.34,1.43C128.45,353.08,127.8,353.12,127.15,352.91z"/>
			<path class="st9" d="M135.2,385.94c0.22-0.14,0.48-0.3,0.78-0.47c0.3-0.17,0.6-0.3,0.89-0.36c0.29-0.07,0.59-0.05,0.89,0.05
				c0.3,0.1,0.58,0.36,0.86,0.77c0.5,0.76,0.54,1.39,0.11,1.89c-0.42,0.5-1.16,1.1-2.21,1.79l-22.58,14.85
				c-1.12,0.74-2.24,1.44-3.34,2.09c-1.1,0.65-2.23,1.18-3.39,1.6c-1.16,0.41-2.33,0.69-3.51,0.82c-1.18,0.13-2.41,0.03-3.68-0.33
				c-1.47-0.42-2.99-1.18-4.57-2.27s-3.13-2.81-4.68-5.16c-1.43-2.18-2.31-4.13-2.65-5.87c-0.34-1.74-0.28-3.42,0.16-5.04
				c0.28-1.08,0.68-2.07,1.2-2.98c0.52-0.91,1.01-1.52,1.49-1.83c0.43-0.29,0.9-0.41,1.4-0.36c0.5,0.04,0.9,0.31,1.22,0.79
				c0.27,0.41,0.36,0.78,0.25,1.1c-0.1,0.31-0.44,0.98-1.02,2.01c-0.97,1.68-1.43,3.34-1.36,4.98c0.06,1.64,0.74,3.44,2.04,5.41
				c0.98,1.49,1.96,2.65,2.95,3.48c0.99,0.83,1.95,1.44,2.87,1.82c0.93,0.38,1.79,0.59,2.6,0.63c0.8,0.04,1.52-0.02,2.14-0.18
				c0.65-0.13,1.23-0.29,1.75-0.48c0.52-0.2,1.1-0.46,1.73-0.8c0.63-0.34,1.39-0.78,2.26-1.3c0.87-0.53,1.98-1.23,3.33-2.11
				c-0.58-0.01-1.28-0.06-2.11-0.13c-0.83-0.07-1.82-0.35-2.97-0.84c-1.49-0.6-2.74-1.4-3.76-2.39c-1.01-0.99-1.84-1.97-2.48-2.94
				c-1.25-1.9-2.03-3.71-2.33-5.44c-0.31-1.73-0.29-3.35,0.04-4.85c0.33-1.51,0.88-2.91,1.64-4.2c0.76-1.29,1.59-2.43,2.5-3.43
				c0.91-0.99,1.79-1.84,2.66-2.53c0.87-0.7,1.56-1.21,2.06-1.54c1.52-1,3.28-1.87,5.26-2.61c1.98-0.74,4.02-1.11,6.12-1.13
				c2.09-0.02,4.14,0.42,6.13,1.32c1.99,0.89,3.74,2.48,5.23,4.76c0.95,1.45,1.61,2.82,1.95,4.1c0.35,1.28,0.51,2.48,0.48,3.58
				c-0.03,1.11-0.17,2.13-0.44,3.07c-0.27,0.94-0.51,1.79-0.75,2.53L135.2,385.94z M105.54,379.89c-1.2,1.53-2,3.05-2.39,4.54
				c-0.39,1.49-0.43,2.94-0.11,4.34c0.32,1.4,0.88,2.7,1.67,3.91c0.68,1.04,1.58,1.98,2.68,2.84c1.11,0.85,2.42,1.43,3.94,1.72
				c1.52,0.29,3.21,0.24,5.08-0.15c1.87-0.39,3.93-1.32,6.19-2.8c2.29-1.5,4.02-3.05,5.21-4.65c1.18-1.59,1.97-3.16,2.36-4.71
				c0.39-1.54,0.42-3.01,0.1-4.41c-0.32-1.4-0.85-2.65-1.57-3.76c-0.68-1.04-1.59-1.98-2.71-2.82c-1.13-0.84-2.44-1.4-3.95-1.67
				c-1.5-0.27-3.21-0.19-5.11,0.24c-1.9,0.43-3.97,1.39-6.22,2.86C108.47,376.86,106.74,378.36,105.54,379.89z"/>
			<path class="st9" d="M123.8,417.74c-0.56,0.48-1.16,0.9-1.81,1.25c-0.65,0.34-1.27,0.17-1.87-0.51c-0.33-0.37-0.5-0.72-0.51-1.03
				c-0.01-0.32,0.06-0.63,0.22-0.94c0.17-0.31,0.38-0.59,0.64-0.85c0.26-0.26,0.54-0.51,0.84-0.77l21.67-18.86
				c0.3-0.26,0.6-0.51,0.91-0.75c0.31-0.24,0.63-0.42,0.95-0.54c0.33-0.12,0.64-0.15,0.95-0.09c0.31,0.06,0.63,0.28,0.95,0.65
				c0.3,0.34,0.45,0.68,0.45,1.01c0,0.33-0.08,0.65-0.25,0.96c-0.16,0.31-0.39,0.6-0.67,0.87c-0.28,0.27-0.55,0.52-0.81,0.75
				L123.8,417.74z M153.3,391.86c-0.69-0.03-1.25-0.3-1.68-0.8c-0.46-0.53-0.65-1.13-0.57-1.8c0.08-0.67,0.38-1.23,0.9-1.69
				c0.56-0.48,1.16-0.71,1.82-0.68c0.66,0.03,1.22,0.31,1.68,0.84c0.43,0.5,0.63,1.08,0.58,1.76c-0.05,0.67-0.35,1.25-0.91,1.74
				C154.6,391.68,153.99,391.89,153.3,391.86z"/>
			<path class="st9" d="M156.93,407.17l2.48,2.43c0.15,0.14,0.32,0.33,0.51,0.54c0.19,0.22,0.34,0.44,0.46,0.68
				c0.12,0.24,0.17,0.48,0.15,0.74c-0.02,0.25-0.15,0.51-0.39,0.75c-0.52,0.53-1.03,0.63-1.55,0.3c-0.52-0.33-0.93-0.63-1.22-0.92
				l-2.48-2.43l-15.53,15.88c-1.43,1.46-2.32,2.67-2.68,3.62c-0.36,0.96,0.03,1.98,1.15,3.08c0.09,0.09,0.23,0.21,0.42,0.37
				c0.19,0.16,0.4,0.32,0.62,0.47c0.22,0.16,0.43,0.31,0.62,0.47c0.19,0.16,0.32,0.27,0.38,0.32c0.33,0.32,0.47,0.67,0.44,1.06
				c-0.04,0.39-0.2,0.74-0.51,1.05c-0.52,0.53-1.16,0.61-1.94,0.25c-0.77-0.36-1.64-1.01-2.58-1.93c-1.24-1.21-2.01-2.35-2.31-3.4
				c-0.3-1.05-0.32-2.03-0.05-2.92c0.27-0.89,0.73-1.74,1.38-2.52c0.65-0.79,1.33-1.54,2.03-2.25l15.84-16.21l-1.37-1.34
				c-0.15-0.14-0.32-0.33-0.51-0.54c-0.19-0.22-0.35-0.44-0.46-0.68c-0.12-0.24-0.17-0.48-0.15-0.74c0.02-0.26,0.15-0.51,0.39-0.75
				c0.52-0.53,1.03-0.63,1.55-0.3c0.52,0.33,0.93,0.63,1.22,0.92l1.38,1.34l4.19-4.28c0.88-0.9,1.65-1.58,2.29-2.04
				c0.65-0.46,1.31-0.36,2,0.31c0.68,0.67,0.82,1.32,0.42,1.96c-0.4,0.64-1.02,1.4-1.87,2.27L156.93,407.17z"/>
			<path class="st9" d="M176.8,434.34c0.51-0.83,0.85-1.7,1.01-2.6c0.15-0.75,0.12-1.46-0.08-2.12c-0.2-0.66-0.49-1.28-0.86-1.85
				c-0.37-0.57-0.82-1.11-1.35-1.61c-0.53-0.5-1.06-0.95-1.59-1.35c-0.4-0.3-0.99-0.68-1.77-1.16c-0.78-0.47-1.66-0.87-2.63-1.2
				c-0.97-0.32-2-0.49-3.07-0.49c-1.08,0-2.1,0.3-3.07,0.91c-1.08,0.69-1.83,1.11-2.26,1.27c-0.43,0.16-0.89,0.05-1.39-0.32
				c-0.33-0.25-0.56-0.62-0.68-1.11c-0.12-0.5,0.01-1,0.4-1.53c0.23-0.31,0.77-0.76,1.62-1.35s1.97-1.01,3.35-1.28
				c1.39-0.27,3.02-0.19,4.89,0.23c1.88,0.42,3.96,1.49,6.25,3.19c2.45,1.83,4.11,3.56,4.98,5.21c0.86,1.64,1.21,3.22,1.05,4.72
				c-0.17,1.5-0.7,2.97-1.61,4.4c-0.91,1.43-1.9,2.86-2.96,4.29c-0.26,0.35-0.7,0.93-1.33,1.73c-0.63,0.81-1.29,1.68-1.99,2.62
				c-0.67,0.91-1.32,1.75-1.93,2.54c-0.61,0.79-1.04,1.34-1.27,1.65c-0.44,0.59-0.93,1.31-1.48,2.15c-0.55,0.84-0.96,1.62-1.23,2.33
				c-0.3,0.75-0.57,1.44-0.81,2.08c-0.24,0.63-0.45,1.07-0.63,1.32c-0.36,0.49-0.8,0.71-1.32,0.68c-0.52-0.03-0.91-0.15-1.17-0.34
				c-0.4-0.3-0.63-0.67-0.7-1.13c-0.07-0.46-0.02-0.96,0.16-1.51c0.17-0.55,0.43-1.14,0.75-1.79s0.69-1.31,1.09-1.99
				c-2.56,0.53-5.05,0.5-7.48-0.09s-4.65-1.63-6.67-3.14c-1.29-0.96-2.29-2.02-2.99-3.15c-0.7-1.14-1.14-2.32-1.32-3.53
				c-0.18-1.21-0.11-2.41,0.21-3.6c0.32-1.19,0.87-2.31,1.64-3.35c1.21-1.63,2.52-2.69,3.92-3.19c1.4-0.5,2.8-0.67,4.21-0.51
				c1.4,0.16,2.76,0.53,4.07,1.13c1.31,0.6,2.49,1.15,3.55,1.67c2.8,1.44,4.95,2.53,6.46,3.27c1.51,0.75,2.72,1.19,3.64,1.34
				C175.49,436.32,176.29,435.17,176.8,434.34z M168.5,438.75c-1.62-0.8-3.36-1.62-5.21-2.46c-0.8-0.38-1.69-0.8-2.66-1.25
				c-0.98-0.46-1.97-0.79-2.97-0.99c-1.01-0.21-2.01-0.18-3,0.08c-0.99,0.26-1.89,0.93-2.7,2.01c-0.31,0.42-0.6,0.96-0.87,1.63
				c-0.27,0.67-0.39,1.42-0.36,2.25c0.03,0.83,0.26,1.69,0.7,2.59c0.44,0.9,1.23,1.76,2.35,2.6c0.76,0.57,1.67,1.08,2.72,1.54
				c1.05,0.46,2.14,0.8,3.27,1.01c1.13,0.22,2.26,0.26,3.39,0.13c1.13-0.13,2.19-0.48,3.18-1.05c1.01-0.6,1.97-1.39,2.88-2.36
				c0.91-0.98,2.03-2.4,3.37-4.27C171.48,440.04,170.12,439.55,168.5,438.75z"/>
			<path class="st9" d="M180.25,463.04c-0.36,0.64-0.8,1.24-1.29,1.78c-0.5,0.54-1.14,0.59-1.93,0.14
				c-0.43-0.24-0.71-0.51-0.83-0.81c-0.12-0.29-0.15-0.61-0.1-0.95s0.16-0.68,0.32-1.01c0.16-0.33,0.34-0.67,0.54-1.01l20.5-36.22
				c0.19-0.34,0.39-0.68,0.6-1.01c0.21-0.33,0.45-0.61,0.72-0.83c0.27-0.22,0.56-0.36,0.87-0.4s0.67,0.04,1.06,0.26
				c0.43,0.24,0.71,0.51,0.83,0.8c0.12,0.29,0.15,0.61,0.1,0.96c-0.05,0.34-0.17,0.69-0.34,1.04c-0.17,0.35-0.36,0.7-0.55,1.04
				L180.25,463.04z"/>
			<path class="st16" d="M387.18,457.62l-21.59-21.61l16.81,27.44c0.93,1.52,1.3,2.86,1.12,4.01c-0.18,1.15-0.8,2.06-1.87,2.71
				c-1.03,0.63-2.11,0.77-3.22,0.42c-1.11-0.35-2.14-1.29-3.08-2.83l-19.27-31.46c-1.06-1.74-1.35-3.17-0.86-4.3
				c0.49-1.13,1.47-2.15,2.93-3.04l2.38-1.46c1.43-0.88,2.55-1.38,3.36-1.5c0.81-0.13,1.59,0.07,2.33,0.59
				c0.74,0.51,1.8,1.45,3.17,2.8l18.84,18.41l-7.84-25.15c-0.58-1.83-0.93-3.2-1.05-4.09c-0.12-0.9,0.06-1.68,0.54-2.34
				c0.48-0.67,1.43-1.44,2.86-2.31l2.38-1.45c1.46-0.9,2.81-1.31,4.04-1.23c1.23,0.08,2.38,0.99,3.44,2.72l19.27,31.46
				c0.93,1.52,1.31,2.86,1.12,4.01c-0.18,1.15-0.81,2.06-1.9,2.73c-1.02,0.62-2.08,0.75-3.2,0.4c-1.12-0.36-2.14-1.3-3.07-2.82
				l-16.81-27.45l9.45,29.05c0.61,1.89,1.03,3.29,1.25,4.21c0.22,0.92,0.19,1.9-0.09,2.95c-0.28,1.04-1.02,1.93-2.21,2.66
				c-0.9,0.55-1.78,0.81-2.65,0.78c-0.87-0.03-1.67-0.25-2.4-0.67c-0.73-0.42-1.43-0.95-2.1-1.6
				C388.59,459,387.89,458.33,387.18,457.62z"/>
			<path class="st16" d="M431.13,413.02l-11.5,11.37c1.4,1.39,2.89,2.36,4.48,2.91s3.08,0.67,4.48,0.35
				c1.41-0.32,2.63-0.99,3.68-2.03c0.7-0.7,1.26-1.42,1.67-2.17c0.41-0.75,0.7-1.58,0.88-2.49c0.18-0.91,0.29-1.8,0.33-2.68
				c0.04-0.88,0.07-2.04,0.09-3.49c0.03-0.57,0.33-1.13,0.89-1.69c0.6-0.6,1.26-0.91,1.98-0.93c0.72-0.02,1.39,0.28,2.01,0.92
				c0.55,0.56,0.99,1.42,1.31,2.57c0.32,1.16,0.4,2.49,0.24,4.01c-0.16,1.52-0.65,3.13-1.48,4.84c-0.82,1.71-2.06,3.38-3.71,5.01
				c-3.78,3.73-7.83,5.51-12.16,5.32c-4.33-0.19-8.41-2.22-12.25-6.09c-1.8-1.82-3.22-3.77-4.25-5.84
				c-1.03-2.07-1.59-4.15-1.71-6.25c-0.11-2.09,0.26-4.16,1.12-6.19c0.86-2.03,2.17-3.92,3.94-5.66c2.3-2.27,4.77-3.71,7.42-4.32
				c2.65-0.61,5.18-0.51,7.6,0.29c2.41,0.8,4.45,2.04,6.1,3.71c1.54,1.55,2.11,2.98,1.72,4.28
				C433.63,410.09,432.67,411.5,431.13,413.02z M416.17,420.89l10.66-10.54c-2.23-1.97-4.34-3.01-6.31-3.13
				c-1.98-0.12-3.73,0.58-5.27,2.1c-1.47,1.45-2.14,3.17-2.03,5.16C413.33,416.48,414.31,418.61,416.17,420.89z"/>
			<path class="st16" d="M433.44,386.65l0.87,0.59c-0.85-2.33-1.18-4.48-0.98-6.44c0.19-1.96,0.92-3.86,2.18-5.72
				c1.23-1.8,2.73-3.13,4.52-3.99c1.79-0.86,3.68-1.12,5.66-0.8c1.18,0.14,2.33,0.5,3.44,1.05c1.11,0.56,2.45,1.38,4.03,2.45
				l13.36,9.09c1.44,0.98,2.31,2.03,2.62,3.16c0.31,1.13,0.13,2.19-0.56,3.19c-0.69,1.02-1.63,1.59-2.82,1.71
				c-1.18,0.12-2.48-0.3-3.88-1.25l-11.96-8.14c-2.37-1.61-4.39-2.53-6.07-2.76c-1.68-0.23-3.16,0.59-4.43,2.46
				c-0.83,1.22-1.2,2.59-1.12,4.11c0.08,1.52,0.63,2.97,1.64,4.34c0.84,1.06,2.73,2.59,5.65,4.58l8.99,6.12
				c1.46,0.99,2.33,2.05,2.62,3.19c0.29,1.14,0.09,2.22-0.6,3.23c-0.67,0.98-1.6,1.54-2.78,1.66c-1.19,0.12-2.48-0.29-3.88-1.25
				l-20.74-14.12c-1.37-0.93-2.19-1.91-2.48-2.94c-0.29-1.03-0.1-2.03,0.57-3.02c0.41-0.6,0.93-1.04,1.55-1.32
				c0.63-0.28,1.34-0.36,2.13-0.25C431.75,385.72,432.58,386.07,433.44,386.65z"/>
			<path class="st16" d="M445.36,359.78l0.39-0.82l-4.71-2.23c-1.27-0.6-2.24-1.1-2.93-1.5c-0.69-0.4-1.22-0.87-1.6-1.41
				c-0.4-0.55-0.64-1.17-0.71-1.88c-0.08-0.71,0.05-1.4,0.37-2.07c0.45-0.95,1.23-1.63,2.34-2.04c0.74-0.28,1.5-0.31,2.28-0.11
				c0.78,0.2,1.84,0.62,3.16,1.24l5.35,2.53l1.3-2.74c0.5-1.06,1.15-1.74,1.94-2.05c0.79-0.31,1.6-0.27,2.42,0.12
				c1.05,0.5,1.61,1.25,1.65,2.24c0.05,0.99-0.28,2.23-0.98,3.71l-0.66,1.4l14.43,6.83c1.23,0.58,2.19,0.98,2.89,1.22
				c0.7,0.23,1.34,0.27,1.92,0.1c0.58-0.16,1.06-0.64,1.44-1.45c0.21-0.44,0.41-1.07,0.6-1.89c0.19-0.83,0.39-1.45,0.58-1.87
				c0.28-0.6,0.8-1.02,1.53-1.27c0.74-0.24,1.48-0.19,2.23,0.16c1.26,0.6,1.92,1.71,1.97,3.35c0.05,1.63-0.51,3.68-1.68,6.14
				c-1.11,2.34-2.35,3.91-3.75,4.73c-1.39,0.81-2.91,1.07-4.54,0.75c-1.63-0.31-3.67-1.05-6.1-2.2l-15.06-7.13l-0.47,0.99
				c-0.51,1.08-1.17,1.77-1.97,2.08c-0.8,0.31-1.62,0.27-2.44-0.12c-0.82-0.39-1.36-1.01-1.61-1.85
				C444.68,361.9,444.82,360.91,445.36,359.78z"/>
			<path class="st16" d="M478.77,324.82l-4.58,15.51c1.9,0.54,3.67,0.67,5.32,0.39c1.65-0.28,3.02-0.9,4.1-1.86
				c1.08-0.95,1.82-2.14,2.24-3.55c0.28-0.95,0.42-1.85,0.42-2.7c0-0.85-0.14-1.72-0.43-2.6c-0.28-0.88-0.61-1.72-1-2.51
				s-0.92-1.82-1.61-3.09c-0.25-0.51-0.26-1.15-0.04-1.91c0.24-0.81,0.67-1.4,1.28-1.77c0.62-0.37,1.35-0.42,2.21-0.17
				c0.75,0.22,1.55,0.76,2.39,1.62c0.84,0.86,1.56,1.99,2.15,3.4c0.59,1.41,0.94,3.06,1.04,4.95c0.1,1.89-0.17,3.96-0.83,6.18
				c-1.5,5.09-4.2,8.61-8.08,10.53c-3.88,1.93-8.44,2.12-13.67,0.58c-2.46-0.73-4.64-1.75-6.54-3.07c-1.9-1.32-3.4-2.87-4.51-4.65
				c-1.11-1.78-1.78-3.77-2.01-5.96s0.01-4.48,0.71-6.86c0.91-3.1,2.38-5.55,4.41-7.37c2.03-1.81,4.29-2.95,6.79-3.41
				c2.5-0.46,4.88-0.36,7.14,0.31c2.09,0.62,3.28,1.59,3.57,2.92C479.54,321.05,479.38,322.75,478.77,324.82z M469.46,338.94
				l4.24-14.38c-2.9-0.65-5.25-0.54-7.04,0.31c-1.79,0.85-2.99,2.31-3.6,4.39c-0.58,1.98-0.34,3.81,0.71,5.5
				C464.85,336.45,466.74,337.84,469.46,338.94z"/>
		</g>
		<g>
			<g>
				<path class="st9" d="M134.92,182.04c0.65,0.82,1.1,1.75,1.35,2.8c0.26,1.05,0.28,2.2,0.08,3.44c-0.21,1.24-0.74,2.56-1.6,3.96
					c-2.24,3.63-5.06,5.25-8.44,4.86c-0.4-0.04-0.93-0.14-1.59-0.29c-0.66-0.15-1.27-0.4-1.82-0.73c-0.31-0.19-0.49-0.44-0.56-0.75
					c-0.06-0.31-0.03-0.58,0.12-0.81c0.21-0.33,0.44-0.49,0.72-0.46c0.27,0.02,0.48,0.05,0.61,0.07c0.63,0.16,1.17,0.3,1.61,0.41
					c0.44,0.11,0.84,0.2,1.18,0.25c0.34,0.06,0.68,0.08,1,0.08c0.32,0,0.66-0.05,1.02-0.15c0.94-0.25,1.76-0.7,2.46-1.34
					c0.7-0.64,1.26-1.31,1.7-2.02c0.43-0.69,0.77-1.45,1.04-2.28c0.27-0.83,0.4-1.66,0.39-2.5c-0.01-0.84-0.2-1.64-0.58-2.41
					c-0.38-0.76-1-1.42-1.88-1.96c-0.85-0.53-1.65-0.79-2.4-0.79c-0.74,0-1.42,0.15-2.04,0.44c-0.62,0.29-1.17,0.65-1.66,1.07
					c-0.49,0.42-0.89,0.79-1.21,1.11c-0.88,0.9-1.62,1.63-2.2,2.21c-0.58,0.58-1.1,1.05-1.54,1.43c-0.44,0.38-0.84,0.67-1.18,0.89
					c-0.35,0.22-0.74,0.41-1.17,0.57c-0.33,0.14-0.71,0.26-1.16,0.37c-0.44,0.1-0.92,0.14-1.44,0.13c-0.52-0.02-1.07-0.1-1.65-0.26
					c-0.58-0.16-1.19-0.43-1.83-0.83c-0.85-0.53-1.58-1.17-2.16-1.94c-0.59-0.76-0.98-1.63-1.19-2.59c-0.21-0.96-0.21-2.01,0-3.13
					c0.21-1.12,0.7-2.31,1.47-3.56c0.24-0.4,0.58-0.87,1.01-1.41c0.43-0.54,0.94-1.05,1.55-1.51c0.6-0.46,1.3-0.85,2.08-1.16
					c0.78-0.31,1.65-0.45,2.59-0.41c0.59,0.02,1.17,0.12,1.72,0.3c0.55,0.18,0.96,0.36,1.22,0.52c0.42,0.26,0.67,0.55,0.75,0.88
					c0.09,0.33,0.05,0.61-0.1,0.87c-0.23,0.37-0.53,0.53-0.91,0.48c-0.37-0.06-0.7-0.13-0.98-0.21c-1.02-0.31-1.92-0.4-2.71-0.27
					c-0.79,0.13-1.48,0.38-2.07,0.75c-0.59,0.37-1.09,0.79-1.49,1.27c-0.4,0.47-0.71,0.89-0.93,1.24c-0.48,0.77-0.79,1.54-0.95,2.31
					c-0.16,0.77-0.18,1.49-0.07,2.18c0.11,0.68,0.35,1.31,0.73,1.87c0.38,0.57,0.86,1.03,1.45,1.39c0.79,0.49,1.54,0.71,2.26,0.68
					c0.72-0.03,1.39-0.2,2.02-0.51c0.63-0.3,1.21-0.7,1.75-1.19c0.54-0.49,1.02-0.95,1.44-1.38c0.75-0.77,1.39-1.41,1.92-1.9
					c0.53-0.49,0.99-0.9,1.39-1.22c0.39-0.32,0.75-0.57,1.07-0.77c0.32-0.19,0.63-0.38,0.95-0.56c0.7-0.35,1.38-0.55,2.04-0.62
					c0.66-0.07,1.29-0.05,1.87,0.05c0.59,0.1,1.11,0.26,1.58,0.46c0.47,0.2,0.84,0.39,1.12,0.57
					C133.53,180.56,134.28,181.23,134.92,182.04z"/>
				<path class="st9" d="M143.51,164.41l3.7,7.28c0.27,0.51,0.44,0.92,0.52,1.23c0.08,0.31-0.02,0.63-0.32,0.95
					c-0.23,0.25-0.52,0.38-0.85,0.39c-0.34,0.01-0.61-0.09-0.82-0.28c-0.15-0.14-0.27-0.28-0.36-0.43
					c-0.09-0.15-0.23-0.43-0.42-0.83l-11.34-22.84c-0.37-0.7-0.6-1.27-0.7-1.69c-0.1-0.42,0.04-0.84,0.42-1.26
					c0.38-0.42,0.77-0.59,1.18-0.52c0.41,0.07,0.99,0.24,1.76,0.51l23.97,8.93c0.42,0.15,0.71,0.27,0.88,0.36
					c0.17,0.09,0.33,0.2,0.48,0.34c0.19,0.17,0.31,0.44,0.37,0.79c0.06,0.36-0.05,0.68-0.33,0.99c-0.28,0.31-0.59,0.43-0.92,0.38
					c-0.33-0.06-0.77-0.19-1.32-0.39l-7.6-2.97L143.51,164.41z M149.64,154.51l-13.99-5.42l6.78,13.29L149.64,154.51z"/>
				<path class="st9" d="M182.49,137.86c0.16-0.12,0.33-0.24,0.51-0.36c0.18-0.12,0.37-0.21,0.56-0.27c0.18-0.06,0.37-0.06,0.55,0
					c0.18,0.06,0.36,0.2,0.53,0.42c0.17,0.23,0.26,0.43,0.26,0.62c0,0.19-0.04,0.37-0.14,0.54c-0.1,0.17-0.23,0.33-0.39,0.46
					c-0.16,0.14-0.33,0.27-0.5,0.4l-9.8,7.41c-0.37,0.28-0.68,0.49-0.93,0.63c-0.25,0.14-0.48,0.19-0.69,0.16
					c-0.21-0.03-0.42-0.16-0.63-0.37c-0.21-0.21-0.46-0.51-0.75-0.91l-14.32-18.94c-0.14-0.19-0.28-0.38-0.43-0.6
					c-0.15-0.21-0.26-0.43-0.33-0.65s-0.08-0.43-0.02-0.64c0.06-0.21,0.21-0.4,0.44-0.58c0.25-0.19,0.49-0.29,0.7-0.29
					c0.21,0,0.42,0.06,0.62,0.18c0.2,0.12,0.38,0.28,0.55,0.48c0.17,0.2,0.32,0.39,0.46,0.57l14.28,18.88L182.49,137.86z"/>
				<path class="st9" d="M192.85,122.37c0.19,0.37,0.42,0.8,0.7,1.29c0.28,0.49,0.62,0.98,1.03,1.45c0.41,0.47,0.89,0.91,1.45,1.3
					c0.56,0.39,1.19,0.67,1.91,0.83c0.71,0.16,1.52,0.17,2.42,0.05c0.9-0.13,1.91-0.47,3.02-1.04c1.27-0.65,2.23-1.38,2.91-2.19
					c0.67-0.82,1.1-1.69,1.28-2.6s0.15-1.88-0.09-2.88c-0.24-1.01-0.61-2.01-1.13-3.02l-7.27-14.28c-0.11-0.21-0.21-0.43-0.33-0.68
					c-0.11-0.25-0.18-0.48-0.21-0.7c-0.03-0.22,0-0.43,0.09-0.63c0.09-0.2,0.28-0.38,0.56-0.52c0.28-0.14,0.53-0.19,0.75-0.14
					c0.22,0.05,0.41,0.15,0.56,0.3c0.16,0.15,0.3,0.34,0.43,0.56c0.13,0.23,0.25,0.45,0.37,0.68l7.15,14.04
					c1.52,2.98,1.99,5.67,1.4,8.06c-0.58,2.39-2.4,4.37-5.46,5.92c-1.62,0.82-3.1,1.32-4.46,1.49s-2.6,0.04-3.73-0.4
					c-1.13-0.44-2.16-1.16-3.11-2.17c-0.94-1.01-1.8-2.27-2.57-3.78l-7.15-14.04c-0.1-0.21-0.21-0.43-0.33-0.68
					c-0.11-0.25-0.18-0.48-0.21-0.7c-0.03-0.22,0-0.43,0.09-0.63c0.09-0.2,0.27-0.38,0.56-0.52c0.28-0.14,0.54-0.19,0.75-0.14
					c0.22,0.05,0.41,0.15,0.57,0.3c0.16,0.15,0.3,0.34,0.43,0.56c0.13,0.22,0.25,0.45,0.37,0.68L192.85,122.37z"/>
				<path class="st9" d="M228.59,88.68c0.73-0.2,1.53-0.38,2.38-0.55s1.83-0.21,2.92-0.14c1.59,0.13,2.96,0.58,4.13,1.37
					c1.17,0.79,2.17,1.72,2.99,2.78c0.83,1.07,1.49,2.2,2,3.4c0.51,1.2,0.89,2.27,1.15,3.21c0.16,0.57,0.31,1.24,0.46,2.02
					c0.15,0.77,0.25,1.59,0.31,2.46c0.06,0.87,0.05,1.76-0.03,2.67c-0.08,0.92-0.27,1.82-0.58,2.7c-0.3,0.88-0.74,1.73-1.3,2.54
					c-0.57,0.81-1.3,1.52-2.2,2.14c-0.77,0.53-1.55,0.95-2.35,1.24c-0.8,0.3-1.65,0.57-2.58,0.83l-6.56,1.8
					c-0.45,0.12-0.82,0.2-1.1,0.24c-0.28,0.04-0.51,0-0.7-0.11c-0.18-0.11-0.33-0.3-0.44-0.58c-0.11-0.27-0.24-0.65-0.36-1.12
					l-6.15-22.42c-0.13-0.47-0.21-0.86-0.24-1.15c-0.03-0.3,0-0.54,0.1-0.73c0.1-0.19,0.28-0.34,0.53-0.44
					c0.25-0.11,0.6-0.23,1.05-0.35L228.59,88.68z M229.13,114.83l5.99-1.65c0.24-0.06,0.55-0.16,0.93-0.28s0.8-0.27,1.23-0.44
					c0.43-0.17,0.86-0.37,1.29-0.59c0.42-0.22,0.81-0.49,1.15-0.8c0.86-0.74,1.5-1.59,1.9-2.54c0.4-0.95,0.64-1.96,0.72-3.02
					c0.08-1.06,0.03-2.15-0.13-3.25c-0.16-1.1-0.39-2.18-0.67-3.22c-0.14-0.52-0.38-1.22-0.71-2.11c-0.33-0.88-0.79-1.76-1.37-2.65
					c-0.58-0.88-1.31-1.69-2.19-2.42c-0.88-0.73-1.93-1.21-3.16-1.44c-0.88-0.16-1.77-0.17-2.66-0.03c-0.89,0.14-1.7,0.31-2.43,0.51
					l-5.99,1.64L229.13,114.83z"/>
				<path class="st9" d="M305.29,83.88c0.29-0.63,0.53-1.05,0.71-1.29c0.19-0.23,0.55-0.33,1.09-0.29c0.54,0.04,0.96,0.08,1.28,0.13
					c0.31,0.05,0.56,0.14,0.72,0.28c0.16,0.14,0.26,0.37,0.3,0.68c0.04,0.31,0.04,0.74,0,1.28l-1.61,23.69
					c-0.02,0.23-0.04,0.47-0.07,0.73s-0.09,0.49-0.18,0.7c-0.09,0.21-0.22,0.38-0.4,0.49c-0.18,0.12-0.42,0.17-0.71,0.15
					c-0.32-0.02-0.56-0.1-0.72-0.24c-0.16-0.14-0.28-0.32-0.35-0.55c-0.07-0.22-0.1-0.46-0.08-0.72c0.02-0.26,0.03-0.51,0.05-0.77
					l1.97-23.01l-10.15,22.96c-0.24,0.55-0.45,0.96-0.66,1.23c-0.2,0.27-0.51,0.39-0.93,0.36c-0.47-0.03-0.77-0.2-0.93-0.49
					c-0.15-0.29-0.31-0.74-0.46-1.35l-6.81-24.07l-1.2,23.14c-0.02,0.23-0.04,0.47-0.07,0.71c-0.03,0.24-0.09,0.47-0.18,0.68
					c-0.09,0.21-0.22,0.38-0.4,0.5c-0.17,0.12-0.42,0.16-0.75,0.14c-0.3-0.02-0.54-0.1-0.71-0.24c-0.17-0.14-0.28-0.31-0.34-0.53
					c-0.06-0.21-0.09-0.44-0.09-0.7c0-0.26,0.01-0.5,0.03-0.73l1.62-23.73c0.02-0.33,0.05-0.64,0.08-0.9
					c0.03-0.27,0.1-0.5,0.22-0.68c0.11-0.18,0.29-0.32,0.52-0.41c0.23-0.09,0.55-0.12,0.96-0.09c0.6,0.04,0.98,0.07,1.14,0.1
					s0.3,0.07,0.42,0.12c0.24,0.15,0.4,0.31,0.48,0.48c0.09,0.17,0.21,0.56,0.36,1.17l6.38,22.73L305.29,83.88z"/>
				<path class="st9" d="M329.39,98.93l11.48,3.19c0.19,0.05,0.39,0.11,0.6,0.19c0.21,0.07,0.39,0.16,0.54,0.27
					c0.15,0.11,0.26,0.25,0.32,0.43c0.07,0.18,0.06,0.4-0.02,0.68c-0.08,0.27-0.19,0.47-0.34,0.59c-0.15,0.12-0.31,0.19-0.5,0.22
					c-0.19,0.03-0.39,0.02-0.6-0.03c-0.21-0.05-0.42-0.1-0.61-0.15l-11.48-3.2l-2.9,10.42l13.04,3.63c0.45,0.12,0.83,0.29,1.16,0.5
					c0.32,0.21,0.42,0.56,0.28,1.06c-0.08,0.27-0.19,0.47-0.34,0.59s-0.31,0.19-0.5,0.22c-0.19,0.03-0.39,0.02-0.6-0.03
					c-0.21-0.05-0.42-0.1-0.61-0.15l-13.43-3.74c-0.45-0.13-0.8-0.24-1.07-0.36c-0.26-0.11-0.44-0.26-0.54-0.45
					c-0.1-0.19-0.13-0.43-0.08-0.73c0.04-0.29,0.13-0.68,0.26-1.15l6.23-22.39c0.13-0.47,0.26-0.84,0.39-1.11
					c0.13-0.27,0.28-0.46,0.46-0.57c0.18-0.11,0.41-0.15,0.68-0.11c0.27,0.03,0.63,0.11,1.08,0.24l12.86,3.58
					c0.19,0.05,0.39,0.11,0.6,0.19c0.21,0.07,0.39,0.17,0.55,0.29s0.27,0.27,0.33,0.45c0.06,0.18,0.06,0.4-0.02,0.68
					c-0.08,0.3-0.2,0.51-0.35,0.63s-0.32,0.19-0.51,0.2c-0.19,0.01-0.4-0.01-0.61-0.07c-0.19-0.05-0.39-0.11-0.6-0.17l-12.47-3.47
					L329.39,98.93z"/>
				<path class="st9" d="M380.71,107.07c0.05-0.09,0.11-0.21,0.21-0.37c0.09-0.15,0.22-0.29,0.38-0.41c0.16-0.12,0.34-0.2,0.53-0.23
					c0.2-0.03,0.43,0.02,0.7,0.16c0.29,0.14,0.48,0.31,0.58,0.51c0.1,0.19,0.13,0.4,0.11,0.62c-0.03,0.22-0.09,0.44-0.2,0.68
					c-0.1,0.24-0.21,0.47-0.33,0.7l-10.63,21.15c-0.31,0.62-0.55,1.06-0.72,1.3c-0.17,0.25-0.42,0.41-0.77,0.5
					c-0.13,0.05-0.3,0.07-0.49,0.08c-0.19,0-0.41-0.06-0.65-0.18c-0.35-0.18-0.57-0.42-0.66-0.74c-0.09-0.32-0.17-0.83-0.26-1.53
					l-2.84-26.45L356,122.49c-0.1,0.21-0.21,0.43-0.33,0.66c-0.1,0.21-0.23,0.39-0.38,0.54c-0.15,0.16-0.33,0.26-0.55,0.31
					c-0.22,0.05-0.48-0.01-0.8-0.16c-0.29-0.14-0.48-0.31-0.58-0.51c-0.1-0.19-0.13-0.4-0.11-0.62c0.03-0.22,0.09-0.44,0.2-0.68
					s0.21-0.47,0.33-0.7l10.7-21.29c0.13-0.25,0.27-0.51,0.41-0.78c0.15-0.27,0.32-0.49,0.52-0.67s0.42-0.29,0.66-0.34
					c0.24-0.05,0.53,0.01,0.86,0.17c0.33,0.16,0.54,0.4,0.63,0.71s0.17,0.78,0.24,1.42l2.86,26.89L380.71,107.07z"/>
				<path class="st9" d="M391.86,144.2c-0.14,0.18-0.3,0.37-0.46,0.57c-0.17,0.2-0.34,0.36-0.54,0.49
					c-0.19,0.13-0.39,0.19-0.61,0.19c-0.21,0-0.45-0.1-0.7-0.29c-0.25-0.19-0.41-0.39-0.47-0.6c-0.06-0.21-0.05-0.41,0.01-0.62
					c0.07-0.21,0.17-0.42,0.32-0.63c0.15-0.21,0.3-0.42,0.46-0.62l14.29-18.67l-5.26-4.02c-0.17-0.13-0.35-0.27-0.51-0.42
					c-0.17-0.14-0.3-0.3-0.4-0.48c-0.1-0.17-0.15-0.36-0.15-0.56c0-0.2,0.09-0.42,0.28-0.66c0.19-0.24,0.38-0.4,0.58-0.46
					c0.2-0.06,0.4-0.06,0.59-0.01c0.19,0.05,0.38,0.14,0.56,0.26c0.18,0.12,0.36,0.25,0.54,0.39l12.5,9.57
					c0.18,0.13,0.35,0.27,0.51,0.42c0.17,0.14,0.3,0.3,0.4,0.48c0.1,0.17,0.15,0.36,0.15,0.55c0,0.2-0.09,0.42-0.28,0.66
					c-0.19,0.25-0.38,0.4-0.58,0.46c-0.2,0.06-0.4,0.06-0.59,0.01c-0.19-0.05-0.38-0.14-0.56-0.26c-0.18-0.12-0.36-0.25-0.54-0.39
					l-5.26-4.02L391.86,144.2z"/>
				<path class="st9" d="M413.99,154.18l-7.55,3.11c-0.53,0.22-0.95,0.37-1.27,0.42c-0.31,0.06-0.62-0.07-0.92-0.4
					c-0.23-0.25-0.34-0.55-0.32-0.88c0.02-0.34,0.13-0.6,0.34-0.8c0.15-0.14,0.3-0.25,0.46-0.33c0.16-0.08,0.44-0.19,0.86-0.35
					l23.68-9.46c0.73-0.31,1.31-0.5,1.74-0.57c0.43-0.07,0.84,0.11,1.22,0.52c0.38,0.41,0.52,0.82,0.42,1.22
					c-0.1,0.4-0.32,0.97-0.65,1.71l-10.83,23.17c-0.18,0.41-0.33,0.69-0.43,0.85c-0.1,0.16-0.22,0.31-0.37,0.45
					c-0.19,0.17-0.46,0.28-0.82,0.31c-0.36,0.03-0.68-0.11-0.96-0.41c-0.28-0.31-0.38-0.62-0.3-0.95c0.08-0.33,0.25-0.76,0.49-1.29
					l3.57-7.33L413.99,154.18z M423.36,161.08l6.53-13.51l-13.79,5.69L423.36,161.08z"/>
				<path class="st9" d="M437.29,195.14c0.1,0.17,0.21,0.35,0.32,0.54c0.11,0.19,0.18,0.38,0.23,0.57c0.04,0.19,0.03,0.37-0.04,0.55
					c-0.07,0.18-0.23,0.34-0.47,0.49s-0.45,0.22-0.64,0.21c-0.19-0.01-0.37-0.07-0.53-0.19c-0.16-0.11-0.31-0.26-0.43-0.42
					c-0.12-0.17-0.24-0.35-0.36-0.53L428.78,186c-0.25-0.39-0.44-0.72-0.55-0.98c-0.12-0.26-0.15-0.49-0.1-0.7
					c0.05-0.21,0.19-0.4,0.42-0.6c0.23-0.19,0.55-0.42,0.96-0.68l20.03-12.75c0.2-0.12,0.41-0.25,0.63-0.38
					c0.22-0.13,0.45-0.22,0.67-0.27c0.22-0.06,0.44-0.04,0.64,0.03c0.2,0.07,0.38,0.24,0.54,0.48c0.17,0.27,0.25,0.51,0.23,0.73
					c-0.02,0.21-0.09,0.41-0.23,0.61c-0.14,0.19-0.31,0.36-0.52,0.51c-0.21,0.15-0.41,0.28-0.61,0.41l-19.97,12.71L437.29,195.14z"
					/>
			</g>
		</g>
		<circle class="st27" cx="93.62" cy="247.17" r="6.5"/>
		<circle class="st27" cx="467.17" cy="247.17" r="6.5"/>
	</g>
</g>
</svg>
