<?xml version="1.0" encoding="utf-8"?>
<!-- Generator: Adobe Illustrator 24.0.1, SVG Export Plug-In . SVG Version: 6.00 Build 0)  -->
<svg version="1.1" xmlns="http://www.w3.org/2000/svg" xmlns:xlink="http://www.w3.org/1999/xlink" x="0px" y="0px"
	 viewBox="0 0 566.93 566.93" style="enable-background:new 0 0 566.93 566.93;" xml:space="preserve">
<style type="text/css">
	.st0{display:none;}
	.st1{display:inline;fill:#FFFFFF;}
	.st2{clip-path:url(#SVGID_2_);fill:#35A8E0;}
	.st3{clip-path:url(#SVGID_2_);fill:#FFFFFF;}
	.st4{clip-path:url(#SVGID_2_);}
	.st5{fill:#F1B2DF;}
	.st6{fill:#4528AF;}
	.st7{fill:url(#SVGID_3_);}
	.st8{fill:#009FE3;}
	.st9{fill:#FFFFFF;}
	.st10{fill:url(#SVGID_4_);}
	.st11{fill:url(#SVGID_5_);}
	.st12{clip-path:url(#SVGID_7_);fill:#00659D;}
	.st13{clip-path:url(#SVGID_7_);fill:#FFFFFF;}
	.st14{clip-path:url(#SVGID_7_);}
	.st15{fill:#FC8890;}
	.st16{fill:#00ABBC;}
	.st17{fill:#00659D;}
	.st18{fill:#E76F3D;}
	.st19{opacity:0.3;clip-path:url(#SVGID_9_);}
	.st20{fill:#9BCFE0;}
	.st21{fill:#FEAB6B;}
	.st22{fill:#333333;}
	.st23{fill:none;stroke:#E76F3D;stroke-width:5;stroke-linecap:round;stroke-linejoin:round;stroke-miterlimit:10;}
	.st24{clip-path:url(#SVGID_11_);fill:#00659D;}
	.st25{clip-path:url(#SVGID_11_);fill:#FFFFFF;}
	.st26{clip-path:url(#SVGID_11_);}
	.st27{fill:#E2C58A;}
	.st28{clip-path:url(#SVGID_13_);fill:#00659D;}
	.st29{clip-path:url(#SVGID_13_);fill:#FFFFFF;}
	.st30{clip-path:url(#SVGID_13_);}
	.st31{clip-path:url(#SVGID_15_);fill:#00659D;}
	.st32{clip-path:url(#SVGID_15_);fill:#FFFFFF;}
	.st33{clip-path:url(#SVGID_15_);}
	.st34{clip-path:url(#SVGID_17_);fill:#00659D;}
	.st35{clip-path:url(#SVGID_17_);fill:#FFFFFF;}
	.st36{clip-path:url(#SVGID_17_);}
</style>
<g id="Capa_2" class="st0">
</g>
<g id="Capa_1">
	<g>
		<g>
			<defs>
				<circle id="SVGID_14_" cx="132.31" cy="283.46" r="101.64"/>
			</defs>
			<use xlink:href="#SVGID_14_"  style="overflow:visible;fill:#FFFFFF;"/>
			<clipPath id="SVGID_2_">
				<use xlink:href="#SVGID_14_"  style="overflow:visible;"/>
			</clipPath>
			<circle style="clip-path:url(#SVGID_2_);fill:#00659D;" cx="132.31" cy="283.46" r="101.64"/>
			<path class="st3" d="M195.81,252.11c-6.08-28.94-32.18-50.52-63.15-49.55c-33.29,1.04-60.1,28.45-60.47,61.75
				c-0.15,13.44,2.71,32.15,9.35,42.69c9.21,14.63,13.55,17.34,13.55,17.34v78.3c0,2.34,5.7,4.23,27.35,4.23
				c21.65,0,39.2-1.89,39.2-4.23V327.5h17.73c5.31,0,9.82-3.89,10.59-9.14l3.81-25.75h11.93L195.81,252.11z"/>
			<g class="st4">
				<path class="st15" d="M173.47,251.83c-0.01,0.4,0.08,0.79,0.24,1.16c0.17,0.39,0.37,0.75,0.6,1.1c0.22,0.33,0.42,0.67,0.6,1.03
					c0.47,0.96,0.82,1.96,1.16,2.97c0.03,0.1,0.07,0.2,0.1,0.29c0.12-0.02,0.13-0.11,0.16-0.17c0.15-0.29,0.29-0.57,0.42-0.87
					c0.87-2.01,1.07-4.06,0.4-6.17c-0.29-0.9-0.62-1.78-1.03-2.64c-0.44-0.93-0.63-1.91-0.52-2.95c0.06-0.58,0.17-1.15,0.25-1.72
					c0.15-1.08,0.25-2.16,0.1-3.25c-0.14-1.01-0.44-1.95-1.08-2.76c-0.33-0.41-0.69-0.79-1.1-1.13c-0.47-0.39-0.84-0.86-1.12-1.4
					c-0.14-0.29-0.29-0.58-0.44-0.86c-0.34-0.67-0.72-1.32-1.2-1.9c-0.35-0.42-0.75-0.8-1.17-1.15c-0.53-0.44-1.16-0.7-1.77-0.97
					c-0.81-0.36-1.68-0.49-2.56-0.35c-1.98,0.33-3.66,1.2-4.97,2.75c-0.39,0.46-0.73,0.96-1.04,1.47c-0.82,1.36-1.3,2.85-1.64,4.39
					c-0.23,1.03-0.32,2.06-0.2,3.11c0.05,0.44,0.07,0.89,0.11,1.34c-0.36,0.05-0.35,0.05-0.55-0.17c-0.21-0.24-0.35-0.51-0.45-0.81
					c-0.31-0.91-0.51-1.84-0.58-2.8c-0.03-0.32-0.03-0.65,0.03-0.96c0.36-1.78,0.95-3.48,1.9-5.05c1.27-2.12,3.01-3.68,5.38-4.5
					c1.04-0.36,2.09-0.56,3.2-0.48c0.23,0.02,0.46,0.09,0.71,0.07c0-0.04,0.01-0.06,0.01-0.07c-0.02-0.04-0.03-0.08-0.05-0.12
					c-0.69-1.39-1.68-2.54-2.9-3.5c-0.91-0.72-1.95-1.22-3.04-1.61c-0.88-0.31-1.51-0.87-1.94-1.69c-0.19-0.37-0.41-0.73-0.62-1.09
					c-0.68-1.15-1.59-2.08-2.71-2.8c-1.84-1.18-3.84-1.69-6.02-1.41c-0.42,0.05-0.84,0.07-1.25-0.05c-0.45-0.13-0.86-0.34-1.25-0.6
					c-1.19-0.81-2.5-1.32-3.9-1.63c-1.15-0.26-2.3-0.32-3.45-0.05c-1.87,0.44-3.21,1.57-4.08,3.24c-0.66,1.26-0.95,2.62-0.97,4.04
					c-0.02,2.13,0.3,4.22,0.8,6.29c0.37,1.49,0.77,2.98,1.03,4.49c0.05,0.27,0.06,0.55,0.15,0.81c0.03-0.01,0.04-0.01,0.05-0.02
					c0.03-0.03,0.06-0.06,0.09-0.09c0.48-0.53,1.07-0.9,1.73-1.14c0.46-0.17,0.94-0.23,1.43-0.17c0.24,0.03,0.49,0.08,0.63,0.31
					c-0.06,0.23-0.22,0.35-0.38,0.48c-0.29,0.22-0.63,0.38-0.96,0.53c-0.96,0.43-1.74,1.05-2.29,1.96c-0.07,0.12-0.11,0.22-0.1,0.36
					c0.02,0.37,0.04,0.73,0.05,1.1c0.03,1,0,2-0.04,3c-0.06,1.52-0.14,3.03-0.31,4.54c-0.04,0.39-0.09,0.78-0.14,1.23
					c0.22-0.27,0.41-0.49,0.59-0.71c1.33-1.55,3.04-2.01,5-1.77c0.36,0.04,0.71,0.15,0.99,0.44c-0.16,0.22-0.38,0.32-0.61,0.42
					c-0.33,0.14-0.68,0.19-1.03,0.24c-1.45,0.2-2.6,0.9-3.5,2.05c-0.72,0.91-1.27,1.92-1.64,3.02c-0.16,0.48-0.3,0.96-0.46,1.44
					c-0.23,0.72-0.41,1.45-0.4,2.21c0,0.1-0.01,0.19-0.02,0.29c-0.1,1.31-0.06,2.62,0,3.93c0.05,1.08,0.22,2.14,0.38,3.2
					c0.04,0.27,0.04,0.54,0.13,0.81c0.09-0.04,0.11-0.12,0.15-0.18c0.25-0.41,0.53-0.81,0.84-1.19c0.57-0.69,1.21-1.28,2.02-1.68
					c0.24-0.12,0.5-0.21,0.77-0.22c0.21-0.01,0.45-0.04,0.57,0.19c0.11,0.23-0.03,0.41-0.16,0.59c-0.22,0.29-0.49,0.51-0.75,0.75
					c-0.81,0.75-1.55,1.55-2.1,2.52c-0.34,0.59-0.61,1.21-0.94,1.8c-0.42,0.76-0.71,1.56-0.91,2.4c-0.26,1.09-0.5,2.18-0.6,3.3
					c-0.12,1.27,0,2.53,0.21,3.79c0.23,1.39,0.73,2.67,1.57,3.81c0.29,0.4,0.58,0.8,0.84,1.22c0.15,0.25,0.24,0.51,0.3,0.8
					c-1,0.24-1.66-0.36-2.33-0.89c-0.03,0.02-0.05,0.02-0.05,0.03c-0.22,1.02-0.3,2.04-0.14,3.08c0.08,0.56,0.24,1.09,0.56,1.57
					c0.42,0.63,1.01,0.91,1.77,0.79c0.46-0.07,0.9-0.21,1.32-0.4c0.43-0.19,0.86-0.39,1.3-0.57c0.63-0.26,1.29-0.41,1.98-0.34
					c0.45,0.05,0.9,0.11,1.34,0.22c1.11,0.27,2.21,0.55,3.35,0.64c1.15,0.09,2.28,0,3.37-0.41c0.66-0.25,1.31-0.54,1.95-0.85
					c0.96-0.48,1.97-0.73,3.05-0.71c0.78,0.01,1.57,0.01,2.36,0c1.22-0.02,2.43-0.11,3.62-0.38c3.1-0.71,5.95-1.94,8.41-4.02
					c1.46-1.24,2.59-2.73,3.38-4.46c1.14-2.5,1.78-5.12,1.76-7.9c-0.02-1.99-0.28-3.92-0.97-5.79c-0.41-1.1-0.84-2.19-1.51-3.16
					c-0.14-0.2-0.25-0.43-0.36-0.65c-0.43-0.83-0.6-1.71-0.54-2.65c0.06-0.84,0.11-1.67,0.02-2.51c-0.09-0.9-0.26-1.79-0.61-2.63
					c-0.53-1.29-1.44-2.28-2.53-3.12c-0.48-0.37-1.01-0.53-1.62-0.55c-0.53-0.02-1.01,0.19-1.51,0.19
					c-0.07,0.06-0.07,0.13-0.08,0.19c-0.12,0.46-0.28,0.9-0.49,1.33c-0.27,0.54-0.63,1-1.12,1.36c-0.22,0.16-0.45,0.29-0.73,0.32
					c-0.18,0.01-0.36-0.01-0.54,0.05c-0.1,0.03-0.2,0-0.25-0.1c-0.04-0.09,0-0.17,0.06-0.23c0.07-0.07,0.15-0.12,0.17-0.22
					c0.07-0.24,0.21-0.45,0.33-0.66c0.24-0.4,0.45-0.81,0.64-1.23c0.43-0.98,0.62-2.01,0.51-3.08c-0.06-0.57-0.22-1.12-0.41-1.66
					c-0.09-0.25-0.19-0.51-0.22-0.77c-0.04-0.35,0.15-0.66,0.45-0.78c0.29-0.12,0.62-0.03,0.84,0.23c0.1,0.12,0.17,0.25,0.23,0.39
					c0.44,0.92,0.67,1.9,0.75,2.92c0.01,0.08-0.03,0.17,0.08,0.24c0.47-0.14,0.96-0.14,1.46-0.13c0.81,0.02,1.54,0.26,2.21,0.71
					c0.41,0.28,0.79,0.6,1.15,0.94c0.94,0.9,1.72,1.92,2.19,3.15c0.62,1.6,0.81,3.27,0.72,4.97
					C173.5,251.05,173.48,251.44,173.47,251.83z M143.06,223.59c-0.13-0.22-0.22-0.47-0.29-0.71c-0.17-0.52-0.36-1.03-0.58-1.54
					c-0.3-0.68-0.7-1.28-1.24-1.79c-0.15-0.14-0.29-0.29-0.4-0.47c-0.22-0.34-0.08-0.62,0.33-0.65c0.22-0.01,0.43,0.03,0.63,0.11
					c0.45,0.2,0.82,0.51,1.15,0.87c0.71,0.78,1.16,1.7,1.47,2.69c0.05,0.16,0.11,0.33,0.17,0.49c0.01,0.03,0.04,0.05,0.06,0.09
					c0.26-0.12,0.52-0.26,0.79-0.37c0.97-0.39,1.96-0.55,3-0.36c0.9,0.17,1.65,0.6,2.26,1.27c0.88,0.96,1.34,2.11,1.53,3.38
					c0.04,0.28,0.07,0.57,0.11,0.88c0.17-0.07,0.25-0.2,0.35-0.3c0.83-0.83,1.78-1.49,2.9-1.88c0.3-0.1,0.59-0.19,0.91-0.13
					c0.34,0.06,0.57,0.25,0.62,0.53c0.06,0.31-0.08,0.54-0.33,0.71c-0.13,0.09-0.27,0.18-0.42,0.24c-1.56,0.65-2.72,1.79-3.68,3.14
					c-0.54,0.77-0.98,1.59-1.35,2.45c-0.3,0.7-0.44,1.43-0.45,2.2c-0.02,0.86,0.03,1.72,0.09,2.58c0.02,0.28,0.01,0.56-0.05,0.83
					c-0.06,0.3-0.24,0.37-0.49,0.2c-0.23-0.16-0.42-0.37-0.54-0.63c-0.28-0.56-0.46-1.16-0.54-1.78c-0.15-1.18-0.16-2.36,0.24-3.51
					c0.25-0.72,0.56-1.42,0.95-2.08c0.13-0.22,0.19-0.45,0.21-0.7c0.04-0.64,0.12-1.29,0.06-1.93c-0.1-1.08-0.39-2.09-1.09-2.95
					c-0.47-0.58-1.06-0.93-1.81-1c-0.55-0.05-1.07,0.03-1.58,0.21c-0.31,0.11-0.62,0.25-0.92,0.38c-0.13,0.05-0.26,0.11-0.39,0.15
					C144.02,224.46,143.42,224.22,143.06,223.59z M150.72,259.29c0.32,0.52,0.69,1.01,1.06,1.5c0.11,0.15,0.22,0.29,0.29,0.47
					c0.08,0.23,0.14,0.47,0.37,0.62c0.07,0.05,0.1,0.14,0.05,0.23c-0.05,0.1-0.15,0.15-0.24,0.1c-0.28-0.14-0.58-0.13-0.88-0.19
					c-0.18-0.04-0.34-0.13-0.49-0.24c-0.61-0.42-1.13-0.93-1.55-1.54c-0.04-0.06-0.08-0.12-0.15-0.22
					c-0.52,0.25-0.96,0.57-1.37,0.94c-0.25,0.22-0.49,0.46-0.7,0.71c-0.29,0.35-0.67,0.6-0.96,0.94c-0.02,0.02-0.06,0.02-0.12,0.04
					c-0.19-0.42-0.37-0.83-0.26-1.31c0.13-0.56,0.44-1,0.84-1.38c0.5-0.48,1.05-0.88,1.67-1.2c0.08-0.04,0.18-0.06,0.25-0.17
					c-0.07-0.23-0.14-0.48-0.21-0.72c-0.33-1.32-0.3-2.64,0.1-3.95c0.41-1.35,1.04-2.59,2.04-3.61c0.36-0.36,0.75-0.68,1.19-0.92
					c0.23-0.12,0.47-0.22,0.72-0.27c0.22-0.05,0.43-0.03,0.63,0.05c0.27,0.11,0.44,0.31,0.45,0.61c0.01,0.29-0.12,0.51-0.39,0.61
					c-0.84,0.33-1.42,0.96-1.91,1.67c-0.6,0.87-1.05,1.83-1.26,2.87C149.6,256.49,149.9,257.94,150.72,259.29z M157.02,274.75
					c-0.22,0.04-0.45,0.05-0.68,0.08c-0.06,0.73-0.33,1.36-0.74,1.95c-0.23,0.34-0.51,0.64-0.87,0.85
					c-0.32,0.18-0.65,0.22-0.97-0.02c-0.09-0.31,0.02-0.59,0.2-0.84c0.24-0.33,0.47-0.67,0.65-1.04c0.11-0.21,0.2-0.43,0.26-0.66
					c0.03-0.11,0.06-0.23,0.03-0.36c-0.11-0.09-0.26-0.08-0.39-0.11c-1.33-0.28-2.58-0.74-3.7-1.53c-0.24-0.17-0.48-0.33-0.75-0.45
					c-0.33-0.15-0.37-0.15-0.62,0.11c-0.37,0.4-0.74,0.81-1.11,1.22c-0.37,0.39-0.75,0.77-1.16,1.12c-0.69,0.57-1.47,0.93-2.34,1.1
					c-0.28,0.06-0.56,0.03-0.81-0.11c-0.26-0.15-0.31-0.34-0.15-0.59c0.13-0.2,0.31-0.36,0.52-0.47c1.07-0.61,2.01-1.36,2.83-2.28
					c0.35-0.39,0.71-0.78,1.07-1.17c0.3-0.32,0.65-0.56,1.09-0.65c0.38-0.08,0.75-0.03,1.11,0.11c0.33,0.12,0.65,0.29,0.94,0.49
					c1.21,0.83,2.54,1.33,3.99,1.56c0.83,0.13,1.62,0.05,2.4-0.28c0.88-0.37,1.66-0.9,2.35-1.56c0.33-0.32,0.67-0.64,1.01-0.96
					c0.11-0.1,0.23-0.2,0.37-0.25c0.24-0.09,0.47-0.08,0.67,0.09c0.21,0.18,0.27,0.41,0.21,0.67c-0.05,0.2-0.15,0.38-0.26,0.55
					c-0.48,0.71-1.08,1.32-1.75,1.84C159.4,273.96,158.28,274.53,157.02,274.75z M170.26,267.56c0.36-1.7,0.28-3.4-0.16-5.08
					c-0.05-0.19-0.11-0.37-0.1-0.57c0-0.31,0.16-0.56,0.42-0.67c0.27-0.11,0.57-0.03,0.79,0.21c0.12,0.13,0.19,0.29,0.26,0.44
					c0.26,0.57,0.4,1.18,0.5,1.8c0.26,1.64,0.18,3.26-0.28,4.85c-0.26,0.89-0.7,1.68-1.33,2.37c-0.89,0.96-1.93,1.46-3.26,1.56
					c-0.29,0.66-0.65,1.27-1.08,1.84c-0.5,0.65-1.1,1.18-1.85,1.52c-0.75,0.34-1.51,0.37-2.29,0.09c-0.18-0.07-0.36-0.15-0.49-0.3
					c-0.2-0.23-0.14-0.5,0.13-0.64c0.16-0.08,0.33-0.1,0.5-0.12c1.33-0.14,2.35-0.78,3.07-1.89c0.18-0.28,0.36-0.56,0.53-0.85
					c0.07-0.11,0.14-0.21,0.28-0.25c0.52-0.16,0.99-0.4,1.44-0.71c0.4-0.27,0.81-0.53,1.2-0.81
					C169.5,269.66,170.03,268.7,170.26,267.56z M163.92,260.13c1.37-1.25,2.04-2.82,2.06-4.67c0.01-1.03-0.17-2.03-0.55-2.99
					c-0.08-0.2-0.19-0.39-0.28-0.58c-0.08-0.16-0.17-0.33-0.2-0.51c-0.05-0.28,0.03-0.51,0.27-0.68c0.22-0.16,0.46-0.16,0.7-0.03
					c0.2,0.11,0.36,0.27,0.5,0.45c0.33,0.41,0.55,0.87,0.72,1.36c0.71,2.04,0.73,4.07-0.09,6.08c-0.51,1.25-1.3,2.3-2.37,3.13
					c-0.07,0.05-0.15,0.09-0.2,0.19c0.05,0.09,0.11,0.19,0.17,0.29c0.39,0.63,0.73,1.29,0.94,2.01c0.2,0.71,0.24,1.42,0.05,2.13
					c-0.09,0.34-0.14,0.37-0.49,0.39c-0.05,0-0.11,0-0.16,0.01c-0.35,0.01-0.44-0.05-0.52-0.39c-0.14-0.6-0.3-1.19-0.5-1.77
					c-0.23-0.64-0.56-1.23-0.96-1.84c-1.77,0.91-3.64,1.18-5.59,1.01c-0.08,0.23-0.06,0.42-0.07,0.59c-0.03,0.55-0.02,1.1-0.11,1.64
					c-0.07,0.48-0.21,0.94-0.43,1.38c-0.17,0.33-0.39,0.59-0.74,0.73c-0.09,0.04-0.16,0.1-0.24,0.16c-0.08,0.06-0.17,0.1-0.27,0.03
					c-0.08-0.06-0.08-0.14-0.08-0.23c-0.04-0.76,0.13-1.52,0.15-2.28c0.01-0.57,0.03-1.14,0.05-1.71c0.01-0.19,0.02-0.39,0.05-0.58
					c0.13-0.74,0.6-1.21,1.34-1.34c0.25-0.05,0.51-0.05,0.77-0.05c0.97,0.02,1.94,0.01,2.88-0.28
					C161.89,261.46,163,260.96,163.92,260.13z M162.44,252.89c-0.05,0.12-0.16,0.13-0.28,0.1c-0.2-0.06-0.38-0.02-0.57,0.03
					c-0.47,0.12-0.96,0.08-1.44,0.12c-0.55,0.04-1.1,0.03-1.64,0.14c-0.06,0.01-0.13,0.01-0.18,0.07c-0.03,0.11,0,0.23,0.02,0.35
					c0.09,0.9,0.19,1.8,0.15,2.7c-0.01,0.3-0.05,0.6-0.11,0.89c-0.03,0.16-0.1,0.31-0.22,0.42c-0.16,0.16-0.35,0.16-0.51,0
					c-0.13-0.13-0.2-0.3-0.24-0.48c-0.14-0.63-0.19-1.27-0.26-1.91c-0.07-0.66-0.12-1.33-0.25-1.98c-0.13-0.65-0.15-1.32-0.32-1.96
					c-0.17-0.64-0.32-1.29-0.48-1.94c-0.05-0.19-0.09-0.38-0.09-0.57c0-0.29,0.14-0.51,0.36-0.59c0.25-0.09,0.49,0,0.67,0.26
					c0.16,0.23,0.28,0.49,0.37,0.75c0.25,0.69,0.43,1.39,0.58,2.11c0.02,0.11,0.05,0.23,0.08,0.34c0.13,0.04,0.23-0.01,0.33-0.03
					c0.83-0.12,1.67-0.16,2.5,0.03c0.43,0.1,0.81,0.27,1.07,0.65c0.08,0.12,0.22,0.17,0.34,0.24
					C162.42,252.69,162.5,252.77,162.44,252.89z"/>
				<path class="st15" d="M92.31,255.01c-0.2,0.31-0.39,0.62-0.55,0.95c-1.33,2.8-1.92,5.74-1.7,8.83c0.03,0.48,0.05,0.97,0.13,1.45
					c0.27,1.69,0.74,3.31,1.41,4.88c0.66,1.55,1.57,2.94,2.76,4.13c0.68,0.68,1.44,1.27,2.22,1.82c1.55,1.1,3.28,1.84,5.07,2.42
					c1.55,0.51,3.14,0.82,4.77,0.87c1.05,0.04,2.11,0.03,3.16,0.03c1.05-0.01,2.04,0.23,2.98,0.7c0.55,0.27,1.11,0.52,1.68,0.75
					c0.59,0.25,1.2,0.41,1.83,0.5c1.1,0.15,2.19,0.02,3.27-0.17c0.75-0.13,1.49-0.35,2.23-0.51c1.12-0.25,2.2-0.2,3.24,0.29
					c0.35,0.16,0.71,0.31,1.06,0.47c0.43,0.19,0.88,0.33,1.35,0.41c0.72,0.11,1.28-0.15,1.7-0.74c0.19-0.26,0.31-0.56,0.41-0.87
					c0.28-0.87,0.29-1.76,0.22-2.65c-0.03-0.4-0.1-0.8-0.19-1.19c-0.11-0.01-0.15,0.07-0.2,0.11c-0.24,0.2-0.48,0.4-0.76,0.55
					c-0.45,0.23-0.9,0.4-1.41,0.2c0.07-0.46,0.32-0.84,0.57-1.21c0.28-0.42,0.58-0.83,0.86-1.25c0.39-0.58,0.69-1.21,0.91-1.88
					c0.24-0.74,0.37-1.5,0.47-2.27c0.15-1.09,0.18-2.18,0.06-3.28c-0.13-1.2-0.41-2.37-0.72-3.54c-0.08-0.3-0.14-0.61-0.28-0.89
					c-0.39-0.78-0.78-1.56-1.17-2.33c-0.41-0.79-0.91-1.51-1.52-2.15c-0.37-0.39-0.76-0.76-1.16-1.12
					c-0.21-0.19-0.41-0.38-0.54-0.63c-0.17-0.32-0.05-0.56,0.31-0.59c0.32-0.03,0.62,0.05,0.91,0.18c0.46,0.21,0.88,0.49,1.26,0.83
					c0.67,0.6,1.21,1.3,1.68,2.07c0.04,0.07,0.05,0.17,0.17,0.18c0.04-0.25,0.07-0.49,0.11-0.73c0.12-0.87,0.28-1.74,0.35-2.62
					c0.14-1.78,0.14-3.57,0-5.35c-0.02-0.29-0.05-0.58-0.13-0.86c-0.22-0.79-0.45-1.57-0.72-2.34c-0.45-1.28-1.09-2.46-2.03-3.45
					c-0.51-0.54-1.09-1.01-1.81-1.26c-0.42-0.14-0.84-0.25-1.28-0.33c-0.35-0.06-0.7-0.1-1.03-0.24c-0.23-0.09-0.45-0.2-0.61-0.41
					c0.19-0.21,0.42-0.31,0.67-0.38c0.6-0.17,1.22-0.13,1.83-0.09c0.51,0.03,1,0.13,1.47,0.32c0.92,0.37,1.64,1.01,2.26,1.77
					c0.1,0.12,0.2,0.25,0.31,0.39c0.05-0.17-0.01-0.29-0.03-0.41c-0.26-2.14-0.37-4.28-0.44-6.44c-0.03-0.98-0.01-1.96,0.04-2.94
					c0.01-0.12,0.03-0.23-0.05-0.34c-0.45-0.66-0.93-1.3-1.66-1.68c-0.24-0.12-0.48-0.25-0.71-0.37c-0.32-0.17-0.66-0.31-0.95-0.54
					c-0.16-0.13-0.32-0.25-0.35-0.47c0.1-0.14,0.24-0.21,0.4-0.25c0.22-0.06,0.45-0.07,0.67-0.06c1.05,0.06,1.91,0.52,2.65,1.25
					c0.06,0.06,0.1,0.16,0.22,0.18c0.01-0.06,0.03-0.1,0.03-0.14c0.12-0.79,0.27-1.57,0.44-2.34c0.29-1.33,0.69-2.64,0.96-3.98
					c0.34-1.69,0.56-3.39,0.54-5.12c-0.02-1.42-0.3-2.79-0.97-4.04c-1.15-2.18-2.98-3.35-5.45-3.41c-1.67-0.04-3.23,0.44-4.73,1.13
					c-0.57,0.26-1.07,0.63-1.61,0.95c-0.67,0.39-1.39,0.53-2.17,0.43c-1.53-0.2-3.02-0.01-4.45,0.6c-1.85,0.8-3.35,2-4.35,3.78
					c-0.18,0.32-0.36,0.64-0.53,0.96c-0.42,0.79-1.04,1.36-1.9,1.65c-0.46,0.15-0.9,0.36-1.34,0.56c-1.91,0.9-3.33,2.33-4.41,4.13
					c-0.11,0.19-0.23,0.38-0.28,0.6c0.12,0.04,0.21,0,0.31-0.01c0.85-0.13,1.7-0.09,2.53,0.11c2.63,0.63,4.69,2.08,6.17,4.35
					c1.01,1.55,1.67,3.24,2.09,5.04c0.1,0.41,0.17,0.83,0.14,1.24c-0.07,1.04-0.26,2.07-0.62,3.06c-0.1,0.29-0.26,0.54-0.46,0.77
					c-0.15,0.18-0.32,0.22-0.53,0.14c0.05-0.65,0.12-1.28,0.15-1.91c0.06-0.96-0.11-1.91-0.32-2.84c-0.38-1.66-0.98-3.22-1.93-4.65
					c-1.26-1.9-2.99-3.09-5.21-3.57c-1.15-0.25-2.26-0.15-3.3,0.45c-0.06,0.04-0.14,0.07-0.21,0.08c-0.14,0.02-0.26,0.09-0.39,0.16
					c-1.12,0.62-1.98,1.51-2.65,2.58c-0.35,0.56-0.65,1.14-0.93,1.73c-0.3,0.63-0.71,1.17-1.25,1.62c-1.43,1.17-2.12,2.7-2.2,4.52
					c-0.05,1.15,0.1,2.28,0.3,3.4c0.26,1.43,0.16,2.8-0.52,4.11c-0.32,0.62-0.56,1.28-0.77,1.95c-0.31,0.94-0.54,1.9-0.54,2.9
					c0,1.68,0.49,3.22,1.29,4.68c0.02,0.03,0.03,0.06,0.08,0.05c0.06-0.02,0.05-0.08,0.06-0.13c0.53-1.59,1.11-3.16,2.06-4.57
					c0.48-0.7,0.67-1.5,0.58-2.36c-0.1-1.02-0.08-2.04,0.04-3.06c0.32-2.84,1.69-5.04,4-6.67c0.65-0.46,1.39-0.68,2.18-0.7
					c0.5-0.01,1,0,1.48,0.14c0.03-0.04,0.04-0.05,0.04-0.05c0.01-0.07,0.01-0.15,0.02-0.22c0.08-1.01,0.3-1.97,0.74-2.89
					c0.08-0.16,0.16-0.33,0.3-0.46c0.22-0.2,0.47-0.26,0.75-0.17c0.27,0.09,0.42,0.29,0.47,0.57c0.04,0.19,0,0.36-0.06,0.54
					c-0.06,0.21-0.14,0.41-0.2,0.61c-0.29,0.88-0.46,1.77-0.35,2.7c0.1,0.8,0.32,1.55,0.69,2.27c0.19,0.38,0.4,0.76,0.62,1.13
					c0.13,0.22,0.16,0.49,0.38,0.66c0.05,0.04,0.06,0.12,0.02,0.18c-0.04,0.09-0.12,0.12-0.22,0.11c-0.11-0.01-0.2-0.07-0.32-0.06
					c-0.43,0.05-0.77-0.14-1.09-0.39c-0.46-0.37-0.8-0.83-1.06-1.36c-0.22-0.46-0.36-0.94-0.5-1.45c-0.31,0.04-0.6-0.08-0.89-0.12
					c-0.72-0.1-1.42-0.08-2.05,0.36c-1,0.7-1.84,1.55-2.43,2.63c-0.8,1.48-0.99,3.1-0.95,4.75c0.01,0.42,0.06,0.84,0.07,1.26
					c0.02,0.69-0.08,1.35-0.35,1.98C92.86,254.09,92.6,254.56,92.31,255.01z M121.15,276.08c-0.26,0.13-0.53,0.14-0.82,0.09
					c-1.08-0.21-1.98-0.74-2.77-1.5c-0.57-0.55-1.1-1.15-1.64-1.74c-0.43-0.47-0.38-0.53-1.05-0.16c-0.33,0.18-0.64,0.4-0.95,0.6
					c-1.06,0.67-2.24,1.02-3.46,1.28c-0.05,0.01-0.1,0.02-0.17,0.04c-0.02,0.24,0.04,0.43,0.12,0.63c0.19,0.5,0.48,0.94,0.78,1.37
					c0.27,0.38,0.3,0.49,0.26,0.91c-0.3,0.24-0.63,0.22-0.95,0.05c-0.38-0.2-0.66-0.51-0.9-0.86c-0.4-0.58-0.67-1.22-0.73-1.95
					c-0.36-0.04-0.72-0.06-1.06-0.15c-1.41-0.37-2.61-1.08-3.66-2.08c-0.38-0.36-0.72-0.74-1.02-1.16c-0.14-0.2-0.28-0.41-0.33-0.66
					c-0.06-0.28,0.01-0.52,0.24-0.69c0.22-0.17,0.46-0.16,0.7-0.04c0.21,0.1,0.36,0.27,0.53,0.42c0.38,0.36,0.76,0.73,1.15,1.08
					c0.67,0.61,1.45,1.03,2.29,1.35c0.78,0.29,1.58,0.26,2.38,0.11c1.34-0.25,2.58-0.75,3.7-1.52c0.33-0.22,0.68-0.41,1.06-0.53
					c0.68-0.22,1.3-0.09,1.84,0.37c0.15,0.12,0.28,0.27,0.41,0.41c0.29,0.32,0.58,0.63,0.87,0.96c0.82,0.93,1.77,1.69,2.85,2.3
					c0.2,0.11,0.37,0.26,0.5,0.45C121.5,275.72,121.44,275.93,121.15,276.08z M116.96,258.79c0.61,0.32,1.17,0.73,1.66,1.21
					c0.38,0.37,0.68,0.8,0.81,1.33c0.06,0.26,0.07,0.52-0.03,0.76c-0.07,0.19-0.09,0.4-0.21,0.55c-0.07,0.02-0.12,0-0.16-0.04
					c-0.49-0.46-0.95-0.96-1.43-1.44c-0.37-0.38-0.79-0.69-1.25-0.96c-0.1-0.06-0.2-0.13-0.32-0.15c-0.1,0.05-0.13,0.14-0.18,0.22
					c-0.42,0.61-0.95,1.11-1.56,1.53c-0.23,0.15-0.47,0.25-0.75,0.26c-0.17,0-0.34,0.04-0.5,0.12c-0.11,0.05-0.24,0.07-0.32-0.05
					c-0.09-0.13-0.02-0.23,0.09-0.3c0.15-0.11,0.22-0.26,0.27-0.43c0.06-0.22,0.18-0.41,0.32-0.59c0.35-0.45,0.69-0.91,0.99-1.39
					c1.08-1.7,1.32-3.51,0.62-5.42c-0.37-1-0.87-1.92-1.6-2.7c-0.35-0.37-0.74-0.68-1.22-0.87c-0.34-0.13-0.5-0.39-0.47-0.69
					c0.03-0.3,0.24-0.52,0.58-0.61c0.26-0.07,0.51-0.02,0.76,0.06c0.44,0.15,0.83,0.4,1.19,0.7c0.62,0.51,1.13,1.12,1.53,1.81
					c0.64,1.1,1.11,2.25,1.25,3.53c0.11,0.99,0.05,1.97-0.24,2.93c-0.04,0.14-0.09,0.29-0.13,0.44
					C116.76,258.72,116.87,258.74,116.96,258.79z M108.7,226.43c-0.25-0.18-0.39-0.41-0.31-0.72c0.07-0.31,0.3-0.46,0.6-0.51
					c0.32-0.06,0.62,0.02,0.92,0.12c0.89,0.31,1.69,0.79,2.4,1.41c0.2,0.18,0.39,0.37,0.59,0.55c0.08,0.07,0.14,0.16,0.27,0.23
					c0.04-0.3,0.07-0.59,0.11-0.87c0.16-1.11,0.54-2.14,1.23-3.04c0.89-1.17,2.08-1.74,3.54-1.71c0.88,0.02,1.72,0.25,2.5,0.66
					c0.09,0.05,0.19,0.1,0.32,0.16c0.17-0.47,0.32-0.9,0.48-1.33c0.32-0.82,0.79-1.55,1.42-2.17c0.28-0.28,0.59-0.5,0.95-0.66
					c0.21-0.09,0.43-0.13,0.66-0.1c0.35,0.04,0.48,0.3,0.3,0.6c-0.08,0.13-0.17,0.26-0.28,0.36c-0.94,0.84-1.44,1.94-1.84,3.1
					c-0.07,0.2-0.13,0.41-0.2,0.61c-0.09,0.25-0.2,0.5-0.37,0.71c-0.37,0.45-0.83,0.59-1.39,0.45c-0.35-0.09-0.66-0.26-0.99-0.39
					c-0.68-0.29-1.38-0.46-2.13-0.36c-0.63,0.08-1.14,0.36-1.56,0.83c-0.58,0.64-0.92,1.39-1.1,2.23c-0.17,0.78-0.15,1.56-0.11,2.34
					c0.03,0.57,0.18,1.08,0.47,1.58c0.45,0.81,0.83,1.66,0.96,2.59c0.21,1.48,0.14,2.94-0.51,4.32c-0.13,0.27-0.31,0.49-0.55,0.66
					c-0.26,0.19-0.45,0.11-0.51-0.2c-0.06-0.27-0.06-0.55-0.05-0.83c0.07-1.02,0.14-2.04,0.06-3.06c-0.03-0.44-0.12-0.87-0.27-1.29
					c-0.69-1.86-1.74-3.47-3.22-4.8c-0.53-0.47-1.13-0.82-1.76-1.12C109.11,226.67,108.9,226.57,108.7,226.43z M102.88,252.64
					c0.21-0.1,0.35-0.27,0.5-0.44c0.32-0.34,0.75-0.45,1.19-0.52c0.75-0.12,1.5-0.09,2.25,0.03c0.09,0.02,0.19,0.05,0.3,0.02
					c0.09-0.39,0.18-0.78,0.27-1.18c0.14-0.56,0.3-1.12,0.55-1.65c0.07-0.16,0.15-0.31,0.27-0.44c0.17-0.2,0.39-0.27,0.61-0.19
					c0.23,0.08,0.34,0.26,0.37,0.49c0.03,0.22-0.03,0.43-0.08,0.64c-0.19,0.79-0.43,1.58-0.57,2.38c-0.06,0.35-0.12,0.69-0.14,1.05
					c-0.02,0.34-0.15,0.67-0.18,1.01c-0.07,0.71-0.16,1.41-0.23,2.11c-0.05,0.44-0.11,0.87-0.2,1.3c-0.03,0.15-0.09,0.29-0.19,0.41
					c-0.2,0.23-0.43,0.23-0.62-0.01c-0.09-0.12-0.14-0.26-0.17-0.41c-0.14-0.7-0.13-1.41-0.08-2.12c0.04-0.59,0.09-1.18,0.17-1.79
					c-0.44-0.12-0.85-0.15-1.25-0.17c-0.54-0.03-1.07-0.05-1.61-0.07c-0.13-0.01-0.26-0.02-0.38-0.06
					c-0.21-0.06-0.41-0.11-0.63-0.04c-0.1,0.03-0.2,0.01-0.25-0.09C102.71,252.78,102.78,252.69,102.88,252.64z M98.17,252.24
					c0.18-0.47,0.42-0.89,0.76-1.26c0.12-0.13,0.24-0.24,0.4-0.32c0.23-0.11,0.46-0.1,0.67,0.05c0.22,0.16,0.3,0.39,0.27,0.65
					c-0.03,0.22-0.14,0.4-0.23,0.6c-0.86,1.73-1.05,3.54-0.52,5.39c0.41,1.42,1.27,2.56,2.52,3.36c1.42,0.91,2.96,1.42,4.66,1.39
					c0.43-0.01,0.86-0.04,1.29,0.02c0.88,0.12,1.36,0.59,1.51,1.47c0.04,0.27,0.04,0.54,0.04,0.8c0.03,0.92,0.02,1.85,0.18,2.77
					c0.05,0.32-0.04,0.64,0.01,0.96c0.02,0.18-0.15,0.23-0.32,0.15c-0.82-0.38-1.17-1.09-1.36-1.92c-0.14-0.65-0.13-1.3-0.17-1.96
					c-0.01-0.19,0-0.39-0.04-0.58c-0.19-0.09-0.39-0.06-0.58-0.05c-1.68,0.1-3.27-0.2-4.8-0.91c-0.06-0.03-0.12-0.05-0.18-0.08
					c-0.02-0.01-0.04,0-0.08-0.01c-0.37,0.56-0.7,1.14-0.93,1.79c-0.2,0.56-0.36,1.12-0.49,1.7c-0.1,0.45-0.16,0.49-0.62,0.47
					c-0.02,0-0.04,0-0.06,0c-0.38-0.02-0.43-0.05-0.52-0.43c-0.12-0.47-0.15-0.96-0.08-1.44c0.11-0.79,0.41-1.51,0.8-2.2
					c0.14-0.25,0.29-0.5,0.44-0.74c-0.03-0.11-0.13-0.15-0.2-0.21c-2.12-1.76-3.09-4.02-2.96-6.76
					C97.62,254,97.83,253.1,98.17,252.24z M93.39,262.9c0.09-0.39,0.23-0.76,0.4-1.12c0.07-0.15,0.15-0.28,0.28-0.39
					c0.21-0.19,0.46-0.24,0.72-0.13c0.25,0.1,0.38,0.31,0.41,0.57c0.03,0.22-0.03,0.43-0.09,0.63c-0.28,1.02-0.4,2.07-0.39,3.13
					c0.01,0.83,0.11,1.65,0.34,2.45c0.29,0.98,0.83,1.79,1.68,2.37c0.52,0.36,1.05,0.71,1.59,1.05c0.28,0.18,0.6,0.29,0.92,0.39
					c0.15,0.05,0.26,0.13,0.34,0.27c0.2,0.35,0.42,0.7,0.66,1.03c0.71,1,1.67,1.55,2.88,1.7c0.18,0.02,0.36,0.04,0.53,0.12
					c0.31,0.14,0.37,0.42,0.13,0.67c-0.12,0.13-0.27,0.21-0.44,0.27c-0.77,0.28-1.54,0.26-2.29-0.07c-0.75-0.33-1.34-0.84-1.84-1.48
					c-0.42-0.54-0.77-1.11-1.05-1.73c-0.02-0.05-0.05-0.09-0.07-0.15c-0.27-0.01-0.54-0.05-0.8-0.11c-1.54-0.36-2.59-1.33-3.33-2.69
					c-0.42-0.77-0.63-1.6-0.76-2.45C93,265.77,93.06,264.33,93.39,262.9z"/>
				<path class="st15" d="M122.06,283.36c1.33,0.75,2.41,1.79,3.42,2.92c1.41,1.56,2.66,3.24,3.86,4.96
					c0.55,0.79,1.1,1.57,1.69,2.32c0.27,0.34,0.56,0.66,0.87,0.95c0.12,0.11,0.24,0.22,0.37,0.32c0.37,0.28,0.53,0.29,0.88-0.01
					c0.42-0.34,0.78-0.74,1.1-1.18c0.65-0.88,1.29-1.78,1.94-2.66c1.09-1.48,2.19-2.96,3.42-4.32c1.16-1.28,2.47-2.36,4.02-3.13
					c0.06-0.03,0.14-0.05,0.18-0.12c-0.73-0.28-1.78-0.37-2.34-0.14c-0.43,0.17-0.86,0.34-1.28,0.53c-0.66,0.3-1.33,0.54-2.06,0.63
					c-1.25,0.16-2.26-0.26-3.06-1.22c-0.59-0.72-0.88-1.58-1-2.48c-0.18-1.28-0.13-2.55,0.23-3.8c0.11-0.4,0.27-0.77,0.51-1.12
					c-0.01-0.04-0.03-0.08-0.04-0.12c-0.58-1.14-0.85-2.36-1.03-3.61c-0.14-1.02-0.23-2.05-0.16-3.09c0.08-1.4,0.35-2.77,0.7-4.13
					c0.14-0.54,0.3-1.08,0.41-1.62c0.17-0.81,0.15-1.62,0.05-2.44c-0.13-1.13-0.36-2.25-0.45-3.39c-0.12-1.42-0.18-2.83-0.12-4.25
					c0.05-1.16,0.13-2.32,0.27-3.47c0.12-0.98,0.31-1.95,0.49-2.93c0.4-2.15,0.65-4.31,0.75-6.5c0.04-0.9,0.08-1.81,0.1-2.71
					c0.06-2.58-0.23-5.13-0.85-7.64c-0.32-1.28-0.67-2.56-0.91-3.86c-0.3-1.64-0.5-3.3-0.47-4.97c0.01-0.57,0.07-1.14,0.16-1.69
					c-0.68-0.19-1.59-0.37-2.22-0.19c0.12,0.64,0.18,1.28,0.19,1.94c0.01,1.88-0.23,3.73-0.61,5.57c-0.28,1.35-0.67,2.67-0.97,4.01
					c-0.53,2.35-0.72,4.74-0.65,7.14c0.04,1.51,0.12,3.01,0.24,4.51c0.09,1.2,0.28,2.39,0.47,3.58c0.21,1.3,0.5,2.6,0.65,3.91
					c0.11,0.96,0.17,1.93,0.23,2.89c0.09,1.45,0.03,2.9-0.07,4.35c-0.06,0.89-0.21,1.77-0.35,2.65c-0.1,0.63-0.18,1.26-0.21,1.89
					c-0.04,0.76,0.07,1.5,0.28,2.23c0.31,1.11,0.59,2.22,0.77,3.36c0.24,1.52,0.28,3.04,0.06,4.56c-0.14,1-0.32,1.99-0.67,2.95
					c-0.13,0.34-0.28,0.68-0.44,1.01c0.56,0.86,0.74,1.83,0.81,2.82c0.08,1.13,0.03,2.26-0.37,3.34c-0.33,0.89-0.85,1.64-1.7,2.12
					c-0.76,0.43-1.57,0.47-2.41,0.32c-0.6-0.11-1.16-0.32-1.71-0.58c-0.4-0.18-0.81-0.35-1.22-0.51c-0.61-0.23-1.21-0.17-1.82-0.04
					C121.98,283.32,122.02,283.34,122.06,283.36z"/>
			</g>
			<g class="st4">
				<rect x="131.13" y="306.63" class="st16" width="1.73" height="82.27"/>
				
					<rect x="125.35" y="293.6" transform="matrix(0.7071 -0.7071 0.7071 0.7071 -176.4154 177.6362)" class="st16" width="1.73" height="16.34"/>
				<path class="st16" d="M117.73,312.19c-2.4,0-4.36-1.96-4.36-4.36c0-2.4,1.96-4.36,4.36-4.36c2.41,0,4.36,1.96,4.36,4.36
					C122.09,310.24,120.14,312.19,117.73,312.19z M117.73,305.19c-1.45,0-2.63,1.18-2.63,2.63c0,1.45,1.18,2.63,2.63,2.63
					c1.45,0,2.63-1.18,2.63-2.63C120.37,306.38,119.19,305.19,117.73,305.19z"/>
				<path class="st16" d="M118.12,297.74c-2.4,0-4.36-1.96-4.36-4.36c0-2.4,1.96-4.36,4.36-4.36c2.4,0,4.36,1.96,4.36,4.36
					C122.48,295.78,120.53,297.74,118.12,297.74z M118.12,290.74c-1.45,0-2.63,1.18-2.63,2.63c0,1.45,1.18,2.63,2.63,2.63
					c1.45,0,2.63-1.18,2.63-2.63C120.76,291.92,119.58,290.74,118.12,290.74z"/>
				
					<rect x="129.6" y="300.91" transform="matrix(0.7072 -0.7071 0.7071 0.7072 -173.0224 185.7813)" class="st16" width="16.34" height="1.73"/>
				<path class="st16" d="M145.87,297.74c-2.41,0-4.36-1.96-4.36-4.36c0-2.4,1.96-4.36,4.36-4.36c2.4,0,4.36,1.96,4.36,4.36
					C150.23,295.78,148.27,297.74,145.87,297.74z M145.87,290.74c-1.45,0-2.63,1.18-2.63,2.63c0,1.45,1.18,2.63,2.63,2.63
					c1.45,0,2.63-1.18,2.63-2.63C148.5,291.92,147.32,290.74,145.87,290.74z"/>
				<polygon class="st16" points="128.14,358.74 126.41,358.74 126.41,317.7 119.61,310.89 120.83,309.67 128.14,316.98 				"/>
				<path class="st16" d="M117.79,332.12c-2.4,0-4.36-1.96-4.36-4.36c0-2.4,1.96-4.36,4.36-4.36c2.41,0,4.36,1.96,4.36,4.36
					C122.15,330.16,120.2,332.12,117.79,332.12z M117.79,325.12c-1.45,0-2.63,1.18-2.63,2.63c0,1.45,1.18,2.63,2.63,2.63
					c1.45,0,2.63-1.18,2.63-2.63C120.43,326.31,119.25,325.12,117.79,325.12z"/>
				<polygon class="st16" points="128.2,389.51 126.47,389.51 126.47,337.62 119.67,330.82 120.89,329.6 128.2,336.91 				"/>
				<path class="st16" d="M100.91,313.15c-2.4,0-4.36-1.96-4.36-4.36c0-2.4,1.96-4.36,4.36-4.36c2.41,0,4.36,1.96,4.36,4.36
					C105.27,311.19,103.32,313.15,100.91,313.15z M100.91,306.15c-1.45,0-2.63,1.18-2.63,2.63c0,1.45,1.18,2.63,2.63,2.63
					c1.45,0,2.63-1.18,2.63-2.63C103.55,307.34,102.37,306.15,100.91,306.15z"/>
				<polygon class="st16" points="126.41,323.4 102.79,311.85 104.01,310.63 126.5,322.05 				"/>
				<path class="st16" d="M159.55,308.79c0-2.4,1.96-4.36,4.36-4.36c2.4,0,4.36,1.96,4.36,4.36c0,2.41-1.96,4.36-4.36,4.36
					C161.51,313.15,159.55,311.19,159.55,308.79z M161.28,308.79c0,1.45,1.18,2.63,2.63,2.63c1.45,0,2.63-1.18,2.63-2.63
					c0-1.45-1.18-2.63-2.63-2.63C162.46,306.15,161.28,307.34,161.28,308.79z"/>
				<polygon class="st16" points="138.42,323.4 162.04,311.85 160.82,310.63 138.32,322.05 				"/>
				<path class="st16" d="M142.82,340.12c0-2.4,1.96-4.36,4.36-4.36c2.4,0,4.36,1.96,4.36,4.36c0,2.41-1.96,4.36-4.36,4.36
					C144.78,344.48,142.82,342.53,142.82,340.12z M144.55,340.12c0,1.45,1.18,2.63,2.63,2.63c1.45,0,2.63-1.18,2.63-2.63
					c0-1.45-1.18-2.63-2.63-2.63C145.73,337.48,144.55,338.67,144.55,340.12z"/>
				<polygon class="st16" points="136.78,359.02 138.5,359.02 138.5,349.99 145.3,343.18 144.08,341.96 136.78,349.27 				"/>
				<path class="st16" d="M117.73,362.37c-2.4,0-4.36-1.96-4.36-4.36c0-2.4,1.96-4.36,4.36-4.36c2.41,0,4.36,1.96,4.36,4.36
					C122.09,360.41,120.14,362.37,117.73,362.37z M117.73,355.37c-1.45,0-2.63,1.18-2.63,2.63c0,1.45,1.18,2.63,2.63,2.63
					c1.45,0,2.63-1.18,2.63-2.63C120.37,356.55,119.19,355.37,117.73,355.37z"/>
				<polygon class="st16" points="128.14,376.91 126.41,376.91 126.41,367.87 119.61,361.07 120.83,359.85 128.14,367.16 				"/>
				<path class="st16" d="M142.82,307.89c0-2.4,1.96-4.36,4.36-4.36c2.4,0,4.36,1.96,4.36,4.36c0,2.41-1.96,4.36-4.36,4.36
					C144.78,312.26,142.82,310.3,142.82,307.89z M144.55,307.89c0,1.45,1.18,2.63,2.63,2.63c1.45,0,2.63-1.18,2.63-2.63
					c0-1.45-1.18-2.63-2.63-2.63C145.73,305.26,144.55,306.44,144.55,307.89z"/>
				<polygon class="st16" points="136.78,388.19 138.5,388.19 138.5,317.76 145.3,310.95 144.08,309.73 136.78,317.05 				"/>
			</g>
		</g>
		<g>
			<g>
				<path class="st17" d="M296.51,199.51c2.04,0,4.23,0.08,6.57,0.25c2.34,0.17,4.89,0.71,7.65,1.63c4.02,1.38,7.26,3.44,9.73,6.17
					c2.47,2.73,4.4,5.7,5.78,8.89c1.38,3.2,2.3,6.44,2.77,9.73c0.46,3.29,0.69,6.19,0.69,8.69c0,1.52-0.08,3.28-0.25,5.28
					c-0.17,2.01-0.48,4.1-0.94,6.27c-0.46,2.17-1.12,4.36-1.98,6.57c-0.86,2.21-1.99,4.3-3.41,6.27c-1.42,1.98-3.15,3.77-5.19,5.38
					c-2.04,1.61-4.44,2.88-7.21,3.8c-2.37,0.79-4.69,1.28-6.96,1.48c-2.27,0.2-4.69,0.3-7.26,0.3h-18.27
					c-1.25,0-2.26-0.05-3.01-0.15c-0.76-0.1-1.33-0.35-1.73-0.74c-0.4-0.4-0.64-0.97-0.74-1.73c-0.1-0.76-0.15-1.76-0.15-3.01
					v-59.46c0-1.25,0.06-2.25,0.2-3.01c0.13-0.76,0.4-1.33,0.79-1.73c0.4-0.39,0.95-0.64,1.68-0.74c0.72-0.1,1.71-0.15,2.96-0.15
					H296.51z M279.33,264.39h16.69c0.66,0,1.53-0.02,2.62-0.05s2.25-0.11,3.51-0.25c1.25-0.13,2.5-0.33,3.75-0.59
					c1.25-0.26,2.44-0.66,3.56-1.19c2.77-1.25,5-2.91,6.72-4.99c1.71-2.07,3.04-4.39,4-6.96c0.95-2.57,1.61-5.27,1.98-8.1
					c0.36-2.83,0.54-5.63,0.54-8.39c0-1.38-0.12-3.28-0.35-5.68c-0.23-2.4-0.79-4.89-1.68-7.46c-0.89-2.57-2.21-5.05-3.95-7.46
					c-1.75-2.4-4.13-4.3-7.16-5.68c-2.17-0.99-4.46-1.61-6.86-1.88c-2.4-0.26-4.63-0.39-6.67-0.39h-16.69V264.39z"/>
				<path class="st17" d="M343.67,206.96c-0.76,0.76-1.66,1.14-2.72,1.14c-1.12,0-2.04-0.38-2.77-1.14
					c-0.73-0.76-1.09-1.66-1.09-2.72c0-1.12,0.36-2.04,1.09-2.76c0.72-0.72,1.65-1.09,2.77-1.09c1.05,0,1.96,0.36,2.72,1.09
					c0.76,0.72,1.14,1.65,1.14,2.76C344.81,205.3,344.43,206.21,343.67,206.96z M343.92,266.47c0,1.12-0.13,2.22-0.4,3.31
					c-0.26,1.09-1.12,1.63-2.57,1.63c-0.79,0-1.38-0.15-1.78-0.44c-0.4-0.3-0.69-0.69-0.89-1.19c-0.2-0.49-0.31-1.02-0.35-1.58
					c-0.03-0.56-0.05-1.14-0.05-1.73v-43.55c0-0.59,0.02-1.19,0.05-1.78c0.03-0.59,0.15-1.14,0.35-1.63
					c0.2-0.49,0.49-0.89,0.89-1.19s0.99-0.44,1.78-0.44c0.72,0,1.28,0.17,1.68,0.49c0.4,0.33,0.69,0.74,0.89,1.23
					c0.2,0.49,0.31,1.04,0.35,1.63c0.03,0.59,0.05,1.15,0.05,1.68V266.47z"/>
				<path class="st17" d="M393.5,222.22c0-0.4,0.02-0.86,0.05-1.38c0.03-0.53,0.13-1,0.3-1.43c0.16-0.43,0.44-0.79,0.84-1.09
					s0.99-0.44,1.78-0.44c1.45,0,2.32,0.48,2.62,1.43c0.3,0.96,0.44,2.39,0.44,4.3v40.99c0,2.04-0.05,4.03-0.15,5.98
					s-0.38,3.82-0.84,5.63c-0.46,1.81-1.12,3.52-1.98,5.14c-0.86,1.61-2.07,3.08-3.65,4.39c-1.84,1.51-4.18,2.81-7.01,3.9
					c-2.83,1.09-6.49,1.63-10.96,1.63c-4.15,0-7.52-0.51-10.12-1.53c-2.6-1.02-4.79-2.49-6.57-4.39c-1.19-1.25-2.16-2.58-2.91-4
					c-0.76-1.42-1.14-2.55-1.14-3.41c0-0.79,0.25-1.48,0.74-2.07c0.49-0.59,1.2-0.89,2.12-0.89c0.79,0,1.35,0.2,1.68,0.59
					c0.33,0.4,0.92,1.38,1.78,2.96c1.38,2.63,3.19,4.59,5.43,5.88c2.24,1.28,5.23,1.93,8.99,1.93c2.83,0,5.23-0.28,7.21-0.84
					c1.98-0.56,3.62-1.27,4.94-2.12c1.32-0.86,2.35-1.78,3.11-2.77c0.76-0.99,1.3-1.94,1.63-2.86c0.4-0.92,0.69-1.79,0.89-2.62
					c0.2-0.82,0.35-1.78,0.44-2.86c0.1-1.09,0.18-2.4,0.25-3.95c0.06-1.55,0.1-3.54,0.1-5.98c-0.53,0.73-1.2,1.58-2.02,2.57
					c-0.82,0.99-2.06,2.01-3.7,3.06c-2.11,1.38-4.26,2.3-6.47,2.77c-2.21,0.46-4.23,0.69-6.07,0.69c-3.62,0-6.72-0.53-9.28-1.58
					c-2.57-1.05-4.71-2.42-6.42-4.1c-1.71-1.68-3.1-3.54-4.15-5.58c-1.05-2.04-1.84-4.05-2.37-6.02c-0.53-1.98-0.87-3.8-1.04-5.48
					c-0.17-1.68-0.25-2.98-0.25-3.9c0-2.76,0.38-5.71,1.14-8.84c0.76-3.13,2.04-6.02,3.85-8.69c1.81-2.67,4.18-4.89,7.11-6.67
					c2.93-1.78,6.57-2.67,10.91-2.67c2.77,0,5.15,0.31,7.16,0.94c2.01,0.63,3.74,1.42,5.19,2.37c1.45,0.96,2.68,1.99,3.7,3.11
					c1.02,1.12,1.93,2.14,2.72,3.06V222.22z M359.52,254.76c0.99,2.8,2.3,5.07,3.95,6.81c1.65,1.75,3.54,3,5.68,3.75
					c2.14,0.76,4.36,1.14,6.67,1.14c1.98,0,4.02-0.35,6.12-1.04c2.11-0.69,4.02-1.88,5.73-3.56c1.71-1.68,3.13-3.87,4.25-6.57
					c1.12-2.7,1.68-6.09,1.68-10.17c0-4.15-0.54-7.64-1.63-10.47c-1.09-2.83-2.49-5.14-4.2-6.91c-1.71-1.78-3.64-3.04-5.78-3.8
					c-2.14-0.76-4.26-1.14-6.37-1.14c-1.98,0-4.02,0.36-6.12,1.09c-2.11,0.73-4,1.93-5.68,3.6c-1.68,1.68-3.06,3.9-4.15,6.67
					s-1.63,6.19-1.63,10.27C358.04,248.53,358.54,251.97,359.52,254.76z"/>
				<path class="st17" d="M416.16,206.96c-0.76,0.76-1.66,1.14-2.72,1.14c-1.12,0-2.04-0.38-2.77-1.14
					c-0.73-0.76-1.09-1.66-1.09-2.72c0-1.12,0.36-2.04,1.09-2.76c0.72-0.72,1.65-1.09,2.77-1.09c1.05,0,1.96,0.36,2.72,1.09
					c0.76,0.72,1.14,1.65,1.14,2.76C417.3,205.3,416.92,206.21,416.16,206.96z M416.41,266.47c0,1.12-0.13,2.22-0.4,3.31
					c-0.26,1.09-1.12,1.63-2.57,1.63c-0.79,0-1.38-0.15-1.78-0.44c-0.4-0.3-0.69-0.69-0.89-1.19c-0.2-0.49-0.31-1.02-0.35-1.58
					c-0.03-0.56-0.05-1.14-0.05-1.73v-43.55c0-0.59,0.02-1.19,0.05-1.78c0.03-0.59,0.15-1.14,0.35-1.63
					c0.2-0.49,0.49-0.89,0.89-1.19s0.99-0.44,1.78-0.44c0.72,0,1.28,0.17,1.68,0.49c0.4,0.33,0.69,0.74,0.89,1.23
					c0.2,0.49,0.31,1.04,0.35,1.63c0.03,0.59,0.05,1.15,0.05,1.68V266.47z"/>
				<path class="st17" d="M434.58,219.06h5.53c0.33,0,0.72,0.02,1.19,0.05c0.46,0.03,0.89,0.12,1.28,0.25
					c0.4,0.13,0.72,0.35,0.99,0.64c0.26,0.3,0.4,0.71,0.4,1.23c0,1.12-0.48,1.78-1.43,1.98c-0.96,0.2-1.76,0.3-2.42,0.3h-5.53v33.68
					c0,3.1,0.33,5.35,0.99,6.77c0.66,1.42,2.24,2.12,4.74,2.12c0.2,0,0.49-0.01,0.89-0.05c0.4-0.03,0.81-0.08,1.23-0.15
					c0.43-0.06,0.84-0.11,1.23-0.15c0.4-0.03,0.66-0.05,0.79-0.05c0.72,0,1.28,0.23,1.68,0.69c0.4,0.46,0.59,1.02,0.59,1.68
					c0,1.12-0.64,1.89-1.93,2.32c-1.28,0.43-2.98,0.64-5.09,0.64c-2.77,0-4.91-0.41-6.42-1.23c-1.52-0.82-2.62-1.86-3.31-3.11
					c-0.69-1.25-1.1-2.65-1.23-4.2c-0.13-1.55-0.2-3.08-0.2-4.59v-34.37h-3.06c-0.33,0-0.73-0.02-1.19-0.05
					c-0.46-0.03-0.89-0.11-1.28-0.25c-0.4-0.13-0.73-0.35-0.99-0.64c-0.26-0.3-0.4-0.71-0.4-1.23c0-1.12,0.48-1.78,1.43-1.98
					c0.95-0.2,1.76-0.3,2.42-0.3h3.06v-9.09c0-1.91,0.11-3.46,0.35-4.64c0.23-1.19,1.1-1.78,2.62-1.78c1.51,0,2.4,0.56,2.67,1.68
					c0.26,1.12,0.4,2.6,0.4,4.44V219.06z"/>
				<path class="st17" d="M482.98,231.81c-0.13-1.47-0.53-2.83-1.19-4.08c-0.53-1.05-1.23-1.88-2.12-2.51
					c-0.89-0.62-1.84-1.11-2.86-1.48c-1.02-0.36-2.11-0.61-3.26-0.74c-1.15-0.13-2.26-0.2-3.31-0.2c-0.79,0-1.91,0.06-3.36,0.19
					c-1.45,0.13-2.95,0.44-4.49,0.92c-1.55,0.49-3.01,1.21-4.4,2.18c-1.38,0.97-2.4,2.27-3.06,3.88c-0.73,1.81-1.28,3.01-1.68,3.59
					s-1.09,0.87-2.07,0.87c-0.66,0-1.3-0.25-1.93-0.74c-0.63-0.49-0.94-1.23-0.94-2.22c0-0.59,0.26-1.63,0.79-3.11
					c0.53-1.48,1.55-3.01,3.06-4.59c1.51-1.58,3.67-2.96,6.47-4.15c2.8-1.18,6.47-1.78,11.01-1.78c4.87,0,8.64,0.61,11.31,1.83
					c2.67,1.22,4.61,2.81,5.83,4.79c1.22,1.98,1.93,4.25,2.12,6.81c0.2,2.57,0.3,5.2,0.3,7.9c0,0.66-0.02,1.76-0.05,3.31
					c-0.03,1.55-0.05,3.21-0.05,4.99c0,1.71-0.02,3.33-0.05,4.84c-0.03,1.51-0.05,2.57-0.05,3.16c0,1.12,0.05,2.44,0.15,3.95
					c0.1,1.52,0.31,2.83,0.64,3.95c0.33,1.18,0.64,2.27,0.94,3.26c0.3,0.99,0.44,1.71,0.44,2.17c0,0.92-0.35,1.6-1.04,2.02
					c-0.69,0.43-1.3,0.64-1.83,0.64c-0.79,0-1.45-0.25-1.98-0.74c-0.53-0.49-0.94-1.15-1.23-1.97s-0.54-1.78-0.74-2.86
					c-0.2-1.09-0.36-2.22-0.49-3.41c-2.77,2.96-5.98,5.18-9.63,6.67s-7.49,2.22-11.51,2.22c-2.57,0-4.84-0.38-6.81-1.13
					c-1.98-0.75-3.65-1.79-5.04-3.1s-2.44-2.84-3.16-4.57c-0.73-1.74-1.09-3.59-1.09-5.56c0-3.08,0.66-5.56,1.98-7.43
					c1.32-1.87,2.95-3.34,4.89-4.43c1.94-1.08,4.03-1.85,6.27-2.31c2.24-0.46,4.28-0.85,6.12-1.18c4.94-0.79,8.72-1.41,11.36-1.87
					c2.63-0.46,4.61-1.02,5.93-1.67C483.17,235.41,483.11,233.29,482.98,231.81z M476.56,244.69c-2.83,0.49-5.83,1.07-8.99,1.73
					c-1.38,0.26-2.91,0.56-4.59,0.89c-1.68,0.33-3.26,0.82-4.74,1.48c-1.48,0.66-2.73,1.6-3.75,2.81c-1.02,1.22-1.53,2.85-1.53,4.89
					c0,0.79,0.15,1.71,0.44,2.77c0.3,1.05,0.85,2.07,1.68,3.06c0.82,0.99,1.94,1.83,3.36,2.52c1.42,0.69,3.24,1.04,5.48,1.04
					c1.51,0,3.16-0.2,4.94-0.59c1.78-0.39,3.49-0.97,5.14-1.73c1.65-0.76,3.13-1.73,4.44-2.91c1.32-1.19,2.34-2.57,3.06-4.15
					c0.72-1.64,1.2-3.47,1.43-5.48c0.23-2.01,0.31-4.76,0.25-8.25C481.59,243.55,479.39,244.2,476.56,244.69z"/>
				<path class="st17" d="M505.49,266.47c0,1.12-0.13,2.22-0.4,3.31c-0.26,1.09-1.12,1.63-2.57,1.63c-0.79,0-1.38-0.15-1.78-0.44
					c-0.4-0.3-0.69-0.69-0.89-1.19c-0.2-0.49-0.31-1.02-0.35-1.58c-0.03-0.56-0.05-1.14-0.05-1.73v-63.11
					c0-0.59,0.02-1.18,0.05-1.78c0.03-0.59,0.15-1.14,0.35-1.63c0.2-0.49,0.49-0.89,0.89-1.19c0.4-0.3,0.95-0.44,1.68-0.44
					c0.79,0,1.38,0.15,1.78,0.44c0.4,0.3,0.69,0.69,0.89,1.19c0.2,0.49,0.31,1.04,0.35,1.63c0.03,0.59,0.05,1.18,0.05,1.78V266.47z"
					/>
			</g>
			<g>
				<path class="st15" d="M297.64,350.55l-11.33-45.04v48.8c0,2.7-0.6,4.73-1.81,6.08c-1.21,1.35-2.81,2.03-4.8,2.03
					c-1.93,0-3.5-0.67-4.73-2c-1.22-1.33-1.83-3.37-1.83-6.1v-55.94c0-3.09,0.8-5.17,2.41-6.25c1.61-1.08,3.78-1.62,6.51-1.62h4.44
					c2.67,0,4.61,0.24,5.81,0.72s2.1,1.35,2.68,2.6c0.58,1.25,1.24,3.3,1.98,6.12l10.27,38.72l10.27-38.72
					c0.74-2.83,1.4-4.87,1.98-6.12c0.58-1.25,1.47-2.12,2.68-2.6s3.14-0.72,5.81-0.72h4.44c2.73,0,4.9,0.54,6.51,1.62
					c1.61,1.08,2.41,3.16,2.41,6.25v55.94c0,2.7-0.6,4.73-1.81,6.08c-1.21,1.35-2.82,2.03-4.85,2.03c-1.9,0-3.46-0.68-4.68-2.03
					c-1.22-1.35-1.83-3.38-1.83-6.08v-48.8l-11.33,45.04c-0.74,2.93-1.34,5.07-1.81,6.44c-0.47,1.37-1.33,2.61-2.58,3.74
					s-2.99,1.69-5.21,1.69c-1.67,0-3.09-0.36-4.24-1.09c-1.16-0.72-2.06-1.65-2.7-2.77c-0.64-1.12-1.15-2.37-1.52-3.74
					C298.41,353.45,298.03,352.03,297.64,350.55z"/>
				<path class="st15" d="M386.93,338.88h-25.75c0.03,2.99,0.63,5.63,1.81,7.91c1.17,2.28,2.73,4,4.68,5.16
					c1.94,1.16,4.09,1.74,6.44,1.74c1.57,0,3.01-0.18,4.32-0.55c1.3-0.37,2.56-0.95,3.79-1.74c1.22-0.79,2.35-1.63,3.38-2.53
					c1.03-0.9,2.36-2.12,4-3.67c0.67-0.58,1.64-0.87,2.89-0.87c1.35,0,2.44,0.37,3.28,1.11c0.84,0.74,1.25,1.78,1.25,3.13
					c0,1.19-0.47,2.58-1.4,4.17c-0.93,1.59-2.34,3.12-4.22,4.58c-1.88,1.46-4.24,2.68-7.09,3.64s-6.12,1.45-9.81,1.45
					c-8.46,0-15.03-2.41-19.72-7.23c-4.69-4.82-7.04-11.36-7.04-19.63c0-3.89,0.58-7.5,1.74-10.83c1.16-3.33,2.85-6.18,5.06-8.56
					c2.22-2.38,4.95-4.2,8.2-5.47c3.25-1.27,6.85-1.9,10.8-1.9c5.14,0,9.56,1.08,13.24,3.25c3.68,2.17,6.44,4.98,8.27,8.42
					c1.83,3.44,2.75,6.94,2.75,10.51c0,3.31-0.95,5.46-2.85,6.44C393.04,338.39,390.37,338.88,386.93,338.88z M361.18,331.4h23.87
					c-0.32-4.5-1.54-7.87-3.64-10.1c-2.11-2.23-4.88-3.35-8.32-3.35c-3.28,0-5.97,1.13-8.08,3.4
					C362.91,323.62,361.63,326.97,361.18,331.4z"/>
				<path class="st15" d="M415.9,316.17v1.59c2.31-3.05,4.85-5.3,7.6-6.73c2.75-1.43,5.91-2.15,9.48-2.15
					c3.47,0,6.57,0.76,9.31,2.27c2.73,1.51,4.77,3.65,6.12,6.41c0.87,1.61,1.43,3.34,1.69,5.21c0.26,1.86,0.39,4.24,0.39,7.14v24.5
					c0,2.64-0.6,4.63-1.81,5.98c-1.21,1.35-2.77,2.03-4.7,2.03c-1.96,0-3.55-0.69-4.77-2.07c-1.22-1.38-1.83-3.36-1.83-5.93v-21.94
					c0-4.34-0.6-7.66-1.81-9.96c-1.21-2.3-3.61-3.45-7.21-3.45c-2.35,0-4.48,0.7-6.41,2.1c-1.93,1.4-3.34,3.32-4.24,5.76
					c-0.64,1.96-0.96,5.63-0.96,11v16.49c0,2.67-0.62,4.67-1.86,6c-1.24,1.33-2.84,2-4.8,2c-1.9,0-3.46-0.69-4.68-2.07
					c-1.22-1.38-1.83-3.36-1.83-5.93v-38.05c0-2.51,0.55-4.38,1.64-5.62c1.09-1.24,2.59-1.86,4.48-1.86c1.16,0,2.2,0.27,3.13,0.82
					c0.93,0.55,1.68,1.37,2.24,2.46C415.62,313.26,415.9,314.59,415.9,316.17z"/>
				<path class="st15" d="M459.38,310.04h1.45v-7.91c0-2.12,0.06-3.79,0.17-4.99c0.11-1.21,0.43-2.24,0.94-3.11
					c0.51-0.9,1.25-1.63,2.22-2.19c0.96-0.56,2.04-0.84,3.23-0.84c1.67,0,3.18,0.63,4.53,1.88c0.9,0.84,1.47,1.86,1.71,3.06
					c0.24,1.21,0.36,2.92,0.36,5.14v8.97h4.82c1.86,0,3.29,0.44,4.27,1.33c0.98,0.88,1.47,2.02,1.47,3.4c0,1.77-0.7,3.01-2.1,3.71
					s-3.4,1.06-6,1.06h-2.46v24.21c0,2.06,0.07,3.64,0.22,4.75s0.53,2.01,1.16,2.7c0.63,0.69,1.65,1.04,3.06,1.04
					c0.77,0,1.82-0.14,3.13-0.41c1.32-0.27,2.35-0.41,3.09-0.41c1.06,0,2.02,0.43,2.87,1.28c0.85,0.85,1.28,1.91,1.28,3.16
					c0,2.12-1.16,3.75-3.47,4.87s-5.64,1.69-9.98,1.69c-4.12,0-7.23-0.69-9.36-2.07c-2.12-1.38-3.51-3.29-4.17-5.74
					c-0.66-2.44-0.99-5.71-0.99-9.79v-25.27h-1.74c-1.9,0-3.34-0.45-4.34-1.35c-1-0.9-1.5-2.04-1.5-3.42c0-1.38,0.52-2.51,1.57-3.4
					C455.86,310.48,457.38,310.04,459.38,310.04z"/>
				<path class="st15" d="M525.43,338.88h-25.75c0.03,2.99,0.63,5.63,1.81,7.91c1.17,2.28,2.73,4,4.68,5.16
					c1.94,1.16,4.09,1.74,6.44,1.74c1.57,0,3.01-0.18,4.32-0.55c1.3-0.37,2.56-0.95,3.79-1.74c1.22-0.79,2.35-1.63,3.38-2.53
					c1.03-0.9,2.36-2.12,4-3.67c0.67-0.58,1.64-0.87,2.89-0.87c1.35,0,2.44,0.37,3.28,1.11c0.84,0.74,1.25,1.78,1.25,3.13
					c0,1.19-0.47,2.58-1.4,4.17c-0.93,1.59-2.34,3.12-4.22,4.58c-1.88,1.46-4.24,2.68-7.09,3.64s-6.12,1.45-9.81,1.45
					c-8.46,0-15.03-2.41-19.72-7.23c-4.69-4.82-7.04-11.36-7.04-19.63c0-3.89,0.58-7.5,1.74-10.83c1.16-3.33,2.85-6.18,5.06-8.56
					c2.22-2.38,4.95-4.2,8.2-5.47c3.25-1.27,6.85-1.9,10.8-1.9c5.14,0,9.56,1.08,13.24,3.25c3.68,2.17,6.44,4.98,8.27,8.42
					c1.83,3.44,2.75,6.94,2.75,10.51c0,3.31-0.95,5.46-2.85,6.44C531.53,338.39,528.87,338.88,525.43,338.88z M499.67,331.4h23.87
					c-0.32-4.5-1.54-7.87-3.64-10.1c-2.11-2.23-4.88-3.35-8.32-3.35c-3.28,0-5.97,1.13-8.08,3.4
					C501.4,323.62,500.12,326.97,499.67,331.4z"/>
			</g>
		</g>
	</g>
</g>
</svg>
