<?xml version="1.0" encoding="utf-8"?>
<!-- Generator: Adobe Illustrator 24.0.1, SVG Export Plug-In . SVG Version: 6.00 Build 0)  -->
<svg version="1.1" xmlns="http://www.w3.org/2000/svg" xmlns:xlink="http://www.w3.org/1999/xlink" x="0px" y="0px"
	 viewBox="0 0 566.93 566.93" style="enable-background:new 0 0 566.93 566.93;" xml:space="preserve">
<style type="text/css">
	.st0{display:none;}
	.st1{display:inline;fill:#FFFFFF;}
	.st2{clip-path:url(#SVGID_2_);fill:#35A8E0;}
	.st3{clip-path:url(#SVGID_2_);fill:#FFFFFF;}
	.st4{clip-path:url(#SVGID_2_);}
	.st5{fill:#F1B2DF;}
	.st6{fill:#4528AF;}
	.st7{fill:url(#SVGID_3_);}
	.st8{fill:#009FE3;}
	.st9{fill:#FFFFFF;}
	.st10{fill:url(#SVGID_4_);}
	.st11{fill:url(#SVGID_5_);}
	.st12{clip-path:url(#SVGID_7_);fill:#00659D;}
	.st13{clip-path:url(#SVGID_7_);fill:#FFFFFF;}
	.st14{clip-path:url(#SVGID_7_);}
	.st15{fill:#FC8890;}
	.st16{fill:#00ABBC;}
	.st17{fill:#00659D;}
	.st18{fill:#E76F3D;}
	.st19{opacity:0.3;clip-path:url(#SVGID_9_);}
	.st20{fill:#9BCFE0;}
	.st21{fill:#FEAB6B;}
	.st22{fill:#333333;}
	.st23{fill:none;stroke:#E76F3D;stroke-width:5;stroke-linecap:round;stroke-linejoin:round;stroke-miterlimit:10;}
	.st24{clip-path:url(#SVGID_11_);fill:#00659D;}
	.st25{clip-path:url(#SVGID_11_);fill:#FFFFFF;}
	.st26{clip-path:url(#SVGID_11_);}
	.st27{fill:#E2C58A;}
	.st28{clip-path:url(#SVGID_13_);fill:#00659D;}
	.st29{clip-path:url(#SVGID_13_);fill:#FFFFFF;}
	.st30{clip-path:url(#SVGID_13_);}
	.st31{clip-path:url(#SVGID_15_);fill:#00659D;}
	.st32{clip-path:url(#SVGID_15_);fill:#FFFFFF;}
	.st33{clip-path:url(#SVGID_15_);}
	.st34{clip-path:url(#SVGID_17_);fill:#00659D;}
	.st35{clip-path:url(#SVGID_17_);fill:#FFFFFF;}
	.st36{clip-path:url(#SVGID_17_);}
</style>
<g id="Capa_2" class="st0">
</g>
<g id="Capa_1">
	<g>
		<g>
			<defs>
				<circle id="SVGID_6_" cx="274.96" cy="283.46" r="74.82"/>
			</defs>
			<use xlink:href="#SVGID_6_"  style="overflow:visible;fill:#FFFFFF;"/>
			<clipPath id="SVGID_2_">
				<use xlink:href="#SVGID_6_"  style="overflow:visible;"/>
			</clipPath>
			<circle style="clip-path:url(#SVGID_2_);fill:#00659D;" cx="274.96" cy="283.46" r="74.82"/>
			<path class="st3" d="M321.7,260.39c-4.47-21.3-23.69-37.18-46.48-36.47c-24.5,0.77-44.24,20.94-44.51,45.46
				c-0.11,9.89,1.99,23.66,6.88,31.43c6.78,10.77,9.97,12.76,9.97,12.76v57.63c0,1.72,4.19,3.12,20.13,3.12
				c15.94,0,28.85-1.39,28.85-3.12v-55.32h13.05c3.91,0,7.23-2.86,7.8-6.73l2.8-18.95h8.78L321.7,260.39z"/>
			<g class="st4">
				<path class="st15" d="M305.26,260.18c-0.01,0.3,0.06,0.58,0.18,0.85c0.12,0.28,0.27,0.55,0.44,0.81
					c0.16,0.24,0.31,0.5,0.44,0.76c0.35,0.7,0.6,1.45,0.86,2.19c0.02,0.07,0.05,0.14,0.07,0.21c0.09-0.02,0.09-0.08,0.12-0.13
					c0.11-0.21,0.22-0.42,0.31-0.64c0.64-1.48,0.79-2.98,0.3-4.54c-0.21-0.66-0.46-1.31-0.76-1.94c-0.33-0.69-0.46-1.41-0.38-2.17
					c0.04-0.43,0.12-0.85,0.18-1.27c0.11-0.79,0.19-1.59,0.07-2.39c-0.11-0.74-0.32-1.43-0.8-2.03c-0.24-0.3-0.51-0.59-0.81-0.84
					c-0.34-0.29-0.62-0.63-0.82-1.03c-0.11-0.21-0.21-0.42-0.32-0.64c-0.25-0.49-0.53-0.97-0.89-1.4c-0.26-0.31-0.55-0.59-0.86-0.85
					c-0.39-0.33-0.85-0.51-1.3-0.72c-0.59-0.27-1.24-0.36-1.88-0.25c-1.46,0.24-2.7,0.88-3.66,2.03c-0.29,0.34-0.54,0.7-0.77,1.08
					c-0.6,1-0.96,2.1-1.21,3.23c-0.17,0.76-0.24,1.51-0.15,2.29c0.04,0.33,0.05,0.66,0.08,0.98c-0.26,0.04-0.26,0.03-0.4-0.12
					c-0.16-0.17-0.26-0.37-0.33-0.59c-0.23-0.67-0.37-1.36-0.43-2.06c-0.02-0.24-0.02-0.48,0.02-0.71c0.27-1.31,0.7-2.56,1.4-3.71
					c0.94-1.56,2.22-2.71,3.96-3.31c0.76-0.27,1.54-0.41,2.35-0.35c0.17,0.01,0.34,0.07,0.52,0.05c0-0.03,0.01-0.04,0-0.05
					c-0.01-0.03-0.02-0.06-0.04-0.09c-0.51-1.03-1.24-1.87-2.13-2.58c-0.67-0.53-1.43-0.9-2.24-1.18c-0.65-0.23-1.11-0.64-1.43-1.24
					c-0.14-0.27-0.3-0.54-0.46-0.81c-0.5-0.85-1.17-1.53-2-2.06c-1.36-0.87-2.83-1.25-4.43-1.04c-0.31,0.04-0.62,0.05-0.92-0.04
					c-0.33-0.09-0.63-0.25-0.92-0.44c-0.88-0.59-1.84-0.97-2.87-1.2c-0.85-0.19-1.69-0.24-2.54-0.04c-1.38,0.32-2.36,1.15-3,2.39
					c-0.48,0.93-0.7,1.93-0.71,2.97c-0.02,1.57,0.22,3.11,0.59,4.63c0.27,1.1,0.56,2.19,0.76,3.31c0.03,0.2,0.04,0.4,0.11,0.59
					c0.02-0.01,0.03-0.01,0.04-0.01c0.02-0.02,0.05-0.04,0.07-0.07c0.35-0.39,0.78-0.66,1.28-0.84c0.34-0.12,0.69-0.17,1.05-0.12
					c0.18,0.02,0.36,0.06,0.46,0.23c-0.04,0.17-0.16,0.26-0.28,0.35c-0.22,0.16-0.46,0.28-0.71,0.39c-0.71,0.31-1.28,0.78-1.69,1.44
					c-0.05,0.09-0.08,0.16-0.08,0.26c0.02,0.27,0.03,0.54,0.03,0.81c0.02,0.74,0,1.47-0.03,2.21c-0.04,1.12-0.11,2.23-0.23,3.34
					c-0.03,0.29-0.07,0.57-0.1,0.91c0.17-0.2,0.3-0.36,0.44-0.52c0.98-1.14,2.24-1.48,3.68-1.3c0.27,0.03,0.52,0.11,0.73,0.33
					c-0.12,0.16-0.28,0.24-0.45,0.31c-0.24,0.1-0.5,0.14-0.76,0.18c-1.07,0.15-1.92,0.66-2.57,1.51c-0.53,0.67-0.93,1.41-1.2,2.22
					c-0.12,0.35-0.22,0.71-0.34,1.06c-0.17,0.53-0.3,1.07-0.3,1.63c0,0.07-0.01,0.14-0.02,0.21c-0.08,0.97-0.05,1.93,0,2.9
					c0.04,0.79,0.16,1.57,0.28,2.36c0.03,0.2,0.03,0.4,0.1,0.59c0.07-0.03,0.08-0.09,0.11-0.14c0.19-0.3,0.39-0.6,0.61-0.87
					c0.42-0.51,0.89-0.95,1.49-1.23c0.18-0.09,0.37-0.16,0.57-0.16c0.16-0.01,0.33-0.03,0.42,0.14c0.08,0.17-0.02,0.3-0.12,0.43
					c-0.16,0.21-0.36,0.37-0.55,0.55c-0.59,0.55-1.14,1.14-1.55,1.85c-0.25,0.43-0.45,0.89-0.69,1.33
					c-0.31,0.56-0.52,1.15-0.67,1.77c-0.19,0.8-0.37,1.6-0.44,2.43c-0.09,0.94,0,1.87,0.15,2.79c0.17,1.02,0.54,1.96,1.15,2.8
					c0.22,0.29,0.43,0.59,0.62,0.9c0.11,0.18,0.17,0.38,0.22,0.59c-0.74,0.18-1.22-0.27-1.71-0.66c-0.02,0.01-0.03,0.02-0.04,0.02
					c-0.16,0.75-0.22,1.5-0.11,2.26c0.06,0.41,0.18,0.81,0.41,1.15c0.31,0.47,0.74,0.67,1.3,0.58c0.34-0.05,0.66-0.16,0.97-0.3
					c0.32-0.14,0.63-0.29,0.96-0.42c0.47-0.19,0.95-0.3,1.46-0.25c0.33,0.03,0.66,0.08,0.98,0.16c0.81,0.2,1.63,0.41,2.47,0.47
					c0.85,0.07,1.68,0,2.48-0.3c0.49-0.18,0.97-0.4,1.43-0.63c0.71-0.35,1.45-0.54,2.24-0.52c0.58,0.01,1.16,0.01,1.73,0
					c0.9-0.01,1.79-0.08,2.66-0.28c2.28-0.52,4.38-1.43,6.19-2.96c1.08-0.92,1.91-2.01,2.49-3.28c0.84-1.84,1.31-3.77,1.3-5.81
					c-0.01-1.46-0.2-2.88-0.72-4.26c-0.3-0.81-0.62-1.61-1.11-2.33c-0.1-0.15-0.18-0.32-0.26-0.48c-0.31-0.61-0.45-1.26-0.4-1.95
					c0.04-0.62,0.08-1.23,0.02-1.85c-0.07-0.67-0.19-1.32-0.45-1.94c-0.39-0.95-1.06-1.68-1.86-2.3c-0.35-0.27-0.75-0.39-1.19-0.41
					c-0.39-0.01-0.74,0.14-1.11,0.14c-0.05,0.05-0.05,0.1-0.06,0.14c-0.09,0.34-0.2,0.66-0.36,0.98c-0.2,0.4-0.46,0.74-0.82,1
					c-0.16,0.12-0.33,0.22-0.54,0.23c-0.13,0.01-0.27-0.01-0.4,0.04c-0.07,0.02-0.14,0-0.18-0.08c-0.03-0.07,0-0.12,0.05-0.17
					c0.05-0.05,0.11-0.09,0.13-0.16c0.05-0.18,0.15-0.33,0.24-0.49c0.17-0.29,0.33-0.59,0.47-0.91c0.32-0.72,0.46-1.48,0.37-2.27
					c-0.05-0.42-0.16-0.82-0.3-1.22c-0.06-0.19-0.14-0.37-0.16-0.57c-0.03-0.26,0.11-0.49,0.33-0.57c0.22-0.09,0.46-0.02,0.62,0.17
					c0.07,0.08,0.12,0.18,0.17,0.28c0.33,0.68,0.49,1.4,0.55,2.15c0,0.06-0.02,0.13,0.06,0.18c0.34-0.11,0.71-0.11,1.07-0.1
					c0.59,0.01,1.14,0.19,1.63,0.52c0.3,0.21,0.58,0.44,0.84,0.69c0.69,0.66,1.27,1.42,1.61,2.32c0.45,1.18,0.6,2.41,0.53,3.66
					C305.28,259.61,305.27,259.89,305.26,260.18z M282.87,239.4c-0.1-0.17-0.16-0.34-0.22-0.53c-0.12-0.38-0.26-0.76-0.43-1.13
					c-0.22-0.5-0.51-0.94-0.91-1.32c-0.11-0.1-0.21-0.22-0.29-0.34c-0.16-0.25-0.06-0.46,0.24-0.48c0.16-0.01,0.31,0.02,0.46,0.08
					c0.33,0.15,0.6,0.38,0.84,0.64c0.52,0.57,0.85,1.25,1.08,1.98c0.04,0.12,0.08,0.24,0.12,0.36c0.01,0.02,0.03,0.04,0.04,0.06
					c0.19-0.09,0.38-0.19,0.58-0.27c0.71-0.29,1.44-0.41,2.21-0.26c0.66,0.12,1.21,0.44,1.67,0.94c0.65,0.71,0.99,1.55,1.13,2.49
					c0.03,0.21,0.05,0.42,0.08,0.65c0.13-0.05,0.19-0.15,0.26-0.22c0.61-0.61,1.31-1.09,2.13-1.38c0.22-0.08,0.44-0.14,0.67-0.09
					c0.25,0.05,0.42,0.18,0.46,0.39c0.04,0.23-0.06,0.4-0.24,0.53c-0.1,0.07-0.2,0.13-0.31,0.18c-1.15,0.48-2,1.32-2.71,2.31
					c-0.4,0.56-0.72,1.17-0.99,1.81c-0.22,0.52-0.32,1.06-0.33,1.62c-0.01,0.63,0.02,1.27,0.07,1.9c0.01,0.21,0.01,0.41-0.04,0.61
					c-0.05,0.22-0.18,0.27-0.36,0.14c-0.17-0.12-0.31-0.27-0.4-0.46c-0.21-0.41-0.34-0.85-0.4-1.31c-0.11-0.87-0.12-1.74,0.18-2.58
					c0.18-0.53,0.41-1.05,0.7-1.53c0.1-0.16,0.14-0.33,0.15-0.52c0.03-0.47,0.09-0.95,0.04-1.42c-0.07-0.8-0.29-1.54-0.81-2.17
					c-0.35-0.43-0.78-0.68-1.33-0.74c-0.4-0.04-0.79,0.02-1.17,0.16c-0.23,0.08-0.45,0.19-0.68,0.28c-0.1,0.04-0.19,0.08-0.29,0.11
					C283.58,240.03,283.14,239.86,282.87,239.4z M288.51,265.67c0.23,0.38,0.51,0.75,0.78,1.1c0.08,0.11,0.16,0.21,0.21,0.34
					c0.06,0.17,0.1,0.35,0.27,0.46c0.05,0.04,0.07,0.11,0.04,0.17c-0.04,0.07-0.11,0.11-0.18,0.08c-0.21-0.1-0.43-0.09-0.65-0.14
					c-0.13-0.03-0.25-0.1-0.36-0.17c-0.45-0.31-0.83-0.68-1.14-1.13c-0.03-0.05-0.06-0.09-0.11-0.16c-0.38,0.19-0.71,0.42-1.01,0.69
					c-0.18,0.17-0.36,0.34-0.52,0.52c-0.21,0.26-0.49,0.44-0.71,0.69c-0.01,0.01-0.04,0.02-0.09,0.03
					c-0.14-0.31-0.27-0.61-0.19-0.97c0.09-0.41,0.32-0.74,0.62-1.02c0.37-0.35,0.77-0.65,1.23-0.88c0.06-0.03,0.14-0.05,0.19-0.13
					c-0.05-0.17-0.11-0.35-0.15-0.53c-0.24-0.97-0.22-1.95,0.08-2.9c0.31-1,0.77-1.91,1.5-2.66c0.26-0.27,0.55-0.5,0.88-0.68
					c0.17-0.09,0.34-0.16,0.53-0.2c0.16-0.03,0.32-0.03,0.47,0.03c0.2,0.08,0.33,0.23,0.33,0.45c0.01,0.21-0.09,0.38-0.29,0.45
					c-0.62,0.24-1.04,0.7-1.41,1.23c-0.44,0.64-0.77,1.34-0.93,2.11C287.69,263.61,287.91,264.68,288.51,265.67z M293.15,277.05
					c-0.16,0.03-0.33,0.04-0.5,0.06c-0.05,0.53-0.25,1-0.54,1.43c-0.17,0.25-0.38,0.47-0.64,0.62c-0.24,0.13-0.48,0.16-0.72-0.02
					c-0.07-0.23,0.02-0.43,0.15-0.62c0.17-0.25,0.35-0.49,0.48-0.76c0.08-0.16,0.15-0.31,0.19-0.48c0.02-0.08,0.04-0.17,0.02-0.26
					c-0.08-0.06-0.19-0.06-0.29-0.08c-0.98-0.2-1.9-0.55-2.72-1.12c-0.18-0.12-0.35-0.24-0.55-0.33c-0.24-0.11-0.27-0.11-0.45,0.08
					c-0.28,0.29-0.54,0.6-0.82,0.89c-0.27,0.29-0.55,0.57-0.85,0.82c-0.5,0.42-1.08,0.68-1.72,0.81c-0.21,0.04-0.41,0.02-0.6-0.08
					c-0.19-0.11-0.23-0.25-0.11-0.44c0.09-0.15,0.23-0.26,0.38-0.35c0.78-0.45,1.48-1,2.08-1.68c0.26-0.29,0.52-0.58,0.78-0.86
					c0.22-0.24,0.48-0.41,0.8-0.48c0.28-0.06,0.55-0.02,0.82,0.08c0.25,0.09,0.48,0.21,0.69,0.36c0.89,0.61,1.87,0.98,2.94,1.15
					c0.61,0.1,1.19,0.04,1.77-0.2c0.65-0.28,1.22-0.66,1.73-1.15c0.25-0.24,0.49-0.47,0.74-0.7c0.08-0.08,0.17-0.15,0.27-0.19
					c0.17-0.06,0.35-0.06,0.49,0.07c0.15,0.13,0.2,0.3,0.15,0.49c-0.03,0.15-0.11,0.28-0.19,0.4c-0.35,0.52-0.79,0.97-1.29,1.35
					C294.9,276.47,294.08,276.89,293.15,277.05z M302.9,271.76c0.26-1.25,0.21-2.5-0.11-3.74c-0.04-0.14-0.08-0.27-0.08-0.42
					c0-0.23,0.12-0.41,0.31-0.49c0.2-0.08,0.42-0.02,0.58,0.15c0.09,0.1,0.14,0.21,0.19,0.33c0.19,0.42,0.29,0.87,0.37,1.32
					c0.19,1.21,0.13,2.4-0.21,3.57c-0.19,0.66-0.51,1.24-0.98,1.74c-0.65,0.71-1.42,1.08-2.4,1.15c-0.21,0.49-0.48,0.93-0.8,1.35
					c-0.37,0.48-0.81,0.87-1.36,1.12c-0.55,0.25-1.11,0.27-1.69,0.07c-0.14-0.05-0.26-0.11-0.36-0.22c-0.15-0.17-0.11-0.37,0.1-0.47
					c0.12-0.06,0.24-0.07,0.37-0.09c0.98-0.1,1.73-0.57,2.26-1.39c0.13-0.21,0.26-0.41,0.39-0.62c0.05-0.08,0.11-0.15,0.21-0.18
					c0.38-0.12,0.73-0.3,1.06-0.52c0.29-0.2,0.6-0.39,0.88-0.6C302.34,273.3,302.72,272.6,302.9,271.76z M298.23,266.29
					c1.01-0.92,1.5-2.07,1.52-3.44c0.01-0.76-0.12-1.5-0.41-2.2c-0.06-0.15-0.14-0.28-0.21-0.43c-0.06-0.12-0.12-0.24-0.15-0.37
					c-0.04-0.21,0.03-0.38,0.2-0.5c0.16-0.12,0.34-0.12,0.52-0.02c0.15,0.08,0.26,0.2,0.37,0.33c0.24,0.3,0.41,0.64,0.53,1
					c0.52,1.5,0.54,3-0.07,4.48c-0.38,0.92-0.96,1.69-1.74,2.3c-0.05,0.04-0.11,0.07-0.15,0.14c0.04,0.06,0.08,0.14,0.12,0.21
					c0.29,0.47,0.54,0.95,0.69,1.48c0.15,0.52,0.18,1.04,0.04,1.57c-0.07,0.25-0.1,0.27-0.36,0.29c-0.04,0-0.08,0-0.12,0
					c-0.26,0.01-0.33-0.04-0.38-0.29c-0.1-0.44-0.22-0.87-0.37-1.3c-0.17-0.47-0.41-0.91-0.71-1.36c-1.3,0.67-2.68,0.87-4.11,0.74
					c-0.06,0.17-0.05,0.31-0.05,0.44c-0.02,0.4-0.02,0.81-0.08,1.21c-0.05,0.35-0.15,0.69-0.32,1.01c-0.12,0.24-0.29,0.43-0.54,0.54
					c-0.07,0.03-0.12,0.07-0.18,0.12c-0.06,0.05-0.12,0.07-0.2,0.02c-0.06-0.04-0.06-0.11-0.06-0.17c-0.03-0.56,0.1-1.12,0.11-1.68
					c0.01-0.42,0.03-0.84,0.04-1.26c0-0.14,0.01-0.28,0.04-0.42c0.1-0.54,0.44-0.89,0.98-0.99c0.19-0.03,0.38-0.04,0.57-0.04
					c0.71,0.01,1.43,0,2.12-0.2C296.74,267.27,297.55,266.9,298.23,266.29z M297.14,260.96c-0.04,0.09-0.12,0.1-0.2,0.07
					c-0.14-0.04-0.28-0.01-0.42,0.02c-0.35,0.09-0.71,0.06-1.06,0.09c-0.4,0.03-0.81,0.02-1.2,0.1c-0.05,0.01-0.1,0.01-0.13,0.05
					c-0.02,0.08,0,0.17,0.01,0.26c0.07,0.66,0.14,1.32,0.11,1.99c-0.01,0.22-0.04,0.44-0.08,0.66c-0.02,0.12-0.08,0.23-0.16,0.31
					c-0.12,0.12-0.26,0.12-0.38,0c-0.1-0.1-0.15-0.22-0.18-0.36c-0.1-0.46-0.14-0.94-0.19-1.41c-0.05-0.49-0.09-0.98-0.18-1.46
					c-0.09-0.48-0.11-0.97-0.24-1.44c-0.13-0.47-0.24-0.95-0.35-1.43c-0.03-0.14-0.07-0.28-0.07-0.42c0-0.21,0.1-0.37,0.27-0.43
					c0.18-0.06,0.36,0,0.49,0.19c0.12,0.17,0.2,0.36,0.27,0.55c0.19,0.51,0.32,1.03,0.43,1.55c0.02,0.08,0.04,0.17,0.06,0.25
					c0.09,0.03,0.17-0.01,0.24-0.02c0.61-0.09,1.23-0.12,1.84,0.02c0.32,0.07,0.6,0.2,0.79,0.48c0.06,0.09,0.16,0.12,0.25,0.18
					C297.12,260.82,297.18,260.87,297.14,260.96z"/>
				<path class="st15" d="M245.52,262.52c-0.15,0.22-0.29,0.46-0.4,0.7c-0.98,2.06-1.41,4.22-1.25,6.5
					c0.03,0.36,0.04,0.71,0.09,1.06c0.2,1.24,0.55,2.44,1.04,3.59c0.48,1.14,1.15,2.16,2.03,3.04c0.5,0.5,1.06,0.93,1.63,1.34
					c1.14,0.81,2.41,1.35,3.73,1.78c1.14,0.37,2.31,0.6,3.51,0.64c0.78,0.03,1.55,0.02,2.33,0.02c0.78,0,1.5,0.17,2.2,0.52
					c0.4,0.2,0.82,0.38,1.23,0.55c0.43,0.18,0.88,0.3,1.35,0.36c0.81,0.11,1.61,0.02,2.41-0.12c0.55-0.1,1.09-0.25,1.64-0.38
					c0.82-0.19,1.62-0.15,2.39,0.21c0.26,0.12,0.52,0.23,0.78,0.35c0.32,0.14,0.65,0.25,1,0.3c0.53,0.08,0.95-0.11,1.25-0.54
					c0.14-0.19,0.23-0.41,0.3-0.64c0.21-0.64,0.21-1.29,0.16-1.95c-0.02-0.3-0.07-0.59-0.14-0.88c-0.08-0.01-0.11,0.05-0.15,0.08
					c-0.18,0.15-0.35,0.3-0.56,0.4c-0.33,0.17-0.66,0.29-1.04,0.15c0.05-0.34,0.23-0.62,0.42-0.89c0.21-0.31,0.43-0.61,0.63-0.92
					c0.29-0.43,0.51-0.89,0.67-1.38c0.17-0.55,0.27-1.11,0.35-1.67c0.11-0.8,0.13-1.61,0.04-2.42c-0.1-0.88-0.3-1.75-0.53-2.6
					c-0.06-0.22-0.1-0.45-0.21-0.66c-0.29-0.57-0.57-1.15-0.86-1.72c-0.3-0.58-0.67-1.11-1.12-1.58c-0.27-0.29-0.56-0.56-0.85-0.83
					c-0.15-0.14-0.3-0.28-0.4-0.47c-0.13-0.23-0.03-0.41,0.23-0.43c0.23-0.02,0.46,0.04,0.67,0.13c0.34,0.16,0.65,0.36,0.93,0.61
					c0.49,0.44,0.89,0.96,1.24,1.53c0.03,0.05,0.04,0.13,0.12,0.13c0.03-0.18,0.05-0.36,0.08-0.54c0.09-0.64,0.2-1.28,0.25-1.93
					c0.1-1.31,0.11-2.63,0-3.94c-0.02-0.21-0.03-0.43-0.09-0.63c-0.16-0.58-0.33-1.16-0.53-1.72c-0.33-0.94-0.8-1.81-1.5-2.54
					c-0.38-0.4-0.8-0.74-1.33-0.92c-0.31-0.1-0.62-0.19-0.94-0.24c-0.26-0.05-0.52-0.08-0.76-0.18c-0.17-0.07-0.33-0.15-0.45-0.3
					c0.14-0.16,0.31-0.23,0.49-0.28c0.44-0.13,0.9-0.09,1.35-0.07c0.37,0.02,0.74,0.1,1.08,0.24c0.68,0.28,1.21,0.75,1.67,1.3
					c0.07,0.09,0.15,0.18,0.23,0.29c0.04-0.12-0.01-0.21-0.02-0.3c-0.19-1.57-0.27-3.15-0.32-4.74c-0.02-0.72-0.01-1.44,0.03-2.16
					c0-0.09,0.02-0.17-0.03-0.25c-0.33-0.49-0.68-0.95-1.22-1.24c-0.18-0.09-0.35-0.18-0.53-0.27c-0.24-0.12-0.49-0.23-0.7-0.39
					c-0.12-0.09-0.24-0.19-0.26-0.35c0.08-0.1,0.18-0.15,0.3-0.19c0.16-0.05,0.33-0.05,0.49-0.05c0.77,0.04,1.41,0.38,1.95,0.92
					c0.05,0.05,0.07,0.12,0.16,0.13c0.01-0.04,0.02-0.07,0.03-0.1c0.09-0.58,0.2-1.15,0.33-1.73c0.21-0.98,0.51-1.94,0.7-2.93
					c0.25-1.25,0.41-2.5,0.4-3.77c-0.01-1.04-0.22-2.05-0.71-2.97c-0.85-1.6-2.19-2.46-4.01-2.51c-1.23-0.03-2.37,0.32-3.48,0.83
					c-0.42,0.19-0.79,0.46-1.19,0.7c-0.5,0.29-1.02,0.39-1.6,0.32c-1.13-0.15-2.22-0.01-3.28,0.44c-1.36,0.59-2.47,1.47-3.2,2.78
					c-0.13,0.23-0.27,0.47-0.39,0.71c-0.31,0.58-0.76,1-1.4,1.21c-0.34,0.11-0.66,0.26-0.98,0.42c-1.41,0.66-2.45,1.71-3.24,3.04
					c-0.08,0.14-0.17,0.28-0.2,0.44c0.09,0.03,0.16,0,0.23-0.01c0.63-0.09,1.25-0.06,1.86,0.08c1.94,0.46,3.45,1.53,4.54,3.2
					c0.74,1.14,1.23,2.38,1.54,3.71c0.07,0.3,0.13,0.61,0.11,0.91c-0.05,0.77-0.19,1.52-0.45,2.25c-0.08,0.21-0.19,0.4-0.34,0.57
					c-0.11,0.14-0.24,0.16-0.39,0.1c0.04-0.48,0.09-0.94,0.11-1.41c0.04-0.71-0.08-1.4-0.23-2.09c-0.28-1.22-0.73-2.37-1.42-3.42
					c-0.92-1.4-2.2-2.28-3.83-2.63c-0.84-0.18-1.67-0.11-2.43,0.33c-0.05,0.03-0.1,0.05-0.16,0.06c-0.11,0.02-0.19,0.07-0.28,0.11
					c-0.83,0.45-1.46,1.11-1.95,1.9c-0.26,0.41-0.48,0.84-0.69,1.27c-0.22,0.47-0.52,0.86-0.92,1.19c-1.05,0.86-1.56,1.98-1.62,3.33
					c-0.04,0.85,0.07,1.68,0.22,2.5c0.19,1.05,0.12,2.06-0.39,3.02c-0.24,0.46-0.41,0.94-0.57,1.43c-0.23,0.69-0.4,1.4-0.4,2.14
					c0,1.23,0.36,2.37,0.95,3.44c0.01,0.02,0.02,0.04,0.06,0.04c0.04-0.02,0.03-0.06,0.05-0.09c0.39-1.17,0.82-2.33,1.52-3.36
					c0.35-0.52,0.49-1.11,0.43-1.74c-0.08-0.75-0.06-1.5,0.03-2.25c0.23-2.09,1.24-3.71,2.95-4.91c0.48-0.34,1.02-0.5,1.61-0.51
					c0.37-0.01,0.74,0,1.09,0.1c0.02-0.03,0.03-0.03,0.03-0.04c0.01-0.05,0.01-0.11,0.01-0.16c0.06-0.74,0.22-1.45,0.55-2.12
					c0.06-0.12,0.12-0.24,0.22-0.34c0.16-0.15,0.35-0.19,0.55-0.12c0.2,0.07,0.31,0.21,0.35,0.42c0.03,0.14,0,0.27-0.04,0.4
					c-0.04,0.15-0.1,0.3-0.15,0.45c-0.21,0.64-0.34,1.3-0.26,1.98c0.07,0.59,0.24,1.14,0.51,1.67c0.14,0.28,0.29,0.56,0.46,0.83
					c0.1,0.16,0.12,0.36,0.28,0.48c0.04,0.03,0.04,0.09,0.02,0.13c-0.03,0.06-0.09,0.08-0.16,0.08c-0.08,0-0.15-0.05-0.23-0.04
					c-0.32,0.04-0.57-0.1-0.8-0.29c-0.34-0.27-0.59-0.61-0.78-1c-0.16-0.34-0.27-0.69-0.37-1.07c-0.23,0.03-0.44-0.06-0.66-0.09
					c-0.53-0.07-1.05-0.06-1.51,0.26c-0.74,0.51-1.36,1.14-1.79,1.94c-0.59,1.09-0.73,2.28-0.7,3.5c0.01,0.31,0.04,0.62,0.05,0.92
					c0.02,0.5-0.06,0.99-0.26,1.46C245.92,261.84,245.74,262.19,245.52,262.52z M266.75,278.03c-0.19,0.1-0.39,0.1-0.6,0.06
					c-0.8-0.15-1.46-0.55-2.04-1.1c-0.42-0.41-0.81-0.85-1.2-1.28c-0.32-0.35-0.28-0.39-0.77-0.12c-0.24,0.14-0.47,0.3-0.7,0.44
					c-0.78,0.49-1.65,0.75-2.55,0.94c-0.04,0.01-0.08,0.02-0.13,0.03c-0.02,0.18,0.03,0.32,0.09,0.46c0.14,0.37,0.35,0.69,0.58,1.01
					c0.2,0.28,0.22,0.36,0.19,0.67c-0.22,0.18-0.46,0.16-0.7,0.03c-0.28-0.15-0.49-0.38-0.66-0.63c-0.3-0.43-0.49-0.9-0.54-1.43
					c-0.27-0.03-0.53-0.04-0.78-0.11c-1.03-0.27-1.92-0.8-2.7-1.53c-0.28-0.26-0.53-0.54-0.75-0.86c-0.1-0.15-0.21-0.3-0.25-0.48
					c-0.04-0.2,0.01-0.38,0.18-0.51c0.16-0.12,0.34-0.12,0.52-0.03c0.15,0.07,0.27,0.2,0.39,0.31c0.28,0.27,0.56,0.54,0.85,0.8
					c0.49,0.45,1.07,0.76,1.69,0.99c0.58,0.22,1.16,0.19,1.75,0.08c0.99-0.18,1.9-0.55,2.73-1.12c0.24-0.17,0.5-0.3,0.78-0.39
					c0.5-0.16,0.95-0.07,1.35,0.27c0.11,0.09,0.21,0.2,0.3,0.3c0.22,0.23,0.43,0.47,0.64,0.7c0.6,0.68,1.3,1.24,2.1,1.69
					c0.15,0.08,0.27,0.19,0.37,0.33C267.01,277.76,266.96,277.92,266.75,278.03z M263.66,265.3c0.45,0.24,0.86,0.54,1.22,0.89
					c0.28,0.27,0.5,0.59,0.6,0.98c0.04,0.19,0.05,0.38-0.02,0.56c-0.05,0.14-0.06,0.29-0.16,0.41c-0.05,0.02-0.09,0-0.12-0.03
					c-0.36-0.34-0.7-0.7-1.05-1.06c-0.27-0.28-0.58-0.51-0.92-0.71c-0.07-0.04-0.14-0.1-0.23-0.11c-0.07,0.03-0.09,0.11-0.13,0.16
					c-0.31,0.45-0.7,0.82-1.15,1.12c-0.17,0.11-0.35,0.19-0.55,0.19c-0.13,0-0.25,0.03-0.37,0.09c-0.08,0.04-0.17,0.05-0.23-0.04
					c-0.06-0.09-0.01-0.17,0.06-0.22c0.11-0.08,0.16-0.19,0.2-0.31c0.05-0.16,0.14-0.3,0.24-0.43c0.26-0.33,0.51-0.67,0.73-1.02
					c0.79-1.25,0.97-2.59,0.46-3.99c-0.27-0.73-0.64-1.41-1.18-1.99c-0.26-0.27-0.54-0.5-0.9-0.64c-0.25-0.1-0.37-0.28-0.35-0.51
					c0.02-0.22,0.18-0.39,0.43-0.45c0.19-0.05,0.38-0.02,0.56,0.04c0.33,0.11,0.61,0.29,0.88,0.51c0.46,0.38,0.83,0.83,1.13,1.34
					c0.47,0.81,0.82,1.66,0.92,2.6c0.08,0.73,0.04,1.45-0.18,2.16c-0.03,0.11-0.06,0.21-0.1,0.32
					C263.51,265.25,263.59,265.27,263.66,265.3z M257.59,241.48c-0.18-0.13-0.29-0.3-0.23-0.53c0.05-0.23,0.22-0.34,0.44-0.38
					c0.24-0.04,0.46,0.01,0.67,0.09c0.66,0.23,1.24,0.58,1.77,1.04c0.15,0.13,0.29,0.27,0.43,0.41c0.06,0.05,0.1,0.12,0.2,0.17
					c0.03-0.22,0.05-0.43,0.08-0.64c0.12-0.82,0.4-1.58,0.91-2.24c0.66-0.86,1.53-1.28,2.61-1.26c0.65,0.01,1.26,0.19,1.84,0.49
					c0.07,0.04,0.14,0.07,0.24,0.12c0.12-0.34,0.23-0.66,0.35-0.98c0.23-0.61,0.58-1.14,1.04-1.6c0.2-0.2,0.43-0.37,0.7-0.49
					c0.16-0.07,0.32-0.09,0.49-0.08c0.26,0.03,0.36,0.22,0.22,0.44c-0.06,0.09-0.12,0.19-0.2,0.26c-0.69,0.62-1.06,1.43-1.35,2.28
					c-0.05,0.15-0.09,0.3-0.15,0.45c-0.07,0.19-0.15,0.37-0.27,0.52c-0.27,0.33-0.61,0.43-1.02,0.33c-0.25-0.06-0.49-0.19-0.73-0.29
					c-0.5-0.21-1.02-0.34-1.57-0.27c-0.46,0.06-0.84,0.27-1.15,0.61c-0.42,0.47-0.68,1.02-0.81,1.64c-0.12,0.57-0.11,1.15-0.08,1.72
					c0.02,0.42,0.14,0.79,0.34,1.16c0.33,0.59,0.61,1.22,0.71,1.9c0.16,1.09,0.11,2.16-0.37,3.18c-0.09,0.2-0.23,0.36-0.41,0.49
					c-0.19,0.14-0.33,0.08-0.38-0.15c-0.04-0.2-0.05-0.41-0.03-0.61c0.05-0.75,0.1-1.5,0.05-2.25c-0.03-0.33-0.09-0.64-0.2-0.95
					c-0.51-1.37-1.28-2.56-2.37-3.53c-0.39-0.35-0.83-0.61-1.3-0.82C257.89,241.66,257.73,241.58,257.59,241.48z M253.3,260.78
					c0.15-0.07,0.26-0.2,0.37-0.32c0.23-0.25,0.55-0.33,0.87-0.39c0.55-0.09,1.1-0.07,1.65,0.02c0.07,0.01,0.14,0.04,0.22,0.02
					c0.07-0.29,0.13-0.58,0.2-0.87c0.1-0.41,0.22-0.82,0.4-1.21c0.05-0.11,0.11-0.23,0.2-0.32c0.12-0.14,0.29-0.2,0.45-0.14
					c0.17,0.06,0.25,0.19,0.27,0.36c0.02,0.16-0.02,0.32-0.06,0.47c-0.14,0.58-0.31,1.16-0.42,1.75c-0.05,0.26-0.09,0.51-0.1,0.77
					c-0.02,0.25-0.11,0.49-0.13,0.74c-0.05,0.52-0.12,1.04-0.17,1.56c-0.03,0.32-0.08,0.64-0.15,0.96c-0.02,0.11-0.06,0.21-0.14,0.3
					c-0.14,0.17-0.31,0.17-0.45-0.01c-0.07-0.09-0.1-0.19-0.13-0.3c-0.11-0.52-0.09-1.04-0.06-1.56c0.03-0.43,0.07-0.87,0.12-1.31
					c-0.33-0.09-0.62-0.11-0.92-0.12c-0.39-0.02-0.79-0.03-1.19-0.05c-0.09,0-0.19-0.02-0.28-0.04c-0.15-0.05-0.3-0.08-0.46-0.03
					c-0.07,0.02-0.15,0-0.18-0.07C253.17,260.88,253.22,260.81,253.3,260.78z M249.83,260.48c0.13-0.34,0.31-0.66,0.56-0.93
					c0.09-0.09,0.18-0.18,0.3-0.23c0.17-0.08,0.34-0.07,0.49,0.04c0.16,0.12,0.22,0.28,0.2,0.48c-0.02,0.16-0.1,0.3-0.17,0.44
					c-0.64,1.27-0.78,2.6-0.38,3.97c0.3,1.05,0.93,1.88,1.86,2.47c1.04,0.67,2.18,1.04,3.43,1.03c0.32,0,0.63-0.03,0.95,0.01
					c0.65,0.09,1,0.43,1.11,1.08c0.03,0.2,0.03,0.39,0.03,0.59c0.02,0.68,0.02,1.36,0.13,2.04c0.04,0.23-0.03,0.47,0,0.71
					c0.02,0.13-0.11,0.17-0.24,0.11c-0.6-0.28-0.86-0.8-1-1.41c-0.11-0.48-0.1-0.96-0.13-1.44c-0.01-0.14,0-0.28-0.03-0.43
					c-0.14-0.06-0.29-0.04-0.42-0.03c-1.23,0.07-2.41-0.15-3.53-0.67c-0.04-0.02-0.09-0.04-0.13-0.06c-0.01-0.01-0.03,0-0.06-0.01
					c-0.27,0.41-0.52,0.84-0.68,1.31c-0.15,0.41-0.26,0.83-0.36,1.25c-0.07,0.33-0.12,0.36-0.45,0.35c-0.02,0-0.03,0-0.05,0
					c-0.28-0.01-0.31-0.04-0.39-0.32c-0.09-0.35-0.11-0.7-0.06-1.06c0.08-0.58,0.3-1.11,0.59-1.62c0.11-0.19,0.22-0.37,0.32-0.55
					c-0.02-0.08-0.1-0.11-0.15-0.15c-1.56-1.29-2.27-2.96-2.18-4.98C249.43,261.78,249.58,261.12,249.83,260.48z M246.32,268.33
					c0.07-0.29,0.17-0.56,0.29-0.83c0.05-0.11,0.11-0.21,0.2-0.29c0.16-0.14,0.34-0.17,0.53-0.1c0.19,0.07,0.28,0.23,0.3,0.42
					c0.02,0.16-0.02,0.31-0.07,0.47c-0.21,0.75-0.3,1.52-0.28,2.3c0.01,0.61,0.08,1.21,0.25,1.8c0.21,0.72,0.61,1.32,1.23,1.75
					c0.38,0.27,0.77,0.52,1.17,0.77c0.21,0.13,0.44,0.22,0.67,0.29c0.11,0.04,0.19,0.1,0.25,0.2c0.15,0.26,0.31,0.51,0.48,0.76
					c0.52,0.73,1.23,1.14,2.12,1.25c0.13,0.02,0.27,0.03,0.39,0.09c0.23,0.1,0.27,0.31,0.1,0.5c-0.09,0.1-0.2,0.15-0.32,0.2
					c-0.57,0.21-1.13,0.19-1.69-0.05c-0.55-0.24-0.99-0.62-1.35-1.09c-0.31-0.4-0.57-0.82-0.77-1.28c-0.02-0.04-0.03-0.07-0.06-0.11
					c-0.2-0.01-0.39-0.03-0.59-0.08c-1.13-0.27-1.91-0.98-2.45-1.98c-0.31-0.56-0.46-1.18-0.56-1.8
					C246.03,270.44,246.07,269.38,246.32,268.33z"/>
				<path class="st15" d="M267.41,283.39c0.98,0.55,1.77,1.32,2.52,2.15c1.03,1.15,1.96,2.38,2.84,3.65
					c0.4,0.58,0.81,1.15,1.24,1.71c0.2,0.25,0.41,0.48,0.64,0.7c0.09,0.08,0.17,0.16,0.27,0.23c0.27,0.21,0.39,0.21,0.65,0
					c0.31-0.25,0.57-0.55,0.81-0.87c0.48-0.65,0.95-1.31,1.43-1.96c0.8-1.09,1.61-2.18,2.52-3.18c0.85-0.94,1.82-1.74,2.96-2.31
					c0.05-0.02,0.1-0.04,0.14-0.09c-0.54-0.21-1.31-0.27-1.73-0.1c-0.32,0.13-0.63,0.25-0.94,0.39c-0.48,0.22-0.98,0.4-1.51,0.46
					c-0.92,0.11-1.67-0.19-2.25-0.9c-0.44-0.53-0.64-1.16-0.74-1.83c-0.13-0.94-0.1-1.88,0.17-2.8c0.08-0.29,0.2-0.57,0.38-0.82
					c-0.01-0.03-0.02-0.06-0.03-0.09c-0.42-0.84-0.63-1.74-0.75-2.66c-0.11-0.75-0.17-1.51-0.12-2.27c0.06-1.03,0.26-2.04,0.52-3.04
					c0.1-0.4,0.22-0.79,0.3-1.2c0.13-0.59,0.11-1.19,0.04-1.8c-0.1-0.83-0.26-1.66-0.33-2.49c-0.09-1.04-0.14-2.09-0.09-3.13
					c0.04-0.85,0.1-1.71,0.2-2.56c0.09-0.72,0.23-1.44,0.36-2.15c0.29-1.58,0.48-3.18,0.55-4.78c0.03-0.66,0.06-1.33,0.08-1.99
					c0.05-1.9-0.17-3.78-0.63-5.62c-0.24-0.94-0.5-1.88-0.67-2.84c-0.22-1.21-0.37-2.43-0.35-3.66c0.01-0.42,0.05-0.84,0.12-1.24
					c-0.5-0.14-1.17-0.27-1.64-0.14c0.09,0.47,0.14,0.95,0.14,1.43c0.01,1.38-0.17,2.75-0.45,4.1c-0.2,0.99-0.49,1.96-0.71,2.95
					c-0.39,1.73-0.53,3.49-0.48,5.26c0.03,1.11,0.09,2.21,0.17,3.32c0.07,0.88,0.2,1.76,0.35,2.63c0.16,0.96,0.37,1.91,0.48,2.88
					c0.08,0.71,0.13,1.42,0.17,2.13c0.07,1.07,0.02,2.14-0.05,3.2c-0.05,0.66-0.16,1.3-0.26,1.95c-0.07,0.46-0.13,0.93-0.15,1.39
					c-0.03,0.56,0.05,1.11,0.2,1.64c0.23,0.82,0.44,1.64,0.57,2.47c0.18,1.12,0.2,2.24,0.04,3.36c-0.11,0.74-0.23,1.47-0.49,2.17
					c-0.09,0.25-0.2,0.5-0.32,0.75c0.41,0.63,0.54,1.35,0.59,2.07c0.06,0.83,0.02,1.66-0.27,2.46c-0.24,0.66-0.62,1.2-1.25,1.56
					c-0.56,0.32-1.16,0.35-1.77,0.23c-0.44-0.08-0.85-0.24-1.26-0.42c-0.29-0.14-0.59-0.26-0.9-0.37c-0.45-0.17-0.89-0.13-1.34-0.03
					C267.36,283.36,267.39,283.37,267.41,283.39z"/>
			</g>
			<g class="st4">
				<rect x="274.1" y="300.51" class="st16" width="1.27" height="60.56"/>
				
					<rect x="269.84" y="290.93" transform="matrix(0.7071 -0.7071 0.7071 0.7071 -130.7464 278.2281)" class="st16" width="1.27" height="12.03"/>
				<path class="st16" d="M264.23,304.61c-1.77,0-3.21-1.44-3.21-3.21c0-1.77,1.44-3.21,3.21-3.21c1.77,0,3.21,1.44,3.21,3.21
					C267.44,303.17,266,304.61,264.23,304.61z M264.23,299.46c-1.07,0-1.94,0.87-1.94,1.94c0,1.07,0.87,1.94,1.94,1.94
					c1.07,0,1.94-0.87,1.94-1.94C266.17,300.33,265.3,299.46,264.23,299.46z"/>
				<path class="st16" d="M264.52,293.97c-1.77,0-3.21-1.44-3.21-3.21c0-1.77,1.44-3.21,3.21-3.21c1.77,0,3.21,1.44,3.21,3.21
					C267.73,292.53,266.29,293.97,264.52,293.97z M264.52,288.82c-1.07,0-1.94,0.87-1.94,1.94c0,1.07,0.87,1.94,1.94,1.94
					c1.07,0,1.94-0.87,1.94-1.94C266.46,289.69,265.59,288.82,264.52,288.82z"/>
				
					<rect x="272.97" y="296.3" transform="matrix(0.7072 -0.7071 0.7071 0.7072 -128.2546 284.2094)" class="st16" width="12.03" height="1.27"/>
				<path class="st16" d="M284.94,293.97c-1.77,0-3.21-1.44-3.21-3.21c0-1.77,1.44-3.21,3.21-3.21c1.77,0,3.21,1.44,3.21,3.21
					C288.15,292.53,286.71,293.97,284.94,293.97z M284.94,288.82c-1.07,0-1.94,0.87-1.94,1.94c0,1.07,0.87,1.94,1.94,1.94
					c1.07,0,1.94-0.87,1.94-1.94C286.88,289.69,286.01,288.82,284.94,288.82z"/>
				<polygon class="st16" points="271.89,338.87 270.62,338.87 270.62,308.66 265.62,303.65 266.51,302.75 271.89,308.14 				"/>
				<path class="st16" d="M264.28,319.28c-1.77,0-3.21-1.44-3.21-3.21c0-1.77,1.44-3.21,3.21-3.21c1.77,0,3.21,1.44,3.21,3.21
					C267.49,317.84,266.05,319.28,264.28,319.28z M264.28,314.13c-1.07,0-1.94,0.87-1.94,1.94c0,1.07,0.87,1.94,1.94,1.94
					c1.07,0,1.94-0.87,1.94-1.94C266.21,315,265.35,314.13,264.28,314.13z"/>
				<polygon class="st16" points="271.93,361.52 270.66,361.52 270.66,323.33 265.66,318.32 266.56,317.42 271.93,322.8 				"/>
				<path class="st16" d="M251.85,305.31c-1.77,0-3.21-1.44-3.21-3.21c0-1.77,1.44-3.21,3.21-3.21c1.77,0,3.21,1.44,3.21,3.21
					C255.06,303.87,253.62,305.31,251.85,305.31z M251.85,300.16c-1.07,0-1.94,0.87-1.94,1.94c0,1.07,0.87,1.94,1.94,1.94
					c1.07,0,1.94-0.87,1.94-1.94C253.79,301.04,252.92,300.16,251.85,300.16z"/>
				<polygon class="st16" points="270.62,312.86 253.23,304.36 254.13,303.46 270.69,311.86 				"/>
				<path class="st16" d="M295.02,302.1c0-1.77,1.44-3.21,3.21-3.21c1.77,0,3.21,1.44,3.21,3.21c0,1.77-1.44,3.21-3.21,3.21
					C296.46,305.31,295.02,303.87,295.02,302.1z M296.29,302.1c0,1.07,0.87,1.94,1.94,1.94c1.07,0,1.94-0.87,1.94-1.94
					c0-1.07-0.87-1.94-1.94-1.94C297.16,300.16,296.29,301.04,296.29,302.1z"/>
				<polygon class="st16" points="279.46,312.86 296.84,304.36 295.94,303.46 279.39,311.86 				"/>
				<path class="st16" d="M282.7,325.17c0-1.77,1.44-3.21,3.21-3.21c1.77,0,3.21,1.44,3.21,3.21c0,1.77-1.44,3.21-3.21,3.21
					C284.14,328.38,282.7,326.94,282.7,325.17z M283.97,325.17c0,1.07,0.87,1.94,1.94,1.94c1.07,0,1.94-0.87,1.94-1.94
					c0-1.07-0.87-1.94-1.94-1.94C284.84,323.23,283.97,324.1,283.97,325.17z"/>
				<polygon class="st16" points="278.25,339.08 279.52,339.08 279.52,332.43 284.52,327.42 283.63,326.52 278.25,331.91 				"/>
				<path class="st16" d="M264.23,341.54c-1.77,0-3.21-1.44-3.21-3.21c0-1.77,1.44-3.21,3.21-3.21c1.77,0,3.21,1.44,3.21,3.21
					C267.44,340.1,266,341.54,264.23,341.54z M264.23,336.39c-1.07,0-1.94,0.87-1.94,1.94c0,1.07,0.87,1.94,1.94,1.94
					c1.07,0,1.94-0.87,1.94-1.94C266.17,337.26,265.3,336.39,264.23,336.39z"/>
				<polygon class="st16" points="271.89,352.25 270.62,352.25 270.62,345.6 265.62,340.58 266.51,339.69 271.89,345.07 				"/>
				<path class="st16" d="M282.7,301.45c0-1.77,1.44-3.21,3.21-3.21c1.77,0,3.21,1.44,3.21,3.21c0,1.77-1.44,3.21-3.21,3.21
					C284.14,304.66,282.7,303.22,282.7,301.45z M283.97,301.45c0,1.07,0.87,1.94,1.94,1.94c1.07,0,1.94-0.87,1.94-1.94
					c0-1.07-0.87-1.94-1.94-1.94C284.84,299.51,283.97,300.38,283.97,301.45z"/>
				<polygon class="st16" points="278.25,360.55 279.52,360.55 279.52,308.71 284.52,303.7 283.63,302.8 278.25,308.18 				"/>
			</g>
		</g>
		<g>
			<path class="st17" d="M35.74,257.57c1.37,0,2.84,0.06,4.41,0.17c1.57,0.11,3.28,0.48,5.14,1.09c2.7,0.93,4.87,2.31,6.53,4.14
				c1.66,1.83,2.95,3.82,3.88,5.97c0.93,2.14,1.55,4.32,1.86,6.53c0.31,2.21,0.46,4.15,0.46,5.83c0,1.02-0.06,2.2-0.17,3.55
				c-0.11,1.35-0.32,2.75-0.63,4.21c-0.31,1.46-0.75,2.93-1.33,4.41c-0.57,1.48-1.34,2.88-2.29,4.21c-0.95,1.33-2.11,2.53-3.48,3.61
				c-1.37,1.08-2.98,1.93-4.84,2.55c-1.59,0.53-3.15,0.86-4.67,0.99s-3.15,0.2-4.87,0.2H23.48c-0.84,0-1.52-0.03-2.02-0.1
				c-0.51-0.07-0.9-0.23-1.16-0.5c-0.26-0.26-0.43-0.65-0.5-1.16c-0.07-0.51-0.1-1.18-0.1-2.02v-39.91c0-0.84,0.04-1.51,0.13-2.02
				c0.09-0.51,0.27-0.89,0.53-1.16s0.64-0.43,1.13-0.5c0.49-0.07,1.15-0.1,1.99-0.1H35.74z M24.2,301.13h11.2
				c0.44,0,1.03-0.01,1.76-0.03c0.73-0.02,1.51-0.08,2.35-0.17c0.84-0.09,1.68-0.22,2.52-0.4c0.84-0.18,1.64-0.44,2.39-0.8
				c1.86-0.84,3.36-1.96,4.51-3.35c1.15-1.39,2.04-2.95,2.69-4.67c0.64-1.72,1.08-3.54,1.33-5.44c0.24-1.9,0.36-3.78,0.36-5.64
				c0-0.93-0.08-2.2-0.23-3.81c-0.16-1.61-0.53-3.28-1.13-5c-0.6-1.72-1.48-3.39-2.65-5.01c-1.17-1.61-2.77-2.88-4.81-3.81
				c-1.46-0.66-2.99-1.08-4.61-1.26c-1.61-0.18-3.11-0.26-4.48-0.26H24.2V301.13z"/>
			<path class="st17" d="M67.4,262.58c-0.51,0.51-1.12,0.76-1.82,0.76c-0.75,0-1.37-0.25-1.86-0.76c-0.49-0.51-0.73-1.12-0.73-1.82
				c0-0.75,0.24-1.37,0.73-1.86c0.49-0.49,1.1-0.73,1.86-0.73c0.71,0,1.31,0.24,1.82,0.73c0.51,0.49,0.76,1.11,0.76,1.86
				C68.16,261.46,67.91,262.07,67.4,262.58z M67.56,302.52c0,0.75-0.09,1.49-0.27,2.22c-0.18,0.73-0.75,1.09-1.72,1.09
				c-0.53,0-0.93-0.1-1.19-0.3c-0.26-0.2-0.46-0.46-0.6-0.8c-0.13-0.33-0.21-0.68-0.23-1.06c-0.02-0.37-0.03-0.76-0.03-1.16v-29.24
				c0-0.4,0.01-0.8,0.03-1.19c0.02-0.4,0.1-0.76,0.23-1.09c0.13-0.33,0.33-0.6,0.6-0.8c0.26-0.2,0.66-0.3,1.19-0.3
				c0.49,0,0.86,0.11,1.13,0.33c0.26,0.22,0.46,0.5,0.6,0.83c0.13,0.33,0.21,0.7,0.23,1.09c0.02,0.4,0.03,0.77,0.03,1.13V302.52z"/>
			<path class="st17" d="M100.84,272.82c0-0.27,0.01-0.57,0.03-0.93c0.02-0.35,0.09-0.67,0.2-0.96c0.11-0.29,0.3-0.53,0.56-0.73
				c0.26-0.2,0.66-0.3,1.19-0.3c0.97,0,1.56,0.32,1.76,0.96c0.2,0.64,0.3,1.6,0.3,2.88v27.51c0,1.37-0.03,2.71-0.1,4.01
				s-0.25,2.56-0.56,3.78c-0.31,1.21-0.75,2.36-1.33,3.45c-0.58,1.08-1.39,2.07-2.45,2.95c-1.24,1.02-2.81,1.89-4.71,2.62
				c-1.9,0.73-4.35,1.09-7.36,1.09c-2.79,0-5.05-0.34-6.8-1.03c-1.75-0.69-3.22-1.67-4.41-2.95c-0.8-0.84-1.45-1.73-1.96-2.68
				c-0.51-0.95-0.76-1.71-0.76-2.29c0-0.53,0.17-0.99,0.5-1.39c0.33-0.4,0.81-0.6,1.43-0.6c0.53,0,0.91,0.13,1.13,0.4
				c0.22,0.26,0.62,0.93,1.19,1.99c0.93,1.77,2.14,3.08,3.65,3.95c1.5,0.86,3.51,1.29,6.03,1.29c1.9,0,3.51-0.19,4.84-0.56
				c1.33-0.38,2.43-0.85,3.32-1.43c0.88-0.57,1.58-1.19,2.09-1.86c0.51-0.66,0.87-1.3,1.09-1.92c0.27-0.62,0.46-1.2,0.6-1.76
				c0.13-0.55,0.23-1.19,0.3-1.92c0.07-0.73,0.12-1.61,0.17-2.65c0.04-1.04,0.07-2.38,0.07-4.01c-0.35,0.49-0.81,1.06-1.36,1.72
				c-0.55,0.66-1.38,1.35-2.49,2.05c-1.41,0.93-2.86,1.55-4.34,1.86c-1.48,0.31-2.84,0.46-4.08,0.46c-2.43,0-4.51-0.35-6.23-1.06
				c-1.72-0.71-3.16-1.62-4.31-2.75c-1.15-1.13-2.08-2.38-2.78-3.75c-0.71-1.37-1.24-2.72-1.59-4.04c-0.35-1.33-0.59-2.55-0.7-3.68
				c-0.11-1.13-0.17-2-0.17-2.62c0-1.86,0.25-3.83,0.76-5.93c0.51-2.1,1.37-4.04,2.59-5.83c1.21-1.79,2.81-3.28,4.77-4.48
				c1.97-1.19,4.41-1.79,7.33-1.79c1.86,0,3.46,0.21,4.81,0.63c1.35,0.42,2.51,0.95,3.48,1.59c0.97,0.64,1.8,1.34,2.49,2.09
				c0.68,0.75,1.29,1.44,1.82,2.06V272.82z M78.04,294.67c0.66,1.88,1.55,3.4,2.65,4.57c1.1,1.17,2.38,2.01,3.81,2.52
				c1.44,0.51,2.93,0.76,4.48,0.76c1.33,0,2.7-0.23,4.11-0.7c1.41-0.46,2.7-1.26,3.84-2.39c1.15-1.13,2.1-2.6,2.85-4.41
				c0.75-1.81,1.13-4.09,1.13-6.83c0-2.78-0.37-5.13-1.09-7.03c-0.73-1.9-1.67-3.45-2.82-4.64c-1.15-1.19-2.44-2.04-3.88-2.55
				c-1.44-0.51-2.86-0.76-4.28-0.76c-1.33,0-2.7,0.24-4.11,0.73c-1.41,0.49-2.69,1.29-3.81,2.42c-1.13,1.13-2.05,2.62-2.78,4.48
				c-0.73,1.86-1.09,4.15-1.09,6.89C77.04,290.48,77.37,292.79,78.04,294.67z"/>
			<path class="st17" d="M116.06,262.58c-0.51,0.51-1.12,0.76-1.82,0.76c-0.75,0-1.37-0.25-1.86-0.76
				c-0.49-0.51-0.73-1.12-0.73-1.82c0-0.75,0.24-1.37,0.73-1.86c0.49-0.49,1.1-0.73,1.86-0.73c0.71,0,1.31,0.24,1.82,0.73
				c0.51,0.49,0.76,1.11,0.76,1.86C116.82,261.46,116.57,262.07,116.06,262.58z M116.22,302.52c0,0.75-0.09,1.49-0.26,2.22
				c-0.18,0.73-0.75,1.09-1.72,1.09c-0.53,0-0.93-0.1-1.19-0.3c-0.27-0.2-0.46-0.46-0.6-0.8c-0.13-0.33-0.21-0.68-0.23-1.06
				c-0.02-0.37-0.03-0.76-0.03-1.16v-29.24c0-0.4,0.01-0.8,0.03-1.19c0.02-0.4,0.1-0.76,0.23-1.09c0.13-0.33,0.33-0.6,0.6-0.8
				c0.26-0.2,0.66-0.3,1.19-0.3c0.49,0,0.86,0.11,1.13,0.33c0.27,0.22,0.46,0.5,0.6,0.83c0.13,0.33,0.21,0.7,0.23,1.09
				c0.02,0.4,0.03,0.77,0.03,1.13V302.52z"/>
			<path class="st17" d="M128.42,270.7h3.71c0.22,0,0.49,0.01,0.79,0.03c0.31,0.02,0.6,0.08,0.86,0.17
				c0.27,0.09,0.49,0.23,0.66,0.43c0.18,0.2,0.26,0.48,0.26,0.83c0,0.75-0.32,1.19-0.96,1.33c-0.64,0.13-1.18,0.2-1.62,0.2h-3.71
				v22.61c0,2.08,0.22,3.59,0.66,4.54c0.44,0.95,1.5,1.43,3.18,1.43c0.13,0,0.33-0.01,0.6-0.03c0.27-0.02,0.54-0.05,0.83-0.1
				c0.29-0.04,0.56-0.08,0.83-0.1c0.27-0.02,0.44-0.03,0.53-0.03c0.49,0,0.86,0.15,1.13,0.46c0.26,0.31,0.4,0.69,0.4,1.13
				c0,0.75-0.43,1.27-1.29,1.56c-0.86,0.29-2,0.43-3.41,0.43c-1.86,0-3.29-0.28-4.31-0.83c-1.02-0.55-1.76-1.25-2.22-2.09
				c-0.46-0.84-0.74-1.78-0.83-2.82c-0.09-1.04-0.13-2.07-0.13-3.08v-23.07h-2.06c-0.22,0-0.49-0.01-0.79-0.03
				c-0.31-0.02-0.6-0.08-0.86-0.17c-0.27-0.09-0.49-0.23-0.66-0.43c-0.18-0.2-0.26-0.47-0.26-0.83c0-0.75,0.32-1.19,0.96-1.33
				c0.64-0.13,1.18-0.2,1.62-0.2h2.06v-6.1c0-1.28,0.08-2.32,0.23-3.12c0.15-0.8,0.74-1.19,1.76-1.19c1.02,0,1.61,0.38,1.79,1.13
				c0.18,0.75,0.26,1.75,0.26,2.98V270.7z"/>
			<path class="st17" d="M160.91,279.26c-0.09-0.99-0.35-1.9-0.8-2.74c-0.35-0.7-0.83-1.26-1.42-1.68c-0.6-0.42-1.24-0.75-1.92-0.99
				c-0.69-0.24-1.42-0.41-2.19-0.5c-0.77-0.09-1.51-0.13-2.22-0.13c-0.53,0-1.28,0.04-2.25,0.13c-0.97,0.09-1.98,0.29-3.02,0.62
				c-1.04,0.33-2.02,0.81-2.95,1.47c-0.93,0.65-1.61,1.52-2.05,2.61c-0.49,1.22-0.86,2.02-1.13,2.41c-0.27,0.39-0.73,0.59-1.39,0.59
				c-0.44,0-0.87-0.17-1.29-0.5c-0.42-0.33-0.63-0.83-0.63-1.49c0-0.4,0.18-1.09,0.53-2.09c0.35-0.99,1.04-2.02,2.05-3.08
				c1.02-1.06,2.46-1.99,4.34-2.78c1.88-0.8,4.34-1.19,7.39-1.19c3.27,0,5.8,0.41,7.59,1.23c1.79,0.82,3.09,1.89,3.91,3.21
				c0.82,1.33,1.29,2.85,1.43,4.58c0.13,1.72,0.2,3.49,0.2,5.3c0,0.44-0.01,1.18-0.03,2.22c-0.02,1.04-0.03,2.15-0.03,3.35
				c0,1.15-0.01,2.23-0.03,3.25c-0.02,1.02-0.03,1.72-0.03,2.12c0,0.75,0.03,1.64,0.1,2.65c0.07,1.02,0.21,1.9,0.43,2.65
				c0.22,0.8,0.43,1.53,0.63,2.19c0.2,0.66,0.3,1.15,0.3,1.46c0,0.62-0.23,1.07-0.7,1.36c-0.46,0.29-0.87,0.43-1.23,0.43
				c-0.53,0-0.97-0.17-1.33-0.5c-0.35-0.33-0.63-0.77-0.83-1.33c-0.2-0.55-0.37-1.19-0.5-1.92s-0.24-1.49-0.33-2.29
				c-1.86,1.99-4.01,3.48-6.46,4.48c-2.45,0.99-5.03,1.49-7.72,1.49c-1.72,0-3.25-0.25-4.57-0.76c-1.33-0.51-2.45-1.2-3.38-2.08
				c-0.93-0.88-1.64-1.9-2.12-3.07c-0.49-1.17-0.73-2.41-0.73-3.73c0-2.07,0.44-3.73,1.33-4.98c0.88-1.25,1.98-2.24,3.28-2.97
				c1.3-0.73,2.71-1.24,4.21-1.55c1.5-0.31,2.87-0.57,4.11-0.79c3.32-0.53,5.86-0.95,7.62-1.25c1.77-0.31,3.09-0.68,3.98-1.12
				C161.04,281.67,161,280.25,160.91,279.26z M156.6,287.91c-1.9,0.33-3.91,0.72-6.03,1.16c-0.93,0.18-1.96,0.38-3.08,0.6
				c-1.13,0.22-2.19,0.55-3.18,0.99c-0.99,0.44-1.83,1.07-2.52,1.89c-0.69,0.82-1.03,1.91-1.03,3.28c0,0.53,0.1,1.15,0.3,1.86
				c0.2,0.71,0.57,1.39,1.13,2.05c0.55,0.66,1.3,1.23,2.25,1.69c0.95,0.46,2.18,0.7,3.68,0.7c1.02,0,2.12-0.13,3.32-0.4
				c1.19-0.26,2.34-0.65,3.45-1.16c1.1-0.51,2.1-1.16,2.98-1.96c0.88-0.8,1.57-1.72,2.05-2.78c0.49-1.1,0.81-2.33,0.96-3.68
				c0.15-1.35,0.21-3.19,0.17-5.54C159.98,287.14,158.5,287.57,156.6,287.91z"/>
			<path class="st17" d="M176.02,302.52c0,0.75-0.09,1.49-0.27,2.22c-0.18,0.73-0.75,1.09-1.72,1.09c-0.53,0-0.93-0.1-1.19-0.3
				c-0.26-0.2-0.46-0.46-0.6-0.8c-0.13-0.33-0.21-0.68-0.23-1.06c-0.02-0.37-0.03-0.76-0.03-1.16v-42.36c0-0.4,0.01-0.8,0.03-1.19
				c0.02-0.4,0.1-0.76,0.23-1.09c0.13-0.33,0.33-0.6,0.6-0.8c0.26-0.2,0.64-0.3,1.13-0.3c0.53,0,0.93,0.1,1.19,0.3
				c0.26,0.2,0.46,0.46,0.6,0.8c0.13,0.33,0.21,0.7,0.23,1.09c0.02,0.4,0.03,0.8,0.03,1.19V302.52z"/>
		</g>
		<g>
			<path class="st15" d="M387.05,297.96l-7.61-30.24v32.76c0,1.81-0.4,3.17-1.21,4.08c-0.81,0.91-1.88,1.36-3.22,1.36
				c-1.29,0-2.35-0.45-3.17-1.34c-0.82-0.9-1.23-2.26-1.23-4.1v-37.55c0-2.07,0.54-3.47,1.62-4.19c1.08-0.72,2.54-1.08,4.37-1.08
				h2.98c1.79,0,3.09,0.16,3.9,0.49c0.81,0.32,1.41,0.91,1.8,1.75c0.39,0.84,0.83,2.21,1.33,4.11l6.9,25.99l6.9-25.99
				c0.5-1.9,0.94-3.27,1.33-4.11c0.39-0.84,0.99-1.42,1.8-1.75c0.81-0.32,2.11-0.49,3.9-0.49h2.98c1.83,0,3.29,0.36,4.37,1.08
				s1.62,2.12,1.62,4.19v37.55c0,1.81-0.41,3.17-1.21,4.08c-0.81,0.91-1.89,1.36-3.25,1.36c-1.27,0-2.32-0.45-3.14-1.36
				c-0.82-0.91-1.23-2.27-1.23-4.08v-32.76l-7.61,30.24c-0.5,1.96-0.9,3.4-1.21,4.32c-0.31,0.92-0.89,1.75-1.73,2.51
				c-0.84,0.75-2.01,1.13-3.5,1.13c-1.12,0-2.07-0.24-2.85-0.73c-0.78-0.49-1.38-1.11-1.81-1.86c-0.43-0.75-0.77-1.59-1.02-2.51
				C387.56,299.91,387.3,298.95,387.05,297.96z"/>
			<path class="st15" d="M446.98,290.12H429.7c0.02,2.01,0.43,3.78,1.21,5.31c0.79,1.53,1.83,2.69,3.14,3.46
				c1.31,0.78,2.75,1.17,4.32,1.17c1.06,0,2.02-0.12,2.9-0.37c0.87-0.25,1.72-0.64,2.54-1.17c0.82-0.53,1.58-1.1,2.27-1.7
				c0.69-0.6,1.59-1.42,2.69-2.46c0.45-0.39,1.1-0.58,1.94-0.58c0.91,0,1.64,0.25,2.2,0.74c0.56,0.5,0.84,1.2,0.84,2.1
				c0,0.8-0.31,1.73-0.94,2.8c-0.63,1.07-1.57,2.09-2.83,3.08c-1.26,0.98-2.85,1.8-4.76,2.44c-1.91,0.65-4.11,0.97-6.59,0.97
				c-5.68,0-10.09-1.62-13.24-4.86c-3.15-3.24-4.73-7.63-4.73-13.17c0-2.61,0.39-5.03,1.17-7.27c0.78-2.23,1.91-4.15,3.4-5.75
				c1.49-1.6,3.32-2.82,5.5-3.67c2.18-0.85,4.6-1.28,7.25-1.28c3.45,0,6.41,0.73,8.89,2.19c2.47,1.46,4.32,3.34,5.55,5.65
				c1.23,2.31,1.84,4.66,1.84,7.06c0,2.22-0.64,3.66-1.91,4.32C451.08,289.79,449.29,290.12,446.98,290.12z M429.7,285.11h16.02
				c-0.22-3.02-1.03-5.28-2.44-6.78c-1.41-1.5-3.28-2.25-5.58-2.25c-2.2,0-4.01,0.76-5.42,2.28
				C430.86,279.88,430,282.13,429.7,285.11z"/>
			<path class="st15" d="M466.43,274.88v1.07c1.55-2.05,3.25-3.56,5.1-4.52c1.84-0.96,3.97-1.44,6.36-1.44
				c2.33,0,4.41,0.51,6.25,1.52c1.83,1.02,3.2,2.45,4.11,4.31c0.58,1.08,0.96,2.24,1.13,3.5c0.17,1.25,0.26,2.85,0.26,4.79v16.45
				c0,1.77-0.41,3.11-1.21,4.01c-0.81,0.91-1.86,1.36-3.16,1.36c-1.32,0-2.38-0.46-3.2-1.39c-0.82-0.93-1.23-2.25-1.23-3.98v-14.73
				c0-2.91-0.4-5.14-1.21-6.68c-0.81-1.54-2.42-2.31-4.84-2.31c-1.58,0-3.01,0.47-4.31,1.41c-1.29,0.94-2.25,2.23-2.85,3.87
				c-0.43,1.32-0.65,3.78-0.65,7.38v11.07c0,1.79-0.42,3.13-1.25,4.03c-0.83,0.89-1.91,1.34-3.22,1.34c-1.27,0-2.32-0.46-3.14-1.39
				c-0.82-0.93-1.23-2.25-1.23-3.98v-25.54c0-1.68,0.37-2.94,1.1-3.77c0.73-0.83,1.74-1.25,3.01-1.25c0.78,0,1.48,0.18,2.1,0.55
				c0.63,0.37,1.13,0.92,1.51,1.65C466.24,272.92,466.43,273.82,466.43,274.88z"/>
			<path class="st15" d="M495.61,270.77h0.97v-5.31c0-1.42,0.04-2.54,0.11-3.35c0.08-0.81,0.29-1.51,0.63-2.09
				c0.35-0.6,0.84-1.1,1.49-1.47c0.65-0.38,1.37-0.57,2.17-0.57c1.12,0,2.14,0.42,3.04,1.26c0.6,0.56,0.99,1.25,1.15,2.06
				s0.24,1.96,0.24,3.45v6.02h3.24c1.25,0,2.21,0.3,2.87,0.89c0.66,0.59,0.99,1.35,0.99,2.28c0,1.19-0.47,2.02-1.41,2.49
				s-2.28,0.71-4.03,0.71h-1.65v16.25c0,1.38,0.05,2.44,0.15,3.19c0.1,0.74,0.36,1.35,0.78,1.81c0.42,0.46,1.11,0.7,2.06,0.7
				c0.52,0,1.22-0.09,2.1-0.28c0.88-0.18,1.58-0.27,2.07-0.27c0.71,0,1.35,0.29,1.93,0.86c0.57,0.57,0.86,1.28,0.86,2.12
				c0,1.42-0.78,2.51-2.33,3.27c-1.55,0.75-3.79,1.13-6.7,1.13c-2.76,0-4.86-0.46-6.28-1.39c-1.42-0.93-2.36-2.21-2.8-3.85
				c-0.44-1.64-0.66-3.83-0.66-6.57v-16.96h-1.17c-1.27,0-2.24-0.3-2.91-0.91c-0.67-0.6-1-1.37-1-2.3c0-0.93,0.35-1.69,1.05-2.28
				C493.26,271.06,494.27,270.77,495.61,270.77z"/>
			<path class="st15" d="M539.95,290.12h-17.29c0.02,2.01,0.43,3.78,1.21,5.31c0.79,1.53,1.83,2.69,3.14,3.46
				c1.31,0.78,2.75,1.17,4.32,1.17c1.06,0,2.02-0.12,2.9-0.37c0.87-0.25,1.72-0.64,2.54-1.17c0.82-0.53,1.58-1.1,2.27-1.7
				c0.69-0.6,1.59-1.42,2.69-2.46c0.45-0.39,1.1-0.58,1.94-0.58c0.91,0,1.64,0.25,2.2,0.74c0.56,0.5,0.84,1.2,0.84,2.1
				c0,0.8-0.31,1.73-0.94,2.8c-0.63,1.07-1.57,2.09-2.83,3.08c-1.26,0.98-2.85,1.8-4.76,2.44c-1.91,0.65-4.11,0.97-6.59,0.97
				c-5.68,0-10.09-1.62-13.24-4.86c-3.15-3.24-4.73-7.63-4.73-13.17c0-2.61,0.39-5.03,1.17-7.27c0.78-2.23,1.91-4.15,3.4-5.75
				c1.49-1.6,3.32-2.82,5.5-3.67c2.18-0.85,4.6-1.28,7.25-1.28c3.45,0,6.41,0.73,8.89,2.19c2.47,1.46,4.32,3.34,5.55,5.65
				s1.84,4.66,1.84,7.06c0,2.22-0.64,3.66-1.91,4.32C544.05,289.79,542.26,290.12,539.95,290.12z M522.66,285.11h16.02
				c-0.22-3.02-1.03-5.28-2.44-6.78c-1.41-1.5-3.28-2.25-5.58-2.25c-2.2,0-4.01,0.76-5.42,2.28
				C523.82,279.88,522.97,282.13,522.66,285.11z"/>
		</g>
	</g>
</g>
</svg>
