<?xml version="1.0" encoding="utf-8"?>
<!-- Generator: Adobe Illustrator 24.0.1, SVG Export Plug-In . SVG Version: 6.00 Build 0)  -->
<svg version="1.1" xmlns="http://www.w3.org/2000/svg" xmlns:xlink="http://www.w3.org/1999/xlink" x="0px" y="0px"
	 viewBox="0 0 593.76 612" style="enable-background:new 0 0 593.76 612;" xml:space="preserve">
<style type="text/css">
	.st0{display:none;}
	.st1{display:inline;fill:#FFFFFF;stroke:#1D1D1B;stroke-miterlimit:10;}
	.st2{display:inline;fill:#FFFFFF;}
	.st3{fill:#F29258;}
	.st4{fill:#9B9592;}
	.st5{fill:#161818;}
	.st6{fill:#725944;}
	.st7{fill:#FFB103;}
	.st8{fill:#773810;}
	.st9{fill:#57240E;}
	.st10{fill:#C15D24;}
	.st11{fill:#F0D2A3;}
	.st12{fill:#BC7002;}
	.st13{fill:#5C3D2B;}
	.st14{fill:#68462D;}
	.st15{fill:#FFFFFF;}
	.st16{fill:#4D3520;}
	.st17{fill:#E42320;}
	.st18{fill:#FFBC97;}
	.st19{fill:#FDEEE6;}
	.st20{fill:#BC7B4E;}
	.st21{fill:#3D1112;}
	.st22{fill:#75312F;}
	.st23{fill:#FCC306;}
	.st24{fill-rule:evenodd;clip-rule:evenodd;fill:#BC7B4E;}
	.st25{fill:#7D4E25;}
	.st26{fill:#79844C;}
	.st27{fill:#3253A0;}
	.st28{fill:#87573D;}
	.st29{fill:#143984;}
	.st30{fill:#DD3D05;}
	.st31{fill:#6EB3E3;}
	.st32{opacity:0.5;}
	.st33{fill:#265CC6;}
	.st34{fill:#B72F00;}
	.st35{fill:#ECB079;}
	.st36{fill-rule:evenodd;clip-rule:evenodd;fill:#87573D;}
	.st37{fill:#56A9FC;}
	.st38{fill:#517005;}
	.st39{fill:#9DC947;}
	.st40{fill:#1D1D1B;}
	.st41{fill:#FF0000;}
	.st42{fill:#FFE000;}
	.st43{fill:#7D9928;}
	.st44{fill:#6CF1FF;}
	.st45{fill:#606060;}
	.st46{clip-path:url(#SVGID_2_);}
	.st47{fill:#7906B5;}
	.st48{fill:#AE00FF;}
	.st49{fill:#FF1066;}
	.st50{fill:#AA0045;}
	.st51{fill:#CEC2CB;}
	.st52{fill:#6D5E66;}
	.st53{fill:#BFBEBB;}
	.st54{fill:#F39200;}
	.st55{fill:#DBDBDB;}
	.st56{fill:#00659D;}
	.st57{fill:#00ABBC;}
	.st58{fill:#FC8890;}
	.st59{clip-path:url(#SVGID_4_);}
	.st60{fill:#FF9999;}
	.st61{fill:#D3A148;}
	.st62{fill:#E2C58A;}
	.st63{clip-path:url(#SVGID_6_);fill:#00ABBC;}
	.st64{fill:#B35D7F;}
	.st65{fill:#722142;}
	.st66{fill:#EEBC99;}
	.st67{fill:#D68F5F;}
	.st68{fill:#FF9B57;}
</style>
<g id="Capa_2" class="st0">
</g>
<g id="Capa_1">
	<g>
		<g>
			<path class="st47" d="M369.09,290.73c0,0,118.34,30.32,143.72,31.78c30.44,1.76,54.76,100.18,10.8,116.37
				c-43.96,16.19-44.82,46.65-41.58,62.31c3.24,15.65-61.93,99.93-128.79-15.81s-104.82-107.57-72.11-169.64
				C306.39,267.83,369.09,290.73,369.09,290.73z"/>
		</g>
		<g>
			<path class="st47" d="M224.67,288.89c0,0-118.34,30.32-143.72,31.78c-30.44,1.76-54.76,100.18-10.8,116.37
				s44.82,46.65,41.58,62.31s61.93,99.93,128.79-15.81s104.82-107.57,72.11-169.64C287.37,266,224.67,288.89,224.67,288.89z"/>
		</g>
		<g>
			<path class="st48" d="M274.84,256.76c0,0,42.17-114.98,46.19-140.14c4.82-30.18,105.44-44.52,117.16,0.96s42.01,49.4,57.95,47.75
				c15.94-1.65,93.43,71.84-28.75,126.86s-117.86,93.7-176.46,54.82C245.68,317,274.84,256.76,274.84,256.76z"/>
		</g>
		<g>
			<path class="st48" d="M318.93,254.93c0,0-42.17-114.98-46.19-140.14c-4.82-30.18-105.44-44.52-117.16,0.96
				c-11.71,45.48-42.01,49.4-57.95,47.75c-15.94-1.65-93.43,71.84,28.75,126.86s117.86,93.7,176.46,54.82
				C348.08,315.16,318.93,254.93,318.93,254.93z"/>
		</g>
		<g>
			<path class="st40" d="M313.76,504.44c-0.62,0-1.24-0.25-1.7-0.73c-0.89-0.94-0.85-2.42,0.09-3.32l8.68-8.24
				c-16.16-12.86-6.69-54.38-6.25-56.23c0.3-1.26,1.56-2.04,2.82-1.75c1.26,0.29,2.04,1.56,1.75,2.82
				c-2.86,12.25-7.26,45.62,6.53,52.73c0.67,0.35,1.14,1,1.25,1.75c0.11,0.75-0.16,1.51-0.71,2.03l-10.83,10.28
				C314.92,504.22,314.34,504.44,313.76,504.44z"/>
		</g>
		<g>
			<g>
				<polygon class="st15" points="296.06,398.27 294.16,392.22 408.22,194.71 412.26,197.06 				"/>
			</g>
			<g>
				
					<rect x="400.95" y="154.49" transform="matrix(0.9664 -0.257 0.257 0.9664 -31.8523 109.599)" class="st15" width="4.68" height="44.3"/>
			</g>
			<g>
				<path class="st15" d="M369.22,189.54c-5.63-3.27-7.56-10.51-4.29-16.16c3.27-5.64,10.52-7.57,16.15-4.3
					c5.64,3.27,7.57,10.52,4.3,16.16C382.11,190.88,374.87,192.81,369.22,189.54z M378.74,173.13c-3.4-1.97-7.78-0.8-9.76,2.6
					c-1.97,3.41-0.81,7.79,2.59,9.76c3.41,1.98,7.79,0.81,9.76-2.6C383.31,179.49,382.15,175.11,378.74,173.13z"/>
			</g>
			<g>
				<path class="st15" d="M389.8,156.17c-5.64-3.27-7.57-10.52-4.3-16.16c3.27-5.64,10.52-7.57,16.16-4.3
					c5.64,3.27,7.57,10.52,4.3,16.16C402.68,157.51,395.43,159.44,389.8,156.17z M399.31,139.77c-3.41-1.97-7.78-0.81-9.76,2.59
					c-1.97,3.41-0.81,7.79,2.6,9.76c3.41,1.97,7.78,0.81,9.76-2.6C403.87,146.12,402.71,141.74,399.31,139.77z"/>
			</g>
			<g>
				
					<rect x="408.24" y="190.01" transform="matrix(0.9664 -0.257 0.257 0.9664 -34.9742 117.0552)" class="st15" width="44.29" height="4.68"/>
			</g>
			<g>
				<path class="st15" d="M454.87,193.9c-5.64-3.27-7.57-10.52-4.3-16.16c3.27-5.64,10.52-7.57,16.16-4.29
					c5.64,3.27,7.57,10.52,4.3,16.16C467.75,195.24,460.51,197.16,454.87,193.9z M464.38,177.49c-3.41-1.97-7.78-0.81-9.76,2.59
					c-1.97,3.41-0.81,7.79,2.6,9.76c3.4,1.97,7.79,0.81,9.76-2.6C468.95,183.85,467.78,179.47,464.38,177.49z"/>
			</g>
			<g>
				<polygon class="st15" points="330.34,312.85 326.28,310.5 382.09,214.25 375.4,189.05 379.92,187.84 387.11,214.93 				"/>
			</g>
			<g>
				<path class="st15" d="M342.27,236.35c-5.63-3.27-7.56-10.51-4.29-16.16c3.27-5.64,10.52-7.57,16.15-4.3
					c5.64,3.27,7.57,10.52,4.3,16.16C355.16,237.69,347.91,239.62,342.27,236.35z M351.78,219.94c-3.4-1.97-7.78-0.8-9.76,2.6
					c-1.97,3.41-0.81,7.79,2.59,9.76c3.41,1.98,7.79,0.81,9.76-2.6C356.35,226.3,355.19,221.92,351.78,219.94z"/>
			</g>
			<g>
				<polygon class="st15" points="296.66,371.43 285.36,381.57 355.13,261.07 348.45,235.86 352.97,234.66 360.15,261.74 				"/>
			</g>
			<g>
				<path class="st15" d="M328.47,168.91c-5.63-3.27-7.56-10.51-4.29-16.16c3.27-5.64,10.52-7.57,16.15-4.3
					c5.64,3.27,7.57,10.52,4.3,16.16C341.36,170.25,334.11,172.18,328.47,168.91z M337.98,152.5c-3.4-1.97-7.78-0.8-9.76,2.6
					c-1.97,3.41-0.81,7.79,2.59,9.76c3.41,1.98,7.79,0.81,9.76-2.6C342.55,158.86,341.39,154.48,337.98,152.5z"/>
			</g>
			<g>
				<polygon class="st15" points="374.34,227.61 334.65,168.42 339.17,167.22 376.39,224.58 				"/>
			</g>
			<g>
				<path class="st15" d="M471.94,238.42c3.27-5.64,10.52-7.57,16.16-4.29c5.63,3.27,7.56,10.51,4.29,16.15
					c-3.27,5.64-10.52,7.57-16.15,4.3C470.59,251.31,468.66,244.07,471.94,238.42z M475.99,240.77c-1.97,3.41-0.81,7.78,2.6,9.76
					c3.4,1.97,7.78,0.81,9.76-2.6c1.97-3.4,0.81-7.79-2.59-9.76C482.34,236.2,477.96,237.37,475.99,240.77z"/>
			</g>
			<g>
				<polygon class="st15" points="402.5,243.94 473.59,248.98 472.39,244.46 404.12,240.65 				"/>
			</g>
			<g>
				<path class="st15" d="M390.08,289.15c3.27-5.64,10.52-7.57,16.16-4.29c5.63,3.27,7.56,10.51,4.29,16.15
					c-3.27,5.64-10.52,7.57-16.15,4.3C388.74,302.04,386.81,294.79,390.08,289.15z M394.13,291.5c-1.97,3.41-0.81,7.78,2.6,9.76
					c3.4,1.97,7.78,0.81,9.76-2.6c1.97-3.4,0.81-7.79-2.59-9.76C400.48,286.92,396.11,288.1,394.13,291.5z"/>
			</g>
			<g>
				<polygon class="st15" points="350.2,325.27 354.25,327.62 366.54,306.43 391.74,299.7 390.53,295.18 363.46,302.4 				"/>
			</g>
			<g>
				<path class="st15" d="M301,307.21c-5.63-3.27-7.56-10.51-4.29-16.16c3.27-5.64,10.52-7.57,16.15-4.3
					c5.64,3.27,7.57,10.52,4.3,16.16C313.89,308.56,306.64,310.48,301,307.21z M310.51,290.8c-3.4-1.97-7.78-0.8-9.76,2.6
					c-1.97,3.41-0.81,7.79,2.59,9.76c3.41,1.98,7.79,0.81,9.76-2.6C315.08,297.16,313.92,292.78,310.51,290.8z"/>
			</g>
			<g>
				<polygon class="st15" points="305.62,355.47 301.57,353.12 313.86,331.93 307.18,306.72 311.7,305.52 318.88,332.6 				"/>
			</g>
			<g>
				<path class="st15" d="M433.9,213.57c3.27-5.64,10.52-7.57,16.16-4.29c5.63,3.27,7.56,10.51,4.29,16.15
					c-3.27,5.64-10.52,7.57-16.15,4.3C432.56,226.46,430.63,219.21,433.9,213.57z M437.95,215.92c-1.97,3.41-0.81,7.78,2.6,9.76
					c3.4,1.97,7.78,0.81,9.76-2.6c1.97-3.4,0.81-7.79-2.59-9.76C444.31,211.34,439.93,212.52,437.95,215.92z"/>
			</g>
			<g>
				<polygon class="st15" points="307.81,398.36 306.06,410.71 410.36,230.85 435.56,224.12 434.36,219.6 407.28,226.82 				"/>
			</g>
		</g>
		<g>
			<g>
				<polygon class="st48" points="292.91,358.76 297.31,356.42 453.33,411.9 452.1,415.36 				"/>
			</g>
			<g>
				
					<rect x="449.19" y="403.66" transform="matrix(0.9032 -0.4292 0.4292 0.9032 -128.879 239.518)" class="st48" width="34.82" height="3.68"/>
			</g>
			<g>
				<path class="st48" d="M451.74,381.02c1.72-4.82,7.04-7.35,11.87-5.64c4.83,1.72,7.36,7.04,5.64,11.87
					c-1.72,4.83-7.04,7.36-11.87,5.64C452.55,391.17,450.02,385.85,451.74,381.02z M465.79,386.01c1.04-2.91-0.5-6.13-3.41-7.17
					c-2.92-1.04-6.13,0.49-7.17,3.4c-1.04,2.92,0.49,6.13,3.41,7.17C461.53,390.46,464.75,388.93,465.79,386.01z"/>
			</g>
			<g>
				<path class="st48" d="M480.48,392.13c1.72-4.83,7.04-7.36,11.87-5.64c4.83,1.72,7.36,7.04,5.64,11.87
					c-1.72,4.83-7.04,7.36-11.87,5.64C481.3,402.28,478.77,396.95,480.48,392.13z M494.52,397.12c1.04-2.92-0.49-6.13-3.4-7.17
					c-2.92-1.04-6.13,0.49-7.17,3.41c-1.04,2.92,0.49,6.13,3.41,7.17C490.27,401.56,493.49,400.04,494.52,397.12z"/>
			</g>
			<g>
				
					<rect x="456.51" y="411.29" transform="matrix(0.9032 -0.4291 0.4291 0.9032 -139.6199 238.1744)" class="st48" width="3.68" height="34.82"/>
			</g>
			<g>
				<path class="st48" d="M460.66,447.84c1.72-4.83,7.04-7.36,11.87-5.64c4.83,1.72,7.36,7.04,5.64,11.87
					c-1.72,4.83-7.04,7.36-11.87,5.64C461.48,457.99,458.95,452.67,460.66,447.84z M474.71,452.83c1.04-2.92-0.49-6.13-3.4-7.17
					c-2.92-1.04-6.13,0.49-7.17,3.41c-1.04,2.91,0.49,6.13,3.41,7.17C470.45,457.28,473.67,455.75,474.71,452.83z"/>
			</g>
			<g>
				<polygon class="st48" points="350.85,368.66 352.08,365.19 434.48,394.51 453,385.72 454.58,389.04 434.68,398.49 				"/>
			</g>
			<g>
				<path class="st48" d="M411.68,366.9c1.72-4.82,7.04-7.35,11.87-5.64c4.83,1.72,7.36,7.04,5.64,11.87
					c-1.72,4.83-7.04,7.36-11.87,5.64C412.49,377.06,409.96,371.73,411.68,366.9z M425.73,371.9c1.04-2.91-0.5-6.13-3.41-7.17
					c-2.92-1.04-6.13,0.49-7.17,3.4c-1.04,2.92,0.49,6.13,3.41,7.17C421.47,376.34,424.69,374.82,425.73,371.9z"/>
			</g>
			<g>
				<polygon class="st48" points="279.27,344.02 269.81,336.74 394.43,380.39 412.95,371.61 414.53,374.93 394.63,384.37 				"/>
			</g>
			<g>
				<path class="st48" d="M461.83,346.56c1.72-4.82,7.04-7.35,11.87-5.64c4.83,1.72,7.36,7.04,5.64,11.87
					c-1.72,4.83-7.04,7.36-11.87,5.64C462.64,356.71,460.11,351.39,461.83,346.56z M475.88,351.55c1.04-2.91-0.5-6.13-3.41-7.17
					c-2.92-1.04-6.13,0.49-7.17,3.4c-1.04,2.92,0.49,6.13,3.41,7.17C471.62,356,474.84,354.47,475.88,351.55z"/>
			</g>
			<g>
				<polygon class="st48" points="423.04,390.44 463.1,351.26 464.67,354.58 425.68,391.59 				"/>
			</g>
			<g>
				<path class="st48" d="M428.7,467.42c4.83,1.72,7.36,7.04,5.64,11.87c-1.72,4.82-7.04,7.35-11.87,5.64
					c-4.83-1.72-7.36-7.04-5.65-11.87C418.54,468.24,423.87,465.71,428.7,467.42z M427.46,470.89c-2.92-1.04-6.13,0.49-7.17,3.41
					c-1.04,2.91,0.49,6.13,3.41,7.17c2.91,1.04,6.13-0.49,7.17-3.4C431.91,475.15,430.38,471.93,427.46,470.89z"/>
			</g>
			<g>
				<polygon class="st48" points="414.46,414.55 420.78,470.22 424.1,468.64 417.24,415.32 				"/>
			</g>
			<g>
				<path class="st48" d="M377.74,411.44c4.83,1.72,7.36,7.04,5.64,11.87c-1.72,4.82-7.04,7.35-11.87,5.64
					c-4.83-1.72-7.36-7.04-5.65-11.87C367.58,412.25,372.91,409.72,377.74,411.44z M376.51,414.91c-2.92-1.04-6.13,0.49-7.17,3.41
					c-1.04,2.91,0.49,6.13,3.41,7.17c2.91,1.04,6.13-0.49,7.17-3.4C380.95,419.16,379.42,415.94,376.51,414.91z"/>
			</g>
			<g>
				<polygon class="st48" points="344.1,385.8 342.86,389.27 361.01,395.72 369.82,414.23 373.14,412.66 363.67,392.77 				"/>
			</g>
			<g>
				<path class="st48" d="M442.45,434.46c4.83,1.72,7.36,7.04,5.64,11.87c-1.72,4.82-7.04,7.35-11.87,5.64
					c-4.83-1.72-7.36-7.04-5.65-11.87C432.29,435.27,437.62,432.74,442.45,434.46z M441.21,437.93c-2.92-1.04-6.13,0.49-7.17,3.41
					c-1.04,2.91,0.49,6.13,3.41,7.17c2.91,1.04,6.13-0.49,7.17-3.4C445.66,442.18,444.13,438.96,441.21,437.93z"/>
			</g>
			<g>
				<polygon class="st48" points="303.25,371.21 293.45,371.64 425.71,418.74 434.53,437.25 437.85,435.68 428.38,415.79 				"/>
			</g>
		</g>
		<g>
			<g>
				<polygon class="st15" points="299.5,397.27 301.4,391.22 187.35,193.72 183.3,196.07 				"/>
			</g>
			<g>
				
					<rect x="170.12" y="173.3" transform="matrix(0.257 -0.9664 0.9664 0.257 -26.893 316.305)" class="st15" width="44.3" height="4.68"/>
			</g>
			<g>
				<path class="st15" d="M210.18,184.25c-3.27-5.64-1.34-12.89,4.3-16.16c5.63-3.27,12.88-1.34,16.15,4.3
					c3.27,5.64,1.34,12.89-4.29,16.16C220.7,191.82,213.45,189.89,210.18,184.25z M214.23,181.9c1.97,3.41,6.35,4.57,9.76,2.6
					c3.4-1.97,4.57-6.35,2.59-9.76c-1.97-3.4-6.36-4.57-9.76-2.6C213.42,174.11,212.26,178.5,214.23,181.9z"/>
			</g>
			<g>
				<path class="st15" d="M189.61,150.88c-3.27-5.64-1.34-12.89,4.3-16.16c5.64-3.27,12.89-1.34,16.16,4.3
					c3.27,5.64,1.34,12.89-4.3,16.16C200.13,158.44,192.88,156.52,189.61,150.88z M193.67,148.53c1.97,3.41,6.35,4.57,9.76,2.6
					c3.41-1.97,4.57-6.36,2.6-9.76c-1.97-3.41-6.35-4.57-9.76-2.59C192.85,140.75,191.69,145.12,193.67,148.53z"/>
			</g>
			<g>
				
					<rect x="162.83" y="169.21" transform="matrix(0.257 -0.9664 0.9664 0.257 -62.1977 301.8095)" class="st15" width="4.68" height="44.29"/>
			</g>
			<g>
				<path class="st15" d="M124.54,188.61c-3.27-5.64-1.34-12.89,4.3-16.16c5.64-3.27,12.89-1.34,16.16,4.29
					c3.27,5.64,1.34,12.89-4.3,16.16C135.06,196.17,127.81,194.24,124.54,188.61z M128.59,186.26c1.97,3.41,6.36,4.57,9.76,2.6
					c3.41-1.97,4.57-6.36,2.6-9.76c-1.97-3.41-6.35-4.57-9.76-2.59C127.79,178.47,126.62,182.85,128.59,186.26z"/>
			</g>
			<g>
				<polygon class="st15" points="265.23,311.85 269.28,309.5 213.48,213.26 220.16,188.05 215.64,186.85 208.46,213.94 				"/>
			</g>
			<g>
				<path class="st15" d="M237.14,231.06c-3.27-5.64-1.34-12.89,4.3-16.16c5.63-3.27,12.88-1.34,16.15,4.3
					c3.27,5.64,1.34,12.89-4.29,16.16C247.66,238.63,240.41,236.7,237.14,231.06z M241.19,228.71c1.97,3.41,6.35,4.57,9.76,2.6
					c3.4-1.97,4.57-6.35,2.59-9.76c-1.97-3.4-6.36-4.57-9.76-2.6C240.37,220.93,239.22,225.31,241.19,228.71z"/>
			</g>
			<g>
				<polygon class="st15" points="298.91,370.43 310.2,380.57 240.44,260.07 247.12,234.87 242.6,233.66 235.41,260.75 				"/>
			</g>
			<g>
				<path class="st15" d="M250.93,163.62c-3.27-5.64-1.34-12.89,4.3-16.16c5.63-3.27,12.88-1.34,16.15,4.3
					c3.27,5.64,1.34,12.89-4.29,16.16C261.45,171.19,254.21,169.26,250.93,163.62z M254.99,161.27c1.97,3.41,6.35,4.57,9.76,2.6
					c3.4-1.97,4.57-6.35,2.59-9.76c-1.97-3.4-6.36-4.57-9.76-2.6C254.17,153.49,253.01,157.87,254.99,161.27z"/>
			</g>
			<g>
				<polygon class="st15" points="221.22,226.62 260.92,167.43 256.4,166.22 219.17,223.58 				"/>
			</g>
			<g>
				<path class="st15" d="M119.33,253.59c-5.63,3.27-12.88,1.34-16.15-4.3c-3.27-5.64-1.34-12.89,4.29-16.15
					c5.64-3.27,12.89-1.34,16.16,4.29C126.9,243.07,124.97,250.32,119.33,253.59z M109.82,237.18c-3.4,1.97-4.56,6.36-2.59,9.76
					c1.97,3.41,6.36,4.57,9.76,2.6c3.41-1.98,4.57-6.36,2.6-9.76C117.6,236.38,113.23,235.21,109.82,237.18z"/>
			</g>
			<g>
				<polygon class="st15" points="193.06,242.95 121.97,247.99 123.18,243.47 191.45,239.66 				"/>
			</g>
			<g>
				<path class="st15" d="M201.18,304.32c-5.63,3.27-12.88,1.34-16.15-4.3c-3.27-5.64-1.34-12.89,4.29-16.15
					c5.64-3.27,12.89-1.34,16.16,4.29C208.75,293.8,206.83,301.05,201.18,304.32z M191.67,287.91c-3.4,1.97-4.56,6.36-2.59,9.76
					c1.97,3.41,6.36,4.57,9.76,2.6c3.41-1.98,4.57-6.36,2.6-9.76C199.46,287.1,195.08,285.93,191.67,287.91z"/>
			</g>
			<g>
				<polygon class="st15" points="245.36,324.27 241.31,326.62 229.02,305.43 203.83,298.71 205.03,294.19 232.11,301.41 				"/>
			</g>
			<g>
				<path class="st15" d="M278.41,301.92c-3.27-5.64-1.34-12.89,4.3-16.16c5.63-3.27,12.88-1.34,16.15,4.3
					c3.27,5.64,1.34,12.89-4.29,16.16C288.93,309.49,281.68,307.56,278.41,301.92z M282.46,299.57c1.97,3.41,6.35,4.57,9.76,2.6
					c3.4-1.97,4.57-6.35,2.59-9.76c-1.97-3.4-6.36-4.57-9.76-2.6C281.64,291.79,280.49,296.17,282.46,299.57z"/>
			</g>
			<g>
				<polygon class="st15" points="289.94,354.47 293.99,352.12 281.71,330.93 288.39,305.73 283.87,304.52 276.68,331.61 				"/>
			</g>
			<g>
				<path class="st15" d="M157.36,228.74c-5.63,3.27-12.88,1.34-16.15-4.3c-3.27-5.64-1.34-12.89,4.29-16.15
					c5.64-3.27,12.89-1.34,16.16,4.29C164.93,218.22,163.01,225.47,157.36,228.74z M147.85,212.33c-3.4,1.97-4.56,6.36-2.59,9.76
					c1.97,3.41,6.36,4.57,9.76,2.6c3.41-1.98,4.57-6.36,2.6-9.76C155.64,211.52,151.26,210.35,147.85,212.33z"/>
			</g>
			<g>
				<polygon class="st15" points="287.76,397.36 289.51,409.72 185.2,229.85 160.01,223.13 161.21,218.61 188.28,225.83 				"/>
			</g>
		</g>
		<g>
			<g>
				<polygon class="st48" points="302.65,357.76 298.25,355.43 142.23,410.9 143.46,414.37 				"/>
			</g>
			<g>
				
					<rect x="127.12" y="387.09" transform="matrix(0.4292 -0.9032 0.9032 0.4292 -291.7399 347.3708)" class="st48" width="3.68" height="34.82"/>
			</g>
			<g>
				<path class="st48" d="M138.19,391.9c-4.83,1.72-10.15-0.81-11.87-5.64c-1.72-4.82,0.81-10.15,5.64-11.87
					c4.83-1.72,10.16,0.81,11.87,5.64C145.55,384.85,143.02,390.18,138.19,391.9z M136.95,388.43c2.92-1.04,4.45-4.25,3.41-7.17
					c-1.04-2.91-4.25-4.44-7.17-3.4c-2.91,1.04-4.45,4.26-3.41,7.17C130.82,387.94,134.04,389.47,136.95,388.43z"/>
			</g>
			<g>
				<path class="st48" d="M109.44,403c-4.83,1.72-10.15-0.81-11.87-5.64c-1.72-4.83,0.81-10.15,5.64-11.87
					c4.83-1.72,10.15,0.81,11.87,5.64C116.8,395.96,114.27,401.29,109.44,403z M108.21,399.53c2.92-1.04,4.45-4.25,3.41-7.17
					c-1.04-2.92-4.26-4.45-7.17-3.41c-2.92,1.04-4.44,4.25-3.4,7.17C102.08,399.04,105.29,400.57,108.21,399.53z"/>
			</g>
			<g>
				
					<rect x="119.81" y="425.86" transform="matrix(0.4291 -0.9032 0.9032 0.4291 -307.987 368.1013)" class="st48" width="34.82" height="3.68"/>
			</g>
			<g>
				<path class="st48" d="M129.26,458.71c-4.83,1.72-10.15-0.81-11.87-5.64c-1.72-4.83,0.81-10.16,5.64-11.87
					c4.83-1.72,10.15,0.81,11.87,5.64C136.62,451.67,134.09,457,129.26,458.71z M128.03,455.25c2.92-1.04,4.44-4.26,3.41-7.17
					c-1.04-2.92-4.26-4.45-7.17-3.41c-2.92,1.04-4.44,4.25-3.4,7.17C121.9,454.75,125.11,456.29,128.03,455.25z"/>
			</g>
			<g>
				<polygon class="st48" points="244.72,367.67 243.49,364.2 161.08,393.51 142.56,384.73 140.98,388.05 160.89,397.49 				"/>
			</g>
			<g>
				<path class="st48" d="M178.24,377.78c-4.83,1.72-10.15-0.81-11.87-5.64c-1.72-4.82,0.81-10.15,5.64-11.87
					c4.83-1.72,10.16,0.81,11.87,5.64C185.6,370.74,183.07,376.07,178.24,377.78z M177,374.31c2.92-1.04,4.45-4.25,3.41-7.17
					c-1.04-2.91-4.25-4.44-7.17-3.4c-2.91,1.04-4.45,4.26-3.41,7.17C170.87,373.83,174.09,375.35,177,374.31z"/>
			</g>
			<g>
				<polygon class="st48" points="316.3,343.02 325.76,335.75 201.14,379.4 182.61,370.62 181.04,373.94 200.94,383.38 				"/>
			</g>
			<g>
				<path class="st48" d="M128.09,357.44c-4.83,1.72-10.15-0.81-11.87-5.64c-1.72-4.82,0.81-10.15,5.64-11.87
					c4.83-1.72,10.16,0.81,11.87,5.64C135.46,350.39,132.92,355.72,128.09,357.44z M126.86,353.97c2.92-1.04,4.45-4.25,3.41-7.17
					c-1.04-2.91-4.25-4.44-7.17-3.4c-2.91,1.04-4.45,4.26-3.41,7.17C120.73,353.48,123.95,355,126.86,353.97z"/>
			</g>
			<g>
				<polygon class="st48" points="172.52,389.44 132.47,350.27 130.89,353.59 169.88,390.6 				"/>
			</g>
			<g>
				<path class="st48" d="M178.74,472.07c1.72,4.82-0.81,10.15-5.65,11.87c-4.83,1.72-10.15-0.81-11.87-5.64
					c-1.72-4.83,0.81-10.16,5.64-11.87C171.7,464.71,177.02,467.24,178.74,472.07z M164.69,477.07c1.04,2.91,4.26,4.44,7.17,3.4
					c2.92-1.04,4.45-4.26,3.41-7.17c-1.04-2.92-4.26-4.45-7.17-3.41C165.19,470.94,163.65,474.15,164.69,477.07z"/>
			</g>
			<g>
				<polygon class="st48" points="181.1,413.55 174.79,469.23 171.47,467.65 178.33,414.33 				"/>
			</g>
			<g>
				<path class="st48" d="M229.7,416.09c1.72,4.82-0.81,10.15-5.65,11.87c-4.83,1.72-10.15-0.81-11.87-5.64
					c-1.72-4.83,0.81-10.16,5.64-11.87C222.66,408.73,227.98,411.26,229.7,416.09z M215.65,421.09c1.04,2.91,4.26,4.44,7.17,3.4
					c2.92-1.04,4.45-4.26,3.41-7.17c-1.04-2.92-4.26-4.45-7.17-3.41C216.15,414.95,214.61,418.17,215.65,421.09z"/>
			</g>
			<g>
				<polygon class="st48" points="251.47,384.81 252.7,388.28 234.56,394.73 225.75,413.24 222.42,411.66 231.89,391.77 				"/>
			</g>
			<g>
				<path class="st48" d="M238.93,356.06c-4.83,1.72-10.15-0.81-11.87-5.64c-1.72-4.82,0.81-10.15,5.64-11.87
					c4.83-1.72,10.16,0.81,11.87,5.64C246.3,349.01,243.77,354.34,238.93,356.06z M237.7,352.59c2.92-1.04,4.45-4.25,3.41-7.17
					c-1.04-2.91-4.25-4.44-7.17-3.4c-2.91,1.04-4.45,4.26-3.41,7.17C231.57,352.1,234.79,353.62,237.7,352.59z"/>
			</g>
			<g>
				<polygon class="st48" points="281.21,354.69 279.98,351.22 261.83,357.67 243.31,348.89 241.73,352.21 261.63,361.65 				"/>
			</g>
			<g>
				<path class="st48" d="M164.99,439.11c1.72,4.82-0.81,10.15-5.65,11.87c-4.83,1.72-10.15-0.81-11.87-5.64
					c-1.72-4.83,0.81-10.16,5.64-11.87C157.95,431.75,163.27,434.28,164.99,439.11z M150.94,444.11c1.04,2.91,4.26,4.44,7.17,3.4
					c2.92-1.04,4.45-4.26,3.41-7.17c-1.04-2.92-4.26-4.45-7.17-3.41C151.44,437.97,149.9,441.19,150.94,444.11z"/>
			</g>
			<g>
				<polygon class="st48" points="292.31,370.22 302.11,370.64 169.85,417.75 161.04,436.26 157.72,434.68 167.18,414.79 				"/>
			</g>
		</g>
		<g>
			<path class="st47" d="M227.6,187.86l-44.29-62.81c3.22-3.08,5.52-7.18,6.34-11.9c2.03-11.73-5.87-22.93-17.61-24.96
				c-11.73-2.03-22.93,5.87-24.95,17.6c-2.03,11.73,5.87,22.93,17.6,24.95c3.97,0.69,7.88,0.23,11.39-1.12l44.53,63.16L227.6,187.86
				z M166.13,122.33c-7.08-1.22-11.86-7.99-10.63-15.08c1.22-7.09,8-11.85,15.08-10.62c7.09,1.22,11.86,7.98,10.63,15.07
				C179.99,118.78,173.22,123.55,166.13,122.33z"/>
		</g>
		<g>
			<path class="st47" d="M277.46,179.49l-25.89-72.36c3.93-2.11,7.24-5.44,9.29-9.77c5.09-10.76,0.47-23.66-10.3-28.75
				c-10.76-5.09-23.66-0.47-28.75,10.29c-5.09,10.76-0.47,23.66,10.29,28.75c3.64,1.72,7.53,2.33,11.28,1.97l26.03,72.76
				L277.46,179.49z M235.76,99.92c-6.49-3.07-9.29-10.87-6.22-17.37c3.07-6.5,10.88-9.28,17.37-6.21c6.5,3.07,9.29,10.86,6.22,17.36
				C250.05,100.2,242.26,102.99,235.76,99.92z"/>
		</g>
		<g>
			<path class="st40" d="M247.24,362.67c-1.25,0-2.7-0.33-4.31-1.25c-6.5-3.68-13.32-12.8-20.28-27.12
				c-5.09-10.46-8.32-19.75-8.45-20.13c-0.42-1.22,0.23-2.56,1.45-2.98c1.22-0.42,2.56,0.23,2.98,1.45
				c0.03,0.09,3.28,9.44,8.26,19.66c6.44,13.23,12.79,21.89,18.36,25.04c1.66,0.94,2.57,0.66,3.18,0.3
				c1.41-0.82,4.92-4.5,6.88-20.88c1.13-9.43,1.16-18.36,1.16-18.45c0-1.29,1.05-2.34,2.35-2.34c0,0,0,0,0,0
				c1.3,0,2.34,1.05,2.34,2.35c0,0.37-0.03,9.26-1.19,18.96c-1.65,13.8-4.66,21.79-9.19,24.42
				C249.9,362.22,248.7,362.67,247.24,362.67z"/>
		</g>
		<g>
			<path class="st49" d="M253.17,228.79c0,0-14.75,155.34,74.4,221.15c11.71,8.64,18.97-2.77,17.85-14.08
				c-1.12-11.31-66.21-91.66-56.44-220.21C289.85,204.21,254.92,205.6,253.17,228.79z"/>
		</g>
		<g>
			<path class="st40" d="M279.43,381.42c-1.25,0-2.7-0.33-4.31-1.25c-6.5-3.68-13.32-12.8-20.28-27.12
				c-5.09-10.46-8.32-19.75-8.45-20.14c-0.42-1.22,0.23-2.56,1.45-2.98c1.22-0.42,2.56,0.23,2.98,1.45
				c0.03,0.09,3.28,9.44,8.26,19.66c6.44,13.23,12.79,21.89,18.36,25.04c1.66,0.94,2.57,0.65,3.18,0.3
				c1.41-0.82,4.92-4.5,6.88-20.88c1.13-9.43,1.16-18.36,1.16-18.45c0-1.29,1.05-2.34,2.35-2.34c0,0,0,0,0,0
				c1.3,0,2.34,1.05,2.34,2.35c0,0.37-0.03,9.26-1.19,18.96c-1.65,13.8-4.66,21.79-9.19,24.42
				C282.09,380.96,280.89,381.42,279.43,381.42z"/>
		</g>
		<g>
			<circle class="st49" cx="258.82" cy="222.72" r="53.06"/>
		</g>
		<g>
			<path class="st50" d="M257.75,216.65c-0.18,0-0.36-0.02-0.55-0.06c-1.26-0.3-2.04-1.56-1.74-2.82
				c0.23-0.96,5.71-23.32,20.34-23.32c0.08,0,0.16,0,0.24,0c13.73,0.22,19.78,5.09,23.97,19.28c0.37,1.24-0.34,2.55-1.59,2.91
				c-1.25,0.37-2.55-0.34-2.91-1.59c-3.63-12.31-7.84-15.73-19.55-15.92c-0.05,0-0.1,0-0.15,0c-4.4,0-8.35,3.15-11.74,9.37
				c-2.76,5.07-4.03,10.29-4.04,10.34C259.78,215.92,258.81,216.65,257.75,216.65z"/>
		</g>
		<g>
			<path class="st40" d="M365.33,499.08c-0.32,0-0.64-0.07-0.95-0.2c-1.18-0.53-1.72-1.91-1.19-3.1l6.11-13.73
				c-20.21-3.24-33.3-43.08-33.88-44.87c-0.4-1.23,0.28-2.55,1.51-2.95c1.23-0.4,2.55,0.28,2.95,1.51
				c3.81,11.78,16.88,41.83,32.05,41.83c0.25,0,0.5-0.01,0.75-0.02c0.82-0.05,1.61,0.32,2.08,1c0.47,0.67,0.55,1.54,0.22,2.3
				l-7.5,16.85C367.08,498.56,366.22,499.08,365.33,499.08z"/>
		</g>
		<g>
			<path class="st50" d="M205.29,224.59c-0.06,0-0.13,0-0.19-0.01c-1.29-0.1-2.25-1.23-2.15-2.52c0.08-0.97,2.07-23.79,16.32-25.55
				c13.48-1.67,20.84,2.95,26.27,16.45c0.48,1.2-0.1,2.57-1.3,3.05c-1.2,0.48-2.57-0.1-3.05-1.3
				c-4.63-11.52-10.01-14.94-21.34-13.54c-4.22,0.52-7.54,4.11-9.88,10.66c-1.89,5.31-2.34,10.56-2.34,10.61
				C207.53,223.66,206.5,224.59,205.29,224.59z"/>
		</g>
		<g>
			<ellipse class="st15" cx="278.46" cy="216.93" rx="19.64" ry="24.33"/>
		</g>
		<g>
			<ellipse class="st15" cx="225.4" cy="222.72" rx="19.64" ry="24.33"/>
		</g>
		<g>
			<ellipse class="st40" cx="230.6" cy="222.62" rx="14.45" ry="18.64"/>
		</g>
		<g>
			<ellipse class="st40" cx="283.64" cy="214.3" rx="14.45" ry="18.64"/>
		</g>
		<g>
			<path class="st15" d="M237.67,249.08c0,0,23.24,12.97,36.82-8.03C274.5,241.05,254.62,254.88,237.67,249.08z"/>
		</g>
		<g>
			<path class="st50" d="M261.55,183.4c0,0,10.72-14.91,25.89,1.27C287.44,184.67,277.62,176.85,261.55,183.4z"/>
		</g>
		<g>
			<path class="st50" d="M212.82,191.82c0,0,5.99-17.36,25.17-6.2C237.99,185.62,226.33,180.94,212.82,191.82z"/>
		</g>
	</g>
</g>
</svg>
