<?xml version="1.0" encoding="utf-8"?>
<!-- Generator: Adobe Illustrator 24.0.1, SVG Export Plug-In . SVG Version: 6.00 Build 0)  -->
<svg version="1.1" xmlns="http://www.w3.org/2000/svg" xmlns:xlink="http://www.w3.org/1999/xlink" x="0px" y="0px"
	 viewBox="0 0 499.88 612" style="enable-background:new 0 0 499.88 612;" xml:space="preserve">
<style type="text/css">
	.st0{display:none;}
	.st1{display:inline;fill:#FFFFFF;stroke:#1D1D1B;stroke-miterlimit:10;}
	.st2{display:inline;fill:#FFFFFF;}
	.st3{fill:#F29258;}
	.st4{fill:#9B9592;}
	.st5{fill:#161818;}
	.st6{fill:#725944;}
	.st7{fill:#FFB103;}
	.st8{fill:#773810;}
	.st9{fill:#57240E;}
	.st10{fill:#C15D24;}
	.st11{fill:#F0D2A3;}
	.st12{fill:#BC7002;}
	.st13{fill:#5C3D2B;}
	.st14{fill:#68462D;}
	.st15{fill:#FFFFFF;}
	.st16{fill:#4D3520;}
	.st17{fill:#E42320;}
	.st18{fill:#FFBC97;}
	.st19{fill:#FDEEE6;}
	.st20{fill:#BC7B4E;}
	.st21{fill:#3D1112;}
	.st22{fill:#75312F;}
	.st23{fill:#FCC306;}
	.st24{fill-rule:evenodd;clip-rule:evenodd;fill:#BC7B4E;}
	.st25{fill:#7D4E25;}
	.st26{fill:#79844C;}
	.st27{fill:#3253A0;}
	.st28{fill:#87573D;}
	.st29{fill:#143984;}
	.st30{fill:#DD3D05;}
	.st31{fill:#6EB3E3;}
	.st32{opacity:0.5;}
	.st33{fill:#265CC6;}
	.st34{fill:#B72F00;}
	.st35{fill:#ECB079;}
	.st36{fill-rule:evenodd;clip-rule:evenodd;fill:#87573D;}
	.st37{fill:#56A9FC;}
	.st38{fill:#517005;}
	.st39{fill:#9DC947;}
	.st40{fill:#1D1D1B;}
	.st41{fill:#FF0000;}
	.st42{fill:#FFE000;}
	.st43{fill:#7D9928;}
	.st44{fill:#6CF1FF;}
	.st45{fill:#606060;}
	.st46{clip-path:url(#SVGID_2_);}
	.st47{fill:#7906B5;}
	.st48{fill:#AE00FF;}
	.st49{fill:#FF1066;}
	.st50{fill:#AA0045;}
	.st51{fill:#CEC2CB;}
	.st52{fill:#6D5E66;}
	.st53{fill:#BFBEBB;}
	.st54{fill:#F39200;}
	.st55{fill:#DBDBDB;}
	.st56{fill:#00659D;}
	.st57{fill:#00ABBC;}
	.st58{fill:#FC8890;}
	.st59{clip-path:url(#SVGID_4_);}
	.st60{fill:#FF9999;}
	.st61{fill:#D3A148;}
	.st62{fill:#E2C58A;}
	.st63{clip-path:url(#SVGID_6_);fill:#00ABBC;}
	.st64{fill:#B35D7F;}
	.st65{fill:#722142;}
	.st66{fill:#EEBC99;}
	.st67{fill:#D68F5F;}
	.st68{fill:#FF9B57;}
</style>
<g id="Capa_2" class="st0">
</g>
<g id="Capa_1">
	<g>
		<path class="st53" d="M102.28,290.32c5.57,3.22,14.55,9.06,21.27,9.44c-58.58-3.37,0.75,29.82,0.75,29.82
			c-37.75-7.86-14.03,15.19-3.7,24.59c6.28,5.71,12.95,10.99,19.94,15.79c6.92,4.76,14.17,9.06,21.67,12.86
			c16.95,8.59,38.49,17.95,53.44-2.63c12.48-17.18,7.18-39.3-1.47-55.56c-21.82-41.04-66.76-63.46-113.77-49.41
			C87.68,279.02,94.82,286,102.28,290.32z"/>
		<path class="st54" d="M277.23,490.5l5.42-64.54l-28.22,1.82l10.22,62.72c0,0,2.95,15.78,2.83,18.77c-0.12,3,0.12,6.99-13.2,5.39
			c-13.32-1.6-21.6,3.93-27.01,9.39c-5.41,5.46,11.5,5.46,17.26,11.05c5.76,5.59,10.2,4.53,19.76-1.33
			c9.56-5.86,15.28-5.73,17.06-6.92c1.78-1.2,2.18-4.39-1.66-8.39C275.85,514.46,277.23,490.5,277.23,490.5z"/>
		<path class="st54" d="M363.59,548.62c-4.47-2.94-17.84-8.34-22.18-9.53c-1.83-0.5-2.07-9.17-2.98-18.2
			c1.17-18.51,10.96-88.27,10.96-88.27l-35.76,11.36l12.99,69.58c1.01,7.62,2.01,16.62,1.47,19.13c-0.99,4.59-2.65,6.19-10.97,9.39
			c-8.32,3.2-16.16,9.59-15.65,11.58c0.52,2,4.47,3,9.3,2c4.83-1,16.44,3.4,17.65,7.99c1.88,2.8,8.05,3.4,10.19,0
			c2.14-3.4,12.19-9.99,19.13-8.79C364.69,556.07,368.07,551.57,363.59,548.62z"/>
		<path class="st55" d="M385.92,295.19c0,0,10.67,4.74,11.26,17.19c0,0,0.81-21.33,24.7-32c0,0,16.19,14.37,7.89,40.07
			c0,0,7.7-10.28,20.15-9.77c0,0,7.88,54.61-31.61,70.52C373.39,397.71,358.66,318.31,385.92,295.19z"/>
		<path class="st55" d="M245.45,237.94c0,0-4.72,61.99-21.9,88.07s-40.89,102.52,24.3,146.37c30.22,18.37,113.78,30.22,153.48-21.93
			c39.7-52.15,16-87.7-21.33-106.67c-37.33-18.96-69.93-23.11-93.04-12.44c-23.11,10.67,2.06-37.42,5.93-49.18
			c5.01-15.26,9.7-52.42,6.31-63.94C293.05,197.29,269.14,214.25,245.45,237.94z"/>
		<path class="st53" d="M427.52,371.61c-5.91,2.54-15.95,6.27-20.27,11.43c37.66-45-24.38-17.19-24.38-17.19
			c28.83-25.61-3.82-20.33-17.52-17.64c-8.33,1.63-16.54,3.83-24.57,6.57c-7.95,2.72-15.72,5.96-23.25,9.71
			c-17,8.48-37.37,20.18-29.78,44.45c6.34,20.26,27.25,29.21,45.46,31.98c45.95,6.98,90.76-15.7,107.54-61.81
			C445.3,366.64,435.44,368.21,427.52,371.61z"/>
		<path class="st55" d="M254.21,46.02c-53.54,0-96.93,43.4-96.93,96.93c0,12.33,7.59,33.37,11.78,44.21
			c-15.36,11.9-3.66,6.73,32.25,21.58c5.43,2.24-12.3,16.26-4.49,18.93c5.62,1,10.73,1.87,15.36,2.65
			c12.71,6.13,26.97,9.56,42.03,9.56c53.54,0,96.93-43.4,96.93-96.93C351.15,89.42,307.75,46.02,254.21,46.02z"/>
		<circle class="st15" cx="180.21" cy="141.16" r="34.9"/>
		<path class="st56" d="M180.21,106.26c19.27,0,34.9,15.62,34.9,34.9s-15.62,34.9-34.9,34.9s-34.9-15.62-34.9-34.9
			S160.93,106.26,180.21,106.26 M180.21,99.81c-22.8,0-41.34,18.55-41.34,41.34s18.55,41.34,41.34,41.34s41.34-18.55,41.34-41.34
			S203,99.81,180.21,99.81L180.21,99.81z"/>
		<ellipse class="st57" cx="188.79" cy="143.92" rx="24.73" ry="25.81"/>
		<path class="st54" d="M203.01,165.27c0,0,11.51-11.51,16.11-17.84c4.6-6.33,15.54-8.63,23.02,8.92
			c7.48,17.55,20.14,20.43,29.92,26.18c9.78,5.75,19.57,26.42-26.47,31.91c-25.9,1.46-101.1,3.87-108.19-7.17
			C121.48,182.5,172.26,188.11,203.01,165.27z"/>
		<g>
			<path class="st56" d="M240.56,151.48c-0.51,0-1.01-0.2-1.39-0.59c-3.52-3.67-8.08-5-13.54-3.96c-4.28,0.82-7.54,2.84-7.58,2.86
				c-0.9,0.56-2.09,0.29-2.65-0.61c-0.57-0.9-0.3-2.08,0.6-2.65c5.24-3.31,17.4-7.21,25.95,1.69c0.74,0.77,0.71,1.99-0.05,2.72
				C241.52,151.3,241.04,151.48,240.56,151.48z"/>
		</g>
		<g>
			<g>
				<path class="st58" d="M236.31,316.8c0,0-37.11-23.08-43.4-15.78c-6.3,7.3,10.49,29.95,10.49,29.95s-11.24,20.51-7.38,28.46
					s48.9-19.79,48.9-19.79S248.63,323.85,236.31,316.8z"/>
			</g>
			<g>
				<path class="st58" d="M244.73,344.63c0,0,37.11,23.08,43.4,15.78s-10.49-29.95-10.49-29.95s11.24-20.51,7.38-28.46
					s-48.91,19.79-48.91,19.79S232.41,337.58,244.73,344.63z"/>
			</g>
		</g>
		<path class="st53" d="M245.59,239.89c0,0,34.63-0.58,54.74-11.65C300.33,228.24,276.82,261.97,245.59,239.89z"/>
		<path class="st53" d="M232.32,359.59c0,0-20.53,31.3-17.22,41.85c0,0,5.18-20.67,17.12-18.67c0,0-17.38,18.58-8.61,29.43
			c0,0,4.52-11.83,12.02-11.13c0,0-19.31,9.11-4.72,25.36c0,0,3.97-8.75,10.55-5.42c0,0-6.36-8.97-10.7-2.56
			c0,0,1.32-12.42,9.38-16.94c0,0-4.32-8.17-12.6-0.32c0,0-0.22-9.06,6.96-15.66c0,0,2.87-12.81-7.28-8.98L232.32,359.59z"/>
		<g>
			<path class="st40" d="M156.12,368.22l-73.51,15c-5.34,1.09-10.56-2.36-11.65-7.7L49.52,270.43c-1.09-5.34,2.36-10.56,7.7-11.65
				l73.51-15c5.34-1.09,10.56,2.36,11.65,7.7l21.44,105.08C164.91,361.92,161.46,367.13,156.12,368.22z"/>
		</g>
		<g>
			
				<rect x="70.66" y="264.07" transform="matrix(0.9798 -0.1999 0.1999 0.9798 -59.7465 27.4093)" class="st44" width="70.44" height="91.08"/>
		</g>
		<g>
			<circle class="st45" cx="117.26" cy="365.41" r="8.15"/>
		</g>
		<g>
			<path class="st45" d="M118.78,256.47l-45.6,9.3c-0.53,0.11-1.04-0.23-1.15-0.76l-0.51-2.49c-0.11-0.53,0.23-1.04,0.76-1.15
				l45.6-9.3c0.53-0.11,1.04,0.23,1.15,0.76l0.51,2.49C119.65,255.85,119.31,256.36,118.78,256.47z"/>
		</g>
		<g>
			<defs>
				
					<rect id="SVGID_3_" x="70.66" y="264.07" transform="matrix(0.9798 -0.1999 0.1999 0.9798 -59.7465 27.4093)" width="70.44" height="91.08"/>
			</defs>
			<clipPath id="SVGID_2_">
				<use xlink:href="#SVGID_3_"  style="overflow:visible;"/>
			</clipPath>
			<g class="st46">
				<path class="st15" d="M103.6,290.82c-0.83,0-1.66-0.26-2.38-0.79c-1.77-1.32-2.15-3.82-0.83-5.6l23.2-31.29
					c1.32-1.78,3.82-2.15,5.6-0.83c1.77,1.32,2.15,3.82,0.83,5.6l-23.2,31.29C106.03,290.26,104.82,290.82,103.6,290.82z"/>
			</g>
			<g class="st46">
				<path class="st15" d="M113.75,300.25c-0.83,0-1.66-0.26-2.38-0.79c-1.77-1.32-2.15-3.82-0.83-5.6l23.97-32.33
					c1.32-1.77,3.82-2.15,5.6-0.83s2.15,3.82,0.83,5.6l-23.97,32.33C116.19,299.69,114.98,300.25,113.75,300.25z"/>
			</g>
			<g class="st46">
				<path class="st15" d="M73.68,368.48c-0.83,0-1.66-0.26-2.38-0.79c-1.77-1.32-2.15-3.82-0.83-5.6l23.2-31.29
					c1.32-1.78,3.82-2.15,5.6-0.83c1.77,1.32,2.15,3.82,0.83,5.6l-23.2,31.29C76.11,367.92,74.9,368.48,73.68,368.48z"/>
			</g>
			<g class="st46">
				<path class="st15" d="M83.83,377.91c-0.83,0-1.66-0.26-2.38-0.79c-1.77-1.32-2.15-3.82-0.83-5.6l23.97-32.33
					c1.32-1.77,3.82-2.15,5.6-0.83c1.77,1.32,2.15,3.82,0.83,5.6l-23.97,32.33C86.26,377.35,85.05,377.91,83.83,377.91z"/>
			</g>
		</g>
		<circle class="st15" cx="274.24" cy="142.45" r="36.66"/>
		<path class="st54" d="M221.55,239.89c22.76-6.38,43.79-5.27,63.11-42.38c0,0,6.12-30.22-12.38-11.73c0,0-99.77,30.53-93.03,46.79
			C184.07,244.18,215.77,241.51,221.55,239.89z"/>
		<ellipse class="st57" cx="278.36" cy="144.52" rx="24.73" ry="25.81"/>
		<path class="st40" d="M182.69,224.46c0,0,22.12,21.28,62.76,0.11c26.97-14.05,36.87-48.52,36.87-48.52s-40.23,30.85-85.51,39.01
			C192.76,215.79,187.93,219.8,182.69,224.46z"/>
		<path class="st56" d="M274.24,105.79c20.25,0,36.66,16.41,36.66,36.66c0,20.25-16.41,36.66-36.66,36.66s-36.66-16.41-36.66-36.66
			C237.58,122.2,253.99,105.79,274.24,105.79 M274.24,99.34c-23.77,0-43.11,19.34-43.11,43.11s19.34,43.11,43.11,43.11
			s43.11-19.34,43.11-43.11S298.01,99.34,274.24,99.34L274.24,99.34z"/>
		<ellipse class="st60" cx="300.33" cy="179.79" rx="32.05" ry="10.01"/>
		<path class="st53" d="M241.83,84.66c0,0,41.99-35.62,73.07,3.72C314.9,88.38,289.46,68.98,241.83,84.66z"/>
		<path class="st53" d="M141.46,77.51c0,0,43.04-27.65,66.83,12.4C208.29,89.91,187.25,68.92,141.46,77.51z"/>
		<path class="st41" d="M216.94,233.67c0,0,3.78-38.35,57.3-39.06C274.24,194.61,263.33,229.35,216.94,233.67z"/>
		
			<ellipse transform="matrix(0.7071 -0.7071 0.7071 0.7071 -49.2885 209.7072)" class="st20" cx="228.49" cy="164.35" rx="2.38" ry="4.83"/>
		<path class="st53" d="M380.21,340.09c0,0,30.67-3.21,52.48,21.74C432.69,361.83,417.7,331.91,380.21,340.09z"/>
		<polygon class="st20" points="262.83,479.34 277.23,490.5 277.79,483.76 		"/>
		<path class="st20" d="M321.85,488c0.65-0.21,19.48,5.57,19.48,5.57l1.02-8.23L321.85,488z"/>
		<path class="st20" d="M227.16,527.54c-0.16-0.06,18.11-3.66,18.11-3.66l-8.2,7.35c0,0-3.94-1.11-5.37-1.7
			C230.59,529.07,227.16,527.54,227.16,527.54z"/>
		<path class="st20" d="M245.27,535.8l8.36-6.63v9.48c0,0-2.64,0.77-5.14-0.66C246,536.55,245.27,535.8,245.27,535.8z"/>
		<path class="st20" d="M312.97,555.54c-0.85-0.14,11.93-9.74,11.93-9.74l3.53,17.86C328.43,563.66,319.9,556.68,312.97,555.54z"/>
		<path class="st20" d="M341.68,560.56c-0.11,0.05-2.13-15.22-2.13-15.22l21.92,9.38C361.47,554.73,347.79,557.38,341.68,560.56z"/>
	</g>
</g>
</svg>
