<?xml version="1.0" encoding="utf-8"?>
<!-- Generator: Adobe Illustrator 24.0.1, SVG Export Plug-In . SVG Version: 6.00 Build 0)  -->
<svg version="1.1" xmlns="http://www.w3.org/2000/svg" xmlns:xlink="http://www.w3.org/1999/xlink" x="0px" y="0px"
	 viewBox="0 0 553.16 612" style="enable-background:new 0 0 553.16 612;" xml:space="preserve">
<style type="text/css">
	.st0{display:none;}
	.st1{display:inline;fill:#FFFFFF;stroke:#1D1D1B;stroke-miterlimit:10;}
	.st2{display:inline;fill:#FFFFFF;}
	.st3{fill:#F29258;}
	.st4{fill:#9B9592;}
	.st5{fill:#161818;}
	.st6{fill:#725944;}
	.st7{fill:#FFB103;}
	.st8{fill:#773810;}
	.st9{fill:#57240E;}
	.st10{fill:#C15D24;}
	.st11{fill:#F0D2A3;}
	.st12{fill:#BC7002;}
	.st13{fill:#5C3D2B;}
	.st14{fill:#68462D;}
	.st15{fill:#FFFFFF;}
	.st16{fill:#4D3520;}
	.st17{fill:#E42320;}
	.st18{fill:#FFBC97;}
	.st19{fill:#FDEEE6;}
	.st20{fill:#BC7B4E;}
	.st21{fill:#3D1112;}
	.st22{fill:#75312F;}
	.st23{fill:#FCC306;}
	.st24{fill-rule:evenodd;clip-rule:evenodd;fill:#BC7B4E;}
	.st25{fill:#7D4E25;}
	.st26{fill:#79844C;}
	.st27{fill:#3253A0;}
	.st28{fill:#87573D;}
	.st29{fill:#143984;}
	.st30{fill:#DD3D05;}
	.st31{fill:#6EB3E3;}
	.st32{opacity:0.5;}
	.st33{fill:#265CC6;}
	.st34{fill:#B72F00;}
	.st35{fill:#ECB079;}
	.st36{fill-rule:evenodd;clip-rule:evenodd;fill:#87573D;}
	.st37{fill:#56A9FC;}
	.st38{fill:#517005;}
	.st39{fill:#9DC947;}
	.st40{fill:#1D1D1B;}
	.st41{fill:#FF0000;}
	.st42{fill:#FFE000;}
	.st43{fill:#7D9928;}
	.st44{fill:#6CF1FF;}
	.st45{fill:#606060;}
	.st46{clip-path:url(#SVGID_2_);}
	.st47{fill:#7906B5;}
	.st48{fill:#AE00FF;}
	.st49{fill:#FF1066;}
	.st50{fill:#AA0045;}
	.st51{fill:#CEC2CB;}
	.st52{fill:#6D5E66;}
	.st53{fill:#BFBEBB;}
	.st54{fill:#F39200;}
	.st55{fill:#DBDBDB;}
	.st56{fill:#00659D;}
	.st57{fill:#00ABBC;}
	.st58{fill:#FC8890;}
	.st59{clip-path:url(#SVGID_4_);}
	.st60{fill:#FF9999;}
	.st61{fill:#D3A148;}
	.st62{fill:#E2C58A;}
	.st63{clip-path:url(#SVGID_6_);fill:#00ABBC;}
	.st64{fill:#B35D7F;}
	.st65{fill:#722142;}
	.st66{fill:#EEBC99;}
	.st67{fill:#D68F5F;}
	.st68{fill:#FF9B57;}
</style>
<g id="Capa_2" class="st0">
</g>
<g id="Capa_1">
	<g>
		<g>
			<path class="st38" d="M345.42,219.23c0,0,138.01-25.6,155.92,97.4c19.75,135.66-93.03,134.15-93.03,134.15L345.42,219.23z"/>
		</g>
		<g>
			<path class="st39" d="M406.72,224.29c-17.22-7.27-52.74-3.53-62.15,4.81c-9.48-1.14-18.5-1.77-26.29-2.02
				c-12.46-3.51-31.2-4.47-55.3,6.67c0,0-94.29,38.5-101.76,58.04c-6.95,18.2,18.84,13.91,42.59,6.73l-1.6,5.47l43.72-14.93
				c-9.59,37.34-12.24,99.47,25.71,156.78c12.93,19.53,140.32-4.17,135.54-23.78c-3.12-12.8-28.72-79.49-9.03-127.03l57.78,23.8
				c-13.85,41.8,34.21,1.08,37.48-12.17C494.83,300.88,428.1,233.32,406.72,224.29z"/>
		</g>
		<g>
			<path class="st39" d="M327.5,52.62c-44.14,0-79.93,35.78-79.93,79.93c0,1.78,0.06,3.55,0.18,5.3
				c-11.75,7.98-30.99,23.16-23.49,32.83c49.67,63.97,103.24,41.8,103.24,41.8c44.14,0,79.93-35.78,79.93-79.93
				S371.65,52.62,327.5,52.62z"/>
		</g>
		<g>
			<polygon class="st39" points="368.45,242.17 331.95,234.65 331.95,145.1 385.47,145.1 			"/>
		</g>
		<g>
			<polygon class="st39" points="255.89,407.32 259.85,540.23 213.07,559.38 266.58,556.61 327.5,422.54 			"/>
		</g>
		<g>
			<polygon class="st39" points="407.17,422.05 403.65,540.23 450.43,559.38 396.93,556.61 336,422.54 			"/>
		</g>
		<g>
			<g>
				<path class="st39" d="M489.31,314.03c-9.5,9.79-27.31,43.36-101.67,66.23l-9.19-9.24c0,0,32.21-30.17,65.24-59.3
					C443.69,311.73,498.81,304.24,489.31,314.03z"/>
			</g>
		</g>
		<g>
			<g>
				<path class="st39" d="M203.8,298.51c-3.92-19.84,0.85-30.24-91.73-80.25l-8.25,18.8c0,0,23.65,39.17,58.83,65.65
					C170.72,308.79,206.89,314.17,203.8,298.51z"/>
			</g>
		</g>
		<g>
			<path class="st40" d="M271.14,168.35c0,0,48.26-1.28,68.1-9.28c0,0,1.03,18.65-6.55,28.47
				C319.36,204.8,291.5,212.27,271.14,168.35z"/>
		</g>
		<g>
			<path class="st41" d="M293.67,196.98c0,0,2.12-31.76,45.4-30.13c0,0,0.44,10.34-3.59,18.94
				C329.9,197.72,316.99,207.92,293.67,196.98z"/>
		</g>
		<g>
			<path class="st42" d="M286.61,440.83c0,0-20.06-21.62-31.2-60.56c-17.56-61.39,2.25-103.97,14.88-119.4
				c25.15-30.7,99.04-39.04,115.18,55.76C408.31,450.78,313.66,474.94,286.61,440.83z"/>
		</g>
		<g>
			<path class="st38" d="M275.39,304.24c-8.22-1.19,16.12,3.66,24.43,3.63c10.06-0.03,20.13-0.07,30.19-0.1
				c8.05-0.03,16.43-0.13,23.6-3.78C353.61,303.98,301.03,307.95,275.39,304.24z"/>
		</g>
		<g>
			<path class="st38" d="M278.75,364.01c-26.04,0.06,52.18,4.02,77.6-1.66C356.35,362.35,302.43,363.96,278.75,364.01z"/>
		</g>
		<g>
			<path class="st38" d="M299.21,412.87c15.68,0.62,31.42-0.23,46.95-2.52L299.21,412.87z"/>
		</g>
		<g>
			<path class="st38" d="M405.11,357.26l-8.54-22.59l-37.4,7.45l2.82,16.12l23.24-4.86l10.68,11.04l-21.88,4.02l-4.9,11.35
				l5.44,10.02l27.5-14.26l-15.68,19.37c0,0,9.53,17.47,11.52,12.87c1.99-4.6,21.89-28.55,21.89-28.55l-8.34-11.31L405.11,357.26z"
				/>
		</g>
		<g>
			<path class="st39" d="M445.01,371.62c0,0-7.24,47.75-14.07,59.7C430.95,431.32,453.96,408.29,445.01,371.62z"/>
		</g>
		<g>
			<path class="st39" d="M469.6,400.87c0,0-48.29,0.47-61.18-4.36C408.42,396.51,434.83,415.55,469.6,400.87z"/>
		</g>
		<g>
			<path class="st39" d="M500.19,361.76c0,0-48.29,0.47-61.18-4.36C439.01,357.39,465.42,376.44,500.19,361.76z"/>
		</g>
		<g>
			<path class="st15" d="M373.74,117.51c-0.7,0-1.4-0.22-2-0.66c-1.49-1.11-1.8-3.21-0.7-4.7l22.71-30.62
				c1.11-1.49,3.21-1.8,4.7-0.7c1.49,1.11,1.8,3.21,0.7,4.7l-22.71,30.62C375.78,117.04,374.76,117.51,373.74,117.51z"/>
		</g>
		<g>
			<path class="st15" d="M382.27,125.43c-0.7,0-1.4-0.22-2-0.66c-1.49-1.11-1.8-3.21-0.7-4.7l21.66-29.21
				c1.11-1.49,3.21-1.8,4.7-0.7s1.8,3.21,0.7,4.7l-21.66,29.21C384.31,124.96,383.29,125.43,382.27,125.43z"/>
		</g>
		<g>
			<path class="st15" d="M262.81,107.57c-0.7,0-1.4-0.22-2-0.66c-1.49-1.11-1.8-3.21-0.7-4.7l19.49-26.28
				c1.11-1.49,3.21-1.8,4.7-0.7c1.49,1.11,1.8,3.21,0.7,4.7l-19.49,26.28C264.85,107.1,263.84,107.57,262.81,107.57z"/>
		</g>
		<g>
			<path class="st15" d="M271.34,115.49c-0.7,0-1.4-0.22-2-0.66c-1.49-1.11-1.8-3.21-0.7-4.7l20.14-27.16
				c1.11-1.49,3.21-1.8,4.7-0.7c1.49,1.11,1.8,3.21,0.7,4.7l-20.14,27.16C273.38,115.02,272.37,115.49,271.34,115.49z"/>
		</g>
		<g>
			<path class="st39" d="M479.95,331.69c0,0,3.57,48.16-0.42,61.33C479.53,393.02,496.84,365.44,479.95,331.69z"/>
		</g>
		<g>
			<path class="st43" d="M331.95,212.35c0,0,23.73-4.93,47.1-18.72c0,0-14.36,34.43-47.1,34.21V212.35z"/>
		</g>
		<g>
			<path class="st40" d="M258.33,169.37c-27.94,0-50.66-22.73-50.66-50.66c0-27.94,22.73-50.66,50.66-50.66
				c27.94,0,50.66,22.73,50.66,50.66C308.99,146.65,286.27,169.37,258.33,169.37z M258.33,74.77c-24.23,0-43.94,19.71-43.94,43.94
				c0,24.23,19.71,43.94,43.94,43.94c24.23,0,43.94-19.71,43.94-43.94C302.27,94.48,282.56,74.77,258.33,74.77z"/>
		</g>
		<g>
			<path class="st40" d="M364.94,169.37c-27.94,0-50.66-22.73-50.66-50.66c0-27.94,22.73-50.66,50.66-50.66
				c27.94,0,50.66,22.73,50.66,50.66C415.6,146.65,392.88,169.37,364.94,169.37z M364.94,74.77c-24.23,0-43.94,19.71-43.94,43.94
				c0,24.23,19.71,43.94,43.94,43.94c24.23,0,43.94-19.71,43.94-43.94C408.88,94.48,389.17,74.77,364.94,74.77z"/>
		</g>
		<g>
			<ellipse class="st40" cx="282.07" cy="126.27" rx="10.93" ry="20.35"/>
		</g>
		<g>
			<ellipse class="st40" cx="358.71" cy="126.27" rx="15.03" ry="22.14"/>
		</g>
		<g>
			<path class="st41" d="M319.48,223.12c0,0-31.67-19.7-37.04-13.46c-5.37,6.23,8.95,25.56,8.95,25.56s-9.6,17.5-6.3,24.29
				c3.3,6.78,41.74-16.89,41.74-16.89S330,229.14,319.48,223.12z"/>
		</g>
		<g>
			<path class="st41" d="M326.67,246.87c0,0,31.67,19.7,37.04,13.46c5.37-6.23-8.95-25.56-8.95-25.56s9.6-17.5,6.3-24.29
				c-3.3-6.78-41.74,16.89-41.74,16.89S316.15,240.86,326.67,246.87z"/>
		</g>
		<g>
			<path class="st40" d="M325.59,147.29c-1.39,0-2.69-0.87-3.17-2.25c-0.11-0.31-2.97-7.96-10.78-7.96c-7.1,0-10,7.67-10.12,8
				c-0.64,1.74-2.56,2.64-4.3,2.01c-1.74-0.63-2.65-2.54-2.03-4.28c0.18-0.51,4.57-12.45,16.45-12.45
				c12.62,0,16.95,11.96,17.12,12.47c0.61,1.75-0.31,3.67-2.07,4.28C326.33,147.23,325.95,147.29,325.59,147.29z"/>
		</g>
		<g>
			<path class="st38" d="M291.01,105.27c0,0-20.83-55.96-48.77-6.34C242.24,98.93,268.4,66.81,291.01,105.27z"/>
		</g>
		<g>
			<path class="st38" d="M343.68,101.66c0,0,27.62-42.93,46.67,1.14C390.34,102.8,370.44,73.24,343.68,101.66z"/>
		</g>
		<g>
			<path class="st38" d="M264.89,242.17c0,0-16.79,20.27-18.97,46.89C245.92,289.05,252.01,268.12,264.89,242.17z"/>
		</g>
		<g>
			<path class="st38" d="M443.69,311.73c0,0,13.53-17.52,30.16-16.71C473.85,295.02,449.35,291.38,443.69,311.73z"/>
		</g>
		<g>
			<path class="st38" d="M193.11,269.3c0,0,11.78,7.69,11.23,19.75C204.35,289.05,206.46,271.1,193.11,269.3z"/>
		</g>
		<g>
			<path class="st38" d="M395.95,291.13l-11.17-36.85C384.78,254.28,383.15,277.13,395.95,291.13z"/>
		</g>
		<g>
			<path class="st38" d="M278.44,440.38l-17.17-19.25C261.26,421.13,264.75,431.32,278.44,440.38z"/>
		</g>
		<g>
			<path class="st38" d="M366.7,445.84l17.17-19.25C383.88,426.59,380.39,436.78,366.7,445.84z"/>
		</g>
		<g>
			<g>
				<path class="st40" d="M142.27,265.13L83.6,277.1c-5.34,1.09-10.56-2.36-11.65-7.7l-17.38-85.18c-1.09-5.34,2.36-10.56,7.7-11.65
					l58.67-11.97c5.34-1.09,10.56,2.36,11.65,7.7l17.38,85.18C151.06,258.83,147.61,264.04,142.27,265.13z"/>
			</g>
			<g>
				
					<rect x="72.02" y="177.32" transform="matrix(0.9798 -0.1999 0.1999 0.9798 -41.0381 24.6585)" class="st44" width="59.17" height="76.52"/>
			</g>
			<g>
				<circle class="st45" cx="111.17" cy="262.46" r="6.85"/>
			</g>
			<g>
				<path class="st45" d="M112.3,170.96l-38,7.75c-0.53,0.11-1.04-0.23-1.15-0.76l-0.36-1.78c-0.11-0.53,0.23-1.04,0.76-1.15
					l38-7.75c0.53-0.11,1.04,0.23,1.15,0.76l0.36,1.78C113.16,170.34,112.82,170.86,112.3,170.96z"/>
			</g>
		</g>
		<g>
			<defs>
				
					<rect id="SVGID_1_" x="72.02" y="177.32" transform="matrix(0.9798 -0.1999 0.1999 0.9798 -41.0381 24.6585)" width="59.17" height="76.52"/>
			</defs>
			<clipPath id="SVGID_2_">
				<use xlink:href="#SVGID_1_"  style="overflow:visible;"/>
			</clipPath>
			<g class="st46">
				<path class="st15" d="M99.69,199.8c-0.7,0-1.4-0.22-2-0.66c-1.49-1.11-1.8-3.21-0.7-4.7l19.49-26.28c1.11-1.49,3.21-1.8,4.7-0.7
					c1.49,1.11,1.8,3.21,0.7,4.7l-19.49,26.28C101.74,199.33,100.72,199.8,99.69,199.8z"/>
			</g>
			<g class="st46">
				<path class="st15" d="M108.22,207.72c-0.7,0-1.4-0.22-2-0.66c-1.49-1.11-1.8-3.21-0.7-4.7l20.14-27.16
					c1.11-1.49,3.21-1.8,4.7-0.7c1.49,1.11,1.8,3.21,0.7,4.7l-20.14,27.16C110.27,207.25,109.25,207.72,108.22,207.72z"/>
			</g>
			<g class="st46">
				<path class="st15" d="M74.55,265.04c-0.7,0-1.4-0.22-2-0.66c-1.49-1.11-1.8-3.21-0.7-4.7l19.49-26.28
					c1.11-1.49,3.21-1.8,4.7-0.7c1.49,1.11,1.8,3.21,0.7,4.7l-19.49,26.28C76.6,264.57,75.58,265.04,74.55,265.04z"/>
			</g>
			<g class="st46">
				<path class="st15" d="M83.08,272.96c-0.7,0-1.4-0.22-2-0.66c-1.49-1.11-1.8-3.21-0.7-4.7l20.14-27.16
					c1.11-1.49,3.21-1.8,4.7-0.7c1.49,1.11,1.8,3.21,0.7,4.7L85.79,271.6C85.13,272.49,84.11,272.96,83.08,272.96z"/>
			</g>
		</g>
		<g>
			<g>
				<path class="st38" d="M60.45,263.97l34.19-7.14l-3.02-15.8l-35.93,6.14C55.69,247.16,52.4,260.26,60.45,263.97z"/>
			</g>
			<g>
				<path class="st38" d="M54,240.47l34.89-1.69l-0.5-16.08l-36.45,0.42C51.94,223.13,46.64,235.54,54,240.47z"/>
			</g>
			<g>
				<path class="st38" d="M51.15,214.23l33.45,10.05l4.89-15.32l-34.5-11.76C54.99,197.19,45.85,207.13,51.15,214.23z"/>
			</g>
			<g>
				<path class="st38" d="M143.06,199.72l-29.03,19.43l8.72,13.52l31.01-19.15C153.76,213.52,151.9,200.14,143.06,199.72z"/>
			</g>
		</g>
	</g>
</g>
</svg>
