<?xml version="1.0" encoding="utf-8"?>
<!-- Generator: Adobe Illustrator 24.1.0, SVG Export Plug-In . SVG Version: 6.00 Build 0)  -->
<svg version="1.1" id="Capa_1" xmlns="http://www.w3.org/2000/svg" xmlns:xlink="http://www.w3.org/1999/xlink" x="0px" y="0px"
	 viewBox="0 0 1396.29 1699.09" style="enable-background:new 0 0 1396.29 1699.09;" xml:space="preserve">
<style type="text/css">
	.st0{fill:#9FE5ED;}
</style>
<g>
	<path class="st0" d="M1019.09,1699c-338.17,0-676.33-0.01-1014.5,0.09c-3.75,0-4.59-0.84-4.59-4.59
		C0.09,1129.67,0.09,564.84,0.09,0c3.62,11.6,7.14,23.23,10.86,34.79c41.92,130.26,99.08,253.48,171.55,369.53
		c57.43,91.97,123.88,176.76,202.25,251.99c48.35,46.42,100.35,88.19,156.69,124.53c72.14,46.55,149.07,82.9,231.36,107.52
		c62.47,18.69,122.88,42.21,180.21,73.44c92.48,50.39,171.94,116.43,238.18,198.3c66.32,81.98,115.1,173.67,150.07,272.89
		c23.45,66.53,40.09,134.76,49.6,204.67c2.22,16.33,3.66,32.77,5.19,49.19c0.74,7.93,0.16,8.23-7.6,8.36
		c-10.49,0.18-20.98,0.53-31.48,0.68c-37.16,0.54-74.32-0.01-111.48,0.88c-40.48,0.96-80.98,0.17-121.47,1.03
		c-32.49,0.69-64.99,0.36-97.49,0.5C1024.03,1698.32,1021.5,1698.12,1019.09,1699z"/>
</g>
</svg>
