<svg xmlns="http://www.w3.org/2000/svg" viewBox="0 0 1221.78 638.89"><defs><style>.cls-1{fill:#fefefe;fill-rule:evenodd;}</style></defs><g id="Capa_2" data-name="Capa 2"><g id="Capa_1-2" data-name="Capa 1"><g id="Capa_1-3" data-name="Capa_1"><g id="_2033012976560" data-name=" 2033012976560"><path class="cls-1" d="M168.12,215c-18,0-19.63-28.29-6.29-34.32,12.82-5.79,24.4,7.39,19.63,23.51C179.61,210.52,174.58,215,168.12,215Zm106.77-6.76c-20.38,0-20.93-28.74,0-28.74S295.23,208.28,274.89,208.28ZM114.5,197.16A48.15,48.15,0,0,0,118.84,217c3.17,6.42,5.48,9.05,10.27,13.89,6.72,6.8,21.71,13.65,35.15,13.65,17.21,0,28.15-2.12,41.62-13,4.06-3.27,8-9,10.4-13.75,5.07-10.22,3.89-16.82,5-19.66,0,9.67,5.65,20.89,12.19,27.43s18.76,12.19,28.4,12.19c8.86,0,15.91.16,23.75-5.23,1.64-1.13,2.84-2.51,4.27-3.46,0,9.07-2.39,15.26-11.28,18.2-9.42,3.11-24.34.47-33-3.86-2.62-1.31-4.11-2.49-6.43-3.71-2.17,4.09-4.2,8.41-6.28,12.56l-3.23,6.44-3,6.61c2.06,2.82,13.65,7.15,18.25,8.32,19.8,5,43.5,5.26,61.78-4.62,15.81-8.54,21.42-27.78,21.42-45.26v-71c0-1.11-.34-1.45-1.45-1.45H291.8v9.67l-3.46-3.31C273.92,144.33,246.9,149,234,162c-3.62,3.62-6.63,7-8.82,12-4.13,9.29-2.72,9.91-4.35,16.91-2-3.76.61-9.15-10.62-23.68-4.45-5.75-13.72-11.42-20.85-13.95-31-11-74.81,3.69-74.81,43.91Z"/><path class="cls-1" d="M745.92,120.81v303h7.73A18.6,18.6,0,0,1,772,442.65v7.25h302.42c7.65,0,10.93-8.79,5.22-13.43-3.15-2.56-21.17-1.55-27-1.55H786c-.57-1.2-1-3.16-1.58-4.7A30.31,30.31,0,0,0,777,418.85a32.18,32.18,0,0,0-16.06-9.06V130.47c0-6.91,1-13.58-3.68-16.13C752,111.48,745.92,114.86,745.92,120.81Z"/><polygon class="cls-1" points="496.64 243.07 594.22 243.07 594.22 213.11 535.77 213.11 535.77 198.13 585.04 198.13 585.04 169.13 535.77 169.13 535.77 156.09 591.81 156.09 591.81 126.13 496.64 126.13 496.64 243.07"/><path class="cls-1" d="M635.77,199.58c0-6.65,0-12.62,5.92-17.28,9-7,23.07-.52,23.07,12.45,0,6.06.18,10.51-4,15.76a16.25,16.25,0,0,1-4.15,3.1,14.74,14.74,0,0,1-12.26.15C639.24,211.59,635.77,205.47,635.77,199.58Zm28.51-42.53c-8.19-5.48-12.06-7.25-24.16-7.25-12.83,0-22.41,5.35-30.56,13.41-18.87,18.66-17.42,62.21,11.56,76.64,11.83,5.89,29.49,7,40.84-.54,1.95-1.3,2.63-2.41,4.25-3.49v7.25H701c1.11,0,1.45-.34,1.45-1.45V120.33c0-1.12-.34-1.45-1.45-1.45H664.28v38.17Z"/><path class="cls-1" d="M1,184.11c0,25.5,13.39,45.56,36.06,55.74,21.66,9.73,56.36,7.07,73-8.5,1.73-1.62,3.33-2.59,4.81-4.37l4-5.17a16.79,16.79,0,0,1-3.27-2.53l-12.26-10.93c-2.08-1.66-6.89-6.86-9.59-8.29-2.13,1.43-9.55,13.53-25.6,13.53-27.75,0-33.7-33.48-20.15-49.63,9.3-11.1,29.56-11.4,41,.22,1.5,1.51,3.65,2.78,4.23,4.95,1.8-.48,1.91-1.34,3.31-2.48l22.29-19.75C108,130.7,85.39,123.23,65.7,123.23c-15.39,0-29.78,4.55-41.41,13.18A57.8,57.8,0,0,0,6.6,158.34,65.37,65.37,0,0,0,1,184.11Z"/><path class="cls-1" d="M373.93,160c0-4.5.87-8.7-1.45-8.7H337.69v91.82h37.69V203.44c0-7.53.79-15.94,6.94-19.62,7.85-4.7,18.18-2.28,18.18,12.38v46.87h38.16V190.4c0-42.41-38.75-47.34-59.58-34.47-2.19,1.35-3.39,2.84-5.15,4Z"/><path class="cls-1" d="M278.75,447.48h22.71v-42l26.29,31.69c1,1.31,7.88,10.35,9.46,10.35h18.36V367.26H332.86v42l-32.95-39.52c-.92-1.08-1.34-2.52-2.8-2.52H278.75Z"/><path class="cls-1" d="M967.67,578h22.22V535.91c2.75,1.85,14.78,17.52,18,21.14L1021,572.92c.9,1.15,1.39,1.54,2.2,2.62.63.84,1.52,2.42,2.9,2.42H1044V497.25h-22.22v42.53c-1.26-.84-3.31-3.75-4.5-5.17l-28.94-34.84c-.92-1.08-1.34-2.52-2.8-2.52H967.67Z"/><path class="cls-1" d="M641.57,447.48h22.22v-42l33.26,39.7c.64.82,1.73,2.34,3,2.34H717.9V367.26H695.68v42c-1.51-1-23.9-28.67-26.45-31.53l-6.52-8c-1.89-2.17-1.42-2.54-2.78-2.54H641.57v80.22Z"/><path class="cls-1" d="M155.08,535.91c0,17.36,6.21,30.37,17.87,38.18a47.39,47.39,0,0,0,3.38-7.73c2.65.7,2.25,2.41,8.7,2.41,2.27,0,5.32-2.18,5.32-4.35l-19.81-47.35H187l10.21,25.06c.53,1.36.75,2.62,1.87,3.45l11.6-28.51h15l-21.73,52.68c-4.33,8.31-7.79,8.74-12.92,11.24l-.62.35c25.56,5.95,53.63-11.86,53.63-44a46.75,46.75,0,0,0-7-24.84,42.39,42.39,0,0,0-35.47-19.13c-13.87,0-24.43,3-34.18,12.68a43.25,43.25,0,0,0-12.2,29.84Z"/><path class="cls-1" d="M402.91,559.59h-13V516.1h16.42c21.81,0,25.7,28,13.48,38.13C415.59,557.7,410.46,559.59,402.91,559.59ZM366.68,498.7V578h39.61c17.54,0,32.26-7.52,39.46-21.91,7.79-15.58,4.69-38.12-10.25-49.35-8.53-6.4-18.91-9.45-33.55-9.45H368.13c-1.11,0-1.45.34-1.45,1.45Z"/><path class="cls-1" d="M886.51,539.3c0-7,.75-12.63,5.91-17.77,8.11-8.08,19.93-8.56,28.81-2,9.7,7.19,10.71,25.44,2.13,34.39a22.2,22.2,0,0,1-24,4.85,21.19,21.19,0,0,1-12.89-19.48ZM863.32,535c0,9.49-.12,12.79,4.34,21.74,2.77,5.55,4.45,7.06,8.58,11.24,5.41,5.48,17.4,11.48,28.14,11.48,13,0,22.65-1.38,32.92-9.6,1-.8,2-1.53,3-2.36l4.65-5.5a41.29,41.29,0,0,0,3.93-6.7c11.72-23.7-3-59.45-41.55-59.45-11,0-22.59,3.92-30.55,11-6.42,5.7-13.41,16.27-13.41,28.15Z"/><path class="cls-1" d="M108.22,407.37a32.41,32.41,0,0,1,1.63-9c6.51-16.44,26.39-17.19,35.46-7.33,11.29,12.29,6.77,39-15.84,39a20.89,20.89,0,0,1-13.68-5.15l-.77-.69a23.81,23.81,0,0,1-6.8-16.87Zm-23.19,0c0,20.81,14,36.19,33.71,40.7,8.24,1.89,20.19,1.17,28.06-1.62,6.89-2.45,10.3-5.08,15.32-9.33l1-.91c8.76-9.36,11.27-18.29,11.27-31.25,0-19.95-16.27-35.45-35.67-38.74-19.71-3.35-41.7,5-49.84,23.27A45,45,0,0,0,85,407.37Z"/><path class="cls-1" d="M561.37,407.37c0-29.66,43-31.38,43,1C604.37,437,561.37,437.91,561.37,407.37Zm-23.19-.48c0,21.2,13.72,36.88,34.11,41.27,13.18,2.84,31.53-.2,41.39-9.73,10.15-9.8,13.88-18,13.88-33,0-11.37-4.62-18.48-10.82-26.39-1.13-1.43-1.56-1.37-2.82-2.49L607.85,372c-6.42-4-18.4-7.06-25.69-6.68-24.61,1.29-44,16.89-44,41.58Z"/><path class="cls-1" d="M798.1,405l-1,.55Zm1-.49-1,.49Zm1-.48-1,.48Zm1-.48-1,.48Zm1-.49-1,.49Zm0,0c.75-1,5.47-3.4,6.92-4.19,2.58-1.38,4.78-2.39,7.41-3.7,30.79-15.4,37.4-17.52,71.36-28.65,20.2-6.62,43.64-10,64.84-13,11.74-1.65,52.82-4.06,63.69-2.42l10.43.69c6.89.21,23.13,2.63,29.43,3.9l18.39,3.84c6.48-.16,8.64-9.6,1.9-12.05-4.1-1.5-23.24-3.92-28.67-4.67-14-1.91-34-1.85-48.13-1.67l-26,2c-38.25,3.62-79.88,14.27-115.3,29.16-10.87,4.57-20,9.2-30.16,14.29-2.55,1.28-4.78,2.66-7.25,3.87-8.31,4.09-20.4,12.14-28.5,16.43,1.13,1.69,1.19,1.35,3,.6,1.55-.65,2.2-1,3.74-1.64,13.62-5.49,24.94-9.75,38.78-14.36,5.41-1.81,10.92-3.89,16.37-5.38,2.74-.75,5.42-1.64,8.21-2.42,20.2-5.59,40.85-11.19,61.8-13.57,6.16-.7,12.57-1.71,19.37-1.89l10.14-.48c3.7,0,7.41,0,11.12,0l15.45.49c2.15.11,2.32.47,4.81.5,24.65.29,62.32,5.29,85.53,11.1,10.06,2.52,11-4.86,9.06-8.57-1.28-2.52-4-2.95-7.08-3.56-16-3.19-22.51-3.54-37.11-5.41-6-.77-14-.83-20.08-1.66-3.31-.46-6.84.1-10.21-.41-3.77-.57-16,0-21.07-.19-2.42-.07-2.45-.49-4.82-.53-2.56-.05-2.83.46-5.3.53-7,.21-14.49-.32-20.86.4-7.14.8-10.84.33-20,1.78a403.06,403.06,0,0,0-69,17c-11.11,3.71-21,7.44-31.63,11.37-5,1.83-10.21,4.16-15.12,6.14-2.55,1-13.77,6.22-15.39,6.35Z"/><path class="cls-1" d="M286.48,498.7V578h64.74V560.08h-42v-14.5h35.75V528.66H309.19V515.13h40.58V498.7c0-1.11-.34-1.45-1.45-1.45H287.93C286.82,497.25,286.48,497.59,286.48,498.7Z"/><path class="cls-1" d="M464.27,544.61a39.92,39.92,0,0,0,2.89,14.51,28.25,28.25,0,0,0,6.89,10.5c8.72,8.73,18.05,9.79,30.8,9.79,20.06,0,34.78-14.8,34.78-33.35V497.25H518.38c-2.31,0-1.45,3.92-1.45,8.22v30c0,8.67,1,18.1-6.55,22.93-5.49,3.53-15.73,3.12-20.44-4.15-2.37-3.68-3-10.35-3-16.36v-40.6h-22.7v47.36Z"/><path class="cls-1" d="M798.58,408.82c.51-.51,1.83.77.54.25C799.11,409.07,797.77,409.63,798.58,408.82Zm1.45-.48c.51-.52,1.83.76.54.25C800.56,408.58,799.22,409.15,800,408.34Zm-5.8,1c.79,3,2.92,1.5,9.78.13,9.14-1.83,35.09-5.38,43.36-5.45l19.68-1.09c3.86-.53,9.34.07,13.45-.55s30.81-.28,36.44-.28c37.45,0,86.48,3.51,122.23,13,6,1.6,11.73,3.24,17.7,5,10.61,3.15,20.88,9.18,23.3.7,2.29-8.05-8.57-9.07-17.91-11.41-18.88-4.72-30.41-7.32-50-9.91l-18.37-1.92c-2.14-.28-7-.71-9.31-.83-20.23-1-41.37-.89-61.84-1-3.51,0-5.26.47-8.2.51-6.34.07-11.44.48-17.42.45l-33.32,2.42c-7.29.32-24.53,2.65-32,3.73l-22.66,3.91c-2.08.49-5.59,1.5-7.63,1.55,1.75-1.22,12.55-4.16,14.55-4.77,32.35-10,82.06-19.39,115.89-19.39,51.28,0,74,2.09,119.85,11.55l22.18,5.84c6.79,0,10.44-10.05.5-12.57-12-3-23.68-5.22-36.18-7.31-6.35-1.06-24.52-3.15-31-3.3l-8.22-.48c-9.28-.26-14.33-1-25.1-1-45.49,0-63.63.37-107.93,10.44a502.44,502.44,0,0,0-67.16,20.28,40.92,40.92,0,0,1-4.63,1.65Z"/><path class="cls-1" d="M184.06,407.37c0,28.09,24.63,45.93,55.36,40.88a60.35,60.35,0,0,0,12.76-3.68c1.76-.77,10.15-4.33,10.15-6.27V405.44H242v22.23c-4.67,1.09-5.73,2.41-12.08,2.41-12.57,0-22.22-8.92-22.22-20.78,0-7.78.3-12.73,6.39-18.73,8.33-8.22,22.24-7.66,32-.33,1.6,1.21,2.23,2.17,3.65,3.12l10.74-9.55c1.32-1.34,2.91-2.24,3.75-3.5-3.71-5.54-13.4-11.28-21.15-13.16-17.82-4.32-39-.4-50.36,14.6a43,43,0,0,0-8.69,25.62Z"/><path class="cls-1" d="M789.88,398.67l.15.15S789.84,398.72,789.88,398.67Zm.49-1,.14.14S790.32,397.75,790.37,397.71Zm1.45-1.94-.49,1Zm.48-1-.48,1Zm0,0,17.82-44.52c1-2.86,1.8-4.93,2.77-7.85s1.67-5.19,2.74-7.9l7.38-24a364.55,364.55,0,0,0,12.22-61.23c.54-5.09,1.54-35.7.9-40.39-.71-5.21-.09-10.79-.35-15.6-.11-2.15-.48-2.31-.5-4.81-.08-6.56-3.72-60.65-8.58-64.87-3.34-2.91-11.79-1.75-9.91,7.49.64,3.13,1.22,5.5,1.88,8.76,2.27,11.25,4.23,24.61,5.51,36l1.94,19.32c.08,3.18.24,6.28.51,9.65l.92,20.34c0,3,.5,4.33.5,10.13,0,25.07-3,42.73-7.76,65.68-2.45,11.93-7.75,30.47-11.14,41.54-4.73,15.42-10.27,31.69-16.23,46.59l-4.6,11.41c-.74,1.77-1.1,1.81.6,2.95l30.59-55.9c3.36-6.67,10.54-23.32,13.07-30.42,20-56.34,23-88.52,19.63-152.41-.14-2.63-.63-7.2-.9-9.73l-1.91-19.83c-.61-4.88-.18-14.71-8.68-12.88-6.89,1.49-3.83,11-3,15.86l3.79,29.08c.37,3.55.33,6.3.84,9.79.76,5.21,1,15.05,1.15,20.59.07,2.39.45,2.41.52,4.8.18,6.11.74,23.16.19,26.8l-1.32,20.43c-4.3,33.86-9.92,55.52-22.28,86.44-7.28,18.19-12.34,28.11-20.57,44.66l-7.73,14Z"/><path class="cls-1" d="M786,398.19l.14.14S786,398.24,786,398.19Zm.48-1.45c0-1.24.77-.08.29,0C786.78,396.74,786.5,398.09,786.5,396.74Zm1-2.42c0,2.47,0,.81-.49,1.45C787,393.22,787,395.05,787.47,394.32Zm0,0c0-2.44,1-5.79,1.54-8.11,5.55-23.43,8.27-58,9.57-82.74.11-2.12.43-2,.5-4.33,0-1.59-.08-3.27,0-4.86.07-2.31.38-2.21.5-4.33.16-3.05-.27-6.63.07-9.6.71-6.35.41-22.07.41-29.07,0-41.27-2.91-68.84-10.67-106.27-.82-4-3.74-19.68-7.11-21.88-3.7-2.4-11.44-.07-9.2,7.74,6.69,23.3,8.39,28.19,13.25,54.9,1.57,8.66,4,26.18,4.53,34.6.19,2.82.53,6.38.85,8.82l1.59,27.89c0,6.79.48,11.93.48,18.85l-1,57.44c-.27,2.45-.21,6.33-.61,9-1.05,6.95-1.13,17.6-2.42,27.06-1.09,8-2.11,17.33-3.86,25.13-.7,3.11-2.49,6.13.68,7l10.33-29.78c3.42-10.19,6.34-21,9-31.59,1.31-5.26,2.69-10.75,3.74-16.07,7.61-38.55,9.3-50.16,9.3-91.69,0-5.51.55-15.14-.2-20.09l-1.75-28.22c-.63-11.51-5.22-42-7.81-53.08-.73-3.12-.62-5.32-2.82-7.33-4.11-3.76-11.34-.7-9.95,6.56l3.89,16.42c2.52,11.33,4.44,22.46,6.11,34.49,10.22,73.8,5.6,128.2-13.94,197.77-.49,1.75-3.85,13.8-4.93,15.36Z"/><path class="cls-1" d="M681.18,520.93h1c1,4.45,8.92,21.1,9.18,24.17H672a41.86,41.86,0,0,1,2.21-6c1.4-3.5,6.82-16.28,7-18.16Zm-45.89,57h23.19l6.28-15.47h33.82L704.86,578h23.67c-.16-1.93-1.26-3.45-2-5.25l-33.27-75.46h-22.7a37.34,37.34,0,0,1-2.1,5.16L635.29,578Z"/><path class="cls-1" d="M447.84,152.7v90.37H486V152.7c0-1.11-.34-1.45-1.45-1.45H449.29C448.18,151.25,447.84,151.59,447.84,152.7Z"/><path class="cls-1" d="M815,381.76l-.49.48Zm0,0c.65-2.44,3.11-3.57,4.62-5.52,4.33-5.6,8.82-10.32,14.08-17.33,3.12-4.16,5.82-7.69,8.73-12l4.06-6.09c9.12-14.24,10.9-17.88,18.75-33.44,9.13-18.08,16.56-43.49,19.47-63.64l1.8-19c.09-7.28-.31-13.63-.48-20.33-.06-2.32-.39-2.2-.5-4.34-.33-6.05-.06-7.42-.9-15.05l-1.5-19.27c-.43-7.64-4.85-36.71-4.85-36.71h-.48c0,7.12,1.27,12.58,1.46,19.31l.68,20.11c.93,6.18.14,22.76.26,31.15,0,2.34.53,3,.43,4.74-1.83,31.14-4.53,46-14.12,74.79-6.91,20.74-16.44,39.45-26.23,57.37l-9.36,16.25c-.65,1.12-1.3,1.94-2.07,3.24l-8.06,12.72-4.25,6.38c-1.41,2.12-7.88,11.34-8.31,13,3.06-.81,23.2-14.5,26.09-16.43,50.78-33.87,94-46.88,158.37-54.21,2.47-.28,7.12-.82,9.74-.89,1.74-.06,3.59.08,5.34,0,2.39-.07,2.42-.45,4.8-.52,18.39-.55,23.64.32,41.06,1.49,3,.2,6.31.66,9.54,1.09,2.8.37,6.64,1.3,9.81,1.3-.1-.06-.26-.27-.31-.18l-3.26-1.08c-1.64-.4-2.69-.58-4.35-1-12.32-2.81-34.54-6.08-46.68-6-6.62.05-13.55-1.32-20.64-.35-5.55.76-21.87.36-29.88,1.52l-45.33,7.82c-38.59,9.61-61.78,24.06-90.35,46.37-2.17,1.69-3.69,3.17-5.73,4.9l-5.77,4.86a64.23,64.23,0,0,1-5.68,4.95Z"/><path class="cls-1" d="M0,406.89c0,32.13,30,48,58,40.6,7.76-2.06,16.3-6.86,20.77-13.54l-6.88-6.65c-1.38-1.28-2.21-1.68-3.63-3.13-1.66-1.68-1.87-2.15-4-3.27-3.82,2.56-7,9.18-19.32,9.18-16.72,0-25.64-17-20.1-31.7,5.47-14.56,22.9-16.58,32.1-10.74a37.39,37.39,0,0,1,3.62,2.66c2.2,1.76,1.69,1.26,3.22,3.54,1.84-.49,14.14-11.8,15-13C61.05,354.36,0,361.52,0,406.89Z"/><path class="cls-1" d="M410.16,407.37c0,29.76,28.56,47.9,58,40.12,7.48-2,17.6-7.56,20.77-13.54-1.52-2.27-8.14-7.72-10.75-10-1.43-1.27-1.89-2.82-4.23-3-1.08,4.06-10.93,9.18-18.84,9.18-11.78,0-21.26-9-21.26-20.78,0-5.25-.29-7.81,2.08-12.89a18.06,18.06,0,0,1,4.56-6.08c6.5-6.52,18.37-7.4,26.38-2.93a28.87,28.87,0,0,1,4,2.77c1.37,1.06,2.64,1.93,3.1,3.67,2.25-.19,9.36-7.75,11.67-9.59,1.32-1.06,2.83-2.16,3.31-3.94-4.13-6.16-13.34-11.06-20.71-13.11C439.9,359.34,410.16,377.13,410.16,407.37Z"/><path class="cls-1" d="M554.13,536.88c0,13,3.75,21.85,12.19,30.32,7.32,7.34,18.5,12.21,28.87,12.21,10.19,0,15.35.06,24.8-4.68,4.65-2.33,10-6,12.88-10.31-1.75-2.62-4.59-4.3-6.88-6.64a36.67,36.67,0,0,0-3.6-3.16c-1.41-1.18-2-2.25-3.53-3.24-2.85.76-10.14,12.81-26.38,8a20.87,20.87,0,0,1-10.83-7.54c-9.63-13.45-2.73-36.74,16.44-36.74,8.14,0,10.69,1,16.64,5.59,1.44,1.12,2.67,1.75,3.17,3.6,1.31-.35,9.56-7.84,11-9.3a18.63,18.63,0,0,1,4-3.27c-.93-4-9.53-9.74-13.19-11.44-28.08-13.08-65.55,2.7-65.55,36.57Z"/><path class="cls-1" d="M732.88,537.36c0,16.84,9.71,32.24,24.21,38.12,12.91,5.23,29.35,5.67,41.82-.58,4.07-2,10.4-7,12.71-10.48-1.24-1.85-8.77-8.53-10.7-10.07-1.47-1.18-2.25-2.43-3.79-3.46-4.43,6.62-14.86,11.77-25.9,8.52a20,20,0,0,1-13.78-13.76c-4.73-15.22,4.28-30.52,19.39-30.52h3.38c6.61,0,14.29,5.27,16.91,9.19,2.72-1.83,4.61-4.31,7.17-6.36l7.32-6.69c-.46-1.72-4.31-5.17-5.78-6.29-26.66-20.27-73-6.18-73,32.38Z"/><path class="cls-1" d="M915.49,175.42c0,23.91-1.57,44.21-7.15,66.3C903,263.11,899.47,272.15,891,292c-2.11,4.94-5,10.09-7.38,14.84-2.56,5.11-5.09,10-7.73,15l16.43-6.76A288.74,288.74,0,0,1,943,295.74c14.93-4.17,42.64-9.63,58.94-10.63,3.5-.21,7-1,10.62-1,3.89,0,7.13-.48,11.6-.48,16.73,0,24.54-.33,41.34,2.14A85,85,0,0,0,1074,287l-10.14-2.9c-8.13-2-27.14-4.83-35.25-4.84-3.32,0-10.32-.48-12.28-.21-4.27.59-9,.15-13.36.2l-12.09,1c-34.42,2.62-60.91,9.05-91.41,22.12-1.62.7-3.32,1.34-4.7,2.07A41.82,41.82,0,0,1,897,299c.82-1.9,1.71-3.92,2.56-5.66,12-24.64,20.77-64.95,20.77-91.82a351.84,351.84,0,0,0-2-41.48l-3.42-23.64c-.49-2.4-.78-5.88-1.81-7.36,0,3.74.88,7.55,1,11.11l1.16,23c.58,3.79.28,8.25.28,12.29Z"/><path class="cls-1" d="M373.44,447.48h21.74c1.12,0,1.45-.34,1.45-1.45V368.71c0-1.11-.33-1.45-1.45-1.45H373.44Z"/><polygon class="cls-1" points="825.15 577.96 847.86 577.96 847.86 497.25 825.15 497.25 825.15 577.96"/><polygon class="cls-1" points="501.47 447.48 524.17 447.48 524.17 367.26 501.47 367.26 501.47 447.48"/><path class="cls-1" d="M957.52,160c0,25.69-4.84,45.75-11.65,64.7-8.65,24-12.18,27.56-21.37,45.8-1.16,2.31-2.81,4.71-3.21,6.45,2.54-1.22,6-2.3,8.7-3.39l25.74-11c5.82-2.51,11.66-4.63,17.92-6.71a254.78,254.78,0,0,1,39.4-9.4c12-1.66,16.1-2.22,28.07-2.36,5.48-.07,2.89-1.08,11.65-.09,1.92.21,4.25,0,6.22.05,6.52.08,18.6,2.43,22.21,2.43-1.52-1-8.61-2.51-10.53-3-10-2.53-14.41-2.21-23.49-3.56-2.3-.34-4.27,0-6.54-.23-9.51-.78-10.61-.28-20.33,0-21.33.64-51.08,8.57-70.45,16.51-2,.81-9.1,4.15-10.7,4.29.54-2.28,2.9-6.17,4-8.53,2.9-6.06,4.9-11.69,7.28-17.85a184.32,184.32,0,0,0,8.62-30c5.12-26.52,3-56.91-3-82.76a.59.59,0,0,0-.13.32,1.23,1.23,0,0,1-.11.33l.72,12.89c.11,2.14.48,2.31.51,4.81.09,7.21.46,12.92.46,20.31Z"/><path class="cls-1" d="M444,125.16c0,25.62,45.89,26.14,45.89-.48C489.87,99.16,444,99.61,444,125.16Z"/><path class="cls-1" d="M993.76,136.27c0,24.95.24,33.84-7.92,58.29-3.82,11.49-6,15.64-11.25,26-1.46,2.88-3,5.27-4.51,8,3.4-.28,22.63-7.82,27.85-9.35,26.86-7.9,35.79-9.49,65.39-9.49a105.88,105.88,0,0,1,19.81,1.93c-1.07-1.47-5.9-2.33-7.82-2.8-25.86-6.41-51.67-4.87-77,2.48-3.2.93-9.63,3.48-12.24,3.7,11.24-23.44,14.77-51.32,10.91-77.6-.47-3.19-.94-5.92-1.53-9.1l-1.41-6.8c-.72-2.17.42-1-1.21-1.7.76,1.59,1,13.31,1,16.43Z"/><path class="cls-1" d="M1155.6,34.79c0,13.39-2.74,23.37-7.39,35.14l-3.24,9.8c3.86-2,10.77-6.49,14.35-7.87,15.18-5.89,42.81-5.52,56.26,4.41,4.3,3.18,5,5,6.2,5.88-.57-6.88-10.57-13.75-16.58-16.76-11.18-5.59-22.82-6.46-36-5.43-2.79.22-5.64,1.19-8.25,1.41,2.06-4.28,2.9-15.76,2.9-21.74,0-16.85-9.83-35.73-26.57-39.63,1.34,1.83,7.87,4.3,12.89,13.69A46.6,46.6,0,0,1,1155.6,34.79Z"/><path class="cls-1" d="M1004.87,42.53c1.92-.16,1.16-.49,2.41-.49,10,0,19,4.73,25.25,11l5.81,6.74c2.63,3.47,4.68,7.8,6.63,11.73,1.83,3.68,6.83,19.35,7.72,23.2h1c.7-3,6.62-12.69,8.7-15.46,4.46-5.94,6.15-7.58,12-12.67,6.87-6,20.74-13.63,30.26-12.2a55.53,55.53,0,0,0,5.59.71c-4-3.45-10.15-4.35-15.45-4.35-11.88,0-23.31,7.09-31.75,14.16-1.39,1.17-2.56,2.53-3.89,3.84-3.47,3.45-1.84,3.18-4,3.75-.86-3.7-4-8.91-6-11.9A55.55,55.55,0,0,0,1036,46.67a39.69,39.69,0,0,0-5.84-3.34c-7.15-3.61-21.76-5.62-25.28-.8Z"/><path class="cls-1" d="M1149.32,114c0,10.54-2.4,17.4-8.22,25.13-5.64,7.52-14.42,14.21-22.55,19-1.65,1-5.47,2.9-6,4.68,4.31.1,15.11,3.45,18.52,5.16,15.19,7.61,30.27,23.6,30.27,41.72,1.91-1.4,1.94-7.06,1.94-9.67,0-13.38-10.92-28.71-20.77-35.76-.87-.63-1.59-1.1-2.55-1.8a19.62,19.62,0,0,0-5.67-3c.48-1.81,1.81-2,5-5.2,11.55-11.56,18.6-27,12.38-43.55-.79-2.09-2.54-5.17-4.29-6.34C1148.12,107.54,1149.32,110,1149.32,114Z"/><path class="cls-1" d="M1017.91,181.7l14.77-3.11a85.42,85.42,0,0,1,16.64-1.72c3.51,0,5.43-.75,8.66-.47a86.43,86.43,0,0,0,8.74.45,83.22,83.22,0,0,1,8.55.63c1.77.23,6.35.84,8.34.84l-3.18-1.65c-1.55-.52-2.55-.83-4-1.32-13.52-4.52-21.14-4.77-35.33-4.77-4.1,0-6.8.9-10.14,1,3.72-7.76,2.85-18.67,2.89-26.09,0-3.32-2.39-22.74-5.31-26.1,0,18.29,1.82,40.85-7.45,56.34-1.29,2.15-2.06,3.89-3.18,6Z"/><path class="cls-1" d="M728.53,638.36h4.83l.79-14.32c.35.91.41,1.3.73,2.17.46,1.24.94,2.35,1.44,3.87.89,2.69,2.18,5.45,2.84,8.28H744a67.48,67.48,0,0,1,2.83-8.28l3-8.15v16.43h5.31V614.68h-7.73c-1.08,4.63-5,13-5.31,16.43-.35-.5,0,.15-.52-.93a8.62,8.62,0,0,1-.4-1l-3.61-10.89c-1.35-4.29.17-3.56-9-3.56v23.68Z"/><path class="cls-1" d="M986,616.13v22.23h5.79c0-4.67.53-11.11-.48-15.46.94.68,9.71,13.84,10.15,15.46h6.28V616.13c0-1.88-1.24-1.45-4.35-1.45-2.92,0-1.18,14.53-1,15-1.5-.54-.49.09-1.57-1.32-1.74-2.26-7.71-13.66-10-13.66C987.39,614.68,986,614.2,986,616.13Z"/><path class="cls-1" d="M325.62,322.8h6.28V312.17c2.56,1.72,7.12,10.63,9.18,10.63h4.34V301.54c0-1.92-1.37-1.45-4.83-1.45-2.1,0-1.49,2.59-1.46,4.83,0,2.09,0,4.19,0,6.29C336,308.9,332,300.09,330,300.09h-4.34V322.8Z"/><path class="cls-1" d="M571.52,361c4.48,0,9.09.11,13.56,0,3.46-.06,4.2-1.68,8.72-5.28l14.13-11.48c.68-.76.39-.06.79-1.15H588.41c-2.15.22-3,1.67-4.19,3.05-.75.9-.67,1-1.47,1.91-2.83,3.18-9.13,9.78-11.23,12.93Z"/><path class="cls-1" d="M896.65,491.46c4.37,0,9.26.21,13.55,0,2.95-.13,5.25-2.74,8.56-5.45l15.09-12.45-20.33,0c-2.6.14-3.1,1.33-4.31,2.93-1.81,2.4-4.43,4.79-6.35,7.18-1.48,1.85-5.63,5.65-6.21,7.81Z"/><path class="cls-1" d="M680.7,322.8h5.8V311.69c.83.61,7.84,9.71,8.21,11.11H700V300.09h-5.8v11.12c-2.54-1.7-7.48-11.12-9.66-11.12H680.7V322.8Z"/><path class="cls-1" d="M855.59,634h-1.45v-14.5c4.7,0,9.66,1.14,9.66,6.77a11,11,0,0,1-2,5.69c-1.28,1.47-3.55,2-6.17,2Zm-7.25-17.88v22.23c8.29,0,21.26,1.79,21.26-12.08,0-4.45-1.64-7.29-4.26-9.27-3.44-2.6-10.55-2.33-15.55-2.33-1.11,0-1.45.34-1.45,1.45Z"/><path class="cls-1" d="M221.75,317.49h-3.87V305.41h2.42C229.41,305.41,228.37,317.49,221.75,317.49Zm-9.67,5.31c10.93,0,20.78,1.79,20.78-12.56,0-5.88-5.09-10.15-11.6-10.15h-9.18V322.8Z"/><path class="cls-1" d="M648.33,312.66c0-11.11,10.15-7.54,10.15-2.42,0,5.36-.54,7.25-6.28,7.25C650.72,317.49,648.33,315.27,648.33,312.66Zm-6.28-1.45c0,15.92,22.71,16.41,22.71,0C664.76,295.85,642.05,296,642.05,311.21Z"/><path class="cls-1" d="M59.91,311.21a7.13,7.13,0,0,1-2.42.48h-2.9v-6.28H57c3.73,0,4.42,3,2.9,5.8ZM48.31,322.8h6.28V317c3,0,2.77,0,3.87,1.92.84,1.49,1.49,2.5,2.41,3.87h6.28c-1.27-2.41-2.63-4.43-3.86-6.76,2.23-3.33,3.38-2.05,3.38-8.22a7.67,7.67,0,0,0-2.53-5.68c-3.22-2.83-10.81-2.05-15.83-2.05V322.8Z"/><path class="cls-1" d="M163.77,317.49c-3.61,0-5.79-1.09-5.79-6.77,0-7.46,10.63-6.46,10.63.49,0,3.07-1.68,6.28-4.84,6.28Zm-12.07-6.28c0,16.3,22.7,15.37,22.7,1.45v-2.42c0-8.42-11.37-14.95-19.22-7.15A12.73,12.73,0,0,0,151.7,311.21Z"/><path class="cls-1" d="M809.69,625.31c0,3.79-.12,7.3,3,10.49,4.91,4.93,17.72,3.19,17.72.14V624.83H820.32v4.83h4.35V634c-5.4,0-9.18-.11-9.18-7.73,0-10.23,12.39-5.93,14-5.8v-4.83c-2.53-1.21-5.78-1-8.7-1-5.53,0-11.11,5.15-11.11,10.63Z"/><path class="cls-1" d="M396.63,301.54V322.8h16.43v-5.31H402.91v-3.38h8.7v-5.32h-8.7v-3.38h10.15c0-6.94,2.37-5.32-15-5.32-1.11,0-1.45.34-1.45,1.45Z"/><path class="cls-1" d="M82.61,313.14c0,13.26,19.33,14.47,19.33-1V300.09c-7.8,0-6.3-1.5-6.28,9.18,0,7.71.24,8.22-4.35,8.22-5.79,0,.51-17.4-3.87-17.4H82.61Z"/><path class="cls-1" d="M248.8,322.8h16.43v-5.31H254.6v-3.38c10.71,0,9.18,1.27,9.18-5.32H254.6v-3.38h10.14v-5.32H248.8V322.8Z"/><path class="cls-1" d="M12.08,311.21c0,3.75.73,6.24,3.24,8.84,6,6.27,16.57,2.06,16.57-.63v-8.7H26.57c0,7.66.79,6.77-3.86,6.77-5.58,0-6.82-12.08,1.45-12.08l3.09,1.25c.73.75.38.08.77,1.16,1.9-.5,3.37-2.41,4.35-3.86A7.33,7.33,0,0,0,29,301C21.26,297.07,12.08,302,12.08,311.21Z"/><path class="cls-1" d="M514,311.21c0,7.14,4.35,12.08,11.59,12.08,4.52,0,5.11-1.69,8.22-2.42V310.72h-5.32c0,7.76.88,6.77-4.35,6.77-4.51,0-6.7-12.08,1.94-12.08,2.27,0,3.46,1.5,4.83,2.41l3.48-3.76c-5.45-8-20.39-4.95-20.39,7.15Z"/><path class="cls-1" d="M127.54,311.69h-2.9v-6.28c2.68,0,3.45-.16,5.8,1C130.8,307.89,132,311.69,127.54,311.69Zm-9.18,11.11h6.28V317c3.84,0,9.67.37,11.67-4.76,1.48-3.78.85-7.42-1.86-9.89-3.44-3.12-10.58-2.27-16.09-2.27V322.8Z"/><path class="cls-1" d="M1035.3,621l3,8.19-5.38,0c.21-2.59,1.8-5.6,2.41-8.22Zm-11.11,17.4h5.8l1.52-4.81,8.14,0,1.52,4.81,6.21,0-8.7-23.68h-6.28a59.22,59.22,0,0,1-2,5.74l-4.23,11.72C1025.48,634.1,1024.38,636.07,1024.19,638.36Z"/><path class="cls-1" d="M783.6,621c.08,3.41,1.86,4.81,1.94,8.22H780.7a11.76,11.76,0,0,1,1-4.29c.53-1.6.61-3,1.87-3.93Zm-12.07,17.4h6.28a16.17,16.17,0,0,1,1.45-4.83h8.21a16.46,16.46,0,0,0,1.45,4.83h5.79c-.91-3.93-2.68-7.91-4-11.9l-4.17-11.78h-6.28l-8.69,23.68Z"/><path class="cls-1" d="M895.68,620.48c.62,2.66,2.23,6.39,2.42,8.7-3.72,0-5.77,1-4.72-2.2.4-1.22.75-2,1.16-3.3Zm-11.59,17.88h5.8a16.77,16.77,0,0,0,1.45-4.83h8.21a16.77,16.77,0,0,1,1.45,4.83h6.28L903,626.22c-4.6-12.81-2.7-11.54-9.24-11.54-2,0-4.14,8.09-5.25,11.18Z"/><path class="cls-1" d="M559.92,307.34c.57,2.44,1.73,3.78,1.94,6.28h-4.35a18.83,18.83,0,0,1,1.1-3.25c.16-.4.32-.9.52-1.4.06-.14.22-.56.28-.69C559.85,307.34,559.55,307.88,559.92,307.34ZM547.85,322.8h6.28c.38-1.63,1-2.48,1.45-4.34h8.21a23.76,23.76,0,0,1,1.45,4.34h6.28L565,306.1a52.8,52.8,0,0,1-2.21-6H557a56.13,56.13,0,0,0-2.28,5.46l-6.9,17.25Z"/><path class="cls-1" d="M428,306.86c0,8.05,9.39,6.16,11.6,9.18-1.16,4.35-7.93.52-10.15,0-.46,2-1.29,2.93-1.45,4.83,4.84,3.24,17.4,5,17.4-5.8,0-4.43-4.63-5.37-7.45-6.08-1.93-.49-2.13-.81-3.66-1.17.11-5.25,6.25-2.25,8.69-1,.48-2.08,4.85-7.25-5.8-7.25a12.69,12.69,0,0,0-6.31,1.89,8.66,8.66,0,0,0-2.87,5.36Z"/><path class="cls-1" d="M368.13,322.8h6.28c.17-2,3.14-8.95,4.07-11.39.85-2.24,4-9.66,4.14-11.32h-5.79c-1,2.07-4.15,12.8-5.8,14-.15-1.76-1.78-5.32-2.34-6.84a58.08,58.08,0,0,1-2.49-7.18h-6.28c.07,3.47,7.35,19,8.21,22.71Z"/><path class="cls-1" d="M595.19,323.29c4.62,0,7.52-1.16,9.66-4.35l-3.48-3.77c-2.42,1.57-1.08,2.32-5.7,2.32-6,0-7.19-12.08,1-12.08,2.43,0,2.8,1.38,4.35,2.41l4-3.75a13.25,13.25,0,0,0-3.49-3c-6.83-3.87-16,.26-16.81,9.79-.46,5.39,3.89,12.45,10.52,12.45Z"/><path class="cls-1" d="M954.62,616.13v22.23h14.5V634h-8.7V628.7h7.25v-4.35h-7.25v-4.84c9.16,0,8.21.8,8.21-3.38,0-2.55-5.47-1.45-12.56-1.45-1.11,0-1.45.34-1.45,1.45Z"/><path class="cls-1" d="M459,305.41c8.28,0,6.28-2.94,6.28,17.39H471V305.41h6.28v-5.32H459Z"/><path class="cls-1" d="M923.7,616.13v22.23h14V634H929.5V616.13c0-1.88-1.24-1.45-4.35-1.45C924,614.68,923.7,615,923.7,616.13Z"/><path class="cls-1" d="M668.62,638.36H671V619.51c2.44,1.79,12.1,18.85,14,18.85H687V616.13c0-1.61-.87-1.41-2.41-1.45V634c-1.24-.9-2.43-3.24-3.52-4.7l-6.92-10c-2.71-4.08-2.25-4.64-5.51-4.64v23.68Z"/><path class="cls-1" d="M631.91,616.13c0,13.36-2.12,22.71,9.18,22.71,10.22,0,8.21-12.87,8.21-22.71,0-1.11-.34-1.45-1.45-1.45-2.16,0-1.48,3-1.45,5.31.11,11.91,1.43,16.44-6.76,16.44-5.62,0-4.84-6.85-4.84-9.18,0-4.4,1-12.57-1.44-12.57C632.24,614.68,631.91,615,631.91,616.13Z"/><polygon class="cls-1" points="620.31 322.8 626.11 322.8 626.11 300.09 620.31 300.09 620.31 322.8"/><polygon class="cls-1" points="302.91 322.8 308.71 322.8 308.71 300.09 302.91 300.09 302.91 322.8"/><polygon class="cls-1" points="492.29 322.8 498.09 322.8 498.09 300.09 492.29 300.09 492.29 322.8"/><path class="cls-1" d="M706.31,616.13v22.23h2.89V616.13c0-1.11-.33-1.45-1.45-1.45s-1.44.34-1.44,1.45Z"/><path class="cls-1" d="M650.75,298.64c6.49,0,2.87.29,7.46-3.16,1.43-1.08,1.22-.28,1.72-2.15-4.72,0-4.95-.81-7.75,2.88C651.32,297.35,651.14,297.19,650.75,298.64Z"/><path class="cls-1" d="M1073.47,320.39c0,.05.14-.21.14-.15h0S1073.42,320.34,1073.47,320.39Z"/></g></g></g></g></svg>